G04 #@! TF.GenerationSoftware,KiCad,Pcbnew,(5.1.5)-3*
G04 #@! TF.CreationDate,2020-03-16T22:45:32+11:00*
G04 #@! TF.ProjectId,ADE7816_Breakout,41444537-3831-4365-9f42-7265616b6f75,rev?*
G04 #@! TF.SameCoordinates,Original*
G04 #@! TF.FileFunction,Legend,Top*
G04 #@! TF.FilePolarity,Positive*
%FSLAX46Y46*%
G04 Gerber Fmt 4.6, Leading zero omitted, Abs format (unit mm)*
G04 Created by KiCad (PCBNEW (5.1.5)-3) date 2020-03-16 22:45:32*
%MOMM*%
%LPD*%
G04 APERTURE LIST*
%ADD10C,0.150000*%
%ADD11C,0.300000*%
%ADD12C,0.120000*%
%ADD13C,0.010000*%
G04 APERTURE END LIST*
D10*
X139089047Y-86971666D02*
X139565238Y-86971666D01*
X138993809Y-87257380D02*
X139327142Y-86257380D01*
X139660476Y-87257380D01*
X140565238Y-87162142D02*
X140517619Y-87209761D01*
X140374761Y-87257380D01*
X140279523Y-87257380D01*
X140136666Y-87209761D01*
X140041428Y-87114523D01*
X139993809Y-87019285D01*
X139946190Y-86828809D01*
X139946190Y-86685952D01*
X139993809Y-86495476D01*
X140041428Y-86400238D01*
X140136666Y-86305000D01*
X140279523Y-86257380D01*
X140374761Y-86257380D01*
X140517619Y-86305000D01*
X140565238Y-86352619D01*
X141755714Y-87257380D02*
X141755714Y-86257380D01*
X142231904Y-87257380D02*
X142231904Y-86257380D01*
X142803333Y-87257380D01*
X142803333Y-86257380D01*
X136827142Y-88907380D02*
X137017619Y-88907380D01*
X137112857Y-88859761D01*
X137160476Y-88812142D01*
X137255714Y-88669285D01*
X137303333Y-88478809D01*
X137303333Y-88097857D01*
X137255714Y-88002619D01*
X137208095Y-87955000D01*
X137112857Y-87907380D01*
X136922380Y-87907380D01*
X136827142Y-87955000D01*
X136779523Y-88002619D01*
X136731904Y-88097857D01*
X136731904Y-88335952D01*
X136779523Y-88431190D01*
X136827142Y-88478809D01*
X136922380Y-88526428D01*
X137112857Y-88526428D01*
X137208095Y-88478809D01*
X137255714Y-88431190D01*
X137303333Y-88335952D01*
X138350952Y-87907380D02*
X138684285Y-88907380D01*
X139017619Y-87907380D01*
X140112857Y-88526428D02*
X140874761Y-88526428D01*
X142636666Y-88907380D02*
X142065238Y-88907380D01*
X142350952Y-88907380D02*
X142350952Y-87907380D01*
X142255714Y-88050238D01*
X142160476Y-88145476D01*
X142065238Y-88193095D01*
X143017619Y-88002619D02*
X143065238Y-87955000D01*
X143160476Y-87907380D01*
X143398571Y-87907380D01*
X143493809Y-87955000D01*
X143541428Y-88002619D01*
X143589047Y-88097857D01*
X143589047Y-88193095D01*
X143541428Y-88335952D01*
X142970000Y-88907380D01*
X143589047Y-88907380D01*
X144636666Y-87907380D02*
X144970000Y-88907380D01*
X145303333Y-87907380D01*
X111260000Y-98242380D02*
X111260000Y-97242380D01*
X111736190Y-98242380D02*
X111736190Y-97242380D01*
X111974285Y-97242380D01*
X112117142Y-97290000D01*
X112212380Y-97385238D01*
X112260000Y-97480476D01*
X112307619Y-97670952D01*
X112307619Y-97813809D01*
X112260000Y-98004285D01*
X112212380Y-98099523D01*
X112117142Y-98194761D01*
X111974285Y-98242380D01*
X111736190Y-98242380D01*
X111260000Y-86812380D02*
X111260000Y-85812380D01*
X111736190Y-86288571D02*
X112069523Y-86288571D01*
X112212381Y-86812380D02*
X111736190Y-86812380D01*
X111736190Y-85812380D01*
X112212381Y-85812380D01*
X111259999Y-75382380D02*
X111259999Y-74382380D01*
X112069523Y-74858571D02*
X111736190Y-74858571D01*
X111736190Y-75382380D02*
X111736190Y-74382380D01*
X112212380Y-74382380D01*
X111260000Y-62682380D02*
X111260000Y-61682380D01*
X112307619Y-62587142D02*
X112260000Y-62634761D01*
X112117142Y-62682380D01*
X112021904Y-62682380D01*
X111879047Y-62634761D01*
X111783809Y-62539523D01*
X111736190Y-62444285D01*
X111688571Y-62253809D01*
X111688571Y-62110952D01*
X111736190Y-61920476D01*
X111783809Y-61825238D01*
X111879047Y-61730000D01*
X112021904Y-61682380D01*
X112117142Y-61682380D01*
X112260000Y-61730000D01*
X112307619Y-61777619D01*
X111260000Y-51252380D02*
X111260000Y-50252380D01*
X112069523Y-50728571D02*
X112212380Y-50776190D01*
X112260000Y-50823809D01*
X112307619Y-50919047D01*
X112307619Y-51061904D01*
X112260000Y-51157142D01*
X112212380Y-51204761D01*
X112117142Y-51252380D01*
X111736190Y-51252380D01*
X111736190Y-50252380D01*
X112069523Y-50252380D01*
X112164761Y-50300000D01*
X112212380Y-50347619D01*
X112260000Y-50442857D01*
X112260000Y-50538095D01*
X112212380Y-50633333D01*
X112164761Y-50680952D01*
X112069523Y-50728571D01*
X111736190Y-50728571D01*
X111259999Y-39822380D02*
X111259999Y-38822380D01*
X111688571Y-39536666D02*
X112164761Y-39536666D01*
X111593332Y-39822380D02*
X111926666Y-38822380D01*
X112259999Y-39822380D01*
D11*
X135184285Y-55693571D02*
X135470000Y-55693571D01*
X135612857Y-55765000D01*
X135755714Y-55907857D01*
X135827142Y-56193571D01*
X135827142Y-56693571D01*
X135755714Y-56979285D01*
X135612857Y-57122142D01*
X135470000Y-57193571D01*
X135184285Y-57193571D01*
X135041428Y-57122142D01*
X134898571Y-56979285D01*
X134827142Y-56693571D01*
X134827142Y-56193571D01*
X134898571Y-55907857D01*
X135041428Y-55765000D01*
X135184285Y-55693571D01*
X136398571Y-57122142D02*
X136612857Y-57193571D01*
X136970000Y-57193571D01*
X137112857Y-57122142D01*
X137184285Y-57050714D01*
X137255714Y-56907857D01*
X137255714Y-56765000D01*
X137184285Y-56622142D01*
X137112857Y-56550714D01*
X136970000Y-56479285D01*
X136684285Y-56407857D01*
X136541428Y-56336428D01*
X136470000Y-56265000D01*
X136398571Y-56122142D01*
X136398571Y-55979285D01*
X136470000Y-55836428D01*
X136541428Y-55765000D01*
X136684285Y-55693571D01*
X137041428Y-55693571D01*
X137255714Y-55765000D01*
X137898571Y-57193571D02*
X137898571Y-55693571D01*
X137898571Y-56407857D02*
X138755714Y-56407857D01*
X138755714Y-57193571D02*
X138755714Y-55693571D01*
X139327142Y-55693571D02*
X139684285Y-57193571D01*
X139970000Y-56122142D01*
X140255714Y-57193571D01*
X140612857Y-55693571D01*
X142112857Y-55693571D02*
X142970000Y-55693571D01*
X142541428Y-57193571D02*
X142541428Y-55693571D01*
X143398571Y-56765000D02*
X144112857Y-56765000D01*
X143255714Y-57193571D02*
X143755714Y-55693571D01*
X144255714Y-57193571D01*
X144755714Y-57193571D02*
X144755714Y-55693571D01*
X145327142Y-55693571D01*
X145470000Y-55765000D01*
X145541428Y-55836428D01*
X145612857Y-55979285D01*
X145612857Y-56193571D01*
X145541428Y-56336428D01*
X145470000Y-56407857D01*
X145327142Y-56479285D01*
X144755714Y-56479285D01*
X147112857Y-57193571D02*
X146612857Y-56479285D01*
X146255714Y-57193571D02*
X146255714Y-55693571D01*
X146827142Y-55693571D01*
X146970000Y-55765000D01*
X147041428Y-55836428D01*
X147112857Y-55979285D01*
X147112857Y-56193571D01*
X147041428Y-56336428D01*
X146970000Y-56407857D01*
X146827142Y-56479285D01*
X146255714Y-56479285D01*
X130827142Y-38970000D02*
X131541428Y-38970000D01*
X130684285Y-39398571D02*
X131184285Y-37898571D01*
X131684285Y-39398571D01*
X132184285Y-39398571D02*
X132184285Y-37898571D01*
X132541428Y-37898571D01*
X132755714Y-37970000D01*
X132898571Y-38112857D01*
X132970000Y-38255714D01*
X133041428Y-38541428D01*
X133041428Y-38755714D01*
X132970000Y-39041428D01*
X132898571Y-39184285D01*
X132755714Y-39327142D01*
X132541428Y-39398571D01*
X132184285Y-39398571D01*
X133684285Y-38612857D02*
X134184285Y-38612857D01*
X134398571Y-39398571D02*
X133684285Y-39398571D01*
X133684285Y-37898571D01*
X134398571Y-37898571D01*
X134898571Y-37898571D02*
X135898571Y-37898571D01*
X135255714Y-39398571D01*
X136684285Y-38541428D02*
X136541428Y-38470000D01*
X136470000Y-38398571D01*
X136398571Y-38255714D01*
X136398571Y-38184285D01*
X136470000Y-38041428D01*
X136541428Y-37970000D01*
X136684285Y-37898571D01*
X136970000Y-37898571D01*
X137112857Y-37970000D01*
X137184285Y-38041428D01*
X137255714Y-38184285D01*
X137255714Y-38255714D01*
X137184285Y-38398571D01*
X137112857Y-38470000D01*
X136970000Y-38541428D01*
X136684285Y-38541428D01*
X136541428Y-38612857D01*
X136470000Y-38684285D01*
X136398571Y-38827142D01*
X136398571Y-39112857D01*
X136470000Y-39255714D01*
X136541428Y-39327142D01*
X136684285Y-39398571D01*
X136970000Y-39398571D01*
X137112857Y-39327142D01*
X137184285Y-39255714D01*
X137255714Y-39112857D01*
X137255714Y-38827142D01*
X137184285Y-38684285D01*
X137112857Y-38612857D01*
X136970000Y-38541428D01*
X138684285Y-39398571D02*
X137827142Y-39398571D01*
X138255714Y-39398571D02*
X138255714Y-37898571D01*
X138112857Y-38112857D01*
X137970000Y-38255714D01*
X137827142Y-38327142D01*
X139970000Y-37898571D02*
X139684285Y-37898571D01*
X139541428Y-37970000D01*
X139470000Y-38041428D01*
X139327142Y-38255714D01*
X139255714Y-38541428D01*
X139255714Y-39112857D01*
X139327142Y-39255714D01*
X139398571Y-39327142D01*
X139541428Y-39398571D01*
X139827142Y-39398571D01*
X139970000Y-39327142D01*
X140041428Y-39255714D01*
X140112857Y-39112857D01*
X140112857Y-38755714D01*
X140041428Y-38612857D01*
X139970000Y-38541428D01*
X139827142Y-38470000D01*
X139541428Y-38470000D01*
X139398571Y-38541428D01*
X139327142Y-38612857D01*
X139255714Y-38755714D01*
X142398571Y-38612857D02*
X142612857Y-38684285D01*
X142684285Y-38755714D01*
X142755714Y-38898571D01*
X142755714Y-39112857D01*
X142684285Y-39255714D01*
X142612857Y-39327142D01*
X142470000Y-39398571D01*
X141898571Y-39398571D01*
X141898571Y-37898571D01*
X142398571Y-37898571D01*
X142541428Y-37970000D01*
X142612857Y-38041428D01*
X142684285Y-38184285D01*
X142684285Y-38327142D01*
X142612857Y-38470000D01*
X142541428Y-38541428D01*
X142398571Y-38612857D01*
X141898571Y-38612857D01*
X143398571Y-39398571D02*
X143398571Y-38398571D01*
X143398571Y-38684285D02*
X143470000Y-38541428D01*
X143541428Y-38470000D01*
X143684285Y-38398571D01*
X143827142Y-38398571D01*
X144898571Y-39327142D02*
X144755714Y-39398571D01*
X144470000Y-39398571D01*
X144327142Y-39327142D01*
X144255714Y-39184285D01*
X144255714Y-38612857D01*
X144327142Y-38470000D01*
X144470000Y-38398571D01*
X144755714Y-38398571D01*
X144898571Y-38470000D01*
X144970000Y-38612857D01*
X144970000Y-38755714D01*
X144255714Y-38898571D01*
X146255714Y-39398571D02*
X146255714Y-38612857D01*
X146184285Y-38470000D01*
X146041428Y-38398571D01*
X145755714Y-38398571D01*
X145612857Y-38470000D01*
X146255714Y-39327142D02*
X146112857Y-39398571D01*
X145755714Y-39398571D01*
X145612857Y-39327142D01*
X145541428Y-39184285D01*
X145541428Y-39041428D01*
X145612857Y-38898571D01*
X145755714Y-38827142D01*
X146112857Y-38827142D01*
X146255714Y-38755714D01*
X146970000Y-39398571D02*
X146970000Y-37898571D01*
X147112857Y-38827142D02*
X147541428Y-39398571D01*
X147541428Y-38398571D02*
X146970000Y-38970000D01*
X148398571Y-39398571D02*
X148255714Y-39327142D01*
X148184285Y-39255714D01*
X148112857Y-39112857D01*
X148112857Y-38684285D01*
X148184285Y-38541428D01*
X148255714Y-38470000D01*
X148398571Y-38398571D01*
X148612857Y-38398571D01*
X148755714Y-38470000D01*
X148827142Y-38541428D01*
X148898571Y-38684285D01*
X148898571Y-39112857D01*
X148827142Y-39255714D01*
X148755714Y-39327142D01*
X148612857Y-39398571D01*
X148398571Y-39398571D01*
X150184285Y-38398571D02*
X150184285Y-39398571D01*
X149541428Y-38398571D02*
X149541428Y-39184285D01*
X149612857Y-39327142D01*
X149755714Y-39398571D01*
X149970000Y-39398571D01*
X150112857Y-39327142D01*
X150184285Y-39255714D01*
X150684285Y-38398571D02*
X151255714Y-38398571D01*
X150898571Y-37898571D02*
X150898571Y-39184285D01*
X150970000Y-39327142D01*
X151112857Y-39398571D01*
X151255714Y-39398571D01*
X130684285Y-40948571D02*
X131041428Y-41948571D01*
X131398571Y-40948571D01*
X132255714Y-40448571D02*
X132398571Y-40448571D01*
X132541428Y-40520000D01*
X132612857Y-40591428D01*
X132684285Y-40734285D01*
X132755714Y-41020000D01*
X132755714Y-41377142D01*
X132684285Y-41662857D01*
X132612857Y-41805714D01*
X132541428Y-41877142D01*
X132398571Y-41948571D01*
X132255714Y-41948571D01*
X132112857Y-41877142D01*
X132041428Y-41805714D01*
X131970000Y-41662857D01*
X131898571Y-41377142D01*
X131898571Y-41020000D01*
X131970000Y-40734285D01*
X132041428Y-40591428D01*
X132112857Y-40520000D01*
X132255714Y-40448571D01*
X133398571Y-41805714D02*
X133470000Y-41877142D01*
X133398571Y-41948571D01*
X133327142Y-41877142D01*
X133398571Y-41805714D01*
X133398571Y-41948571D01*
X134898571Y-41948571D02*
X134041428Y-41948571D01*
X134470000Y-41948571D02*
X134470000Y-40448571D01*
X134327142Y-40662857D01*
X134184285Y-40805714D01*
X134041428Y-40877142D01*
X136612857Y-40591428D02*
X136684285Y-40520000D01*
X136827142Y-40448571D01*
X137184285Y-40448571D01*
X137327142Y-40520000D01*
X137398571Y-40591428D01*
X137470000Y-40734285D01*
X137470000Y-40877142D01*
X137398571Y-41091428D01*
X136541428Y-41948571D01*
X137470000Y-41948571D01*
X138398571Y-40448571D02*
X138541428Y-40448571D01*
X138684285Y-40520000D01*
X138755714Y-40591428D01*
X138827142Y-40734285D01*
X138898571Y-41020000D01*
X138898571Y-41377142D01*
X138827142Y-41662857D01*
X138755714Y-41805714D01*
X138684285Y-41877142D01*
X138541428Y-41948571D01*
X138398571Y-41948571D01*
X138255714Y-41877142D01*
X138184285Y-41805714D01*
X138112857Y-41662857D01*
X138041428Y-41377142D01*
X138041428Y-41020000D01*
X138112857Y-40734285D01*
X138184285Y-40591428D01*
X138255714Y-40520000D01*
X138398571Y-40448571D01*
X139470000Y-40591428D02*
X139541428Y-40520000D01*
X139684285Y-40448571D01*
X140041428Y-40448571D01*
X140184285Y-40520000D01*
X140255714Y-40591428D01*
X140327142Y-40734285D01*
X140327142Y-40877142D01*
X140255714Y-41091428D01*
X139398571Y-41948571D01*
X140327142Y-41948571D01*
X141255714Y-40448571D02*
X141398571Y-40448571D01*
X141541428Y-40520000D01*
X141612857Y-40591428D01*
X141684285Y-40734285D01*
X141755714Y-41020000D01*
X141755714Y-41377142D01*
X141684285Y-41662857D01*
X141612857Y-41805714D01*
X141541428Y-41877142D01*
X141398571Y-41948571D01*
X141255714Y-41948571D01*
X141112857Y-41877142D01*
X141041428Y-41805714D01*
X140970000Y-41662857D01*
X140898571Y-41377142D01*
X140898571Y-41020000D01*
X140970000Y-40734285D01*
X141041428Y-40591428D01*
X141112857Y-40520000D01*
X141255714Y-40448571D01*
X142398571Y-41377142D02*
X143541428Y-41377142D01*
X144541428Y-40448571D02*
X144684285Y-40448571D01*
X144827142Y-40520000D01*
X144898571Y-40591428D01*
X144970000Y-40734285D01*
X145041428Y-41020000D01*
X145041428Y-41377142D01*
X144970000Y-41662857D01*
X144898571Y-41805714D01*
X144827142Y-41877142D01*
X144684285Y-41948571D01*
X144541428Y-41948571D01*
X144398571Y-41877142D01*
X144327142Y-41805714D01*
X144255714Y-41662857D01*
X144184285Y-41377142D01*
X144184285Y-41020000D01*
X144255714Y-40734285D01*
X144327142Y-40591428D01*
X144398571Y-40520000D01*
X144541428Y-40448571D01*
X145541428Y-40448571D02*
X146470000Y-40448571D01*
X145970000Y-41020000D01*
X146184285Y-41020000D01*
X146327142Y-41091428D01*
X146398571Y-41162857D01*
X146470000Y-41305714D01*
X146470000Y-41662857D01*
X146398571Y-41805714D01*
X146327142Y-41877142D01*
X146184285Y-41948571D01*
X145755714Y-41948571D01*
X145612857Y-41877142D01*
X145541428Y-41805714D01*
X147112857Y-41377142D02*
X148255714Y-41377142D01*
X149755714Y-41948571D02*
X148898571Y-41948571D01*
X149327142Y-41948571D02*
X149327142Y-40448571D01*
X149184285Y-40662857D01*
X149041428Y-40805714D01*
X148898571Y-40877142D01*
X151112857Y-40448571D02*
X150398571Y-40448571D01*
X150327142Y-41162857D01*
X150398571Y-41091428D01*
X150541428Y-41020000D01*
X150898571Y-41020000D01*
X151041428Y-41091428D01*
X151112857Y-41162857D01*
X151184285Y-41305714D01*
X151184285Y-41662857D01*
X151112857Y-41805714D01*
X151041428Y-41877142D01*
X150898571Y-41948571D01*
X150541428Y-41948571D01*
X150398571Y-41877142D01*
X150327142Y-41805714D01*
X126041428Y-44498571D02*
X126041428Y-42998571D01*
X126041428Y-43570000D02*
X126184285Y-43498571D01*
X126470000Y-43498571D01*
X126612857Y-43570000D01*
X126684285Y-43641428D01*
X126755714Y-43784285D01*
X126755714Y-44212857D01*
X126684285Y-44355714D01*
X126612857Y-44427142D01*
X126470000Y-44498571D01*
X126184285Y-44498571D01*
X126041428Y-44427142D01*
X127255714Y-43498571D02*
X127612857Y-44498571D01*
X127970000Y-43498571D02*
X127612857Y-44498571D01*
X127470000Y-44855714D01*
X127398571Y-44927142D01*
X127255714Y-44998571D01*
X129470000Y-42998571D02*
X130327142Y-42998571D01*
X129898571Y-44498571D02*
X129898571Y-42998571D01*
X130827142Y-44498571D02*
X130827142Y-43498571D01*
X130827142Y-42998571D02*
X130755714Y-43070000D01*
X130827142Y-43141428D01*
X130898571Y-43070000D01*
X130827142Y-42998571D01*
X130827142Y-43141428D01*
X131470000Y-44427142D02*
X131612857Y-44498571D01*
X131898571Y-44498571D01*
X132041428Y-44427142D01*
X132112857Y-44284285D01*
X132112857Y-44212857D01*
X132041428Y-44070000D01*
X131898571Y-43998571D01*
X131684285Y-43998571D01*
X131541428Y-43927142D01*
X131470000Y-43784285D01*
X131470000Y-43712857D01*
X131541428Y-43570000D01*
X131684285Y-43498571D01*
X131898571Y-43498571D01*
X132041428Y-43570000D01*
X132755714Y-44498571D02*
X132755714Y-42998571D01*
X133398571Y-44498571D02*
X133398571Y-43712857D01*
X133327142Y-43570000D01*
X133184285Y-43498571D01*
X132970000Y-43498571D01*
X132827142Y-43570000D01*
X132755714Y-43641428D01*
X134755714Y-44498571D02*
X134755714Y-43712857D01*
X134684285Y-43570000D01*
X134541428Y-43498571D01*
X134255714Y-43498571D01*
X134112857Y-43570000D01*
X134755714Y-44427142D02*
X134612857Y-44498571D01*
X134255714Y-44498571D01*
X134112857Y-44427142D01*
X134041428Y-44284285D01*
X134041428Y-44141428D01*
X134112857Y-43998571D01*
X134255714Y-43927142D01*
X134612857Y-43927142D01*
X134755714Y-43855714D01*
X135470000Y-44498571D02*
X135470000Y-43498571D01*
X135470000Y-43641428D02*
X135541428Y-43570000D01*
X135684285Y-43498571D01*
X135898571Y-43498571D01*
X136041428Y-43570000D01*
X136112857Y-43712857D01*
X136112857Y-44498571D01*
X136112857Y-43712857D02*
X136184285Y-43570000D01*
X136327142Y-43498571D01*
X136541428Y-43498571D01*
X136684285Y-43570000D01*
X136755714Y-43712857D01*
X136755714Y-44498571D01*
X139041428Y-45070000D02*
X138970000Y-44998571D01*
X138827142Y-44784285D01*
X138755714Y-44641428D01*
X138684285Y-44427142D01*
X138612857Y-44070000D01*
X138612857Y-43784285D01*
X138684285Y-43427142D01*
X138755714Y-43212857D01*
X138827142Y-43070000D01*
X138970000Y-42855714D01*
X139041428Y-42784285D01*
X139470000Y-43498571D02*
X139755714Y-44498571D01*
X140041428Y-43784285D01*
X140327142Y-44498571D01*
X140612857Y-43498571D01*
X141184285Y-44498571D02*
X141184285Y-42998571D01*
X141827142Y-44498571D02*
X141827142Y-43712857D01*
X141755714Y-43570000D01*
X141612857Y-43498571D01*
X141398571Y-43498571D01*
X141255714Y-43570000D01*
X141184285Y-43641428D01*
X143184285Y-44498571D02*
X143184285Y-43712857D01*
X143112857Y-43570000D01*
X142970000Y-43498571D01*
X142684285Y-43498571D01*
X142541428Y-43570000D01*
X143184285Y-44427142D02*
X143041428Y-44498571D01*
X142684285Y-44498571D01*
X142541428Y-44427142D01*
X142470000Y-44284285D01*
X142470000Y-44141428D01*
X142541428Y-43998571D01*
X142684285Y-43927142D01*
X143041428Y-43927142D01*
X143184285Y-43855714D01*
X143684285Y-43498571D02*
X144255714Y-43498571D01*
X143898571Y-42998571D02*
X143898571Y-44284285D01*
X143970000Y-44427142D01*
X144112857Y-44498571D01*
X144255714Y-44498571D01*
X144755714Y-43498571D02*
X144755714Y-44498571D01*
X144755714Y-43641428D02*
X144827142Y-43570000D01*
X144970000Y-43498571D01*
X145184285Y-43498571D01*
X145327142Y-43570000D01*
X145398571Y-43712857D01*
X145398571Y-44498571D01*
X146112857Y-44498571D02*
X146112857Y-43498571D01*
X146112857Y-42998571D02*
X146041428Y-43070000D01*
X146112857Y-43141428D01*
X146184285Y-43070000D01*
X146112857Y-42998571D01*
X146112857Y-43141428D01*
X147470000Y-44427142D02*
X147327142Y-44498571D01*
X147041428Y-44498571D01*
X146898571Y-44427142D01*
X146827142Y-44355714D01*
X146755714Y-44212857D01*
X146755714Y-43784285D01*
X146827142Y-43641428D01*
X146898571Y-43570000D01*
X147041428Y-43498571D01*
X147327142Y-43498571D01*
X147470000Y-43570000D01*
X148112857Y-44498571D02*
X148112857Y-42998571D01*
X148255714Y-43927142D02*
X148684285Y-44498571D01*
X148684285Y-43498571D02*
X148112857Y-44070000D01*
X149184285Y-45070000D02*
X149255714Y-44998571D01*
X149398571Y-44784285D01*
X149470000Y-44641428D01*
X149541428Y-44427142D01*
X149612857Y-44070000D01*
X149612857Y-43784285D01*
X149541428Y-43427142D01*
X149470000Y-43212857D01*
X149398571Y-43070000D01*
X149255714Y-42855714D01*
X149184285Y-42784285D01*
X151470000Y-44498571D02*
X151470000Y-42998571D01*
X151827142Y-42998571D01*
X152041428Y-43070000D01*
X152184285Y-43212857D01*
X152255714Y-43355714D01*
X152327142Y-43641428D01*
X152327142Y-43855714D01*
X152255714Y-44141428D01*
X152184285Y-44284285D01*
X152041428Y-44427142D01*
X151827142Y-44498571D01*
X151470000Y-44498571D01*
X152970000Y-44498571D02*
X152970000Y-42998571D01*
X153612857Y-44498571D02*
X153612857Y-43712857D01*
X153541428Y-43570000D01*
X153398571Y-43498571D01*
X153184285Y-43498571D01*
X153041428Y-43570000D01*
X152970000Y-43641428D01*
X154970000Y-44498571D02*
X154970000Y-43712857D01*
X154898571Y-43570000D01*
X154755714Y-43498571D01*
X154470000Y-43498571D01*
X154327142Y-43570000D01*
X154970000Y-44427142D02*
X154827142Y-44498571D01*
X154470000Y-44498571D01*
X154327142Y-44427142D01*
X154255714Y-44284285D01*
X154255714Y-44141428D01*
X154327142Y-43998571D01*
X154470000Y-43927142D01*
X154827142Y-43927142D01*
X154970000Y-43855714D01*
X155684285Y-44498571D02*
X155684285Y-43498571D01*
X155684285Y-43784285D02*
X155755714Y-43641428D01*
X155827142Y-43570000D01*
X155970000Y-43498571D01*
X156112857Y-43498571D01*
X129648571Y-47048571D02*
X129648571Y-45548571D01*
X130291428Y-47048571D02*
X130291428Y-46262857D01*
X130220000Y-46120000D01*
X130077142Y-46048571D01*
X129862857Y-46048571D01*
X129720000Y-46120000D01*
X129648571Y-46191428D01*
X130791428Y-46048571D02*
X131362857Y-46048571D01*
X131005714Y-45548571D02*
X131005714Y-46834285D01*
X131077142Y-46977142D01*
X131220000Y-47048571D01*
X131362857Y-47048571D01*
X131648571Y-46048571D02*
X132220000Y-46048571D01*
X131862857Y-45548571D02*
X131862857Y-46834285D01*
X131934285Y-46977142D01*
X132077142Y-47048571D01*
X132220000Y-47048571D01*
X132720000Y-46048571D02*
X132720000Y-47548571D01*
X132720000Y-46120000D02*
X132862857Y-46048571D01*
X133148571Y-46048571D01*
X133291428Y-46120000D01*
X133362857Y-46191428D01*
X133434285Y-46334285D01*
X133434285Y-46762857D01*
X133362857Y-46905714D01*
X133291428Y-46977142D01*
X133148571Y-47048571D01*
X132862857Y-47048571D01*
X132720000Y-46977142D01*
X134077142Y-46905714D02*
X134148571Y-46977142D01*
X134077142Y-47048571D01*
X134005714Y-46977142D01*
X134077142Y-46905714D01*
X134077142Y-47048571D01*
X134077142Y-46120000D02*
X134148571Y-46191428D01*
X134077142Y-46262857D01*
X134005714Y-46191428D01*
X134077142Y-46120000D01*
X134077142Y-46262857D01*
X135862857Y-45477142D02*
X134577142Y-47405714D01*
X137434285Y-45477142D02*
X136148571Y-47405714D01*
X137791428Y-46048571D02*
X138077142Y-47048571D01*
X138362857Y-46334285D01*
X138648571Y-47048571D01*
X138934285Y-46048571D01*
X139505714Y-47048571D02*
X139505714Y-45548571D01*
X140148571Y-47048571D02*
X140148571Y-46262857D01*
X140077142Y-46120000D01*
X139934285Y-46048571D01*
X139720000Y-46048571D01*
X139577142Y-46120000D01*
X139505714Y-46191428D01*
X141505714Y-47048571D02*
X141505714Y-46262857D01*
X141434285Y-46120000D01*
X141291428Y-46048571D01*
X141005714Y-46048571D01*
X140862857Y-46120000D01*
X141505714Y-46977142D02*
X141362857Y-47048571D01*
X141005714Y-47048571D01*
X140862857Y-46977142D01*
X140791428Y-46834285D01*
X140791428Y-46691428D01*
X140862857Y-46548571D01*
X141005714Y-46477142D01*
X141362857Y-46477142D01*
X141505714Y-46405714D01*
X142005714Y-46048571D02*
X142577142Y-46048571D01*
X142220000Y-45548571D02*
X142220000Y-46834285D01*
X142291428Y-46977142D01*
X142434285Y-47048571D01*
X142577142Y-47048571D01*
X143077142Y-46048571D02*
X143077142Y-47048571D01*
X143077142Y-46191428D02*
X143148571Y-46120000D01*
X143291428Y-46048571D01*
X143505714Y-46048571D01*
X143648571Y-46120000D01*
X143720000Y-46262857D01*
X143720000Y-47048571D01*
X144434285Y-47048571D02*
X144434285Y-46048571D01*
X144434285Y-45548571D02*
X144362857Y-45620000D01*
X144434285Y-45691428D01*
X144505714Y-45620000D01*
X144434285Y-45548571D01*
X144434285Y-45691428D01*
X145791428Y-46977142D02*
X145648571Y-47048571D01*
X145362857Y-47048571D01*
X145220000Y-46977142D01*
X145148571Y-46905714D01*
X145077142Y-46762857D01*
X145077142Y-46334285D01*
X145148571Y-46191428D01*
X145220000Y-46120000D01*
X145362857Y-46048571D01*
X145648571Y-46048571D01*
X145791428Y-46120000D01*
X146434285Y-47048571D02*
X146434285Y-45548571D01*
X146577142Y-46477142D02*
X147005714Y-47048571D01*
X147005714Y-46048571D02*
X146434285Y-46620000D01*
X147648571Y-46905714D02*
X147720000Y-46977142D01*
X147648571Y-47048571D01*
X147577142Y-46977142D01*
X147648571Y-46905714D01*
X147648571Y-47048571D01*
X149005714Y-46977142D02*
X148862857Y-47048571D01*
X148577142Y-47048571D01*
X148434285Y-46977142D01*
X148362857Y-46905714D01*
X148291428Y-46762857D01*
X148291428Y-46334285D01*
X148362857Y-46191428D01*
X148434285Y-46120000D01*
X148577142Y-46048571D01*
X148862857Y-46048571D01*
X149005714Y-46120000D01*
X149862857Y-47048571D02*
X149720000Y-46977142D01*
X149648571Y-46905714D01*
X149577142Y-46762857D01*
X149577142Y-46334285D01*
X149648571Y-46191428D01*
X149720000Y-46120000D01*
X149862857Y-46048571D01*
X150077142Y-46048571D01*
X150220000Y-46120000D01*
X150291428Y-46191428D01*
X150362857Y-46334285D01*
X150362857Y-46762857D01*
X150291428Y-46905714D01*
X150220000Y-46977142D01*
X150077142Y-47048571D01*
X149862857Y-47048571D01*
X151005714Y-47048571D02*
X151005714Y-46048571D01*
X151005714Y-46191428D02*
X151077142Y-46120000D01*
X151220000Y-46048571D01*
X151434285Y-46048571D01*
X151577142Y-46120000D01*
X151648571Y-46262857D01*
X151648571Y-47048571D01*
X151648571Y-46262857D02*
X151720000Y-46120000D01*
X151862857Y-46048571D01*
X152077142Y-46048571D01*
X152220000Y-46120000D01*
X152291428Y-46262857D01*
X152291428Y-47048571D01*
D10*
X152408095Y-79510000D02*
X152312857Y-79462380D01*
X152170000Y-79462380D01*
X152027142Y-79510000D01*
X151931904Y-79605238D01*
X151884285Y-79700476D01*
X151836666Y-79890952D01*
X151836666Y-80033809D01*
X151884285Y-80224285D01*
X151931904Y-80319523D01*
X152027142Y-80414761D01*
X152170000Y-80462380D01*
X152265238Y-80462380D01*
X152408095Y-80414761D01*
X152455714Y-80367142D01*
X152455714Y-80033809D01*
X152265238Y-80033809D01*
X152884285Y-80462380D02*
X152884285Y-79462380D01*
X153455714Y-80462380D01*
X153455714Y-79462380D01*
X153931904Y-80462380D02*
X153931904Y-79462380D01*
X154170000Y-79462380D01*
X154312857Y-79510000D01*
X154408095Y-79605238D01*
X154455714Y-79700476D01*
X154503333Y-79890952D01*
X154503333Y-80033809D01*
X154455714Y-80224285D01*
X154408095Y-80319523D01*
X154312857Y-80414761D01*
X154170000Y-80462380D01*
X153931904Y-80462380D01*
X154931904Y-80462380D02*
X154931904Y-79462380D01*
X155170000Y-79462380D01*
X155312857Y-79510000D01*
X155408095Y-79605238D01*
X155455714Y-79700476D01*
X155503333Y-79890952D01*
X155503333Y-80033809D01*
X155455714Y-80224285D01*
X155408095Y-80319523D01*
X155312857Y-80414761D01*
X155170000Y-80462380D01*
X154931904Y-80462380D01*
X153074761Y-76922380D02*
X153693809Y-76922380D01*
X153360476Y-77303333D01*
X153503333Y-77303333D01*
X153598571Y-77350952D01*
X153646190Y-77398571D01*
X153693809Y-77493809D01*
X153693809Y-77731904D01*
X153646190Y-77827142D01*
X153598571Y-77874761D01*
X153503333Y-77922380D01*
X153217618Y-77922380D01*
X153122380Y-77874761D01*
X153074761Y-77827142D01*
X153979523Y-76922380D02*
X154312857Y-77922380D01*
X154646190Y-76922380D01*
X154884285Y-76922380D02*
X155503333Y-76922380D01*
X155169999Y-77303333D01*
X155312857Y-77303333D01*
X155408095Y-77350952D01*
X155455714Y-77398571D01*
X155503333Y-77493809D01*
X155503333Y-77731904D01*
X155455714Y-77827142D01*
X155408095Y-77874761D01*
X155312857Y-77922380D01*
X155027142Y-77922380D01*
X154931904Y-77874761D01*
X154884285Y-77827142D01*
X152217619Y-74015000D02*
X152693810Y-74015000D01*
X152455715Y-75382380D02*
X152455715Y-74382380D01*
X152693810Y-74015000D02*
X153693810Y-74015000D01*
X153503334Y-75382380D02*
X153170000Y-74906190D01*
X152931905Y-75382380D02*
X152931905Y-74382380D01*
X153312857Y-74382380D01*
X153408095Y-74430000D01*
X153455715Y-74477619D01*
X153503334Y-74572857D01*
X153503334Y-74715714D01*
X153455715Y-74810952D01*
X153408095Y-74858571D01*
X153312857Y-74906190D01*
X152931905Y-74906190D01*
X153693810Y-74015000D02*
X154741429Y-74015000D01*
X154598572Y-75477619D02*
X154503334Y-75430000D01*
X154408095Y-75334761D01*
X154265238Y-75191904D01*
X154170000Y-75144285D01*
X154074762Y-75144285D01*
X154122381Y-75382380D02*
X154027143Y-75334761D01*
X153931905Y-75239523D01*
X153884286Y-75049047D01*
X153884286Y-74715714D01*
X153931905Y-74525238D01*
X154027143Y-74430000D01*
X154122381Y-74382380D01*
X154312857Y-74382380D01*
X154408095Y-74430000D01*
X154503334Y-74525238D01*
X154550953Y-74715714D01*
X154550953Y-75049047D01*
X154503334Y-75239523D01*
X154408095Y-75334761D01*
X154312857Y-75382380D01*
X154122381Y-75382380D01*
X154741429Y-74015000D02*
X155693810Y-74015000D01*
X155170000Y-74382380D02*
X155265238Y-74382380D01*
X155360476Y-74430000D01*
X155408095Y-74477619D01*
X155455715Y-74572857D01*
X155503334Y-74763333D01*
X155503334Y-75001428D01*
X155455715Y-75191904D01*
X155408095Y-75287142D01*
X155360476Y-75334761D01*
X155265238Y-75382380D01*
X155170000Y-75382380D01*
X155074762Y-75334761D01*
X155027143Y-75287142D01*
X154979524Y-75191904D01*
X154931905Y-75001428D01*
X154931905Y-74763333D01*
X154979524Y-74572857D01*
X155027143Y-74477619D01*
X155074762Y-74430000D01*
X155170000Y-74382380D01*
X152217619Y-71475000D02*
X152693810Y-71475000D01*
X152455715Y-72842380D02*
X152455715Y-71842380D01*
X152693810Y-71475000D02*
X153693810Y-71475000D01*
X153503334Y-72842380D02*
X153170000Y-72366190D01*
X152931905Y-72842380D02*
X152931905Y-71842380D01*
X153312857Y-71842380D01*
X153408095Y-71890000D01*
X153455715Y-71937619D01*
X153503334Y-72032857D01*
X153503334Y-72175714D01*
X153455715Y-72270952D01*
X153408095Y-72318571D01*
X153312857Y-72366190D01*
X152931905Y-72366190D01*
X153693810Y-71475000D02*
X154741429Y-71475000D01*
X154598572Y-72937619D02*
X154503334Y-72890000D01*
X154408095Y-72794761D01*
X154265238Y-72651904D01*
X154170000Y-72604285D01*
X154074762Y-72604285D01*
X154122381Y-72842380D02*
X154027143Y-72794761D01*
X153931905Y-72699523D01*
X153884286Y-72509047D01*
X153884286Y-72175714D01*
X153931905Y-71985238D01*
X154027143Y-71890000D01*
X154122381Y-71842380D01*
X154312857Y-71842380D01*
X154408095Y-71890000D01*
X154503334Y-71985238D01*
X154550953Y-72175714D01*
X154550953Y-72509047D01*
X154503334Y-72699523D01*
X154408095Y-72794761D01*
X154312857Y-72842380D01*
X154122381Y-72842380D01*
X154741429Y-71475000D02*
X155693810Y-71475000D01*
X155503334Y-72842380D02*
X154931905Y-72842380D01*
X155217619Y-72842380D02*
X155217619Y-71842380D01*
X155122381Y-71985238D01*
X155027143Y-72080476D01*
X154931905Y-72128095D01*
X151122381Y-70302380D02*
X151122381Y-69302380D01*
X151122381Y-69778571D02*
X151693809Y-69778571D01*
X151693809Y-70302380D02*
X151693809Y-69302380D01*
X152122381Y-70254761D02*
X152265238Y-70302380D01*
X152503333Y-70302380D01*
X152598571Y-70254761D01*
X152646190Y-70207142D01*
X152693809Y-70111904D01*
X152693809Y-70016666D01*
X152646190Y-69921428D01*
X152598571Y-69873809D01*
X152503333Y-69826190D01*
X152312857Y-69778571D01*
X152217619Y-69730952D01*
X152170000Y-69683333D01*
X152122381Y-69588095D01*
X152122381Y-69492857D01*
X152170000Y-69397619D01*
X152217619Y-69350000D01*
X152312857Y-69302380D01*
X152550952Y-69302380D01*
X152693809Y-69350000D01*
X153693809Y-70207142D02*
X153646190Y-70254761D01*
X153503333Y-70302380D01*
X153408095Y-70302380D01*
X153265238Y-70254761D01*
X153170000Y-70159523D01*
X153122381Y-70064285D01*
X153074762Y-69873809D01*
X153074762Y-69730952D01*
X153122381Y-69540476D01*
X153170000Y-69445238D01*
X153265238Y-69350000D01*
X153408095Y-69302380D01*
X153503333Y-69302380D01*
X153646190Y-69350000D01*
X153693809Y-69397619D01*
X154598571Y-70302380D02*
X154122381Y-70302380D01*
X154122381Y-69302380D01*
X154931905Y-70302380D02*
X154931905Y-69302380D01*
X155503333Y-70302380D02*
X155074762Y-69730952D01*
X155503333Y-69302380D02*
X154931905Y-69873809D01*
X152122380Y-67714761D02*
X152265237Y-67762380D01*
X152503333Y-67762380D01*
X152598571Y-67714761D01*
X152646190Y-67667142D01*
X152693809Y-67571904D01*
X152693809Y-67476666D01*
X152646190Y-67381428D01*
X152598571Y-67333809D01*
X152503333Y-67286190D01*
X152312857Y-67238571D01*
X152217618Y-67190952D01*
X152169999Y-67143333D01*
X152122380Y-67048095D01*
X152122380Y-66952857D01*
X152169999Y-66857619D01*
X152217618Y-66810000D01*
X152312857Y-66762380D01*
X152550952Y-66762380D01*
X152693809Y-66810000D01*
X153693809Y-67667142D02*
X153646190Y-67714761D01*
X153503333Y-67762380D01*
X153408095Y-67762380D01*
X153265237Y-67714761D01*
X153169999Y-67619523D01*
X153122380Y-67524285D01*
X153074761Y-67333809D01*
X153074761Y-67190952D01*
X153122380Y-67000476D01*
X153169999Y-66905238D01*
X153265237Y-66810000D01*
X153408095Y-66762380D01*
X153503333Y-66762380D01*
X153646190Y-66810000D01*
X153693809Y-66857619D01*
X154598571Y-67762380D02*
X154122380Y-67762380D01*
X154122380Y-66762380D01*
X154931904Y-67762380D02*
X154931904Y-66762380D01*
X155503333Y-67762380D02*
X155074761Y-67190952D01*
X155503333Y-66762380D02*
X154931904Y-67333809D01*
X152312857Y-65222380D02*
X152312857Y-64222380D01*
X152646190Y-64936666D01*
X152979524Y-64222380D01*
X152979524Y-65222380D01*
X153455714Y-65222380D02*
X153455714Y-64222380D01*
X153884286Y-65174761D02*
X154027143Y-65222380D01*
X154265238Y-65222380D01*
X154360476Y-65174761D01*
X154408095Y-65127142D01*
X154455714Y-65031904D01*
X154455714Y-64936666D01*
X154408095Y-64841428D01*
X154360476Y-64793809D01*
X154265238Y-64746190D01*
X154074762Y-64698571D01*
X153979524Y-64650952D01*
X153931905Y-64603333D01*
X153884286Y-64508095D01*
X153884286Y-64412857D01*
X153931905Y-64317619D01*
X153979524Y-64270000D01*
X154074762Y-64222380D01*
X154312857Y-64222380D01*
X154455714Y-64270000D01*
X155074762Y-64222380D02*
X155265238Y-64222380D01*
X155360476Y-64270000D01*
X155455714Y-64365238D01*
X155503333Y-64555714D01*
X155503333Y-64889047D01*
X155455714Y-65079523D01*
X155360476Y-65174761D01*
X155265238Y-65222380D01*
X155074762Y-65222380D01*
X154979524Y-65174761D01*
X154884286Y-65079523D01*
X154836666Y-64889047D01*
X154836666Y-64555714D01*
X154884286Y-64365238D01*
X154979524Y-64270000D01*
X155074762Y-64222380D01*
X152312857Y-62682380D02*
X152312857Y-61682380D01*
X152646190Y-62396666D01*
X152979524Y-61682380D01*
X152979524Y-62682380D01*
X153646190Y-61682380D02*
X153836666Y-61682380D01*
X153931905Y-61730000D01*
X154027143Y-61825238D01*
X154074762Y-62015714D01*
X154074762Y-62349047D01*
X154027143Y-62539523D01*
X153931905Y-62634761D01*
X153836666Y-62682380D01*
X153646190Y-62682380D01*
X153550952Y-62634761D01*
X153455714Y-62539523D01*
X153408095Y-62349047D01*
X153408095Y-62015714D01*
X153455714Y-61825238D01*
X153550952Y-61730000D01*
X153646190Y-61682380D01*
X154455714Y-62634761D02*
X154598571Y-62682380D01*
X154836666Y-62682380D01*
X154931905Y-62634761D01*
X154979524Y-62587142D01*
X155027143Y-62491904D01*
X155027143Y-62396666D01*
X154979524Y-62301428D01*
X154931905Y-62253809D01*
X154836666Y-62206190D01*
X154646190Y-62158571D01*
X154550952Y-62110952D01*
X154503333Y-62063333D01*
X154455714Y-61968095D01*
X154455714Y-61872857D01*
X154503333Y-61777619D01*
X154550952Y-61730000D01*
X154646190Y-61682380D01*
X154884286Y-61682380D01*
X155027143Y-61730000D01*
X155455714Y-62682380D02*
X155455714Y-61682380D01*
X153741428Y-58775000D02*
X154741428Y-58775000D01*
X154550952Y-60047142D02*
X154503333Y-60094761D01*
X154360476Y-60142380D01*
X154265238Y-60142380D01*
X154122380Y-60094761D01*
X154027142Y-59999523D01*
X153979523Y-59904285D01*
X153931904Y-59713809D01*
X153931904Y-59570952D01*
X153979523Y-59380476D01*
X154027142Y-59285238D01*
X154122380Y-59190000D01*
X154265238Y-59142380D01*
X154360476Y-59142380D01*
X154503333Y-59190000D01*
X154550952Y-59237619D01*
X154741428Y-58775000D02*
X155693809Y-58775000D01*
X154931904Y-60094761D02*
X155074761Y-60142380D01*
X155312857Y-60142380D01*
X155408095Y-60094761D01*
X155455714Y-60047142D01*
X155503333Y-59951904D01*
X155503333Y-59856666D01*
X155455714Y-59761428D01*
X155408095Y-59713809D01*
X155312857Y-59666190D01*
X155122380Y-59618571D01*
X155027142Y-59570952D01*
X154979523Y-59523333D01*
X154931904Y-59428095D01*
X154931904Y-59332857D01*
X154979523Y-59237619D01*
X155027142Y-59190000D01*
X155122380Y-59142380D01*
X155360476Y-59142380D01*
X155503333Y-59190000D01*
X151170000Y-56235000D02*
X152170000Y-56235000D01*
X151979524Y-57602380D02*
X151646190Y-57126190D01*
X151408095Y-57602380D02*
X151408095Y-56602380D01*
X151789047Y-56602380D01*
X151884285Y-56650000D01*
X151931905Y-56697619D01*
X151979524Y-56792857D01*
X151979524Y-56935714D01*
X151931905Y-57030952D01*
X151884285Y-57078571D01*
X151789047Y-57126190D01*
X151408095Y-57126190D01*
X152170000Y-56235000D02*
X153074762Y-56235000D01*
X152408095Y-57078571D02*
X152741428Y-57078571D01*
X152884285Y-57602380D02*
X152408095Y-57602380D01*
X152408095Y-56602380D01*
X152884285Y-56602380D01*
X153074762Y-56235000D02*
X154027143Y-56235000D01*
X153265238Y-57554761D02*
X153408095Y-57602380D01*
X153646190Y-57602380D01*
X153741428Y-57554761D01*
X153789047Y-57507142D01*
X153836666Y-57411904D01*
X153836666Y-57316666D01*
X153789047Y-57221428D01*
X153741428Y-57173809D01*
X153646190Y-57126190D01*
X153455714Y-57078571D01*
X153360476Y-57030952D01*
X153312857Y-56983333D01*
X153265238Y-56888095D01*
X153265238Y-56792857D01*
X153312857Y-56697619D01*
X153360476Y-56650000D01*
X153455714Y-56602380D01*
X153693809Y-56602380D01*
X153836666Y-56650000D01*
X154027143Y-56235000D02*
X154931905Y-56235000D01*
X154265238Y-57078571D02*
X154598571Y-57078571D01*
X154741428Y-57602380D02*
X154265238Y-57602380D01*
X154265238Y-56602380D01*
X154741428Y-56602380D01*
X154931905Y-56235000D02*
X155693809Y-56235000D01*
X155027143Y-56602380D02*
X155598571Y-56602380D01*
X155312857Y-57602380D02*
X155312857Y-56602380D01*
D12*
X127400000Y-66750000D02*
X127750000Y-68000000D01*
D13*
G36*
X140438910Y-48677348D02*
G01*
X140517454Y-48677778D01*
X140574298Y-48678942D01*
X140613105Y-48681207D01*
X140637538Y-48684940D01*
X140651262Y-48690506D01*
X140657940Y-48698273D01*
X140661236Y-48708605D01*
X140661556Y-48709943D01*
X140666562Y-48734079D01*
X140675829Y-48781701D01*
X140688392Y-48847741D01*
X140703287Y-48927128D01*
X140719551Y-49014796D01*
X140720119Y-49017875D01*
X140736410Y-49103789D01*
X140751652Y-49179696D01*
X140764861Y-49241045D01*
X140775054Y-49283282D01*
X140781248Y-49301855D01*
X140781543Y-49302184D01*
X140799788Y-49311253D01*
X140837405Y-49326367D01*
X140886271Y-49344262D01*
X140886543Y-49344358D01*
X140948093Y-49367493D01*
X141020657Y-49396965D01*
X141089057Y-49426597D01*
X141092294Y-49428062D01*
X141203702Y-49478626D01*
X141450399Y-49310160D01*
X141526077Y-49258803D01*
X141594631Y-49212889D01*
X141652088Y-49175030D01*
X141694476Y-49147837D01*
X141717825Y-49133921D01*
X141720042Y-49132889D01*
X141737010Y-49137484D01*
X141768701Y-49159655D01*
X141816352Y-49200447D01*
X141881198Y-49260905D01*
X141947397Y-49325227D01*
X142011214Y-49388612D01*
X142068329Y-49446451D01*
X142115305Y-49495175D01*
X142148703Y-49531210D01*
X142165085Y-49550984D01*
X142165694Y-49552002D01*
X142167505Y-49565572D01*
X142160683Y-49587733D01*
X142143540Y-49621478D01*
X142114393Y-49669800D01*
X142071555Y-49735692D01*
X142014448Y-49820517D01*
X141963766Y-49895177D01*
X141918461Y-49962140D01*
X141881150Y-50017516D01*
X141854452Y-50057420D01*
X141840985Y-50077962D01*
X141840137Y-50079356D01*
X141841781Y-50099038D01*
X141854245Y-50137293D01*
X141875048Y-50186889D01*
X141882462Y-50202728D01*
X141914814Y-50273290D01*
X141949328Y-50353353D01*
X141977365Y-50422629D01*
X141997568Y-50474045D01*
X142013615Y-50513119D01*
X142022888Y-50533541D01*
X142024041Y-50535114D01*
X142041096Y-50537721D01*
X142081298Y-50544863D01*
X142139302Y-50555523D01*
X142209763Y-50568685D01*
X142287335Y-50583333D01*
X142366672Y-50598449D01*
X142442431Y-50613018D01*
X142509264Y-50626022D01*
X142561828Y-50636445D01*
X142594776Y-50643270D01*
X142602857Y-50645199D01*
X142611205Y-50649962D01*
X142617506Y-50660718D01*
X142622045Y-50681098D01*
X142625104Y-50714734D01*
X142626967Y-50765255D01*
X142627918Y-50836292D01*
X142628240Y-50931476D01*
X142628257Y-50970492D01*
X142628257Y-51287799D01*
X142552057Y-51302839D01*
X142509663Y-51310995D01*
X142446400Y-51322899D01*
X142369962Y-51337116D01*
X142288043Y-51352210D01*
X142265400Y-51356355D01*
X142189806Y-51371053D01*
X142123953Y-51385505D01*
X142073366Y-51398375D01*
X142043574Y-51408322D01*
X142038612Y-51411287D01*
X142026426Y-51432283D01*
X142008953Y-51472967D01*
X141989577Y-51525322D01*
X141985734Y-51536600D01*
X141960339Y-51606523D01*
X141928817Y-51685418D01*
X141897969Y-51756266D01*
X141897817Y-51756595D01*
X141846447Y-51867733D01*
X142015399Y-52116253D01*
X142184352Y-52364772D01*
X141967429Y-52582058D01*
X141901819Y-52646726D01*
X141841979Y-52703733D01*
X141791267Y-52750033D01*
X141753046Y-52782584D01*
X141730675Y-52798343D01*
X141727466Y-52799343D01*
X141708626Y-52791469D01*
X141670180Y-52769578D01*
X141616330Y-52736267D01*
X141551276Y-52694131D01*
X141480940Y-52646943D01*
X141409555Y-52598810D01*
X141345908Y-52556928D01*
X141294041Y-52523871D01*
X141257995Y-52502218D01*
X141241867Y-52494543D01*
X141222189Y-52501037D01*
X141184875Y-52518150D01*
X141137621Y-52542326D01*
X141132612Y-52545013D01*
X141068977Y-52576927D01*
X141025341Y-52592579D01*
X140998202Y-52592745D01*
X140984057Y-52578204D01*
X140983975Y-52578000D01*
X140976905Y-52560779D01*
X140960042Y-52519899D01*
X140934695Y-52458525D01*
X140902171Y-52379819D01*
X140863778Y-52286947D01*
X140820822Y-52183072D01*
X140779222Y-52082502D01*
X140733504Y-51971516D01*
X140691526Y-51868703D01*
X140654548Y-51777215D01*
X140623827Y-51700201D01*
X140600622Y-51640815D01*
X140586190Y-51602209D01*
X140581743Y-51587800D01*
X140592896Y-51571272D01*
X140622069Y-51544930D01*
X140660971Y-51515887D01*
X140771757Y-51424039D01*
X140858351Y-51318759D01*
X140919716Y-51202266D01*
X140954815Y-51076776D01*
X140962608Y-50944507D01*
X140956943Y-50883457D01*
X140926078Y-50756795D01*
X140872920Y-50644941D01*
X140800767Y-50549001D01*
X140712917Y-50470076D01*
X140612665Y-50409270D01*
X140503310Y-50367687D01*
X140388147Y-50346428D01*
X140270475Y-50346599D01*
X140153590Y-50369301D01*
X140040789Y-50415638D01*
X139935369Y-50486713D01*
X139891368Y-50526911D01*
X139806979Y-50630129D01*
X139748222Y-50742925D01*
X139714704Y-50862010D01*
X139706035Y-50984095D01*
X139721823Y-51105893D01*
X139761678Y-51224116D01*
X139825207Y-51335475D01*
X139912021Y-51436684D01*
X140009029Y-51515887D01*
X140049437Y-51546162D01*
X140077982Y-51572219D01*
X140088257Y-51587825D01*
X140082877Y-51604843D01*
X140067575Y-51645500D01*
X140043612Y-51706642D01*
X140012244Y-51785119D01*
X139974732Y-51877780D01*
X139932333Y-51981472D01*
X139890663Y-52082526D01*
X139844690Y-52193607D01*
X139802107Y-52296541D01*
X139764221Y-52388165D01*
X139732340Y-52465316D01*
X139707771Y-52524831D01*
X139691820Y-52563544D01*
X139685910Y-52578000D01*
X139671948Y-52592685D01*
X139644940Y-52592642D01*
X139601413Y-52577099D01*
X139537890Y-52545284D01*
X139537388Y-52545013D01*
X139489560Y-52520323D01*
X139450897Y-52502338D01*
X139429095Y-52494614D01*
X139428133Y-52494543D01*
X139411721Y-52502378D01*
X139375487Y-52524165D01*
X139323474Y-52557328D01*
X139259725Y-52599291D01*
X139189060Y-52646943D01*
X139117116Y-52695191D01*
X139052274Y-52737151D01*
X138998735Y-52770227D01*
X138960697Y-52791821D01*
X138942533Y-52799343D01*
X138925808Y-52789457D01*
X138892180Y-52761826D01*
X138845010Y-52719495D01*
X138787658Y-52665505D01*
X138723484Y-52602899D01*
X138702497Y-52581983D01*
X138485499Y-52364623D01*
X138650668Y-52122220D01*
X138700864Y-52047781D01*
X138744919Y-51980972D01*
X138780362Y-51925665D01*
X138804719Y-51885729D01*
X138815522Y-51865036D01*
X138815838Y-51863563D01*
X138810143Y-51844058D01*
X138794826Y-51804822D01*
X138772537Y-51752430D01*
X138756893Y-51717355D01*
X138727641Y-51650201D01*
X138700094Y-51582358D01*
X138678737Y-51525034D01*
X138672935Y-51507572D01*
X138656452Y-51460938D01*
X138640340Y-51424905D01*
X138631490Y-51411287D01*
X138611960Y-51402952D01*
X138569334Y-51391137D01*
X138509145Y-51377181D01*
X138436922Y-51362422D01*
X138404600Y-51356355D01*
X138322522Y-51341273D01*
X138243795Y-51326669D01*
X138176109Y-51313980D01*
X138127160Y-51304642D01*
X138117943Y-51302839D01*
X138041743Y-51287799D01*
X138041743Y-50970492D01*
X138041914Y-50866154D01*
X138042616Y-50787213D01*
X138044134Y-50730038D01*
X138046749Y-50690999D01*
X138050746Y-50666465D01*
X138056409Y-50652805D01*
X138064020Y-50646389D01*
X138067143Y-50645199D01*
X138085978Y-50640980D01*
X138127588Y-50632562D01*
X138186630Y-50620961D01*
X138257757Y-50607195D01*
X138335625Y-50592280D01*
X138414887Y-50577232D01*
X138490198Y-50563069D01*
X138556213Y-50550806D01*
X138607587Y-50541461D01*
X138638975Y-50536050D01*
X138645959Y-50535114D01*
X138652285Y-50522596D01*
X138666290Y-50489246D01*
X138685355Y-50441377D01*
X138692634Y-50422629D01*
X138721996Y-50350195D01*
X138756571Y-50270170D01*
X138787537Y-50202728D01*
X138810323Y-50151159D01*
X138825482Y-50108785D01*
X138830542Y-50082834D01*
X138829736Y-50079356D01*
X138819041Y-50062936D01*
X138794620Y-50026417D01*
X138759095Y-49973687D01*
X138715087Y-49908635D01*
X138665217Y-49835151D01*
X138655356Y-49820645D01*
X138597492Y-49734704D01*
X138554956Y-49669261D01*
X138526054Y-49621304D01*
X138509090Y-49587820D01*
X138502367Y-49565795D01*
X138504190Y-49552217D01*
X138504236Y-49552131D01*
X138518586Y-49534297D01*
X138550323Y-49499817D01*
X138596010Y-49452268D01*
X138652204Y-49395222D01*
X138715468Y-49332255D01*
X138722602Y-49325227D01*
X138802330Y-49248020D01*
X138863857Y-49191330D01*
X138908421Y-49154110D01*
X138937257Y-49135315D01*
X138949958Y-49132889D01*
X138968494Y-49143471D01*
X139006961Y-49167916D01*
X139061386Y-49203612D01*
X139127798Y-49247947D01*
X139202225Y-49298311D01*
X139219601Y-49310160D01*
X139466297Y-49478626D01*
X139577706Y-49428062D01*
X139645457Y-49398595D01*
X139718183Y-49368959D01*
X139780703Y-49345330D01*
X139783457Y-49344358D01*
X139832360Y-49326457D01*
X139870057Y-49311320D01*
X139888425Y-49302210D01*
X139888456Y-49302184D01*
X139894285Y-49285717D01*
X139904192Y-49245219D01*
X139917195Y-49185242D01*
X139932309Y-49110340D01*
X139948552Y-49025064D01*
X139949881Y-49017875D01*
X139966175Y-48930014D01*
X139981133Y-48850260D01*
X139993791Y-48783681D01*
X140003186Y-48735347D01*
X140008354Y-48710325D01*
X140008444Y-48709943D01*
X140011589Y-48699299D01*
X140017704Y-48691262D01*
X140030453Y-48685467D01*
X140053500Y-48681547D01*
X140090509Y-48679135D01*
X140145144Y-48677865D01*
X140221067Y-48677371D01*
X140321944Y-48677286D01*
X140335000Y-48677286D01*
X140438910Y-48677348D01*
G37*
X140438910Y-48677348D02*
X140517454Y-48677778D01*
X140574298Y-48678942D01*
X140613105Y-48681207D01*
X140637538Y-48684940D01*
X140651262Y-48690506D01*
X140657940Y-48698273D01*
X140661236Y-48708605D01*
X140661556Y-48709943D01*
X140666562Y-48734079D01*
X140675829Y-48781701D01*
X140688392Y-48847741D01*
X140703287Y-48927128D01*
X140719551Y-49014796D01*
X140720119Y-49017875D01*
X140736410Y-49103789D01*
X140751652Y-49179696D01*
X140764861Y-49241045D01*
X140775054Y-49283282D01*
X140781248Y-49301855D01*
X140781543Y-49302184D01*
X140799788Y-49311253D01*
X140837405Y-49326367D01*
X140886271Y-49344262D01*
X140886543Y-49344358D01*
X140948093Y-49367493D01*
X141020657Y-49396965D01*
X141089057Y-49426597D01*
X141092294Y-49428062D01*
X141203702Y-49478626D01*
X141450399Y-49310160D01*
X141526077Y-49258803D01*
X141594631Y-49212889D01*
X141652088Y-49175030D01*
X141694476Y-49147837D01*
X141717825Y-49133921D01*
X141720042Y-49132889D01*
X141737010Y-49137484D01*
X141768701Y-49159655D01*
X141816352Y-49200447D01*
X141881198Y-49260905D01*
X141947397Y-49325227D01*
X142011214Y-49388612D01*
X142068329Y-49446451D01*
X142115305Y-49495175D01*
X142148703Y-49531210D01*
X142165085Y-49550984D01*
X142165694Y-49552002D01*
X142167505Y-49565572D01*
X142160683Y-49587733D01*
X142143540Y-49621478D01*
X142114393Y-49669800D01*
X142071555Y-49735692D01*
X142014448Y-49820517D01*
X141963766Y-49895177D01*
X141918461Y-49962140D01*
X141881150Y-50017516D01*
X141854452Y-50057420D01*
X141840985Y-50077962D01*
X141840137Y-50079356D01*
X141841781Y-50099038D01*
X141854245Y-50137293D01*
X141875048Y-50186889D01*
X141882462Y-50202728D01*
X141914814Y-50273290D01*
X141949328Y-50353353D01*
X141977365Y-50422629D01*
X141997568Y-50474045D01*
X142013615Y-50513119D01*
X142022888Y-50533541D01*
X142024041Y-50535114D01*
X142041096Y-50537721D01*
X142081298Y-50544863D01*
X142139302Y-50555523D01*
X142209763Y-50568685D01*
X142287335Y-50583333D01*
X142366672Y-50598449D01*
X142442431Y-50613018D01*
X142509264Y-50626022D01*
X142561828Y-50636445D01*
X142594776Y-50643270D01*
X142602857Y-50645199D01*
X142611205Y-50649962D01*
X142617506Y-50660718D01*
X142622045Y-50681098D01*
X142625104Y-50714734D01*
X142626967Y-50765255D01*
X142627918Y-50836292D01*
X142628240Y-50931476D01*
X142628257Y-50970492D01*
X142628257Y-51287799D01*
X142552057Y-51302839D01*
X142509663Y-51310995D01*
X142446400Y-51322899D01*
X142369962Y-51337116D01*
X142288043Y-51352210D01*
X142265400Y-51356355D01*
X142189806Y-51371053D01*
X142123953Y-51385505D01*
X142073366Y-51398375D01*
X142043574Y-51408322D01*
X142038612Y-51411287D01*
X142026426Y-51432283D01*
X142008953Y-51472967D01*
X141989577Y-51525322D01*
X141985734Y-51536600D01*
X141960339Y-51606523D01*
X141928817Y-51685418D01*
X141897969Y-51756266D01*
X141897817Y-51756595D01*
X141846447Y-51867733D01*
X142015399Y-52116253D01*
X142184352Y-52364772D01*
X141967429Y-52582058D01*
X141901819Y-52646726D01*
X141841979Y-52703733D01*
X141791267Y-52750033D01*
X141753046Y-52782584D01*
X141730675Y-52798343D01*
X141727466Y-52799343D01*
X141708626Y-52791469D01*
X141670180Y-52769578D01*
X141616330Y-52736267D01*
X141551276Y-52694131D01*
X141480940Y-52646943D01*
X141409555Y-52598810D01*
X141345908Y-52556928D01*
X141294041Y-52523871D01*
X141257995Y-52502218D01*
X141241867Y-52494543D01*
X141222189Y-52501037D01*
X141184875Y-52518150D01*
X141137621Y-52542326D01*
X141132612Y-52545013D01*
X141068977Y-52576927D01*
X141025341Y-52592579D01*
X140998202Y-52592745D01*
X140984057Y-52578204D01*
X140983975Y-52578000D01*
X140976905Y-52560779D01*
X140960042Y-52519899D01*
X140934695Y-52458525D01*
X140902171Y-52379819D01*
X140863778Y-52286947D01*
X140820822Y-52183072D01*
X140779222Y-52082502D01*
X140733504Y-51971516D01*
X140691526Y-51868703D01*
X140654548Y-51777215D01*
X140623827Y-51700201D01*
X140600622Y-51640815D01*
X140586190Y-51602209D01*
X140581743Y-51587800D01*
X140592896Y-51571272D01*
X140622069Y-51544930D01*
X140660971Y-51515887D01*
X140771757Y-51424039D01*
X140858351Y-51318759D01*
X140919716Y-51202266D01*
X140954815Y-51076776D01*
X140962608Y-50944507D01*
X140956943Y-50883457D01*
X140926078Y-50756795D01*
X140872920Y-50644941D01*
X140800767Y-50549001D01*
X140712917Y-50470076D01*
X140612665Y-50409270D01*
X140503310Y-50367687D01*
X140388147Y-50346428D01*
X140270475Y-50346599D01*
X140153590Y-50369301D01*
X140040789Y-50415638D01*
X139935369Y-50486713D01*
X139891368Y-50526911D01*
X139806979Y-50630129D01*
X139748222Y-50742925D01*
X139714704Y-50862010D01*
X139706035Y-50984095D01*
X139721823Y-51105893D01*
X139761678Y-51224116D01*
X139825207Y-51335475D01*
X139912021Y-51436684D01*
X140009029Y-51515887D01*
X140049437Y-51546162D01*
X140077982Y-51572219D01*
X140088257Y-51587825D01*
X140082877Y-51604843D01*
X140067575Y-51645500D01*
X140043612Y-51706642D01*
X140012244Y-51785119D01*
X139974732Y-51877780D01*
X139932333Y-51981472D01*
X139890663Y-52082526D01*
X139844690Y-52193607D01*
X139802107Y-52296541D01*
X139764221Y-52388165D01*
X139732340Y-52465316D01*
X139707771Y-52524831D01*
X139691820Y-52563544D01*
X139685910Y-52578000D01*
X139671948Y-52592685D01*
X139644940Y-52592642D01*
X139601413Y-52577099D01*
X139537890Y-52545284D01*
X139537388Y-52545013D01*
X139489560Y-52520323D01*
X139450897Y-52502338D01*
X139429095Y-52494614D01*
X139428133Y-52494543D01*
X139411721Y-52502378D01*
X139375487Y-52524165D01*
X139323474Y-52557328D01*
X139259725Y-52599291D01*
X139189060Y-52646943D01*
X139117116Y-52695191D01*
X139052274Y-52737151D01*
X138998735Y-52770227D01*
X138960697Y-52791821D01*
X138942533Y-52799343D01*
X138925808Y-52789457D01*
X138892180Y-52761826D01*
X138845010Y-52719495D01*
X138787658Y-52665505D01*
X138723484Y-52602899D01*
X138702497Y-52581983D01*
X138485499Y-52364623D01*
X138650668Y-52122220D01*
X138700864Y-52047781D01*
X138744919Y-51980972D01*
X138780362Y-51925665D01*
X138804719Y-51885729D01*
X138815522Y-51865036D01*
X138815838Y-51863563D01*
X138810143Y-51844058D01*
X138794826Y-51804822D01*
X138772537Y-51752430D01*
X138756893Y-51717355D01*
X138727641Y-51650201D01*
X138700094Y-51582358D01*
X138678737Y-51525034D01*
X138672935Y-51507572D01*
X138656452Y-51460938D01*
X138640340Y-51424905D01*
X138631490Y-51411287D01*
X138611960Y-51402952D01*
X138569334Y-51391137D01*
X138509145Y-51377181D01*
X138436922Y-51362422D01*
X138404600Y-51356355D01*
X138322522Y-51341273D01*
X138243795Y-51326669D01*
X138176109Y-51313980D01*
X138127160Y-51304642D01*
X138117943Y-51302839D01*
X138041743Y-51287799D01*
X138041743Y-50970492D01*
X138041914Y-50866154D01*
X138042616Y-50787213D01*
X138044134Y-50730038D01*
X138046749Y-50690999D01*
X138050746Y-50666465D01*
X138056409Y-50652805D01*
X138064020Y-50646389D01*
X138067143Y-50645199D01*
X138085978Y-50640980D01*
X138127588Y-50632562D01*
X138186630Y-50620961D01*
X138257757Y-50607195D01*
X138335625Y-50592280D01*
X138414887Y-50577232D01*
X138490198Y-50563069D01*
X138556213Y-50550806D01*
X138607587Y-50541461D01*
X138638975Y-50536050D01*
X138645959Y-50535114D01*
X138652285Y-50522596D01*
X138666290Y-50489246D01*
X138685355Y-50441377D01*
X138692634Y-50422629D01*
X138721996Y-50350195D01*
X138756571Y-50270170D01*
X138787537Y-50202728D01*
X138810323Y-50151159D01*
X138825482Y-50108785D01*
X138830542Y-50082834D01*
X138829736Y-50079356D01*
X138819041Y-50062936D01*
X138794620Y-50026417D01*
X138759095Y-49973687D01*
X138715087Y-49908635D01*
X138665217Y-49835151D01*
X138655356Y-49820645D01*
X138597492Y-49734704D01*
X138554956Y-49669261D01*
X138526054Y-49621304D01*
X138509090Y-49587820D01*
X138502367Y-49565795D01*
X138504190Y-49552217D01*
X138504236Y-49552131D01*
X138518586Y-49534297D01*
X138550323Y-49499817D01*
X138596010Y-49452268D01*
X138652204Y-49395222D01*
X138715468Y-49332255D01*
X138722602Y-49325227D01*
X138802330Y-49248020D01*
X138863857Y-49191330D01*
X138908421Y-49154110D01*
X138937257Y-49135315D01*
X138949958Y-49132889D01*
X138968494Y-49143471D01*
X139006961Y-49167916D01*
X139061386Y-49203612D01*
X139127798Y-49247947D01*
X139202225Y-49298311D01*
X139219601Y-49310160D01*
X139466297Y-49478626D01*
X139577706Y-49428062D01*
X139645457Y-49398595D01*
X139718183Y-49368959D01*
X139780703Y-49345330D01*
X139783457Y-49344358D01*
X139832360Y-49326457D01*
X139870057Y-49311320D01*
X139888425Y-49302210D01*
X139888456Y-49302184D01*
X139894285Y-49285717D01*
X139904192Y-49245219D01*
X139917195Y-49185242D01*
X139932309Y-49110340D01*
X139948552Y-49025064D01*
X139949881Y-49017875D01*
X139966175Y-48930014D01*
X139981133Y-48850260D01*
X139993791Y-48783681D01*
X140003186Y-48735347D01*
X140008354Y-48710325D01*
X140008444Y-48709943D01*
X140011589Y-48699299D01*
X140017704Y-48691262D01*
X140030453Y-48685467D01*
X140053500Y-48681547D01*
X140090509Y-48679135D01*
X140145144Y-48677865D01*
X140221067Y-48677371D01*
X140321944Y-48677286D01*
X140335000Y-48677286D01*
X140438910Y-48677348D01*
G36*
X143488595Y-53401966D02*
G01*
X143546021Y-53439497D01*
X143573719Y-53473096D01*
X143595662Y-53534064D01*
X143597405Y-53582308D01*
X143593457Y-53646816D01*
X143444686Y-53711934D01*
X143372349Y-53745202D01*
X143325084Y-53771964D01*
X143300507Y-53795144D01*
X143296237Y-53817667D01*
X143309889Y-53842455D01*
X143324943Y-53858886D01*
X143368746Y-53885235D01*
X143416389Y-53887081D01*
X143460145Y-53866546D01*
X143492289Y-53825752D01*
X143498038Y-53811347D01*
X143525576Y-53766356D01*
X143557258Y-53747182D01*
X143600714Y-53730779D01*
X143600714Y-53792966D01*
X143596872Y-53835283D01*
X143581823Y-53870969D01*
X143550280Y-53911943D01*
X143545592Y-53917267D01*
X143510506Y-53953720D01*
X143480347Y-53973283D01*
X143442615Y-53982283D01*
X143411335Y-53985230D01*
X143355385Y-53985965D01*
X143315555Y-53976660D01*
X143290708Y-53962846D01*
X143251656Y-53932467D01*
X143224625Y-53899613D01*
X143207517Y-53858294D01*
X143198238Y-53802521D01*
X143194693Y-53726305D01*
X143194410Y-53687622D01*
X143195372Y-53641247D01*
X143283007Y-53641247D01*
X143284023Y-53666126D01*
X143286556Y-53670200D01*
X143303274Y-53664665D01*
X143339249Y-53650017D01*
X143387331Y-53629190D01*
X143397386Y-53624714D01*
X143458152Y-53593814D01*
X143491632Y-53566657D01*
X143498990Y-53541220D01*
X143481391Y-53515481D01*
X143466856Y-53504109D01*
X143414410Y-53481364D01*
X143365322Y-53485122D01*
X143324227Y-53512884D01*
X143295758Y-53562152D01*
X143286631Y-53601257D01*
X143283007Y-53641247D01*
X143195372Y-53641247D01*
X143196285Y-53597249D01*
X143203196Y-53530384D01*
X143216884Y-53481695D01*
X143239096Y-53445849D01*
X143271574Y-53417513D01*
X143285733Y-53408355D01*
X143350053Y-53384507D01*
X143420473Y-53383006D01*
X143488595Y-53401966D01*
G37*
X143488595Y-53401966D02*
X143546021Y-53439497D01*
X143573719Y-53473096D01*
X143595662Y-53534064D01*
X143597405Y-53582308D01*
X143593457Y-53646816D01*
X143444686Y-53711934D01*
X143372349Y-53745202D01*
X143325084Y-53771964D01*
X143300507Y-53795144D01*
X143296237Y-53817667D01*
X143309889Y-53842455D01*
X143324943Y-53858886D01*
X143368746Y-53885235D01*
X143416389Y-53887081D01*
X143460145Y-53866546D01*
X143492289Y-53825752D01*
X143498038Y-53811347D01*
X143525576Y-53766356D01*
X143557258Y-53747182D01*
X143600714Y-53730779D01*
X143600714Y-53792966D01*
X143596872Y-53835283D01*
X143581823Y-53870969D01*
X143550280Y-53911943D01*
X143545592Y-53917267D01*
X143510506Y-53953720D01*
X143480347Y-53973283D01*
X143442615Y-53982283D01*
X143411335Y-53985230D01*
X143355385Y-53985965D01*
X143315555Y-53976660D01*
X143290708Y-53962846D01*
X143251656Y-53932467D01*
X143224625Y-53899613D01*
X143207517Y-53858294D01*
X143198238Y-53802521D01*
X143194693Y-53726305D01*
X143194410Y-53687622D01*
X143195372Y-53641247D01*
X143283007Y-53641247D01*
X143284023Y-53666126D01*
X143286556Y-53670200D01*
X143303274Y-53664665D01*
X143339249Y-53650017D01*
X143387331Y-53629190D01*
X143397386Y-53624714D01*
X143458152Y-53593814D01*
X143491632Y-53566657D01*
X143498990Y-53541220D01*
X143481391Y-53515481D01*
X143466856Y-53504109D01*
X143414410Y-53481364D01*
X143365322Y-53485122D01*
X143324227Y-53512884D01*
X143295758Y-53562152D01*
X143286631Y-53601257D01*
X143283007Y-53641247D01*
X143195372Y-53641247D01*
X143196285Y-53597249D01*
X143203196Y-53530384D01*
X143216884Y-53481695D01*
X143239096Y-53445849D01*
X143271574Y-53417513D01*
X143285733Y-53408355D01*
X143350053Y-53384507D01*
X143420473Y-53383006D01*
X143488595Y-53401966D01*
G36*
X142987600Y-53393752D02*
G01*
X143004948Y-53401334D01*
X143046356Y-53434128D01*
X143081765Y-53481547D01*
X143103664Y-53532151D01*
X143107229Y-53557098D01*
X143095279Y-53591927D01*
X143069067Y-53610357D01*
X143040964Y-53621516D01*
X143028095Y-53623572D01*
X143021829Y-53608649D01*
X143009456Y-53576175D01*
X143004028Y-53561502D01*
X142973590Y-53510744D01*
X142929520Y-53485427D01*
X142873010Y-53486206D01*
X142868825Y-53487203D01*
X142838655Y-53501507D01*
X142816476Y-53529393D01*
X142801327Y-53574287D01*
X142792250Y-53639615D01*
X142788286Y-53728804D01*
X142787914Y-53776261D01*
X142787730Y-53851071D01*
X142786522Y-53902069D01*
X142783309Y-53934471D01*
X142777109Y-53953495D01*
X142766940Y-53964356D01*
X142751819Y-53972272D01*
X142750946Y-53972670D01*
X142721828Y-53984981D01*
X142707403Y-53989514D01*
X142705186Y-53975809D01*
X142703289Y-53937925D01*
X142701847Y-53880715D01*
X142700998Y-53809027D01*
X142700829Y-53756565D01*
X142701692Y-53655047D01*
X142705070Y-53578032D01*
X142712142Y-53521023D01*
X142724088Y-53479526D01*
X142742090Y-53449043D01*
X142767327Y-53425080D01*
X142792247Y-53408355D01*
X142852171Y-53386097D01*
X142921911Y-53381076D01*
X142987600Y-53393752D01*
G37*
X142987600Y-53393752D02*
X143004948Y-53401334D01*
X143046356Y-53434128D01*
X143081765Y-53481547D01*
X143103664Y-53532151D01*
X143107229Y-53557098D01*
X143095279Y-53591927D01*
X143069067Y-53610357D01*
X143040964Y-53621516D01*
X143028095Y-53623572D01*
X143021829Y-53608649D01*
X143009456Y-53576175D01*
X143004028Y-53561502D01*
X142973590Y-53510744D01*
X142929520Y-53485427D01*
X142873010Y-53486206D01*
X142868825Y-53487203D01*
X142838655Y-53501507D01*
X142816476Y-53529393D01*
X142801327Y-53574287D01*
X142792250Y-53639615D01*
X142788286Y-53728804D01*
X142787914Y-53776261D01*
X142787730Y-53851071D01*
X142786522Y-53902069D01*
X142783309Y-53934471D01*
X142777109Y-53953495D01*
X142766940Y-53964356D01*
X142751819Y-53972272D01*
X142750946Y-53972670D01*
X142721828Y-53984981D01*
X142707403Y-53989514D01*
X142705186Y-53975809D01*
X142703289Y-53937925D01*
X142701847Y-53880715D01*
X142700998Y-53809027D01*
X142700829Y-53756565D01*
X142701692Y-53655047D01*
X142705070Y-53578032D01*
X142712142Y-53521023D01*
X142724088Y-53479526D01*
X142742090Y-53449043D01*
X142767327Y-53425080D01*
X142792247Y-53408355D01*
X142852171Y-53386097D01*
X142921911Y-53381076D01*
X142987600Y-53393752D01*
G36*
X142479876Y-53391335D02*
G01*
X142521667Y-53410344D01*
X142554469Y-53433378D01*
X142578503Y-53459133D01*
X142595097Y-53492358D01*
X142605577Y-53537800D01*
X142611271Y-53600207D01*
X142613507Y-53684327D01*
X142613743Y-53739721D01*
X142613743Y-53955826D01*
X142576774Y-53972670D01*
X142547656Y-53984981D01*
X142533231Y-53989514D01*
X142530472Y-53976025D01*
X142528282Y-53939653D01*
X142526942Y-53886542D01*
X142526657Y-53844372D01*
X142525434Y-53783447D01*
X142522136Y-53735115D01*
X142517321Y-53705518D01*
X142513496Y-53699229D01*
X142487783Y-53705652D01*
X142447418Y-53722125D01*
X142400679Y-53744458D01*
X142355845Y-53768457D01*
X142321193Y-53789930D01*
X142305002Y-53804685D01*
X142304938Y-53804845D01*
X142306330Y-53832152D01*
X142318818Y-53858219D01*
X142340743Y-53879392D01*
X142372743Y-53886474D01*
X142400092Y-53885649D01*
X142438826Y-53885042D01*
X142459158Y-53894116D01*
X142471369Y-53918092D01*
X142472909Y-53922613D01*
X142478203Y-53956806D01*
X142464047Y-53977568D01*
X142427148Y-53987462D01*
X142387289Y-53989292D01*
X142315562Y-53975727D01*
X142278432Y-53956355D01*
X142232576Y-53910845D01*
X142208256Y-53854983D01*
X142206073Y-53795957D01*
X142226629Y-53740953D01*
X142257549Y-53706486D01*
X142288420Y-53687189D01*
X142336942Y-53662759D01*
X142393485Y-53637985D01*
X142402910Y-53634199D01*
X142465019Y-53606791D01*
X142500822Y-53582634D01*
X142512337Y-53558619D01*
X142501580Y-53531635D01*
X142483114Y-53510543D01*
X142439469Y-53484572D01*
X142391446Y-53482624D01*
X142347406Y-53502637D01*
X142315709Y-53542551D01*
X142311549Y-53552848D01*
X142287327Y-53590724D01*
X142251965Y-53618842D01*
X142207343Y-53641917D01*
X142207343Y-53576485D01*
X142209969Y-53536506D01*
X142221230Y-53504997D01*
X142246199Y-53471378D01*
X142270169Y-53445484D01*
X142307441Y-53408817D01*
X142336401Y-53389121D01*
X142367505Y-53381220D01*
X142402713Y-53379914D01*
X142479876Y-53391335D01*
G37*
X142479876Y-53391335D02*
X142521667Y-53410344D01*
X142554469Y-53433378D01*
X142578503Y-53459133D01*
X142595097Y-53492358D01*
X142605577Y-53537800D01*
X142611271Y-53600207D01*
X142613507Y-53684327D01*
X142613743Y-53739721D01*
X142613743Y-53955826D01*
X142576774Y-53972670D01*
X142547656Y-53984981D01*
X142533231Y-53989514D01*
X142530472Y-53976025D01*
X142528282Y-53939653D01*
X142526942Y-53886542D01*
X142526657Y-53844372D01*
X142525434Y-53783447D01*
X142522136Y-53735115D01*
X142517321Y-53705518D01*
X142513496Y-53699229D01*
X142487783Y-53705652D01*
X142447418Y-53722125D01*
X142400679Y-53744458D01*
X142355845Y-53768457D01*
X142321193Y-53789930D01*
X142305002Y-53804685D01*
X142304938Y-53804845D01*
X142306330Y-53832152D01*
X142318818Y-53858219D01*
X142340743Y-53879392D01*
X142372743Y-53886474D01*
X142400092Y-53885649D01*
X142438826Y-53885042D01*
X142459158Y-53894116D01*
X142471369Y-53918092D01*
X142472909Y-53922613D01*
X142478203Y-53956806D01*
X142464047Y-53977568D01*
X142427148Y-53987462D01*
X142387289Y-53989292D01*
X142315562Y-53975727D01*
X142278432Y-53956355D01*
X142232576Y-53910845D01*
X142208256Y-53854983D01*
X142206073Y-53795957D01*
X142226629Y-53740953D01*
X142257549Y-53706486D01*
X142288420Y-53687189D01*
X142336942Y-53662759D01*
X142393485Y-53637985D01*
X142402910Y-53634199D01*
X142465019Y-53606791D01*
X142500822Y-53582634D01*
X142512337Y-53558619D01*
X142501580Y-53531635D01*
X142483114Y-53510543D01*
X142439469Y-53484572D01*
X142391446Y-53482624D01*
X142347406Y-53502637D01*
X142315709Y-53542551D01*
X142311549Y-53552848D01*
X142287327Y-53590724D01*
X142251965Y-53618842D01*
X142207343Y-53641917D01*
X142207343Y-53576485D01*
X142209969Y-53536506D01*
X142221230Y-53504997D01*
X142246199Y-53471378D01*
X142270169Y-53445484D01*
X142307441Y-53408817D01*
X142336401Y-53389121D01*
X142367505Y-53381220D01*
X142402713Y-53379914D01*
X142479876Y-53391335D01*
G36*
X142114833Y-53393663D02*
G01*
X142117048Y-53431850D01*
X142118784Y-53489886D01*
X142119899Y-53563180D01*
X142120257Y-53640055D01*
X142120257Y-53900196D01*
X142074326Y-53946127D01*
X142042675Y-53974429D01*
X142014890Y-53985893D01*
X141976915Y-53985168D01*
X141961840Y-53983321D01*
X141914726Y-53977948D01*
X141875756Y-53974869D01*
X141866257Y-53974585D01*
X141834233Y-53976445D01*
X141788432Y-53981114D01*
X141770674Y-53983321D01*
X141727057Y-53986735D01*
X141697745Y-53979320D01*
X141668680Y-53956427D01*
X141658188Y-53946127D01*
X141612257Y-53900196D01*
X141612257Y-53413602D01*
X141649226Y-53396758D01*
X141681059Y-53384282D01*
X141699683Y-53379914D01*
X141704458Y-53393718D01*
X141708921Y-53432286D01*
X141712775Y-53491356D01*
X141715722Y-53566663D01*
X141717143Y-53630286D01*
X141721114Y-53880657D01*
X141755759Y-53885556D01*
X141787268Y-53882131D01*
X141802708Y-53871041D01*
X141807023Y-53850308D01*
X141810708Y-53806145D01*
X141813469Y-53744146D01*
X141815012Y-53669909D01*
X141815235Y-53631706D01*
X141815457Y-53411783D01*
X141861166Y-53395849D01*
X141893518Y-53385015D01*
X141911115Y-53379962D01*
X141911623Y-53379914D01*
X141913388Y-53393648D01*
X141915329Y-53431730D01*
X141917282Y-53489482D01*
X141919084Y-53562227D01*
X141920343Y-53630286D01*
X141924314Y-53880657D01*
X142011400Y-53880657D01*
X142015396Y-53652240D01*
X142019392Y-53423822D01*
X142061847Y-53401868D01*
X142093192Y-53386793D01*
X142111744Y-53379951D01*
X142112279Y-53379914D01*
X142114833Y-53393663D01*
G37*
X142114833Y-53393663D02*
X142117048Y-53431850D01*
X142118784Y-53489886D01*
X142119899Y-53563180D01*
X142120257Y-53640055D01*
X142120257Y-53900196D01*
X142074326Y-53946127D01*
X142042675Y-53974429D01*
X142014890Y-53985893D01*
X141976915Y-53985168D01*
X141961840Y-53983321D01*
X141914726Y-53977948D01*
X141875756Y-53974869D01*
X141866257Y-53974585D01*
X141834233Y-53976445D01*
X141788432Y-53981114D01*
X141770674Y-53983321D01*
X141727057Y-53986735D01*
X141697745Y-53979320D01*
X141668680Y-53956427D01*
X141658188Y-53946127D01*
X141612257Y-53900196D01*
X141612257Y-53413602D01*
X141649226Y-53396758D01*
X141681059Y-53384282D01*
X141699683Y-53379914D01*
X141704458Y-53393718D01*
X141708921Y-53432286D01*
X141712775Y-53491356D01*
X141715722Y-53566663D01*
X141717143Y-53630286D01*
X141721114Y-53880657D01*
X141755759Y-53885556D01*
X141787268Y-53882131D01*
X141802708Y-53871041D01*
X141807023Y-53850308D01*
X141810708Y-53806145D01*
X141813469Y-53744146D01*
X141815012Y-53669909D01*
X141815235Y-53631706D01*
X141815457Y-53411783D01*
X141861166Y-53395849D01*
X141893518Y-53385015D01*
X141911115Y-53379962D01*
X141911623Y-53379914D01*
X141913388Y-53393648D01*
X141915329Y-53431730D01*
X141917282Y-53489482D01*
X141919084Y-53562227D01*
X141920343Y-53630286D01*
X141924314Y-53880657D01*
X142011400Y-53880657D01*
X142015396Y-53652240D01*
X142019392Y-53423822D01*
X142061847Y-53401868D01*
X142093192Y-53386793D01*
X142111744Y-53379951D01*
X142112279Y-53379914D01*
X142114833Y-53393663D01*
G36*
X141525117Y-53500358D02*
G01*
X141524933Y-53608837D01*
X141524219Y-53692287D01*
X141522675Y-53754704D01*
X141520001Y-53800085D01*
X141515894Y-53832429D01*
X141510055Y-53855733D01*
X141502182Y-53873995D01*
X141496221Y-53884418D01*
X141446855Y-53940945D01*
X141384264Y-53976377D01*
X141315013Y-53989090D01*
X141245668Y-53977463D01*
X141204375Y-53956568D01*
X141161025Y-53920422D01*
X141131481Y-53876276D01*
X141113655Y-53818462D01*
X141105463Y-53741313D01*
X141104302Y-53684714D01*
X141104458Y-53680647D01*
X141205857Y-53680647D01*
X141206476Y-53745550D01*
X141209314Y-53788514D01*
X141215840Y-53816622D01*
X141227523Y-53836953D01*
X141241483Y-53852288D01*
X141288365Y-53881890D01*
X141338701Y-53884419D01*
X141386276Y-53859705D01*
X141389979Y-53856356D01*
X141405783Y-53838935D01*
X141415693Y-53818209D01*
X141421058Y-53787362D01*
X141423228Y-53739577D01*
X141423571Y-53686748D01*
X141422827Y-53620381D01*
X141419748Y-53576106D01*
X141413061Y-53547009D01*
X141401496Y-53526173D01*
X141392013Y-53515107D01*
X141347960Y-53487198D01*
X141297224Y-53483843D01*
X141248796Y-53505159D01*
X141239450Y-53513073D01*
X141223540Y-53530647D01*
X141213610Y-53551587D01*
X141208278Y-53582782D01*
X141206163Y-53631122D01*
X141205857Y-53680647D01*
X141104458Y-53680647D01*
X141107810Y-53593568D01*
X141119726Y-53525086D01*
X141142135Y-53473600D01*
X141177124Y-53433443D01*
X141204375Y-53412861D01*
X141253907Y-53390625D01*
X141311316Y-53380304D01*
X141364682Y-53383067D01*
X141394543Y-53394212D01*
X141406261Y-53397383D01*
X141414037Y-53385557D01*
X141419465Y-53353866D01*
X141423571Y-53305593D01*
X141428067Y-53251829D01*
X141434313Y-53219482D01*
X141445676Y-53200985D01*
X141465528Y-53188770D01*
X141478000Y-53183362D01*
X141525171Y-53163601D01*
X141525117Y-53500358D01*
G37*
X141525117Y-53500358D02*
X141524933Y-53608837D01*
X141524219Y-53692287D01*
X141522675Y-53754704D01*
X141520001Y-53800085D01*
X141515894Y-53832429D01*
X141510055Y-53855733D01*
X141502182Y-53873995D01*
X141496221Y-53884418D01*
X141446855Y-53940945D01*
X141384264Y-53976377D01*
X141315013Y-53989090D01*
X141245668Y-53977463D01*
X141204375Y-53956568D01*
X141161025Y-53920422D01*
X141131481Y-53876276D01*
X141113655Y-53818462D01*
X141105463Y-53741313D01*
X141104302Y-53684714D01*
X141104458Y-53680647D01*
X141205857Y-53680647D01*
X141206476Y-53745550D01*
X141209314Y-53788514D01*
X141215840Y-53816622D01*
X141227523Y-53836953D01*
X141241483Y-53852288D01*
X141288365Y-53881890D01*
X141338701Y-53884419D01*
X141386276Y-53859705D01*
X141389979Y-53856356D01*
X141405783Y-53838935D01*
X141415693Y-53818209D01*
X141421058Y-53787362D01*
X141423228Y-53739577D01*
X141423571Y-53686748D01*
X141422827Y-53620381D01*
X141419748Y-53576106D01*
X141413061Y-53547009D01*
X141401496Y-53526173D01*
X141392013Y-53515107D01*
X141347960Y-53487198D01*
X141297224Y-53483843D01*
X141248796Y-53505159D01*
X141239450Y-53513073D01*
X141223540Y-53530647D01*
X141213610Y-53551587D01*
X141208278Y-53582782D01*
X141206163Y-53631122D01*
X141205857Y-53680647D01*
X141104458Y-53680647D01*
X141107810Y-53593568D01*
X141119726Y-53525086D01*
X141142135Y-53473600D01*
X141177124Y-53433443D01*
X141204375Y-53412861D01*
X141253907Y-53390625D01*
X141311316Y-53380304D01*
X141364682Y-53383067D01*
X141394543Y-53394212D01*
X141406261Y-53397383D01*
X141414037Y-53385557D01*
X141419465Y-53353866D01*
X141423571Y-53305593D01*
X141428067Y-53251829D01*
X141434313Y-53219482D01*
X141445676Y-53200985D01*
X141465528Y-53188770D01*
X141478000Y-53183362D01*
X141525171Y-53163601D01*
X141525117Y-53500358D01*
G36*
X140864926Y-53384755D02*
G01*
X140930858Y-53409084D01*
X140984273Y-53452117D01*
X141005164Y-53482409D01*
X141027939Y-53537994D01*
X141027466Y-53578186D01*
X141003562Y-53605217D01*
X140994717Y-53609813D01*
X140956530Y-53624144D01*
X140937028Y-53620472D01*
X140930422Y-53596407D01*
X140930086Y-53583114D01*
X140917992Y-53534210D01*
X140886471Y-53499999D01*
X140842659Y-53483476D01*
X140793695Y-53487634D01*
X140753894Y-53509227D01*
X140740450Y-53521544D01*
X140730921Y-53536487D01*
X140724485Y-53559075D01*
X140720317Y-53594328D01*
X140717597Y-53647266D01*
X140715502Y-53722907D01*
X140714960Y-53746857D01*
X140712981Y-53828790D01*
X140710731Y-53886455D01*
X140707357Y-53924608D01*
X140702006Y-53948004D01*
X140693824Y-53961398D01*
X140681959Y-53969545D01*
X140674362Y-53973144D01*
X140642102Y-53985452D01*
X140623111Y-53989514D01*
X140616836Y-53975948D01*
X140613006Y-53934934D01*
X140611600Y-53865999D01*
X140612598Y-53768669D01*
X140612908Y-53753657D01*
X140615101Y-53664859D01*
X140617693Y-53600019D01*
X140621382Y-53554067D01*
X140626864Y-53521935D01*
X140634835Y-53498553D01*
X140645993Y-53478852D01*
X140651830Y-53470410D01*
X140685296Y-53433057D01*
X140722727Y-53404003D01*
X140727309Y-53401467D01*
X140794426Y-53381443D01*
X140864926Y-53384755D01*
G37*
X140864926Y-53384755D02*
X140930858Y-53409084D01*
X140984273Y-53452117D01*
X141005164Y-53482409D01*
X141027939Y-53537994D01*
X141027466Y-53578186D01*
X141003562Y-53605217D01*
X140994717Y-53609813D01*
X140956530Y-53624144D01*
X140937028Y-53620472D01*
X140930422Y-53596407D01*
X140930086Y-53583114D01*
X140917992Y-53534210D01*
X140886471Y-53499999D01*
X140842659Y-53483476D01*
X140793695Y-53487634D01*
X140753894Y-53509227D01*
X140740450Y-53521544D01*
X140730921Y-53536487D01*
X140724485Y-53559075D01*
X140720317Y-53594328D01*
X140717597Y-53647266D01*
X140715502Y-53722907D01*
X140714960Y-53746857D01*
X140712981Y-53828790D01*
X140710731Y-53886455D01*
X140707357Y-53924608D01*
X140702006Y-53948004D01*
X140693824Y-53961398D01*
X140681959Y-53969545D01*
X140674362Y-53973144D01*
X140642102Y-53985452D01*
X140623111Y-53989514D01*
X140616836Y-53975948D01*
X140613006Y-53934934D01*
X140611600Y-53865999D01*
X140612598Y-53768669D01*
X140612908Y-53753657D01*
X140615101Y-53664859D01*
X140617693Y-53600019D01*
X140621382Y-53554067D01*
X140626864Y-53521935D01*
X140634835Y-53498553D01*
X140645993Y-53478852D01*
X140651830Y-53470410D01*
X140685296Y-53433057D01*
X140722727Y-53404003D01*
X140727309Y-53401467D01*
X140794426Y-53381443D01*
X140864926Y-53384755D01*
G36*
X140374744Y-53385968D02*
G01*
X140431616Y-53407087D01*
X140432267Y-53407493D01*
X140467440Y-53433380D01*
X140493407Y-53463633D01*
X140511670Y-53503058D01*
X140523732Y-53556462D01*
X140531096Y-53628651D01*
X140535264Y-53724432D01*
X140535629Y-53738078D01*
X140540876Y-53943842D01*
X140496716Y-53966678D01*
X140464763Y-53982110D01*
X140445470Y-53989423D01*
X140444578Y-53989514D01*
X140441239Y-53976022D01*
X140438587Y-53939626D01*
X140436956Y-53886452D01*
X140436600Y-53843393D01*
X140436592Y-53773641D01*
X140433403Y-53729837D01*
X140422288Y-53708944D01*
X140398501Y-53707925D01*
X140357296Y-53723741D01*
X140295086Y-53752815D01*
X140249341Y-53776963D01*
X140225813Y-53797913D01*
X140218896Y-53820747D01*
X140218886Y-53821877D01*
X140230299Y-53861212D01*
X140264092Y-53882462D01*
X140315809Y-53885539D01*
X140353061Y-53885006D01*
X140372703Y-53895735D01*
X140384952Y-53921505D01*
X140392002Y-53954337D01*
X140381842Y-53972966D01*
X140378017Y-53975632D01*
X140342001Y-53986340D01*
X140291566Y-53987856D01*
X140239626Y-53980759D01*
X140202822Y-53967788D01*
X140151938Y-53924585D01*
X140123014Y-53864446D01*
X140117286Y-53817462D01*
X140121657Y-53775082D01*
X140137475Y-53740488D01*
X140168797Y-53709763D01*
X140219678Y-53678990D01*
X140294176Y-53644252D01*
X140298714Y-53642288D01*
X140365821Y-53611287D01*
X140407232Y-53585862D01*
X140424981Y-53563014D01*
X140421107Y-53539745D01*
X140397643Y-53513056D01*
X140390627Y-53506914D01*
X140343630Y-53483100D01*
X140294933Y-53484103D01*
X140252522Y-53507451D01*
X140224384Y-53550675D01*
X140221769Y-53559160D01*
X140196308Y-53600308D01*
X140164001Y-53620128D01*
X140117286Y-53639770D01*
X140117286Y-53588950D01*
X140131496Y-53515082D01*
X140173675Y-53447327D01*
X140195624Y-53424661D01*
X140245517Y-53395569D01*
X140308967Y-53382400D01*
X140374744Y-53385968D01*
G37*
X140374744Y-53385968D02*
X140431616Y-53407087D01*
X140432267Y-53407493D01*
X140467440Y-53433380D01*
X140493407Y-53463633D01*
X140511670Y-53503058D01*
X140523732Y-53556462D01*
X140531096Y-53628651D01*
X140535264Y-53724432D01*
X140535629Y-53738078D01*
X140540876Y-53943842D01*
X140496716Y-53966678D01*
X140464763Y-53982110D01*
X140445470Y-53989423D01*
X140444578Y-53989514D01*
X140441239Y-53976022D01*
X140438587Y-53939626D01*
X140436956Y-53886452D01*
X140436600Y-53843393D01*
X140436592Y-53773641D01*
X140433403Y-53729837D01*
X140422288Y-53708944D01*
X140398501Y-53707925D01*
X140357296Y-53723741D01*
X140295086Y-53752815D01*
X140249341Y-53776963D01*
X140225813Y-53797913D01*
X140218896Y-53820747D01*
X140218886Y-53821877D01*
X140230299Y-53861212D01*
X140264092Y-53882462D01*
X140315809Y-53885539D01*
X140353061Y-53885006D01*
X140372703Y-53895735D01*
X140384952Y-53921505D01*
X140392002Y-53954337D01*
X140381842Y-53972966D01*
X140378017Y-53975632D01*
X140342001Y-53986340D01*
X140291566Y-53987856D01*
X140239626Y-53980759D01*
X140202822Y-53967788D01*
X140151938Y-53924585D01*
X140123014Y-53864446D01*
X140117286Y-53817462D01*
X140121657Y-53775082D01*
X140137475Y-53740488D01*
X140168797Y-53709763D01*
X140219678Y-53678990D01*
X140294176Y-53644252D01*
X140298714Y-53642288D01*
X140365821Y-53611287D01*
X140407232Y-53585862D01*
X140424981Y-53563014D01*
X140421107Y-53539745D01*
X140397643Y-53513056D01*
X140390627Y-53506914D01*
X140343630Y-53483100D01*
X140294933Y-53484103D01*
X140252522Y-53507451D01*
X140224384Y-53550675D01*
X140221769Y-53559160D01*
X140196308Y-53600308D01*
X140164001Y-53620128D01*
X140117286Y-53639770D01*
X140117286Y-53588950D01*
X140131496Y-53515082D01*
X140173675Y-53447327D01*
X140195624Y-53424661D01*
X140245517Y-53395569D01*
X140308967Y-53382400D01*
X140374744Y-53385968D01*
G36*
X139710886Y-53286289D02*
G01*
X139715139Y-53345613D01*
X139720025Y-53380572D01*
X139726795Y-53395820D01*
X139736702Y-53396015D01*
X139739914Y-53394195D01*
X139782644Y-53381015D01*
X139838227Y-53381785D01*
X139894737Y-53395333D01*
X139930082Y-53412861D01*
X139966321Y-53440861D01*
X139992813Y-53472549D01*
X140010999Y-53512813D01*
X140022322Y-53566543D01*
X140028222Y-53638626D01*
X140030143Y-53733951D01*
X140030177Y-53752237D01*
X140030200Y-53957646D01*
X139984491Y-53973580D01*
X139952027Y-53984420D01*
X139934215Y-53989468D01*
X139933691Y-53989514D01*
X139931937Y-53975828D01*
X139930444Y-53938076D01*
X139929326Y-53881224D01*
X139928697Y-53810234D01*
X139928600Y-53767073D01*
X139928398Y-53681973D01*
X139927358Y-53620981D01*
X139924831Y-53579177D01*
X139920164Y-53551642D01*
X139912707Y-53533456D01*
X139901811Y-53519698D01*
X139895007Y-53513073D01*
X139848272Y-53486375D01*
X139797272Y-53484375D01*
X139751001Y-53506955D01*
X139742444Y-53515107D01*
X139729893Y-53530436D01*
X139721188Y-53548618D01*
X139715631Y-53574909D01*
X139712526Y-53614562D01*
X139711176Y-53672832D01*
X139710886Y-53753173D01*
X139710886Y-53957646D01*
X139665177Y-53973580D01*
X139632713Y-53984420D01*
X139614901Y-53989468D01*
X139614377Y-53989514D01*
X139613037Y-53975623D01*
X139611828Y-53936439D01*
X139610801Y-53875700D01*
X139610002Y-53797141D01*
X139609481Y-53704498D01*
X139609286Y-53601509D01*
X139609286Y-53204342D01*
X139656457Y-53184444D01*
X139703629Y-53164547D01*
X139710886Y-53286289D01*
G37*
X139710886Y-53286289D02*
X139715139Y-53345613D01*
X139720025Y-53380572D01*
X139726795Y-53395820D01*
X139736702Y-53396015D01*
X139739914Y-53394195D01*
X139782644Y-53381015D01*
X139838227Y-53381785D01*
X139894737Y-53395333D01*
X139930082Y-53412861D01*
X139966321Y-53440861D01*
X139992813Y-53472549D01*
X140010999Y-53512813D01*
X140022322Y-53566543D01*
X140028222Y-53638626D01*
X140030143Y-53733951D01*
X140030177Y-53752237D01*
X140030200Y-53957646D01*
X139984491Y-53973580D01*
X139952027Y-53984420D01*
X139934215Y-53989468D01*
X139933691Y-53989514D01*
X139931937Y-53975828D01*
X139930444Y-53938076D01*
X139929326Y-53881224D01*
X139928697Y-53810234D01*
X139928600Y-53767073D01*
X139928398Y-53681973D01*
X139927358Y-53620981D01*
X139924831Y-53579177D01*
X139920164Y-53551642D01*
X139912707Y-53533456D01*
X139901811Y-53519698D01*
X139895007Y-53513073D01*
X139848272Y-53486375D01*
X139797272Y-53484375D01*
X139751001Y-53506955D01*
X139742444Y-53515107D01*
X139729893Y-53530436D01*
X139721188Y-53548618D01*
X139715631Y-53574909D01*
X139712526Y-53614562D01*
X139711176Y-53672832D01*
X139710886Y-53753173D01*
X139710886Y-53957646D01*
X139665177Y-53973580D01*
X139632713Y-53984420D01*
X139614901Y-53989468D01*
X139614377Y-53989514D01*
X139613037Y-53975623D01*
X139611828Y-53936439D01*
X139610801Y-53875700D01*
X139610002Y-53797141D01*
X139609481Y-53704498D01*
X139609286Y-53601509D01*
X139609286Y-53204342D01*
X139656457Y-53184444D01*
X139703629Y-53164547D01*
X139710886Y-53286289D01*
G36*
X138503303Y-53366239D02*
G01*
X138560527Y-53404735D01*
X138604749Y-53460335D01*
X138631167Y-53531086D01*
X138636510Y-53583162D01*
X138635903Y-53604893D01*
X138630822Y-53621531D01*
X138616855Y-53636437D01*
X138589589Y-53652973D01*
X138544612Y-53674498D01*
X138477511Y-53704374D01*
X138477171Y-53704524D01*
X138415407Y-53732813D01*
X138364759Y-53757933D01*
X138330404Y-53777179D01*
X138317518Y-53787848D01*
X138317514Y-53787934D01*
X138328872Y-53811166D01*
X138355431Y-53836774D01*
X138385923Y-53855221D01*
X138401370Y-53858886D01*
X138443515Y-53846212D01*
X138479808Y-53814471D01*
X138497517Y-53779572D01*
X138514552Y-53753845D01*
X138547922Y-53724546D01*
X138587149Y-53699235D01*
X138621756Y-53685471D01*
X138628993Y-53684714D01*
X138637139Y-53697160D01*
X138637630Y-53728972D01*
X138631643Y-53771866D01*
X138620357Y-53817558D01*
X138604950Y-53857761D01*
X138604171Y-53859322D01*
X138557804Y-53924062D01*
X138497711Y-53968097D01*
X138429465Y-53989711D01*
X138358638Y-53987185D01*
X138290804Y-53958804D01*
X138287788Y-53956808D01*
X138234427Y-53908448D01*
X138199340Y-53845352D01*
X138179922Y-53762387D01*
X138177316Y-53739078D01*
X138172701Y-53629055D01*
X138178233Y-53577748D01*
X138317514Y-53577748D01*
X138319324Y-53609753D01*
X138329222Y-53619093D01*
X138353898Y-53612105D01*
X138392795Y-53595587D01*
X138436275Y-53574881D01*
X138437356Y-53574333D01*
X138474209Y-53554949D01*
X138489000Y-53542013D01*
X138485353Y-53528451D01*
X138469995Y-53510632D01*
X138430923Y-53484845D01*
X138388846Y-53482950D01*
X138351103Y-53501717D01*
X138325034Y-53537915D01*
X138317514Y-53577748D01*
X138178233Y-53577748D01*
X138182194Y-53541027D01*
X138206550Y-53471212D01*
X138240456Y-53422302D01*
X138301653Y-53372878D01*
X138369063Y-53348359D01*
X138437880Y-53346797D01*
X138503303Y-53366239D01*
G37*
X138503303Y-53366239D02*
X138560527Y-53404735D01*
X138604749Y-53460335D01*
X138631167Y-53531086D01*
X138636510Y-53583162D01*
X138635903Y-53604893D01*
X138630822Y-53621531D01*
X138616855Y-53636437D01*
X138589589Y-53652973D01*
X138544612Y-53674498D01*
X138477511Y-53704374D01*
X138477171Y-53704524D01*
X138415407Y-53732813D01*
X138364759Y-53757933D01*
X138330404Y-53777179D01*
X138317518Y-53787848D01*
X138317514Y-53787934D01*
X138328872Y-53811166D01*
X138355431Y-53836774D01*
X138385923Y-53855221D01*
X138401370Y-53858886D01*
X138443515Y-53846212D01*
X138479808Y-53814471D01*
X138497517Y-53779572D01*
X138514552Y-53753845D01*
X138547922Y-53724546D01*
X138587149Y-53699235D01*
X138621756Y-53685471D01*
X138628993Y-53684714D01*
X138637139Y-53697160D01*
X138637630Y-53728972D01*
X138631643Y-53771866D01*
X138620357Y-53817558D01*
X138604950Y-53857761D01*
X138604171Y-53859322D01*
X138557804Y-53924062D01*
X138497711Y-53968097D01*
X138429465Y-53989711D01*
X138358638Y-53987185D01*
X138290804Y-53958804D01*
X138287788Y-53956808D01*
X138234427Y-53908448D01*
X138199340Y-53845352D01*
X138179922Y-53762387D01*
X138177316Y-53739078D01*
X138172701Y-53629055D01*
X138178233Y-53577748D01*
X138317514Y-53577748D01*
X138319324Y-53609753D01*
X138329222Y-53619093D01*
X138353898Y-53612105D01*
X138392795Y-53595587D01*
X138436275Y-53574881D01*
X138437356Y-53574333D01*
X138474209Y-53554949D01*
X138489000Y-53542013D01*
X138485353Y-53528451D01*
X138469995Y-53510632D01*
X138430923Y-53484845D01*
X138388846Y-53482950D01*
X138351103Y-53501717D01*
X138325034Y-53537915D01*
X138317514Y-53577748D01*
X138178233Y-53577748D01*
X138182194Y-53541027D01*
X138206550Y-53471212D01*
X138240456Y-53422302D01*
X138301653Y-53372878D01*
X138369063Y-53348359D01*
X138437880Y-53346797D01*
X138503303Y-53366239D01*
G36*
X137376115Y-53356962D02*
G01*
X137444145Y-53392733D01*
X137494351Y-53450301D01*
X137512185Y-53487312D01*
X137526063Y-53542882D01*
X137533167Y-53613096D01*
X137533840Y-53689727D01*
X137528427Y-53764552D01*
X137517270Y-53829342D01*
X137500714Y-53875873D01*
X137495626Y-53883887D01*
X137435355Y-53943707D01*
X137363769Y-53979535D01*
X137286092Y-53990020D01*
X137207548Y-53973810D01*
X137185689Y-53964092D01*
X137143122Y-53934143D01*
X137105763Y-53894433D01*
X137102232Y-53889397D01*
X137087881Y-53865124D01*
X137078394Y-53839178D01*
X137072790Y-53805022D01*
X137070086Y-53756119D01*
X137069299Y-53685935D01*
X137069286Y-53670200D01*
X137069322Y-53665192D01*
X137214429Y-53665192D01*
X137215273Y-53731430D01*
X137218596Y-53775386D01*
X137225583Y-53803779D01*
X137237416Y-53823325D01*
X137243457Y-53829857D01*
X137278186Y-53854680D01*
X137311903Y-53853548D01*
X137345995Y-53832016D01*
X137366329Y-53809029D01*
X137378371Y-53775478D01*
X137385134Y-53722569D01*
X137385598Y-53716399D01*
X137386752Y-53620513D01*
X137374688Y-53549299D01*
X137349570Y-53503194D01*
X137311560Y-53482635D01*
X137297992Y-53481514D01*
X137262364Y-53487152D01*
X137237994Y-53506686D01*
X137223093Y-53544042D01*
X137215875Y-53603150D01*
X137214429Y-53665192D01*
X137069322Y-53665192D01*
X137069826Y-53595413D01*
X137072096Y-53543159D01*
X137077068Y-53506949D01*
X137085713Y-53480299D01*
X137099005Y-53456722D01*
X137101943Y-53452338D01*
X137151313Y-53393249D01*
X137205109Y-53358947D01*
X137270602Y-53345331D01*
X137292842Y-53344665D01*
X137376115Y-53356962D01*
G37*
X137376115Y-53356962D02*
X137444145Y-53392733D01*
X137494351Y-53450301D01*
X137512185Y-53487312D01*
X137526063Y-53542882D01*
X137533167Y-53613096D01*
X137533840Y-53689727D01*
X137528427Y-53764552D01*
X137517270Y-53829342D01*
X137500714Y-53875873D01*
X137495626Y-53883887D01*
X137435355Y-53943707D01*
X137363769Y-53979535D01*
X137286092Y-53990020D01*
X137207548Y-53973810D01*
X137185689Y-53964092D01*
X137143122Y-53934143D01*
X137105763Y-53894433D01*
X137102232Y-53889397D01*
X137087881Y-53865124D01*
X137078394Y-53839178D01*
X137072790Y-53805022D01*
X137070086Y-53756119D01*
X137069299Y-53685935D01*
X137069286Y-53670200D01*
X137069322Y-53665192D01*
X137214429Y-53665192D01*
X137215273Y-53731430D01*
X137218596Y-53775386D01*
X137225583Y-53803779D01*
X137237416Y-53823325D01*
X137243457Y-53829857D01*
X137278186Y-53854680D01*
X137311903Y-53853548D01*
X137345995Y-53832016D01*
X137366329Y-53809029D01*
X137378371Y-53775478D01*
X137385134Y-53722569D01*
X137385598Y-53716399D01*
X137386752Y-53620513D01*
X137374688Y-53549299D01*
X137349570Y-53503194D01*
X137311560Y-53482635D01*
X137297992Y-53481514D01*
X137262364Y-53487152D01*
X137237994Y-53506686D01*
X137223093Y-53544042D01*
X137215875Y-53603150D01*
X137214429Y-53665192D01*
X137069322Y-53665192D01*
X137069826Y-53595413D01*
X137072096Y-53543159D01*
X137077068Y-53506949D01*
X137085713Y-53480299D01*
X137099005Y-53456722D01*
X137101943Y-53452338D01*
X137151313Y-53393249D01*
X137205109Y-53358947D01*
X137270602Y-53345331D01*
X137292842Y-53344665D01*
X137376115Y-53356962D01*
G36*
X139051093Y-53362780D02*
G01*
X139097672Y-53389723D01*
X139130057Y-53416466D01*
X139153742Y-53444484D01*
X139170059Y-53478748D01*
X139180339Y-53524227D01*
X139185914Y-53585892D01*
X139188116Y-53668711D01*
X139188371Y-53728246D01*
X139188371Y-53947391D01*
X139126686Y-53975044D01*
X139065000Y-54002697D01*
X139057743Y-53762670D01*
X139054744Y-53673028D01*
X139051598Y-53607962D01*
X139047701Y-53563026D01*
X139042447Y-53533770D01*
X139035231Y-53515748D01*
X139025450Y-53504511D01*
X139022312Y-53502079D01*
X138974761Y-53483083D01*
X138926697Y-53490600D01*
X138898086Y-53510543D01*
X138886447Y-53524675D01*
X138878391Y-53543220D01*
X138873271Y-53571334D01*
X138870441Y-53614173D01*
X138869256Y-53676895D01*
X138869057Y-53742261D01*
X138869018Y-53824268D01*
X138867614Y-53882316D01*
X138862914Y-53921465D01*
X138852987Y-53946780D01*
X138835903Y-53963323D01*
X138809732Y-53976156D01*
X138774775Y-53989491D01*
X138736596Y-54004007D01*
X138741141Y-53746389D01*
X138742971Y-53653519D01*
X138745112Y-53584889D01*
X138748181Y-53535711D01*
X138752794Y-53501198D01*
X138759568Y-53476562D01*
X138769119Y-53457016D01*
X138780634Y-53439770D01*
X138836190Y-53384680D01*
X138903980Y-53352822D01*
X138977713Y-53345191D01*
X139051093Y-53362780D01*
G37*
X139051093Y-53362780D02*
X139097672Y-53389723D01*
X139130057Y-53416466D01*
X139153742Y-53444484D01*
X139170059Y-53478748D01*
X139180339Y-53524227D01*
X139185914Y-53585892D01*
X139188116Y-53668711D01*
X139188371Y-53728246D01*
X139188371Y-53947391D01*
X139126686Y-53975044D01*
X139065000Y-54002697D01*
X139057743Y-53762670D01*
X139054744Y-53673028D01*
X139051598Y-53607962D01*
X139047701Y-53563026D01*
X139042447Y-53533770D01*
X139035231Y-53515748D01*
X139025450Y-53504511D01*
X139022312Y-53502079D01*
X138974761Y-53483083D01*
X138926697Y-53490600D01*
X138898086Y-53510543D01*
X138886447Y-53524675D01*
X138878391Y-53543220D01*
X138873271Y-53571334D01*
X138870441Y-53614173D01*
X138869256Y-53676895D01*
X138869057Y-53742261D01*
X138869018Y-53824268D01*
X138867614Y-53882316D01*
X138862914Y-53921465D01*
X138852987Y-53946780D01*
X138835903Y-53963323D01*
X138809732Y-53976156D01*
X138774775Y-53989491D01*
X138736596Y-54004007D01*
X138741141Y-53746389D01*
X138742971Y-53653519D01*
X138745112Y-53584889D01*
X138748181Y-53535711D01*
X138752794Y-53501198D01*
X138759568Y-53476562D01*
X138769119Y-53457016D01*
X138780634Y-53439770D01*
X138836190Y-53384680D01*
X138903980Y-53352822D01*
X138977713Y-53345191D01*
X139051093Y-53362780D01*
G36*
X137934744Y-53354918D02*
G01*
X137990201Y-53382568D01*
X138039148Y-53433480D01*
X138052629Y-53452338D01*
X138067314Y-53477015D01*
X138076842Y-53503816D01*
X138082293Y-53539587D01*
X138084747Y-53591169D01*
X138085286Y-53659267D01*
X138082852Y-53752588D01*
X138074394Y-53822657D01*
X138058174Y-53874931D01*
X138032454Y-53914869D01*
X137995497Y-53947929D01*
X137992782Y-53949886D01*
X137956360Y-53969908D01*
X137912502Y-53979815D01*
X137856724Y-53982257D01*
X137766048Y-53982257D01*
X137766010Y-54070283D01*
X137765166Y-54119308D01*
X137760024Y-54148065D01*
X137746587Y-54165311D01*
X137720858Y-54179808D01*
X137714679Y-54182769D01*
X137685764Y-54196648D01*
X137663376Y-54205414D01*
X137646729Y-54206171D01*
X137635036Y-54196023D01*
X137627510Y-54172073D01*
X137623366Y-54131426D01*
X137621815Y-54071186D01*
X137622071Y-53988455D01*
X137623349Y-53880339D01*
X137623748Y-53848000D01*
X137625185Y-53736524D01*
X137626472Y-53663603D01*
X137765971Y-53663603D01*
X137766755Y-53725499D01*
X137770240Y-53765997D01*
X137778124Y-53792708D01*
X137792105Y-53813244D01*
X137801597Y-53823260D01*
X137840404Y-53852567D01*
X137874763Y-53854952D01*
X137910216Y-53830750D01*
X137911114Y-53829857D01*
X137925539Y-53811153D01*
X137934313Y-53785732D01*
X137938739Y-53746584D01*
X137940118Y-53686697D01*
X137940143Y-53673430D01*
X137936812Y-53590901D01*
X137925969Y-53533691D01*
X137906340Y-53498766D01*
X137876650Y-53483094D01*
X137859491Y-53481514D01*
X137818766Y-53488926D01*
X137790832Y-53513330D01*
X137774017Y-53557980D01*
X137766650Y-53626130D01*
X137765971Y-53663603D01*
X137626472Y-53663603D01*
X137626708Y-53650245D01*
X137628677Y-53585333D01*
X137631450Y-53537958D01*
X137635388Y-53504290D01*
X137640849Y-53480498D01*
X137648192Y-53462753D01*
X137657777Y-53447224D01*
X137661887Y-53441381D01*
X137716405Y-53386185D01*
X137785336Y-53354890D01*
X137865072Y-53346165D01*
X137934744Y-53354918D01*
G37*
X137934744Y-53354918D02*
X137990201Y-53382568D01*
X138039148Y-53433480D01*
X138052629Y-53452338D01*
X138067314Y-53477015D01*
X138076842Y-53503816D01*
X138082293Y-53539587D01*
X138084747Y-53591169D01*
X138085286Y-53659267D01*
X138082852Y-53752588D01*
X138074394Y-53822657D01*
X138058174Y-53874931D01*
X138032454Y-53914869D01*
X137995497Y-53947929D01*
X137992782Y-53949886D01*
X137956360Y-53969908D01*
X137912502Y-53979815D01*
X137856724Y-53982257D01*
X137766048Y-53982257D01*
X137766010Y-54070283D01*
X137765166Y-54119308D01*
X137760024Y-54148065D01*
X137746587Y-54165311D01*
X137720858Y-54179808D01*
X137714679Y-54182769D01*
X137685764Y-54196648D01*
X137663376Y-54205414D01*
X137646729Y-54206171D01*
X137635036Y-54196023D01*
X137627510Y-54172073D01*
X137623366Y-54131426D01*
X137621815Y-54071186D01*
X137622071Y-53988455D01*
X137623349Y-53880339D01*
X137623748Y-53848000D01*
X137625185Y-53736524D01*
X137626472Y-53663603D01*
X137765971Y-53663603D01*
X137766755Y-53725499D01*
X137770240Y-53765997D01*
X137778124Y-53792708D01*
X137792105Y-53813244D01*
X137801597Y-53823260D01*
X137840404Y-53852567D01*
X137874763Y-53854952D01*
X137910216Y-53830750D01*
X137911114Y-53829857D01*
X137925539Y-53811153D01*
X137934313Y-53785732D01*
X137938739Y-53746584D01*
X137940118Y-53686697D01*
X137940143Y-53673430D01*
X137936812Y-53590901D01*
X137925969Y-53533691D01*
X137906340Y-53498766D01*
X137876650Y-53483094D01*
X137859491Y-53481514D01*
X137818766Y-53488926D01*
X137790832Y-53513330D01*
X137774017Y-53557980D01*
X137766650Y-53626130D01*
X137765971Y-53663603D01*
X137626472Y-53663603D01*
X137626708Y-53650245D01*
X137628677Y-53585333D01*
X137631450Y-53537958D01*
X137635388Y-53504290D01*
X137640849Y-53480498D01*
X137648192Y-53462753D01*
X137657777Y-53447224D01*
X137661887Y-53441381D01*
X137716405Y-53386185D01*
X137785336Y-53354890D01*
X137865072Y-53346165D01*
X137934744Y-53354918D01*
D10*
X135675000Y-70625000D02*
X135675000Y-70100000D01*
X129375000Y-70625000D02*
X129375000Y-70100000D01*
X129375000Y-64325000D02*
X129375000Y-64850000D01*
X135675000Y-64325000D02*
X135675000Y-64850000D01*
X129375000Y-70625000D02*
X129900000Y-70625000D01*
X129375000Y-64325000D02*
X129900000Y-64325000D01*
X135675000Y-70625000D02*
X135150000Y-70625000D01*
D12*
X119240000Y-67747221D02*
X119240000Y-68072779D01*
X120260000Y-67747221D02*
X120260000Y-68072779D01*
X127660000Y-75785000D02*
X131570000Y-75785000D01*
X127660000Y-73915000D02*
X127660000Y-75785000D01*
X131570000Y-73915000D02*
X127660000Y-73915000D01*
X133764000Y-62322779D02*
X133764000Y-61997221D01*
X134784000Y-62322779D02*
X134784000Y-61997221D01*
X127190000Y-69637221D02*
X127190000Y-69962779D01*
X128210000Y-69637221D02*
X128210000Y-69962779D01*
X124665000Y-68290000D02*
X124665000Y-72200000D01*
X126535000Y-68290000D02*
X124665000Y-68290000D01*
X126535000Y-72200000D02*
X126535000Y-68290000D01*
X135630000Y-62322779D02*
X135630000Y-61997221D01*
X136650000Y-62322779D02*
X136650000Y-61997221D01*
X129260000Y-60895000D02*
X133170000Y-60895000D01*
X133170000Y-60895000D02*
X133170000Y-59025000D01*
X133170000Y-59025000D02*
X129260000Y-59025000D01*
X131602779Y-62680000D02*
X131277221Y-62680000D01*
X131602779Y-61660000D02*
X131277221Y-61660000D01*
X130607221Y-73170000D02*
X130932779Y-73170000D01*
X130607221Y-72150000D02*
X130932779Y-72150000D01*
X132107221Y-77700000D02*
X132432779Y-77700000D01*
X132107221Y-76680000D02*
X132432779Y-76680000D01*
X122526979Y-74266680D02*
X122201421Y-74266680D01*
X122526979Y-75286680D02*
X122201421Y-75286680D01*
X122526979Y-72591680D02*
X122201421Y-72591680D01*
X122526979Y-73611680D02*
X122201421Y-73611680D01*
X136783000Y-71422000D02*
X133483000Y-71422000D01*
X136783000Y-74222000D02*
X136783000Y-71422000D01*
X135295779Y-74852000D02*
X134970221Y-74852000D01*
X135295779Y-75872000D02*
X134970221Y-75872000D01*
X138437000Y-72984779D02*
X138437000Y-72659221D01*
X137417000Y-72984779D02*
X137417000Y-72659221D01*
X124599221Y-81275000D02*
X124924779Y-81275000D01*
X124599221Y-80255000D02*
X124924779Y-80255000D01*
X115914461Y-69291480D02*
X116240019Y-69291480D01*
X115914461Y-68271480D02*
X116240019Y-68271480D01*
X122199221Y-63580000D02*
X122524779Y-63580000D01*
X122199221Y-62560000D02*
X122524779Y-62560000D01*
X122199221Y-57615000D02*
X122524779Y-57615000D01*
X122199221Y-56595000D02*
X122524779Y-56595000D01*
X124924779Y-78480000D02*
X124599221Y-78480000D01*
X124924779Y-79500000D02*
X124599221Y-79500000D01*
X116240019Y-66496480D02*
X115914461Y-66496480D01*
X116240019Y-67516480D02*
X115914461Y-67516480D01*
X122524779Y-60785000D02*
X122199221Y-60785000D01*
X122524779Y-61805000D02*
X122199221Y-61805000D01*
X122524779Y-54820000D02*
X122199221Y-54820000D01*
X122524779Y-55840000D02*
X122199221Y-55840000D01*
X122117221Y-69360000D02*
X122442779Y-69360000D01*
X122117221Y-68340000D02*
X122442779Y-68340000D01*
X118896779Y-74290000D02*
X118571221Y-74290000D01*
X118896779Y-75310000D02*
X118571221Y-75310000D01*
X121296779Y-80290000D02*
X120971221Y-80290000D01*
X121296779Y-81310000D02*
X120971221Y-81310000D01*
X131162779Y-81390000D02*
X130837221Y-81390000D01*
X131162779Y-82410000D02*
X130837221Y-82410000D01*
X118962779Y-62590000D02*
X118637221Y-62590000D01*
X118962779Y-63610000D02*
X118637221Y-63610000D01*
X118862779Y-56590000D02*
X118537221Y-56590000D01*
X118862779Y-57610000D02*
X118537221Y-57610000D01*
X128296779Y-56600000D02*
X127971221Y-56600000D01*
X128296779Y-57620000D02*
X127971221Y-57620000D01*
X115490000Y-73737221D02*
X115490000Y-74062779D01*
X116510000Y-73737221D02*
X116510000Y-74062779D01*
X117890000Y-79737221D02*
X117890000Y-80062779D01*
X118910000Y-79737221D02*
X118910000Y-80062779D01*
X127790000Y-80837221D02*
X127790000Y-81162779D01*
X128810000Y-80837221D02*
X128810000Y-81162779D01*
X115690000Y-62037221D02*
X115690000Y-62362779D01*
X116710000Y-62037221D02*
X116710000Y-62362779D01*
X115490000Y-56037221D02*
X115490000Y-56362779D01*
X116510000Y-56037221D02*
X116510000Y-56362779D01*
X124890000Y-56024721D02*
X124890000Y-56350279D01*
X125910000Y-56024721D02*
X125910000Y-56350279D01*
X156658000Y-55566000D02*
X157988000Y-55566000D01*
X156658000Y-56896000D02*
X156658000Y-55566000D01*
X156658000Y-58166000D02*
X159318000Y-58166000D01*
X159318000Y-58166000D02*
X159318000Y-81086000D01*
X156658000Y-58166000D02*
X156658000Y-81086000D01*
X156658000Y-81086000D02*
X159318000Y-81086000D01*
X122117221Y-67560000D02*
X122442779Y-67560000D01*
X122117221Y-66540000D02*
X122442779Y-66540000D01*
X118896779Y-72485000D02*
X118571221Y-72485000D01*
X118896779Y-73505000D02*
X118571221Y-73505000D01*
X121296779Y-78480000D02*
X120971221Y-78480000D01*
X121296779Y-79500000D02*
X120971221Y-79500000D01*
X131196779Y-79610000D02*
X130871221Y-79610000D01*
X131196779Y-80630000D02*
X130871221Y-80630000D01*
X118997779Y-60785000D02*
X118672221Y-60785000D01*
X118997779Y-61805000D02*
X118672221Y-61805000D01*
X118897779Y-54820000D02*
X118572221Y-54820000D01*
X118897779Y-55840000D02*
X118572221Y-55840000D01*
X128296779Y-54825000D02*
X127971221Y-54825000D01*
X128296779Y-55845000D02*
X127971221Y-55845000D01*
X98321000Y-42470000D02*
X98321000Y-44470000D01*
X95721000Y-42470000D02*
X95721000Y-44470000D01*
X104821000Y-42470000D02*
X98321000Y-42470000D01*
X109221000Y-42470000D02*
X108021000Y-42470000D01*
X109221000Y-36270000D02*
X109221000Y-42470000D01*
X100321000Y-36270000D02*
X109221000Y-36270000D01*
X94521000Y-36270000D02*
X97721000Y-36270000D01*
X94521000Y-36770000D02*
X94521000Y-36270000D01*
X92021000Y-36770000D02*
X94521000Y-36770000D01*
X92021000Y-41970000D02*
X92021000Y-36770000D01*
X94521000Y-41970000D02*
X92021000Y-41970000D01*
X94521000Y-42470000D02*
X94521000Y-41970000D01*
X95721000Y-42470000D02*
X94521000Y-42470000D01*
X95721000Y-53900000D02*
X94521000Y-53900000D01*
X94521000Y-53900000D02*
X94521000Y-53400000D01*
X94521000Y-53400000D02*
X92021000Y-53400000D01*
X92021000Y-53400000D02*
X92021000Y-48200000D01*
X92021000Y-48200000D02*
X94521000Y-48200000D01*
X94521000Y-48200000D02*
X94521000Y-47700000D01*
X94521000Y-47700000D02*
X97721000Y-47700000D01*
X100321000Y-47700000D02*
X109221000Y-47700000D01*
X109221000Y-47700000D02*
X109221000Y-53900000D01*
X109221000Y-53900000D02*
X108021000Y-53900000D01*
X104821000Y-53900000D02*
X98321000Y-53900000D01*
X95721000Y-53900000D02*
X95721000Y-55900000D01*
X98321000Y-53900000D02*
X98321000Y-55900000D01*
X95721000Y-65330000D02*
X94521000Y-65330000D01*
X94521000Y-65330000D02*
X94521000Y-64830000D01*
X94521000Y-64830000D02*
X92021000Y-64830000D01*
X92021000Y-64830000D02*
X92021000Y-59630000D01*
X92021000Y-59630000D02*
X94521000Y-59630000D01*
X94521000Y-59630000D02*
X94521000Y-59130000D01*
X94521000Y-59130000D02*
X97721000Y-59130000D01*
X100321000Y-59130000D02*
X109221000Y-59130000D01*
X109221000Y-59130000D02*
X109221000Y-65330000D01*
X109221000Y-65330000D02*
X108021000Y-65330000D01*
X104821000Y-65330000D02*
X98321000Y-65330000D01*
X95721000Y-65330000D02*
X95721000Y-67330000D01*
X98321000Y-65330000D02*
X98321000Y-67330000D01*
X98321000Y-100890000D02*
X98321000Y-102890000D01*
X95721000Y-100890000D02*
X95721000Y-102890000D01*
X104821000Y-100890000D02*
X98321000Y-100890000D01*
X109221000Y-100890000D02*
X108021000Y-100890000D01*
X109221000Y-94690000D02*
X109221000Y-100890000D01*
X100321000Y-94690000D02*
X109221000Y-94690000D01*
X94521000Y-94690000D02*
X97721000Y-94690000D01*
X94521000Y-95190000D02*
X94521000Y-94690000D01*
X92021000Y-95190000D02*
X94521000Y-95190000D01*
X92021000Y-100390000D02*
X92021000Y-95190000D01*
X94521000Y-100390000D02*
X92021000Y-100390000D01*
X94521000Y-100890000D02*
X94521000Y-100390000D01*
X95721000Y-100890000D02*
X94521000Y-100890000D01*
X98321000Y-89460000D02*
X98321000Y-91460000D01*
X95721000Y-89460000D02*
X95721000Y-91460000D01*
X104821000Y-89460000D02*
X98321000Y-89460000D01*
X109221000Y-89460000D02*
X108021000Y-89460000D01*
X109221000Y-83260000D02*
X109221000Y-89460000D01*
X100321000Y-83260000D02*
X109221000Y-83260000D01*
X94521000Y-83260000D02*
X97721000Y-83260000D01*
X94521000Y-83760000D02*
X94521000Y-83260000D01*
X92021000Y-83760000D02*
X94521000Y-83760000D01*
X92021000Y-88960000D02*
X92021000Y-83760000D01*
X94521000Y-88960000D02*
X92021000Y-88960000D01*
X94521000Y-89460000D02*
X94521000Y-88960000D01*
X95721000Y-89460000D02*
X94521000Y-89460000D01*
X95721000Y-78030000D02*
X94521000Y-78030000D01*
X94521000Y-78030000D02*
X94521000Y-77530000D01*
X94521000Y-77530000D02*
X92021000Y-77530000D01*
X92021000Y-77530000D02*
X92021000Y-72330000D01*
X92021000Y-72330000D02*
X94521000Y-72330000D01*
X94521000Y-72330000D02*
X94521000Y-71830000D01*
X94521000Y-71830000D02*
X97721000Y-71830000D01*
X100321000Y-71830000D02*
X109221000Y-71830000D01*
X109221000Y-71830000D02*
X109221000Y-78030000D01*
X109221000Y-78030000D02*
X108021000Y-78030000D01*
X104821000Y-78030000D02*
X98321000Y-78030000D01*
X95721000Y-78030000D02*
X95721000Y-80030000D01*
X98321000Y-78030000D02*
X98321000Y-80030000D01*
X145570000Y-98145000D02*
X145570000Y-107145000D01*
X145570000Y-107145000D02*
X136370000Y-107145000D01*
X136370000Y-107145000D02*
X136370000Y-92545000D01*
X136370000Y-92545000D02*
X139170000Y-92545000D01*
X142770000Y-92545000D02*
X145570000Y-92545000D01*
X145570000Y-92545000D02*
X145570000Y-94545000D01*
X136130000Y-94045000D02*
X136130000Y-92305000D01*
X136130000Y-92305000D02*
X137870000Y-92305000D01*
D10*
X136388095Y-64152380D02*
X136388095Y-64961904D01*
X136435714Y-65057142D01*
X136483333Y-65104761D01*
X136578571Y-65152380D01*
X136769047Y-65152380D01*
X136864285Y-65104761D01*
X136911904Y-65057142D01*
X136959523Y-64961904D01*
X136959523Y-64152380D01*
X137959523Y-65152380D02*
X137388095Y-65152380D01*
X137673809Y-65152380D02*
X137673809Y-64152380D01*
X137578571Y-64295238D01*
X137483333Y-64390476D01*
X137388095Y-64438095D01*
X118607142Y-66252380D02*
X118273809Y-65776190D01*
X118035714Y-66252380D02*
X118035714Y-65252380D01*
X118416666Y-65252380D01*
X118511904Y-65300000D01*
X118559523Y-65347619D01*
X118607142Y-65442857D01*
X118607142Y-65585714D01*
X118559523Y-65680952D01*
X118511904Y-65728571D01*
X118416666Y-65776190D01*
X118035714Y-65776190D01*
X119559523Y-66252380D02*
X118988095Y-66252380D01*
X119273809Y-66252380D02*
X119273809Y-65252380D01*
X119178571Y-65395238D01*
X119083333Y-65490476D01*
X118988095Y-65538095D01*
X119892857Y-65252380D02*
X120511904Y-65252380D01*
X120178571Y-65633333D01*
X120321428Y-65633333D01*
X120416666Y-65680952D01*
X120464285Y-65728571D01*
X120511904Y-65823809D01*
X120511904Y-66061904D01*
X120464285Y-66157142D01*
X120416666Y-66204761D01*
X120321428Y-66252380D01*
X120035714Y-66252380D01*
X119940476Y-66204761D01*
X119892857Y-66157142D01*
X125557142Y-75157142D02*
X125509523Y-75204761D01*
X125366666Y-75252380D01*
X125271428Y-75252380D01*
X125128571Y-75204761D01*
X125033333Y-75109523D01*
X124985714Y-75014285D01*
X124938095Y-74823809D01*
X124938095Y-74680952D01*
X124985714Y-74490476D01*
X125033333Y-74395238D01*
X125128571Y-74300000D01*
X125271428Y-74252380D01*
X125366666Y-74252380D01*
X125509523Y-74300000D01*
X125557142Y-74347619D01*
X126509523Y-75252380D02*
X125938095Y-75252380D01*
X126223809Y-75252380D02*
X126223809Y-74252380D01*
X126128571Y-74395238D01*
X126033333Y-74490476D01*
X125938095Y-74538095D01*
X126985714Y-75252380D02*
X127176190Y-75252380D01*
X127271428Y-75204761D01*
X127319047Y-75157142D01*
X127414285Y-75014285D01*
X127461904Y-74823809D01*
X127461904Y-74442857D01*
X127414285Y-74347619D01*
X127366666Y-74300000D01*
X127271428Y-74252380D01*
X127080952Y-74252380D01*
X126985714Y-74300000D01*
X126938095Y-74347619D01*
X126890476Y-74442857D01*
X126890476Y-74680952D01*
X126938095Y-74776190D01*
X126985714Y-74823809D01*
X127080952Y-74871428D01*
X127271428Y-74871428D01*
X127366666Y-74823809D01*
X127414285Y-74776190D01*
X127461904Y-74680952D01*
X134257142Y-60202380D02*
X133923809Y-59726190D01*
X133685714Y-60202380D02*
X133685714Y-59202380D01*
X134066666Y-59202380D01*
X134161904Y-59250000D01*
X134209523Y-59297619D01*
X134257142Y-59392857D01*
X134257142Y-59535714D01*
X134209523Y-59630952D01*
X134161904Y-59678571D01*
X134066666Y-59726190D01*
X133685714Y-59726190D01*
X134638095Y-59297619D02*
X134685714Y-59250000D01*
X134780952Y-59202380D01*
X135019047Y-59202380D01*
X135114285Y-59250000D01*
X135161904Y-59297619D01*
X135209523Y-59392857D01*
X135209523Y-59488095D01*
X135161904Y-59630952D01*
X134590476Y-60202380D01*
X135209523Y-60202380D01*
X135590476Y-59297619D02*
X135638095Y-59250000D01*
X135733333Y-59202380D01*
X135971428Y-59202380D01*
X136066666Y-59250000D01*
X136114285Y-59297619D01*
X136161904Y-59392857D01*
X136161904Y-59488095D01*
X136114285Y-59630952D01*
X135542857Y-60202380D01*
X136161904Y-60202380D01*
X126457142Y-66257142D02*
X126409523Y-66304761D01*
X126266666Y-66352380D01*
X126171428Y-66352380D01*
X126028571Y-66304761D01*
X125933333Y-66209523D01*
X125885714Y-66114285D01*
X125838095Y-65923809D01*
X125838095Y-65780952D01*
X125885714Y-65590476D01*
X125933333Y-65495238D01*
X126028571Y-65400000D01*
X126171428Y-65352380D01*
X126266666Y-65352380D01*
X126409523Y-65400000D01*
X126457142Y-65447619D01*
X126838095Y-65447619D02*
X126885714Y-65400000D01*
X126980952Y-65352380D01*
X127219047Y-65352380D01*
X127314285Y-65400000D01*
X127361904Y-65447619D01*
X127409523Y-65542857D01*
X127409523Y-65638095D01*
X127361904Y-65780952D01*
X126790476Y-66352380D01*
X127409523Y-66352380D01*
X127742857Y-65352380D02*
X128361904Y-65352380D01*
X128028571Y-65733333D01*
X128171428Y-65733333D01*
X128266666Y-65780952D01*
X128314285Y-65828571D01*
X128361904Y-65923809D01*
X128361904Y-66161904D01*
X128314285Y-66257142D01*
X128266666Y-66304761D01*
X128171428Y-66352380D01*
X127885714Y-66352380D01*
X127790476Y-66304761D01*
X127742857Y-66257142D01*
X124757142Y-67907142D02*
X124709523Y-67954761D01*
X124566666Y-68002380D01*
X124471428Y-68002380D01*
X124328571Y-67954761D01*
X124233333Y-67859523D01*
X124185714Y-67764285D01*
X124138095Y-67573809D01*
X124138095Y-67430952D01*
X124185714Y-67240476D01*
X124233333Y-67145238D01*
X124328571Y-67050000D01*
X124471428Y-67002380D01*
X124566666Y-67002380D01*
X124709523Y-67050000D01*
X124757142Y-67097619D01*
X125138095Y-67097619D02*
X125185714Y-67050000D01*
X125280952Y-67002380D01*
X125519047Y-67002380D01*
X125614285Y-67050000D01*
X125661904Y-67097619D01*
X125709523Y-67192857D01*
X125709523Y-67288095D01*
X125661904Y-67430952D01*
X125090476Y-68002380D01*
X125709523Y-68002380D01*
X126090476Y-67097619D02*
X126138095Y-67050000D01*
X126233333Y-67002380D01*
X126471428Y-67002380D01*
X126566666Y-67050000D01*
X126614285Y-67097619D01*
X126661904Y-67192857D01*
X126661904Y-67288095D01*
X126614285Y-67430952D01*
X126042857Y-68002380D01*
X126661904Y-68002380D01*
X137307142Y-60107142D02*
X137259523Y-60154761D01*
X137116666Y-60202380D01*
X137021428Y-60202380D01*
X136878571Y-60154761D01*
X136783333Y-60059523D01*
X136735714Y-59964285D01*
X136688095Y-59773809D01*
X136688095Y-59630952D01*
X136735714Y-59440476D01*
X136783333Y-59345238D01*
X136878571Y-59250000D01*
X137021428Y-59202380D01*
X137116666Y-59202380D01*
X137259523Y-59250000D01*
X137307142Y-59297619D01*
X137688095Y-59297619D02*
X137735714Y-59250000D01*
X137830952Y-59202380D01*
X138069047Y-59202380D01*
X138164285Y-59250000D01*
X138211904Y-59297619D01*
X138259523Y-59392857D01*
X138259523Y-59488095D01*
X138211904Y-59630952D01*
X137640476Y-60202380D01*
X138259523Y-60202380D01*
X139211904Y-60202380D02*
X138640476Y-60202380D01*
X138926190Y-60202380D02*
X138926190Y-59202380D01*
X138830952Y-59345238D01*
X138735714Y-59440476D01*
X138640476Y-59488095D01*
X126407142Y-60317142D02*
X126359523Y-60364761D01*
X126216666Y-60412380D01*
X126121428Y-60412380D01*
X125978571Y-60364761D01*
X125883333Y-60269523D01*
X125835714Y-60174285D01*
X125788095Y-59983809D01*
X125788095Y-59840952D01*
X125835714Y-59650476D01*
X125883333Y-59555238D01*
X125978571Y-59460000D01*
X126121428Y-59412380D01*
X126216666Y-59412380D01*
X126359523Y-59460000D01*
X126407142Y-59507619D01*
X126788095Y-59507619D02*
X126835714Y-59460000D01*
X126930952Y-59412380D01*
X127169047Y-59412380D01*
X127264285Y-59460000D01*
X127311904Y-59507619D01*
X127359523Y-59602857D01*
X127359523Y-59698095D01*
X127311904Y-59840952D01*
X126740476Y-60412380D01*
X127359523Y-60412380D01*
X127978571Y-59412380D02*
X128073809Y-59412380D01*
X128169047Y-59460000D01*
X128216666Y-59507619D01*
X128264285Y-59602857D01*
X128311904Y-59793333D01*
X128311904Y-60031428D01*
X128264285Y-60221904D01*
X128216666Y-60317142D01*
X128169047Y-60364761D01*
X128073809Y-60412380D01*
X127978571Y-60412380D01*
X127883333Y-60364761D01*
X127835714Y-60317142D01*
X127788095Y-60221904D01*
X127740476Y-60031428D01*
X127740476Y-59793333D01*
X127788095Y-59602857D01*
X127835714Y-59507619D01*
X127883333Y-59460000D01*
X127978571Y-59412380D01*
X127807142Y-62527142D02*
X127759523Y-62574761D01*
X127616666Y-62622380D01*
X127521428Y-62622380D01*
X127378571Y-62574761D01*
X127283333Y-62479523D01*
X127235714Y-62384285D01*
X127188095Y-62193809D01*
X127188095Y-62050952D01*
X127235714Y-61860476D01*
X127283333Y-61765238D01*
X127378571Y-61670000D01*
X127521428Y-61622380D01*
X127616666Y-61622380D01*
X127759523Y-61670000D01*
X127807142Y-61717619D01*
X128759523Y-62622380D02*
X128188095Y-62622380D01*
X128473809Y-62622380D02*
X128473809Y-61622380D01*
X128378571Y-61765238D01*
X128283333Y-61860476D01*
X128188095Y-61908095D01*
X129330952Y-62050952D02*
X129235714Y-62003333D01*
X129188095Y-61955714D01*
X129140476Y-61860476D01*
X129140476Y-61812857D01*
X129188095Y-61717619D01*
X129235714Y-61670000D01*
X129330952Y-61622380D01*
X129521428Y-61622380D01*
X129616666Y-61670000D01*
X129664285Y-61717619D01*
X129711904Y-61812857D01*
X129711904Y-61860476D01*
X129664285Y-61955714D01*
X129616666Y-62003333D01*
X129521428Y-62050952D01*
X129330952Y-62050952D01*
X129235714Y-62098571D01*
X129188095Y-62146190D01*
X129140476Y-62241428D01*
X129140476Y-62431904D01*
X129188095Y-62527142D01*
X129235714Y-62574761D01*
X129330952Y-62622380D01*
X129521428Y-62622380D01*
X129616666Y-62574761D01*
X129664285Y-62527142D01*
X129711904Y-62431904D01*
X129711904Y-62241428D01*
X129664285Y-62146190D01*
X129616666Y-62098571D01*
X129521428Y-62050952D01*
X127357142Y-73057142D02*
X127309523Y-73104761D01*
X127166666Y-73152380D01*
X127071428Y-73152380D01*
X126928571Y-73104761D01*
X126833333Y-73009523D01*
X126785714Y-72914285D01*
X126738095Y-72723809D01*
X126738095Y-72580952D01*
X126785714Y-72390476D01*
X126833333Y-72295238D01*
X126928571Y-72200000D01*
X127071428Y-72152380D01*
X127166666Y-72152380D01*
X127309523Y-72200000D01*
X127357142Y-72247619D01*
X128309523Y-73152380D02*
X127738095Y-73152380D01*
X128023809Y-73152380D02*
X128023809Y-72152380D01*
X127928571Y-72295238D01*
X127833333Y-72390476D01*
X127738095Y-72438095D01*
X128642857Y-72152380D02*
X129309523Y-72152380D01*
X128880952Y-73152380D01*
X129323333Y-77632380D02*
X128847142Y-77632380D01*
X128847142Y-76632380D01*
X130180476Y-77632380D02*
X129609047Y-77632380D01*
X129894761Y-77632380D02*
X129894761Y-76632380D01*
X129799523Y-76775238D01*
X129704285Y-76870476D01*
X129609047Y-76918095D01*
X121657142Y-76752380D02*
X121323809Y-76276190D01*
X121085714Y-76752380D02*
X121085714Y-75752380D01*
X121466666Y-75752380D01*
X121561904Y-75800000D01*
X121609523Y-75847619D01*
X121657142Y-75942857D01*
X121657142Y-76085714D01*
X121609523Y-76180952D01*
X121561904Y-76228571D01*
X121466666Y-76276190D01*
X121085714Y-76276190D01*
X122038095Y-75847619D02*
X122085714Y-75800000D01*
X122180952Y-75752380D01*
X122419047Y-75752380D01*
X122514285Y-75800000D01*
X122561904Y-75847619D01*
X122609523Y-75942857D01*
X122609523Y-76038095D01*
X122561904Y-76180952D01*
X121990476Y-76752380D01*
X122609523Y-76752380D01*
X123561904Y-76752380D02*
X122990476Y-76752380D01*
X123276190Y-76752380D02*
X123276190Y-75752380D01*
X123180952Y-75895238D01*
X123085714Y-75990476D01*
X122990476Y-76038095D01*
X121757142Y-72057142D02*
X121709523Y-72104761D01*
X121566666Y-72152380D01*
X121471428Y-72152380D01*
X121328571Y-72104761D01*
X121233333Y-72009523D01*
X121185714Y-71914285D01*
X121138095Y-71723809D01*
X121138095Y-71580952D01*
X121185714Y-71390476D01*
X121233333Y-71295238D01*
X121328571Y-71200000D01*
X121471428Y-71152380D01*
X121566666Y-71152380D01*
X121709523Y-71200000D01*
X121757142Y-71247619D01*
X122709523Y-72152380D02*
X122138095Y-72152380D01*
X122423809Y-72152380D02*
X122423809Y-71152380D01*
X122328571Y-71295238D01*
X122233333Y-71390476D01*
X122138095Y-71438095D01*
X123566666Y-71485714D02*
X123566666Y-72152380D01*
X123328571Y-71104761D02*
X123090476Y-71819047D01*
X123709523Y-71819047D01*
X136583809Y-70596190D02*
X136583809Y-71072380D01*
X136250476Y-70072380D02*
X136583809Y-70596190D01*
X136917142Y-70072380D01*
X137774285Y-71072380D02*
X137202857Y-71072380D01*
X137488571Y-71072380D02*
X137488571Y-70072380D01*
X137393333Y-70215238D01*
X137298095Y-70310476D01*
X137202857Y-70358095D01*
X137447142Y-75797142D02*
X137399523Y-75844761D01*
X137256666Y-75892380D01*
X137161428Y-75892380D01*
X137018571Y-75844761D01*
X136923333Y-75749523D01*
X136875714Y-75654285D01*
X136828095Y-75463809D01*
X136828095Y-75320952D01*
X136875714Y-75130476D01*
X136923333Y-75035238D01*
X137018571Y-74940000D01*
X137161428Y-74892380D01*
X137256666Y-74892380D01*
X137399523Y-74940000D01*
X137447142Y-74987619D01*
X138399523Y-75892380D02*
X137828095Y-75892380D01*
X138113809Y-75892380D02*
X138113809Y-74892380D01*
X138018571Y-75035238D01*
X137923333Y-75130476D01*
X137828095Y-75178095D01*
X139256666Y-74892380D02*
X139066190Y-74892380D01*
X138970952Y-74940000D01*
X138923333Y-74987619D01*
X138828095Y-75130476D01*
X138780476Y-75320952D01*
X138780476Y-75701904D01*
X138828095Y-75797142D01*
X138875714Y-75844761D01*
X138970952Y-75892380D01*
X139161428Y-75892380D01*
X139256666Y-75844761D01*
X139304285Y-75797142D01*
X139351904Y-75701904D01*
X139351904Y-75463809D01*
X139304285Y-75368571D01*
X139256666Y-75320952D01*
X139161428Y-75273333D01*
X138970952Y-75273333D01*
X138875714Y-75320952D01*
X138828095Y-75368571D01*
X138780476Y-75463809D01*
X139657142Y-74057142D02*
X139609523Y-74104761D01*
X139466666Y-74152380D01*
X139371428Y-74152380D01*
X139228571Y-74104761D01*
X139133333Y-74009523D01*
X139085714Y-73914285D01*
X139038095Y-73723809D01*
X139038095Y-73580952D01*
X139085714Y-73390476D01*
X139133333Y-73295238D01*
X139228571Y-73200000D01*
X139371428Y-73152380D01*
X139466666Y-73152380D01*
X139609523Y-73200000D01*
X139657142Y-73247619D01*
X140609523Y-74152380D02*
X140038095Y-74152380D01*
X140323809Y-74152380D02*
X140323809Y-73152380D01*
X140228571Y-73295238D01*
X140133333Y-73390476D01*
X140038095Y-73438095D01*
X141514285Y-73152380D02*
X141038095Y-73152380D01*
X140990476Y-73628571D01*
X141038095Y-73580952D01*
X141133333Y-73533333D01*
X141371428Y-73533333D01*
X141466666Y-73580952D01*
X141514285Y-73628571D01*
X141561904Y-73723809D01*
X141561904Y-73961904D01*
X141514285Y-74057142D01*
X141466666Y-74104761D01*
X141371428Y-74152380D01*
X141133333Y-74152380D01*
X141038095Y-74104761D01*
X140990476Y-74057142D01*
X124057142Y-82652380D02*
X123723809Y-82176190D01*
X123485714Y-82652380D02*
X123485714Y-81652380D01*
X123866666Y-81652380D01*
X123961904Y-81700000D01*
X124009523Y-81747619D01*
X124057142Y-81842857D01*
X124057142Y-81985714D01*
X124009523Y-82080952D01*
X123961904Y-82128571D01*
X123866666Y-82176190D01*
X123485714Y-82176190D01*
X125009523Y-82652380D02*
X124438095Y-82652380D01*
X124723809Y-82652380D02*
X124723809Y-81652380D01*
X124628571Y-81795238D01*
X124533333Y-81890476D01*
X124438095Y-81938095D01*
X125580952Y-82080952D02*
X125485714Y-82033333D01*
X125438095Y-81985714D01*
X125390476Y-81890476D01*
X125390476Y-81842857D01*
X125438095Y-81747619D01*
X125485714Y-81700000D01*
X125580952Y-81652380D01*
X125771428Y-81652380D01*
X125866666Y-81700000D01*
X125914285Y-81747619D01*
X125961904Y-81842857D01*
X125961904Y-81890476D01*
X125914285Y-81985714D01*
X125866666Y-82033333D01*
X125771428Y-82080952D01*
X125580952Y-82080952D01*
X125485714Y-82128571D01*
X125438095Y-82176190D01*
X125390476Y-82271428D01*
X125390476Y-82461904D01*
X125438095Y-82557142D01*
X125485714Y-82604761D01*
X125580952Y-82652380D01*
X125771428Y-82652380D01*
X125866666Y-82604761D01*
X125914285Y-82557142D01*
X125961904Y-82461904D01*
X125961904Y-82271428D01*
X125914285Y-82176190D01*
X125866666Y-82128571D01*
X125771428Y-82080952D01*
X115434382Y-70702380D02*
X115101049Y-70226190D01*
X114862954Y-70702380D02*
X114862954Y-69702380D01*
X115243906Y-69702380D01*
X115339144Y-69750000D01*
X115386763Y-69797619D01*
X115434382Y-69892857D01*
X115434382Y-70035714D01*
X115386763Y-70130952D01*
X115339144Y-70178571D01*
X115243906Y-70226190D01*
X114862954Y-70226190D01*
X116386763Y-70702380D02*
X115815335Y-70702380D01*
X116101049Y-70702380D02*
X116101049Y-69702380D01*
X116005811Y-69845238D01*
X115910573Y-69940476D01*
X115815335Y-69988095D01*
X116720097Y-69702380D02*
X117386763Y-69702380D01*
X116958192Y-70702380D01*
X121757142Y-64952380D02*
X121423809Y-64476190D01*
X121185714Y-64952380D02*
X121185714Y-63952380D01*
X121566666Y-63952380D01*
X121661904Y-64000000D01*
X121709523Y-64047619D01*
X121757142Y-64142857D01*
X121757142Y-64285714D01*
X121709523Y-64380952D01*
X121661904Y-64428571D01*
X121566666Y-64476190D01*
X121185714Y-64476190D01*
X122709523Y-64952380D02*
X122138095Y-64952380D01*
X122423809Y-64952380D02*
X122423809Y-63952380D01*
X122328571Y-64095238D01*
X122233333Y-64190476D01*
X122138095Y-64238095D01*
X123566666Y-63952380D02*
X123376190Y-63952380D01*
X123280952Y-64000000D01*
X123233333Y-64047619D01*
X123138095Y-64190476D01*
X123090476Y-64380952D01*
X123090476Y-64761904D01*
X123138095Y-64857142D01*
X123185714Y-64904761D01*
X123280952Y-64952380D01*
X123471428Y-64952380D01*
X123566666Y-64904761D01*
X123614285Y-64857142D01*
X123661904Y-64761904D01*
X123661904Y-64523809D01*
X123614285Y-64428571D01*
X123566666Y-64380952D01*
X123471428Y-64333333D01*
X123280952Y-64333333D01*
X123185714Y-64380952D01*
X123138095Y-64428571D01*
X123090476Y-64523809D01*
X121757142Y-59052380D02*
X121423809Y-58576190D01*
X121185714Y-59052380D02*
X121185714Y-58052380D01*
X121566666Y-58052380D01*
X121661904Y-58100000D01*
X121709523Y-58147619D01*
X121757142Y-58242857D01*
X121757142Y-58385714D01*
X121709523Y-58480952D01*
X121661904Y-58528571D01*
X121566666Y-58576190D01*
X121185714Y-58576190D01*
X122709523Y-59052380D02*
X122138095Y-59052380D01*
X122423809Y-59052380D02*
X122423809Y-58052380D01*
X122328571Y-58195238D01*
X122233333Y-58290476D01*
X122138095Y-58338095D01*
X123614285Y-58052380D02*
X123138095Y-58052380D01*
X123090476Y-58528571D01*
X123138095Y-58480952D01*
X123233333Y-58433333D01*
X123471428Y-58433333D01*
X123566666Y-58480952D01*
X123614285Y-58528571D01*
X123661904Y-58623809D01*
X123661904Y-58861904D01*
X123614285Y-58957142D01*
X123566666Y-59004761D01*
X123471428Y-59052380D01*
X123233333Y-59052380D01*
X123138095Y-59004761D01*
X123090476Y-58957142D01*
X124157142Y-77957142D02*
X124109523Y-78004761D01*
X123966666Y-78052380D01*
X123871428Y-78052380D01*
X123728571Y-78004761D01*
X123633333Y-77909523D01*
X123585714Y-77814285D01*
X123538095Y-77623809D01*
X123538095Y-77480952D01*
X123585714Y-77290476D01*
X123633333Y-77195238D01*
X123728571Y-77100000D01*
X123871428Y-77052380D01*
X123966666Y-77052380D01*
X124109523Y-77100000D01*
X124157142Y-77147619D01*
X125109523Y-78052380D02*
X124538095Y-78052380D01*
X124823809Y-78052380D02*
X124823809Y-77052380D01*
X124728571Y-77195238D01*
X124633333Y-77290476D01*
X124538095Y-77338095D01*
X126061904Y-78052380D02*
X125490476Y-78052380D01*
X125776190Y-78052380D02*
X125776190Y-77052380D01*
X125680952Y-77195238D01*
X125585714Y-77290476D01*
X125490476Y-77338095D01*
X115434382Y-65907142D02*
X115386763Y-65954761D01*
X115243906Y-66002380D01*
X115148668Y-66002380D01*
X115005811Y-65954761D01*
X114910573Y-65859523D01*
X114862954Y-65764285D01*
X114815335Y-65573809D01*
X114815335Y-65430952D01*
X114862954Y-65240476D01*
X114910573Y-65145238D01*
X115005811Y-65050000D01*
X115148668Y-65002380D01*
X115243906Y-65002380D01*
X115386763Y-65050000D01*
X115434382Y-65097619D01*
X116386763Y-66002380D02*
X115815335Y-66002380D01*
X116101049Y-66002380D02*
X116101049Y-65002380D01*
X116005811Y-65145238D01*
X115910573Y-65240476D01*
X115815335Y-65288095D01*
X117005811Y-65002380D02*
X117101049Y-65002380D01*
X117196287Y-65050000D01*
X117243906Y-65097619D01*
X117291525Y-65192857D01*
X117339144Y-65383333D01*
X117339144Y-65621428D01*
X117291525Y-65811904D01*
X117243906Y-65907142D01*
X117196287Y-65954761D01*
X117101049Y-66002380D01*
X117005811Y-66002380D01*
X116910573Y-65954761D01*
X116862954Y-65907142D01*
X116815335Y-65811904D01*
X116767716Y-65621428D01*
X116767716Y-65383333D01*
X116815335Y-65192857D01*
X116862954Y-65097619D01*
X116910573Y-65050000D01*
X117005811Y-65002380D01*
X122133333Y-60257142D02*
X122085714Y-60304761D01*
X121942857Y-60352380D01*
X121847619Y-60352380D01*
X121704761Y-60304761D01*
X121609523Y-60209523D01*
X121561904Y-60114285D01*
X121514285Y-59923809D01*
X121514285Y-59780952D01*
X121561904Y-59590476D01*
X121609523Y-59495238D01*
X121704761Y-59400000D01*
X121847619Y-59352380D01*
X121942857Y-59352380D01*
X122085714Y-59400000D01*
X122133333Y-59447619D01*
X122609523Y-60352380D02*
X122800000Y-60352380D01*
X122895238Y-60304761D01*
X122942857Y-60257142D01*
X123038095Y-60114285D01*
X123085714Y-59923809D01*
X123085714Y-59542857D01*
X123038095Y-59447619D01*
X122990476Y-59400000D01*
X122895238Y-59352380D01*
X122704761Y-59352380D01*
X122609523Y-59400000D01*
X122561904Y-59447619D01*
X122514285Y-59542857D01*
X122514285Y-59780952D01*
X122561904Y-59876190D01*
X122609523Y-59923809D01*
X122704761Y-59971428D01*
X122895238Y-59971428D01*
X122990476Y-59923809D01*
X123038095Y-59876190D01*
X123085714Y-59780952D01*
X122133333Y-54257142D02*
X122085714Y-54304761D01*
X121942857Y-54352380D01*
X121847619Y-54352380D01*
X121704761Y-54304761D01*
X121609523Y-54209523D01*
X121561904Y-54114285D01*
X121514285Y-53923809D01*
X121514285Y-53780952D01*
X121561904Y-53590476D01*
X121609523Y-53495238D01*
X121704761Y-53400000D01*
X121847619Y-53352380D01*
X121942857Y-53352380D01*
X122085714Y-53400000D01*
X122133333Y-53447619D01*
X122704761Y-53780952D02*
X122609523Y-53733333D01*
X122561904Y-53685714D01*
X122514285Y-53590476D01*
X122514285Y-53542857D01*
X122561904Y-53447619D01*
X122609523Y-53400000D01*
X122704761Y-53352380D01*
X122895238Y-53352380D01*
X122990476Y-53400000D01*
X123038095Y-53447619D01*
X123085714Y-53542857D01*
X123085714Y-53590476D01*
X123038095Y-53685714D01*
X122990476Y-53733333D01*
X122895238Y-53780952D01*
X122704761Y-53780952D01*
X122609523Y-53828571D01*
X122561904Y-53876190D01*
X122514285Y-53971428D01*
X122514285Y-54161904D01*
X122561904Y-54257142D01*
X122609523Y-54304761D01*
X122704761Y-54352380D01*
X122895238Y-54352380D01*
X122990476Y-54304761D01*
X123038095Y-54257142D01*
X123085714Y-54161904D01*
X123085714Y-53971428D01*
X123038095Y-53876190D01*
X122990476Y-53828571D01*
X122895238Y-53780952D01*
X121607142Y-70802380D02*
X121273809Y-70326190D01*
X121035714Y-70802380D02*
X121035714Y-69802380D01*
X121416666Y-69802380D01*
X121511904Y-69850000D01*
X121559523Y-69897619D01*
X121607142Y-69992857D01*
X121607142Y-70135714D01*
X121559523Y-70230952D01*
X121511904Y-70278571D01*
X121416666Y-70326190D01*
X121035714Y-70326190D01*
X122559523Y-70802380D02*
X121988095Y-70802380D01*
X122273809Y-70802380D02*
X122273809Y-69802380D01*
X122178571Y-69945238D01*
X122083333Y-70040476D01*
X121988095Y-70088095D01*
X123416666Y-70135714D02*
X123416666Y-70802380D01*
X123178571Y-69754761D02*
X122940476Y-70469047D01*
X123559523Y-70469047D01*
X118057142Y-76752380D02*
X117723809Y-76276190D01*
X117485714Y-76752380D02*
X117485714Y-75752380D01*
X117866666Y-75752380D01*
X117961904Y-75800000D01*
X118009523Y-75847619D01*
X118057142Y-75942857D01*
X118057142Y-76085714D01*
X118009523Y-76180952D01*
X117961904Y-76228571D01*
X117866666Y-76276190D01*
X117485714Y-76276190D01*
X119009523Y-76752380D02*
X118438095Y-76752380D01*
X118723809Y-76752380D02*
X118723809Y-75752380D01*
X118628571Y-75895238D01*
X118533333Y-75990476D01*
X118438095Y-76038095D01*
X119390476Y-75847619D02*
X119438095Y-75800000D01*
X119533333Y-75752380D01*
X119771428Y-75752380D01*
X119866666Y-75800000D01*
X119914285Y-75847619D01*
X119961904Y-75942857D01*
X119961904Y-76038095D01*
X119914285Y-76180952D01*
X119342857Y-76752380D01*
X119961904Y-76752380D01*
X120557142Y-82752380D02*
X120223809Y-82276190D01*
X119985714Y-82752380D02*
X119985714Y-81752380D01*
X120366666Y-81752380D01*
X120461904Y-81800000D01*
X120509523Y-81847619D01*
X120557142Y-81942857D01*
X120557142Y-82085714D01*
X120509523Y-82180952D01*
X120461904Y-82228571D01*
X120366666Y-82276190D01*
X119985714Y-82276190D01*
X121509523Y-82752380D02*
X120938095Y-82752380D01*
X121223809Y-82752380D02*
X121223809Y-81752380D01*
X121128571Y-81895238D01*
X121033333Y-81990476D01*
X120938095Y-82038095D01*
X122461904Y-82752380D02*
X121890476Y-82752380D01*
X122176190Y-82752380D02*
X122176190Y-81752380D01*
X122080952Y-81895238D01*
X121985714Y-81990476D01*
X121890476Y-82038095D01*
X130357142Y-83952380D02*
X130023809Y-83476190D01*
X129785714Y-83952380D02*
X129785714Y-82952380D01*
X130166666Y-82952380D01*
X130261904Y-83000000D01*
X130309523Y-83047619D01*
X130357142Y-83142857D01*
X130357142Y-83285714D01*
X130309523Y-83380952D01*
X130261904Y-83428571D01*
X130166666Y-83476190D01*
X129785714Y-83476190D01*
X131309523Y-83952380D02*
X130738095Y-83952380D01*
X131023809Y-83952380D02*
X131023809Y-82952380D01*
X130928571Y-83095238D01*
X130833333Y-83190476D01*
X130738095Y-83238095D01*
X131928571Y-82952380D02*
X132023809Y-82952380D01*
X132119047Y-83000000D01*
X132166666Y-83047619D01*
X132214285Y-83142857D01*
X132261904Y-83333333D01*
X132261904Y-83571428D01*
X132214285Y-83761904D01*
X132166666Y-83857142D01*
X132119047Y-83904761D01*
X132023809Y-83952380D01*
X131928571Y-83952380D01*
X131833333Y-83904761D01*
X131785714Y-83857142D01*
X131738095Y-83761904D01*
X131690476Y-83571428D01*
X131690476Y-83333333D01*
X131738095Y-83142857D01*
X131785714Y-83047619D01*
X131833333Y-83000000D01*
X131928571Y-82952380D01*
X118633333Y-65052380D02*
X118300000Y-64576190D01*
X118061904Y-65052380D02*
X118061904Y-64052380D01*
X118442857Y-64052380D01*
X118538095Y-64100000D01*
X118585714Y-64147619D01*
X118633333Y-64242857D01*
X118633333Y-64385714D01*
X118585714Y-64480952D01*
X118538095Y-64528571D01*
X118442857Y-64576190D01*
X118061904Y-64576190D01*
X119109523Y-65052380D02*
X119300000Y-65052380D01*
X119395238Y-65004761D01*
X119442857Y-64957142D01*
X119538095Y-64814285D01*
X119585714Y-64623809D01*
X119585714Y-64242857D01*
X119538095Y-64147619D01*
X119490476Y-64100000D01*
X119395238Y-64052380D01*
X119204761Y-64052380D01*
X119109523Y-64100000D01*
X119061904Y-64147619D01*
X119014285Y-64242857D01*
X119014285Y-64480952D01*
X119061904Y-64576190D01*
X119109523Y-64623809D01*
X119204761Y-64671428D01*
X119395238Y-64671428D01*
X119490476Y-64623809D01*
X119538095Y-64576190D01*
X119585714Y-64480952D01*
X118533333Y-59052380D02*
X118200000Y-58576190D01*
X117961904Y-59052380D02*
X117961904Y-58052380D01*
X118342857Y-58052380D01*
X118438095Y-58100000D01*
X118485714Y-58147619D01*
X118533333Y-58242857D01*
X118533333Y-58385714D01*
X118485714Y-58480952D01*
X118438095Y-58528571D01*
X118342857Y-58576190D01*
X117961904Y-58576190D01*
X119104761Y-58480952D02*
X119009523Y-58433333D01*
X118961904Y-58385714D01*
X118914285Y-58290476D01*
X118914285Y-58242857D01*
X118961904Y-58147619D01*
X119009523Y-58100000D01*
X119104761Y-58052380D01*
X119295238Y-58052380D01*
X119390476Y-58100000D01*
X119438095Y-58147619D01*
X119485714Y-58242857D01*
X119485714Y-58290476D01*
X119438095Y-58385714D01*
X119390476Y-58433333D01*
X119295238Y-58480952D01*
X119104761Y-58480952D01*
X119009523Y-58528571D01*
X118961904Y-58576190D01*
X118914285Y-58671428D01*
X118914285Y-58861904D01*
X118961904Y-58957142D01*
X119009523Y-59004761D01*
X119104761Y-59052380D01*
X119295238Y-59052380D01*
X119390476Y-59004761D01*
X119438095Y-58957142D01*
X119485714Y-58861904D01*
X119485714Y-58671428D01*
X119438095Y-58576190D01*
X119390476Y-58528571D01*
X119295238Y-58480952D01*
X128033333Y-59152380D02*
X127700000Y-58676190D01*
X127461904Y-59152380D02*
X127461904Y-58152380D01*
X127842857Y-58152380D01*
X127938095Y-58200000D01*
X127985714Y-58247619D01*
X128033333Y-58342857D01*
X128033333Y-58485714D01*
X127985714Y-58580952D01*
X127938095Y-58628571D01*
X127842857Y-58676190D01*
X127461904Y-58676190D01*
X128366666Y-58152380D02*
X129033333Y-58152380D01*
X128604761Y-59152380D01*
X115833333Y-72152380D02*
X115500000Y-71676190D01*
X115261904Y-72152380D02*
X115261904Y-71152380D01*
X115642857Y-71152380D01*
X115738095Y-71200000D01*
X115785714Y-71247619D01*
X115833333Y-71342857D01*
X115833333Y-71485714D01*
X115785714Y-71580952D01*
X115738095Y-71628571D01*
X115642857Y-71676190D01*
X115261904Y-71676190D01*
X116690476Y-71152380D02*
X116500000Y-71152380D01*
X116404761Y-71200000D01*
X116357142Y-71247619D01*
X116261904Y-71390476D01*
X116214285Y-71580952D01*
X116214285Y-71961904D01*
X116261904Y-72057142D01*
X116309523Y-72104761D01*
X116404761Y-72152380D01*
X116595238Y-72152380D01*
X116690476Y-72104761D01*
X116738095Y-72057142D01*
X116785714Y-71961904D01*
X116785714Y-71723809D01*
X116738095Y-71628571D01*
X116690476Y-71580952D01*
X116595238Y-71533333D01*
X116404761Y-71533333D01*
X116309523Y-71580952D01*
X116261904Y-71628571D01*
X116214285Y-71723809D01*
X118283333Y-78152380D02*
X117950000Y-77676190D01*
X117711904Y-78152380D02*
X117711904Y-77152380D01*
X118092857Y-77152380D01*
X118188095Y-77200000D01*
X118235714Y-77247619D01*
X118283333Y-77342857D01*
X118283333Y-77485714D01*
X118235714Y-77580952D01*
X118188095Y-77628571D01*
X118092857Y-77676190D01*
X117711904Y-77676190D01*
X119188095Y-77152380D02*
X118711904Y-77152380D01*
X118664285Y-77628571D01*
X118711904Y-77580952D01*
X118807142Y-77533333D01*
X119045238Y-77533333D01*
X119140476Y-77580952D01*
X119188095Y-77628571D01*
X119235714Y-77723809D01*
X119235714Y-77961904D01*
X119188095Y-78057142D01*
X119140476Y-78104761D01*
X119045238Y-78152380D01*
X118807142Y-78152380D01*
X118711904Y-78104761D01*
X118664285Y-78057142D01*
X128083333Y-79252380D02*
X127750000Y-78776190D01*
X127511904Y-79252380D02*
X127511904Y-78252380D01*
X127892857Y-78252380D01*
X127988095Y-78300000D01*
X128035714Y-78347619D01*
X128083333Y-78442857D01*
X128083333Y-78585714D01*
X128035714Y-78680952D01*
X127988095Y-78728571D01*
X127892857Y-78776190D01*
X127511904Y-78776190D01*
X128940476Y-78585714D02*
X128940476Y-79252380D01*
X128702380Y-78204761D02*
X128464285Y-78919047D01*
X129083333Y-78919047D01*
X115933333Y-60502380D02*
X115600000Y-60026190D01*
X115361904Y-60502380D02*
X115361904Y-59502380D01*
X115742857Y-59502380D01*
X115838095Y-59550000D01*
X115885714Y-59597619D01*
X115933333Y-59692857D01*
X115933333Y-59835714D01*
X115885714Y-59930952D01*
X115838095Y-59978571D01*
X115742857Y-60026190D01*
X115361904Y-60026190D01*
X116266666Y-59502380D02*
X116885714Y-59502380D01*
X116552380Y-59883333D01*
X116695238Y-59883333D01*
X116790476Y-59930952D01*
X116838095Y-59978571D01*
X116885714Y-60073809D01*
X116885714Y-60311904D01*
X116838095Y-60407142D01*
X116790476Y-60454761D01*
X116695238Y-60502380D01*
X116409523Y-60502380D01*
X116314285Y-60454761D01*
X116266666Y-60407142D01*
X115783333Y-54402380D02*
X115450000Y-53926190D01*
X115211904Y-54402380D02*
X115211904Y-53402380D01*
X115592857Y-53402380D01*
X115688095Y-53450000D01*
X115735714Y-53497619D01*
X115783333Y-53592857D01*
X115783333Y-53735714D01*
X115735714Y-53830952D01*
X115688095Y-53878571D01*
X115592857Y-53926190D01*
X115211904Y-53926190D01*
X116164285Y-53497619D02*
X116211904Y-53450000D01*
X116307142Y-53402380D01*
X116545238Y-53402380D01*
X116640476Y-53450000D01*
X116688095Y-53497619D01*
X116735714Y-53592857D01*
X116735714Y-53688095D01*
X116688095Y-53830952D01*
X116116666Y-54402380D01*
X116735714Y-54402380D01*
X125183333Y-54402380D02*
X124850000Y-53926190D01*
X124611904Y-54402380D02*
X124611904Y-53402380D01*
X124992857Y-53402380D01*
X125088095Y-53450000D01*
X125135714Y-53497619D01*
X125183333Y-53592857D01*
X125183333Y-53735714D01*
X125135714Y-53830952D01*
X125088095Y-53878571D01*
X124992857Y-53926190D01*
X124611904Y-53926190D01*
X126135714Y-54402380D02*
X125564285Y-54402380D01*
X125850000Y-54402380D02*
X125850000Y-53402380D01*
X125754761Y-53545238D01*
X125659523Y-53640476D01*
X125564285Y-53688095D01*
X157654666Y-54018380D02*
X157654666Y-54732666D01*
X157607047Y-54875523D01*
X157511809Y-54970761D01*
X157368952Y-55018380D01*
X157273714Y-55018380D01*
X158273714Y-54446952D02*
X158178476Y-54399333D01*
X158130857Y-54351714D01*
X158083238Y-54256476D01*
X158083238Y-54208857D01*
X158130857Y-54113619D01*
X158178476Y-54066000D01*
X158273714Y-54018380D01*
X158464190Y-54018380D01*
X158559428Y-54066000D01*
X158607047Y-54113619D01*
X158654666Y-54208857D01*
X158654666Y-54256476D01*
X158607047Y-54351714D01*
X158559428Y-54399333D01*
X158464190Y-54446952D01*
X158273714Y-54446952D01*
X158178476Y-54494571D01*
X158130857Y-54542190D01*
X158083238Y-54637428D01*
X158083238Y-54827904D01*
X158130857Y-54923142D01*
X158178476Y-54970761D01*
X158273714Y-55018380D01*
X158464190Y-55018380D01*
X158559428Y-54970761D01*
X158607047Y-54923142D01*
X158654666Y-54827904D01*
X158654666Y-54637428D01*
X158607047Y-54542190D01*
X158559428Y-54494571D01*
X158464190Y-54446952D01*
X122083333Y-66057142D02*
X122035714Y-66104761D01*
X121892857Y-66152380D01*
X121797619Y-66152380D01*
X121654761Y-66104761D01*
X121559523Y-66009523D01*
X121511904Y-65914285D01*
X121464285Y-65723809D01*
X121464285Y-65580952D01*
X121511904Y-65390476D01*
X121559523Y-65295238D01*
X121654761Y-65200000D01*
X121797619Y-65152380D01*
X121892857Y-65152380D01*
X122035714Y-65200000D01*
X122083333Y-65247619D01*
X122416666Y-65152380D02*
X123083333Y-65152380D01*
X122654761Y-66152380D01*
X118533333Y-71957142D02*
X118485714Y-72004761D01*
X118342857Y-72052380D01*
X118247619Y-72052380D01*
X118104761Y-72004761D01*
X118009523Y-71909523D01*
X117961904Y-71814285D01*
X117914285Y-71623809D01*
X117914285Y-71480952D01*
X117961904Y-71290476D01*
X118009523Y-71195238D01*
X118104761Y-71100000D01*
X118247619Y-71052380D01*
X118342857Y-71052380D01*
X118485714Y-71100000D01*
X118533333Y-71147619D01*
X119390476Y-71052380D02*
X119200000Y-71052380D01*
X119104761Y-71100000D01*
X119057142Y-71147619D01*
X118961904Y-71290476D01*
X118914285Y-71480952D01*
X118914285Y-71861904D01*
X118961904Y-71957142D01*
X119009523Y-72004761D01*
X119104761Y-72052380D01*
X119295238Y-72052380D01*
X119390476Y-72004761D01*
X119438095Y-71957142D01*
X119485714Y-71861904D01*
X119485714Y-71623809D01*
X119438095Y-71528571D01*
X119390476Y-71480952D01*
X119295238Y-71433333D01*
X119104761Y-71433333D01*
X119009523Y-71480952D01*
X118961904Y-71528571D01*
X118914285Y-71623809D01*
X120933333Y-77957142D02*
X120885714Y-78004761D01*
X120742857Y-78052380D01*
X120647619Y-78052380D01*
X120504761Y-78004761D01*
X120409523Y-77909523D01*
X120361904Y-77814285D01*
X120314285Y-77623809D01*
X120314285Y-77480952D01*
X120361904Y-77290476D01*
X120409523Y-77195238D01*
X120504761Y-77100000D01*
X120647619Y-77052380D01*
X120742857Y-77052380D01*
X120885714Y-77100000D01*
X120933333Y-77147619D01*
X121838095Y-77052380D02*
X121361904Y-77052380D01*
X121314285Y-77528571D01*
X121361904Y-77480952D01*
X121457142Y-77433333D01*
X121695238Y-77433333D01*
X121790476Y-77480952D01*
X121838095Y-77528571D01*
X121885714Y-77623809D01*
X121885714Y-77861904D01*
X121838095Y-77957142D01*
X121790476Y-78004761D01*
X121695238Y-78052380D01*
X121457142Y-78052380D01*
X121361904Y-78004761D01*
X121314285Y-77957142D01*
X130933333Y-79057142D02*
X130885714Y-79104761D01*
X130742857Y-79152380D01*
X130647619Y-79152380D01*
X130504761Y-79104761D01*
X130409523Y-79009523D01*
X130361904Y-78914285D01*
X130314285Y-78723809D01*
X130314285Y-78580952D01*
X130361904Y-78390476D01*
X130409523Y-78295238D01*
X130504761Y-78200000D01*
X130647619Y-78152380D01*
X130742857Y-78152380D01*
X130885714Y-78200000D01*
X130933333Y-78247619D01*
X131790476Y-78485714D02*
X131790476Y-79152380D01*
X131552380Y-78104761D02*
X131314285Y-78819047D01*
X131933333Y-78819047D01*
X118633333Y-60257142D02*
X118585714Y-60304761D01*
X118442857Y-60352380D01*
X118347619Y-60352380D01*
X118204761Y-60304761D01*
X118109523Y-60209523D01*
X118061904Y-60114285D01*
X118014285Y-59923809D01*
X118014285Y-59780952D01*
X118061904Y-59590476D01*
X118109523Y-59495238D01*
X118204761Y-59400000D01*
X118347619Y-59352380D01*
X118442857Y-59352380D01*
X118585714Y-59400000D01*
X118633333Y-59447619D01*
X118966666Y-59352380D02*
X119585714Y-59352380D01*
X119252380Y-59733333D01*
X119395238Y-59733333D01*
X119490476Y-59780952D01*
X119538095Y-59828571D01*
X119585714Y-59923809D01*
X119585714Y-60161904D01*
X119538095Y-60257142D01*
X119490476Y-60304761D01*
X119395238Y-60352380D01*
X119109523Y-60352380D01*
X119014285Y-60304761D01*
X118966666Y-60257142D01*
X118533333Y-54157142D02*
X118485714Y-54204761D01*
X118342857Y-54252380D01*
X118247619Y-54252380D01*
X118104761Y-54204761D01*
X118009523Y-54109523D01*
X117961904Y-54014285D01*
X117914285Y-53823809D01*
X117914285Y-53680952D01*
X117961904Y-53490476D01*
X118009523Y-53395238D01*
X118104761Y-53300000D01*
X118247619Y-53252380D01*
X118342857Y-53252380D01*
X118485714Y-53300000D01*
X118533333Y-53347619D01*
X118914285Y-53347619D02*
X118961904Y-53300000D01*
X119057142Y-53252380D01*
X119295238Y-53252380D01*
X119390476Y-53300000D01*
X119438095Y-53347619D01*
X119485714Y-53442857D01*
X119485714Y-53538095D01*
X119438095Y-53680952D01*
X118866666Y-54252380D01*
X119485714Y-54252380D01*
X127933333Y-54257142D02*
X127885714Y-54304761D01*
X127742857Y-54352380D01*
X127647619Y-54352380D01*
X127504761Y-54304761D01*
X127409523Y-54209523D01*
X127361904Y-54114285D01*
X127314285Y-53923809D01*
X127314285Y-53780952D01*
X127361904Y-53590476D01*
X127409523Y-53495238D01*
X127504761Y-53400000D01*
X127647619Y-53352380D01*
X127742857Y-53352380D01*
X127885714Y-53400000D01*
X127933333Y-53447619D01*
X128885714Y-54352380D02*
X128314285Y-54352380D01*
X128600000Y-54352380D02*
X128600000Y-53352380D01*
X128504761Y-53495238D01*
X128409523Y-53590476D01*
X128314285Y-53638095D01*
X108066666Y-34802380D02*
X108066666Y-35516666D01*
X108019047Y-35659523D01*
X107923809Y-35754761D01*
X107780952Y-35802380D01*
X107685714Y-35802380D01*
X109066666Y-35802380D02*
X108495238Y-35802380D01*
X108780952Y-35802380D02*
X108780952Y-34802380D01*
X108685714Y-34945238D01*
X108590476Y-35040476D01*
X108495238Y-35088095D01*
X108216666Y-46302380D02*
X108216666Y-47016666D01*
X108169047Y-47159523D01*
X108073809Y-47254761D01*
X107930952Y-47302380D01*
X107835714Y-47302380D01*
X108645238Y-46397619D02*
X108692857Y-46350000D01*
X108788095Y-46302380D01*
X109026190Y-46302380D01*
X109121428Y-46350000D01*
X109169047Y-46397619D01*
X109216666Y-46492857D01*
X109216666Y-46588095D01*
X109169047Y-46730952D01*
X108597619Y-47302380D01*
X109216666Y-47302380D01*
X108166666Y-57652380D02*
X108166666Y-58366666D01*
X108119047Y-58509523D01*
X108023809Y-58604761D01*
X107880952Y-58652380D01*
X107785714Y-58652380D01*
X108547619Y-57652380D02*
X109166666Y-57652380D01*
X108833333Y-58033333D01*
X108976190Y-58033333D01*
X109071428Y-58080952D01*
X109119047Y-58128571D01*
X109166666Y-58223809D01*
X109166666Y-58461904D01*
X109119047Y-58557142D01*
X109071428Y-58604761D01*
X108976190Y-58652380D01*
X108690476Y-58652380D01*
X108595238Y-58604761D01*
X108547619Y-58557142D01*
X108116666Y-93302380D02*
X108116666Y-94016666D01*
X108069047Y-94159523D01*
X107973809Y-94254761D01*
X107830952Y-94302380D01*
X107735714Y-94302380D01*
X109021428Y-93635714D02*
X109021428Y-94302380D01*
X108783333Y-93254761D02*
X108545238Y-93969047D01*
X109164285Y-93969047D01*
X107916666Y-81852380D02*
X107916666Y-82566666D01*
X107869047Y-82709523D01*
X107773809Y-82804761D01*
X107630952Y-82852380D01*
X107535714Y-82852380D01*
X108869047Y-81852380D02*
X108392857Y-81852380D01*
X108345238Y-82328571D01*
X108392857Y-82280952D01*
X108488095Y-82233333D01*
X108726190Y-82233333D01*
X108821428Y-82280952D01*
X108869047Y-82328571D01*
X108916666Y-82423809D01*
X108916666Y-82661904D01*
X108869047Y-82757142D01*
X108821428Y-82804761D01*
X108726190Y-82852380D01*
X108488095Y-82852380D01*
X108392857Y-82804761D01*
X108345238Y-82757142D01*
X108166666Y-70402380D02*
X108166666Y-71116666D01*
X108119047Y-71259523D01*
X108023809Y-71354761D01*
X107880952Y-71402380D01*
X107785714Y-71402380D01*
X109071428Y-70402380D02*
X108880952Y-70402380D01*
X108785714Y-70450000D01*
X108738095Y-70497619D01*
X108642857Y-70640476D01*
X108595238Y-70830952D01*
X108595238Y-71211904D01*
X108642857Y-71307142D01*
X108690476Y-71354761D01*
X108785714Y-71402380D01*
X108976190Y-71402380D01*
X109071428Y-71354761D01*
X109119047Y-71307142D01*
X109166666Y-71211904D01*
X109166666Y-70973809D01*
X109119047Y-70878571D01*
X109071428Y-70830952D01*
X108976190Y-70783333D01*
X108785714Y-70783333D01*
X108690476Y-70830952D01*
X108642857Y-70878571D01*
X108595238Y-70973809D01*
X136866666Y-90852380D02*
X136866666Y-91566666D01*
X136819047Y-91709523D01*
X136723809Y-91804761D01*
X136580952Y-91852380D01*
X136485714Y-91852380D01*
X137247619Y-90852380D02*
X137914285Y-90852380D01*
X137485714Y-91852380D01*
M02*
