G04 #@! TF.GenerationSoftware,KiCad,Pcbnew,(5.1.5)-3*
G04 #@! TF.CreationDate,2020-03-16T22:45:32+11:00*
G04 #@! TF.ProjectId,ADE7816_Breakout,41444537-3831-4365-9f42-7265616b6f75,rev?*
G04 #@! TF.SameCoordinates,Original*
G04 #@! TF.FileFunction,Paste,Top*
G04 #@! TF.FilePolarity,Positive*
%FSLAX46Y46*%
G04 Gerber Fmt 4.6, Leading zero omitted, Abs format (unit mm)*
G04 Created by KiCad (PCBNEW (5.1.5)-3) date 2020-03-16 22:45:32*
%MOMM*%
%LPD*%
G04 APERTURE LIST*
%ADD10R,0.690000X0.690000*%
%ADD11R,0.500000X0.300000*%
%ADD12R,0.300000X0.500000*%
%ADD13C,0.100000*%
%ADD14R,1.150000X1.000000*%
%ADD15R,2.800000X2.800000*%
%ADD16R,2.200000X2.800000*%
G04 APERTURE END LIST*
D10*
X134250000Y-65750000D03*
X133100000Y-65750000D03*
X131950000Y-65750000D03*
X130800000Y-65750000D03*
X134250000Y-66900000D03*
X133100000Y-66900000D03*
X131950000Y-66900000D03*
X130800000Y-66900000D03*
X134250000Y-68050000D03*
X133100000Y-68050000D03*
X131950000Y-68050000D03*
X130800000Y-68050000D03*
X134250000Y-69200000D03*
X133100000Y-69200000D03*
X131950000Y-69200000D03*
X130800000Y-69200000D03*
D11*
X135525000Y-65225000D03*
X135525000Y-65725000D03*
X135525000Y-66225000D03*
X135525000Y-66725000D03*
X135525000Y-67225000D03*
X135525000Y-67725000D03*
X135525000Y-68225000D03*
X135525000Y-68725000D03*
X135525000Y-69225000D03*
X135525000Y-69725000D03*
D12*
X134775000Y-70475000D03*
X134275000Y-70475000D03*
X133775000Y-70475000D03*
X133275000Y-70475000D03*
X132775000Y-70475000D03*
X132275000Y-70475000D03*
X131775000Y-70475000D03*
X131275000Y-70475000D03*
X130775000Y-70475000D03*
X130275000Y-70475000D03*
D11*
X129525000Y-69725000D03*
X129525000Y-69225000D03*
X129525000Y-68725000D03*
X129525000Y-68225000D03*
X129525000Y-67725000D03*
X129525000Y-67225000D03*
X129525000Y-66725000D03*
X129525000Y-66225000D03*
X129525000Y-65725000D03*
X129525000Y-65225000D03*
D12*
X130275000Y-64475000D03*
X130775000Y-64475000D03*
X131275000Y-64475000D03*
X131775000Y-64475000D03*
X132275000Y-64475000D03*
X132775000Y-64475000D03*
X133275000Y-64475000D03*
X133775000Y-64475000D03*
X134275000Y-64475000D03*
X134775000Y-64475000D03*
D13*
G36*
X120027691Y-68261053D02*
G01*
X120048926Y-68264203D01*
X120069750Y-68269419D01*
X120089962Y-68276651D01*
X120109368Y-68285830D01*
X120127781Y-68296866D01*
X120145024Y-68309654D01*
X120160930Y-68324070D01*
X120175346Y-68339976D01*
X120188134Y-68357219D01*
X120199170Y-68375632D01*
X120208349Y-68395038D01*
X120215581Y-68415250D01*
X120220797Y-68436074D01*
X120223947Y-68457309D01*
X120225000Y-68478750D01*
X120225000Y-68916250D01*
X120223947Y-68937691D01*
X120220797Y-68958926D01*
X120215581Y-68979750D01*
X120208349Y-68999962D01*
X120199170Y-69019368D01*
X120188134Y-69037781D01*
X120175346Y-69055024D01*
X120160930Y-69070930D01*
X120145024Y-69085346D01*
X120127781Y-69098134D01*
X120109368Y-69109170D01*
X120089962Y-69118349D01*
X120069750Y-69125581D01*
X120048926Y-69130797D01*
X120027691Y-69133947D01*
X120006250Y-69135000D01*
X119493750Y-69135000D01*
X119472309Y-69133947D01*
X119451074Y-69130797D01*
X119430250Y-69125581D01*
X119410038Y-69118349D01*
X119390632Y-69109170D01*
X119372219Y-69098134D01*
X119354976Y-69085346D01*
X119339070Y-69070930D01*
X119324654Y-69055024D01*
X119311866Y-69037781D01*
X119300830Y-69019368D01*
X119291651Y-68999962D01*
X119284419Y-68979750D01*
X119279203Y-68958926D01*
X119276053Y-68937691D01*
X119275000Y-68916250D01*
X119275000Y-68478750D01*
X119276053Y-68457309D01*
X119279203Y-68436074D01*
X119284419Y-68415250D01*
X119291651Y-68395038D01*
X119300830Y-68375632D01*
X119311866Y-68357219D01*
X119324654Y-68339976D01*
X119339070Y-68324070D01*
X119354976Y-68309654D01*
X119372219Y-68296866D01*
X119390632Y-68285830D01*
X119410038Y-68276651D01*
X119430250Y-68269419D01*
X119451074Y-68264203D01*
X119472309Y-68261053D01*
X119493750Y-68260000D01*
X120006250Y-68260000D01*
X120027691Y-68261053D01*
G37*
G36*
X120027691Y-66686053D02*
G01*
X120048926Y-66689203D01*
X120069750Y-66694419D01*
X120089962Y-66701651D01*
X120109368Y-66710830D01*
X120127781Y-66721866D01*
X120145024Y-66734654D01*
X120160930Y-66749070D01*
X120175346Y-66764976D01*
X120188134Y-66782219D01*
X120199170Y-66800632D01*
X120208349Y-66820038D01*
X120215581Y-66840250D01*
X120220797Y-66861074D01*
X120223947Y-66882309D01*
X120225000Y-66903750D01*
X120225000Y-67341250D01*
X120223947Y-67362691D01*
X120220797Y-67383926D01*
X120215581Y-67404750D01*
X120208349Y-67424962D01*
X120199170Y-67444368D01*
X120188134Y-67462781D01*
X120175346Y-67480024D01*
X120160930Y-67495930D01*
X120145024Y-67510346D01*
X120127781Y-67523134D01*
X120109368Y-67534170D01*
X120089962Y-67543349D01*
X120069750Y-67550581D01*
X120048926Y-67555797D01*
X120027691Y-67558947D01*
X120006250Y-67560000D01*
X119493750Y-67560000D01*
X119472309Y-67558947D01*
X119451074Y-67555797D01*
X119430250Y-67550581D01*
X119410038Y-67543349D01*
X119390632Y-67534170D01*
X119372219Y-67523134D01*
X119354976Y-67510346D01*
X119339070Y-67495930D01*
X119324654Y-67480024D01*
X119311866Y-67462781D01*
X119300830Y-67444368D01*
X119291651Y-67424962D01*
X119284419Y-67404750D01*
X119279203Y-67383926D01*
X119276053Y-67362691D01*
X119275000Y-67341250D01*
X119275000Y-66903750D01*
X119276053Y-66882309D01*
X119279203Y-66861074D01*
X119284419Y-66840250D01*
X119291651Y-66820038D01*
X119300830Y-66800632D01*
X119311866Y-66782219D01*
X119324654Y-66764976D01*
X119339070Y-66749070D01*
X119354976Y-66734654D01*
X119372219Y-66721866D01*
X119390632Y-66710830D01*
X119410038Y-66701651D01*
X119430250Y-66694419D01*
X119451074Y-66689203D01*
X119472309Y-66686053D01*
X119493750Y-66685000D01*
X120006250Y-66685000D01*
X120027691Y-66686053D01*
G37*
G36*
X131794505Y-74176204D02*
G01*
X131818773Y-74179804D01*
X131842572Y-74185765D01*
X131865671Y-74194030D01*
X131887850Y-74204520D01*
X131908893Y-74217132D01*
X131928599Y-74231747D01*
X131946777Y-74248223D01*
X131963253Y-74266401D01*
X131977868Y-74286107D01*
X131990480Y-74307150D01*
X132000970Y-74329329D01*
X132009235Y-74352428D01*
X132015196Y-74376227D01*
X132018796Y-74400495D01*
X132020000Y-74424999D01*
X132020000Y-75275001D01*
X132018796Y-75299505D01*
X132015196Y-75323773D01*
X132009235Y-75347572D01*
X132000970Y-75370671D01*
X131990480Y-75392850D01*
X131977868Y-75413893D01*
X131963253Y-75433599D01*
X131946777Y-75451777D01*
X131928599Y-75468253D01*
X131908893Y-75482868D01*
X131887850Y-75495480D01*
X131865671Y-75505970D01*
X131842572Y-75514235D01*
X131818773Y-75520196D01*
X131794505Y-75523796D01*
X131770001Y-75525000D01*
X130869999Y-75525000D01*
X130845495Y-75523796D01*
X130821227Y-75520196D01*
X130797428Y-75514235D01*
X130774329Y-75505970D01*
X130752150Y-75495480D01*
X130731107Y-75482868D01*
X130711401Y-75468253D01*
X130693223Y-75451777D01*
X130676747Y-75433599D01*
X130662132Y-75413893D01*
X130649520Y-75392850D01*
X130639030Y-75370671D01*
X130630765Y-75347572D01*
X130624804Y-75323773D01*
X130621204Y-75299505D01*
X130620000Y-75275001D01*
X130620000Y-74424999D01*
X130621204Y-74400495D01*
X130624804Y-74376227D01*
X130630765Y-74352428D01*
X130639030Y-74329329D01*
X130649520Y-74307150D01*
X130662132Y-74286107D01*
X130676747Y-74266401D01*
X130693223Y-74248223D01*
X130711401Y-74231747D01*
X130731107Y-74217132D01*
X130752150Y-74204520D01*
X130774329Y-74194030D01*
X130797428Y-74185765D01*
X130821227Y-74179804D01*
X130845495Y-74176204D01*
X130869999Y-74175000D01*
X131770001Y-74175000D01*
X131794505Y-74176204D01*
G37*
G36*
X129094505Y-74176204D02*
G01*
X129118773Y-74179804D01*
X129142572Y-74185765D01*
X129165671Y-74194030D01*
X129187850Y-74204520D01*
X129208893Y-74217132D01*
X129228599Y-74231747D01*
X129246777Y-74248223D01*
X129263253Y-74266401D01*
X129277868Y-74286107D01*
X129290480Y-74307150D01*
X129300970Y-74329329D01*
X129309235Y-74352428D01*
X129315196Y-74376227D01*
X129318796Y-74400495D01*
X129320000Y-74424999D01*
X129320000Y-75275001D01*
X129318796Y-75299505D01*
X129315196Y-75323773D01*
X129309235Y-75347572D01*
X129300970Y-75370671D01*
X129290480Y-75392850D01*
X129277868Y-75413893D01*
X129263253Y-75433599D01*
X129246777Y-75451777D01*
X129228599Y-75468253D01*
X129208893Y-75482868D01*
X129187850Y-75495480D01*
X129165671Y-75505970D01*
X129142572Y-75514235D01*
X129118773Y-75520196D01*
X129094505Y-75523796D01*
X129070001Y-75525000D01*
X128169999Y-75525000D01*
X128145495Y-75523796D01*
X128121227Y-75520196D01*
X128097428Y-75514235D01*
X128074329Y-75505970D01*
X128052150Y-75495480D01*
X128031107Y-75482868D01*
X128011401Y-75468253D01*
X127993223Y-75451777D01*
X127976747Y-75433599D01*
X127962132Y-75413893D01*
X127949520Y-75392850D01*
X127939030Y-75370671D01*
X127930765Y-75347572D01*
X127924804Y-75323773D01*
X127921204Y-75299505D01*
X127920000Y-75275001D01*
X127920000Y-74424999D01*
X127921204Y-74400495D01*
X127924804Y-74376227D01*
X127930765Y-74352428D01*
X127939030Y-74329329D01*
X127949520Y-74307150D01*
X127962132Y-74286107D01*
X127976747Y-74266401D01*
X127993223Y-74248223D01*
X128011401Y-74231747D01*
X128031107Y-74217132D01*
X128052150Y-74204520D01*
X128074329Y-74194030D01*
X128097428Y-74185765D01*
X128121227Y-74179804D01*
X128145495Y-74176204D01*
X128169999Y-74175000D01*
X129070001Y-74175000D01*
X129094505Y-74176204D01*
G37*
G36*
X134551691Y-62511053D02*
G01*
X134572926Y-62514203D01*
X134593750Y-62519419D01*
X134613962Y-62526651D01*
X134633368Y-62535830D01*
X134651781Y-62546866D01*
X134669024Y-62559654D01*
X134684930Y-62574070D01*
X134699346Y-62589976D01*
X134712134Y-62607219D01*
X134723170Y-62625632D01*
X134732349Y-62645038D01*
X134739581Y-62665250D01*
X134744797Y-62686074D01*
X134747947Y-62707309D01*
X134749000Y-62728750D01*
X134749000Y-63166250D01*
X134747947Y-63187691D01*
X134744797Y-63208926D01*
X134739581Y-63229750D01*
X134732349Y-63249962D01*
X134723170Y-63269368D01*
X134712134Y-63287781D01*
X134699346Y-63305024D01*
X134684930Y-63320930D01*
X134669024Y-63335346D01*
X134651781Y-63348134D01*
X134633368Y-63359170D01*
X134613962Y-63368349D01*
X134593750Y-63375581D01*
X134572926Y-63380797D01*
X134551691Y-63383947D01*
X134530250Y-63385000D01*
X134017750Y-63385000D01*
X133996309Y-63383947D01*
X133975074Y-63380797D01*
X133954250Y-63375581D01*
X133934038Y-63368349D01*
X133914632Y-63359170D01*
X133896219Y-63348134D01*
X133878976Y-63335346D01*
X133863070Y-63320930D01*
X133848654Y-63305024D01*
X133835866Y-63287781D01*
X133824830Y-63269368D01*
X133815651Y-63249962D01*
X133808419Y-63229750D01*
X133803203Y-63208926D01*
X133800053Y-63187691D01*
X133799000Y-63166250D01*
X133799000Y-62728750D01*
X133800053Y-62707309D01*
X133803203Y-62686074D01*
X133808419Y-62665250D01*
X133815651Y-62645038D01*
X133824830Y-62625632D01*
X133835866Y-62607219D01*
X133848654Y-62589976D01*
X133863070Y-62574070D01*
X133878976Y-62559654D01*
X133896219Y-62546866D01*
X133914632Y-62535830D01*
X133934038Y-62526651D01*
X133954250Y-62519419D01*
X133975074Y-62514203D01*
X133996309Y-62511053D01*
X134017750Y-62510000D01*
X134530250Y-62510000D01*
X134551691Y-62511053D01*
G37*
G36*
X134551691Y-60936053D02*
G01*
X134572926Y-60939203D01*
X134593750Y-60944419D01*
X134613962Y-60951651D01*
X134633368Y-60960830D01*
X134651781Y-60971866D01*
X134669024Y-60984654D01*
X134684930Y-60999070D01*
X134699346Y-61014976D01*
X134712134Y-61032219D01*
X134723170Y-61050632D01*
X134732349Y-61070038D01*
X134739581Y-61090250D01*
X134744797Y-61111074D01*
X134747947Y-61132309D01*
X134749000Y-61153750D01*
X134749000Y-61591250D01*
X134747947Y-61612691D01*
X134744797Y-61633926D01*
X134739581Y-61654750D01*
X134732349Y-61674962D01*
X134723170Y-61694368D01*
X134712134Y-61712781D01*
X134699346Y-61730024D01*
X134684930Y-61745930D01*
X134669024Y-61760346D01*
X134651781Y-61773134D01*
X134633368Y-61784170D01*
X134613962Y-61793349D01*
X134593750Y-61800581D01*
X134572926Y-61805797D01*
X134551691Y-61808947D01*
X134530250Y-61810000D01*
X134017750Y-61810000D01*
X133996309Y-61808947D01*
X133975074Y-61805797D01*
X133954250Y-61800581D01*
X133934038Y-61793349D01*
X133914632Y-61784170D01*
X133896219Y-61773134D01*
X133878976Y-61760346D01*
X133863070Y-61745930D01*
X133848654Y-61730024D01*
X133835866Y-61712781D01*
X133824830Y-61694368D01*
X133815651Y-61674962D01*
X133808419Y-61654750D01*
X133803203Y-61633926D01*
X133800053Y-61612691D01*
X133799000Y-61591250D01*
X133799000Y-61153750D01*
X133800053Y-61132309D01*
X133803203Y-61111074D01*
X133808419Y-61090250D01*
X133815651Y-61070038D01*
X133824830Y-61050632D01*
X133835866Y-61032219D01*
X133848654Y-61014976D01*
X133863070Y-60999070D01*
X133878976Y-60984654D01*
X133896219Y-60971866D01*
X133914632Y-60960830D01*
X133934038Y-60951651D01*
X133954250Y-60944419D01*
X133975074Y-60939203D01*
X133996309Y-60936053D01*
X134017750Y-60935000D01*
X134530250Y-60935000D01*
X134551691Y-60936053D01*
G37*
G36*
X127977691Y-70151053D02*
G01*
X127998926Y-70154203D01*
X128019750Y-70159419D01*
X128039962Y-70166651D01*
X128059368Y-70175830D01*
X128077781Y-70186866D01*
X128095024Y-70199654D01*
X128110930Y-70214070D01*
X128125346Y-70229976D01*
X128138134Y-70247219D01*
X128149170Y-70265632D01*
X128158349Y-70285038D01*
X128165581Y-70305250D01*
X128170797Y-70326074D01*
X128173947Y-70347309D01*
X128175000Y-70368750D01*
X128175000Y-70806250D01*
X128173947Y-70827691D01*
X128170797Y-70848926D01*
X128165581Y-70869750D01*
X128158349Y-70889962D01*
X128149170Y-70909368D01*
X128138134Y-70927781D01*
X128125346Y-70945024D01*
X128110930Y-70960930D01*
X128095024Y-70975346D01*
X128077781Y-70988134D01*
X128059368Y-70999170D01*
X128039962Y-71008349D01*
X128019750Y-71015581D01*
X127998926Y-71020797D01*
X127977691Y-71023947D01*
X127956250Y-71025000D01*
X127443750Y-71025000D01*
X127422309Y-71023947D01*
X127401074Y-71020797D01*
X127380250Y-71015581D01*
X127360038Y-71008349D01*
X127340632Y-70999170D01*
X127322219Y-70988134D01*
X127304976Y-70975346D01*
X127289070Y-70960930D01*
X127274654Y-70945024D01*
X127261866Y-70927781D01*
X127250830Y-70909368D01*
X127241651Y-70889962D01*
X127234419Y-70869750D01*
X127229203Y-70848926D01*
X127226053Y-70827691D01*
X127225000Y-70806250D01*
X127225000Y-70368750D01*
X127226053Y-70347309D01*
X127229203Y-70326074D01*
X127234419Y-70305250D01*
X127241651Y-70285038D01*
X127250830Y-70265632D01*
X127261866Y-70247219D01*
X127274654Y-70229976D01*
X127289070Y-70214070D01*
X127304976Y-70199654D01*
X127322219Y-70186866D01*
X127340632Y-70175830D01*
X127360038Y-70166651D01*
X127380250Y-70159419D01*
X127401074Y-70154203D01*
X127422309Y-70151053D01*
X127443750Y-70150000D01*
X127956250Y-70150000D01*
X127977691Y-70151053D01*
G37*
G36*
X127977691Y-68576053D02*
G01*
X127998926Y-68579203D01*
X128019750Y-68584419D01*
X128039962Y-68591651D01*
X128059368Y-68600830D01*
X128077781Y-68611866D01*
X128095024Y-68624654D01*
X128110930Y-68639070D01*
X128125346Y-68654976D01*
X128138134Y-68672219D01*
X128149170Y-68690632D01*
X128158349Y-68710038D01*
X128165581Y-68730250D01*
X128170797Y-68751074D01*
X128173947Y-68772309D01*
X128175000Y-68793750D01*
X128175000Y-69231250D01*
X128173947Y-69252691D01*
X128170797Y-69273926D01*
X128165581Y-69294750D01*
X128158349Y-69314962D01*
X128149170Y-69334368D01*
X128138134Y-69352781D01*
X128125346Y-69370024D01*
X128110930Y-69385930D01*
X128095024Y-69400346D01*
X128077781Y-69413134D01*
X128059368Y-69424170D01*
X128039962Y-69433349D01*
X128019750Y-69440581D01*
X127998926Y-69445797D01*
X127977691Y-69448947D01*
X127956250Y-69450000D01*
X127443750Y-69450000D01*
X127422309Y-69448947D01*
X127401074Y-69445797D01*
X127380250Y-69440581D01*
X127360038Y-69433349D01*
X127340632Y-69424170D01*
X127322219Y-69413134D01*
X127304976Y-69400346D01*
X127289070Y-69385930D01*
X127274654Y-69370024D01*
X127261866Y-69352781D01*
X127250830Y-69334368D01*
X127241651Y-69314962D01*
X127234419Y-69294750D01*
X127229203Y-69273926D01*
X127226053Y-69252691D01*
X127225000Y-69231250D01*
X127225000Y-68793750D01*
X127226053Y-68772309D01*
X127229203Y-68751074D01*
X127234419Y-68730250D01*
X127241651Y-68710038D01*
X127250830Y-68690632D01*
X127261866Y-68672219D01*
X127274654Y-68654976D01*
X127289070Y-68639070D01*
X127304976Y-68624654D01*
X127322219Y-68611866D01*
X127340632Y-68600830D01*
X127360038Y-68591651D01*
X127380250Y-68584419D01*
X127401074Y-68579203D01*
X127422309Y-68576053D01*
X127443750Y-68575000D01*
X127956250Y-68575000D01*
X127977691Y-68576053D01*
G37*
G36*
X126049505Y-71251204D02*
G01*
X126073773Y-71254804D01*
X126097572Y-71260765D01*
X126120671Y-71269030D01*
X126142850Y-71279520D01*
X126163893Y-71292132D01*
X126183599Y-71306747D01*
X126201777Y-71323223D01*
X126218253Y-71341401D01*
X126232868Y-71361107D01*
X126245480Y-71382150D01*
X126255970Y-71404329D01*
X126264235Y-71427428D01*
X126270196Y-71451227D01*
X126273796Y-71475495D01*
X126275000Y-71499999D01*
X126275000Y-72400001D01*
X126273796Y-72424505D01*
X126270196Y-72448773D01*
X126264235Y-72472572D01*
X126255970Y-72495671D01*
X126245480Y-72517850D01*
X126232868Y-72538893D01*
X126218253Y-72558599D01*
X126201777Y-72576777D01*
X126183599Y-72593253D01*
X126163893Y-72607868D01*
X126142850Y-72620480D01*
X126120671Y-72630970D01*
X126097572Y-72639235D01*
X126073773Y-72645196D01*
X126049505Y-72648796D01*
X126025001Y-72650000D01*
X125174999Y-72650000D01*
X125150495Y-72648796D01*
X125126227Y-72645196D01*
X125102428Y-72639235D01*
X125079329Y-72630970D01*
X125057150Y-72620480D01*
X125036107Y-72607868D01*
X125016401Y-72593253D01*
X124998223Y-72576777D01*
X124981747Y-72558599D01*
X124967132Y-72538893D01*
X124954520Y-72517850D01*
X124944030Y-72495671D01*
X124935765Y-72472572D01*
X124929804Y-72448773D01*
X124926204Y-72424505D01*
X124925000Y-72400001D01*
X124925000Y-71499999D01*
X124926204Y-71475495D01*
X124929804Y-71451227D01*
X124935765Y-71427428D01*
X124944030Y-71404329D01*
X124954520Y-71382150D01*
X124967132Y-71361107D01*
X124981747Y-71341401D01*
X124998223Y-71323223D01*
X125016401Y-71306747D01*
X125036107Y-71292132D01*
X125057150Y-71279520D01*
X125079329Y-71269030D01*
X125102428Y-71260765D01*
X125126227Y-71254804D01*
X125150495Y-71251204D01*
X125174999Y-71250000D01*
X126025001Y-71250000D01*
X126049505Y-71251204D01*
G37*
G36*
X126049505Y-68551204D02*
G01*
X126073773Y-68554804D01*
X126097572Y-68560765D01*
X126120671Y-68569030D01*
X126142850Y-68579520D01*
X126163893Y-68592132D01*
X126183599Y-68606747D01*
X126201777Y-68623223D01*
X126218253Y-68641401D01*
X126232868Y-68661107D01*
X126245480Y-68682150D01*
X126255970Y-68704329D01*
X126264235Y-68727428D01*
X126270196Y-68751227D01*
X126273796Y-68775495D01*
X126275000Y-68799999D01*
X126275000Y-69700001D01*
X126273796Y-69724505D01*
X126270196Y-69748773D01*
X126264235Y-69772572D01*
X126255970Y-69795671D01*
X126245480Y-69817850D01*
X126232868Y-69838893D01*
X126218253Y-69858599D01*
X126201777Y-69876777D01*
X126183599Y-69893253D01*
X126163893Y-69907868D01*
X126142850Y-69920480D01*
X126120671Y-69930970D01*
X126097572Y-69939235D01*
X126073773Y-69945196D01*
X126049505Y-69948796D01*
X126025001Y-69950000D01*
X125174999Y-69950000D01*
X125150495Y-69948796D01*
X125126227Y-69945196D01*
X125102428Y-69939235D01*
X125079329Y-69930970D01*
X125057150Y-69920480D01*
X125036107Y-69907868D01*
X125016401Y-69893253D01*
X124998223Y-69876777D01*
X124981747Y-69858599D01*
X124967132Y-69838893D01*
X124954520Y-69817850D01*
X124944030Y-69795671D01*
X124935765Y-69772572D01*
X124929804Y-69748773D01*
X124926204Y-69724505D01*
X124925000Y-69700001D01*
X124925000Y-68799999D01*
X124926204Y-68775495D01*
X124929804Y-68751227D01*
X124935765Y-68727428D01*
X124944030Y-68704329D01*
X124954520Y-68682150D01*
X124967132Y-68661107D01*
X124981747Y-68641401D01*
X124998223Y-68623223D01*
X125016401Y-68606747D01*
X125036107Y-68592132D01*
X125057150Y-68579520D01*
X125079329Y-68569030D01*
X125102428Y-68560765D01*
X125126227Y-68554804D01*
X125150495Y-68551204D01*
X125174999Y-68550000D01*
X126025001Y-68550000D01*
X126049505Y-68551204D01*
G37*
G36*
X136417691Y-62511053D02*
G01*
X136438926Y-62514203D01*
X136459750Y-62519419D01*
X136479962Y-62526651D01*
X136499368Y-62535830D01*
X136517781Y-62546866D01*
X136535024Y-62559654D01*
X136550930Y-62574070D01*
X136565346Y-62589976D01*
X136578134Y-62607219D01*
X136589170Y-62625632D01*
X136598349Y-62645038D01*
X136605581Y-62665250D01*
X136610797Y-62686074D01*
X136613947Y-62707309D01*
X136615000Y-62728750D01*
X136615000Y-63166250D01*
X136613947Y-63187691D01*
X136610797Y-63208926D01*
X136605581Y-63229750D01*
X136598349Y-63249962D01*
X136589170Y-63269368D01*
X136578134Y-63287781D01*
X136565346Y-63305024D01*
X136550930Y-63320930D01*
X136535024Y-63335346D01*
X136517781Y-63348134D01*
X136499368Y-63359170D01*
X136479962Y-63368349D01*
X136459750Y-63375581D01*
X136438926Y-63380797D01*
X136417691Y-63383947D01*
X136396250Y-63385000D01*
X135883750Y-63385000D01*
X135862309Y-63383947D01*
X135841074Y-63380797D01*
X135820250Y-63375581D01*
X135800038Y-63368349D01*
X135780632Y-63359170D01*
X135762219Y-63348134D01*
X135744976Y-63335346D01*
X135729070Y-63320930D01*
X135714654Y-63305024D01*
X135701866Y-63287781D01*
X135690830Y-63269368D01*
X135681651Y-63249962D01*
X135674419Y-63229750D01*
X135669203Y-63208926D01*
X135666053Y-63187691D01*
X135665000Y-63166250D01*
X135665000Y-62728750D01*
X135666053Y-62707309D01*
X135669203Y-62686074D01*
X135674419Y-62665250D01*
X135681651Y-62645038D01*
X135690830Y-62625632D01*
X135701866Y-62607219D01*
X135714654Y-62589976D01*
X135729070Y-62574070D01*
X135744976Y-62559654D01*
X135762219Y-62546866D01*
X135780632Y-62535830D01*
X135800038Y-62526651D01*
X135820250Y-62519419D01*
X135841074Y-62514203D01*
X135862309Y-62511053D01*
X135883750Y-62510000D01*
X136396250Y-62510000D01*
X136417691Y-62511053D01*
G37*
G36*
X136417691Y-60936053D02*
G01*
X136438926Y-60939203D01*
X136459750Y-60944419D01*
X136479962Y-60951651D01*
X136499368Y-60960830D01*
X136517781Y-60971866D01*
X136535024Y-60984654D01*
X136550930Y-60999070D01*
X136565346Y-61014976D01*
X136578134Y-61032219D01*
X136589170Y-61050632D01*
X136598349Y-61070038D01*
X136605581Y-61090250D01*
X136610797Y-61111074D01*
X136613947Y-61132309D01*
X136615000Y-61153750D01*
X136615000Y-61591250D01*
X136613947Y-61612691D01*
X136610797Y-61633926D01*
X136605581Y-61654750D01*
X136598349Y-61674962D01*
X136589170Y-61694368D01*
X136578134Y-61712781D01*
X136565346Y-61730024D01*
X136550930Y-61745930D01*
X136535024Y-61760346D01*
X136517781Y-61773134D01*
X136499368Y-61784170D01*
X136479962Y-61793349D01*
X136459750Y-61800581D01*
X136438926Y-61805797D01*
X136417691Y-61808947D01*
X136396250Y-61810000D01*
X135883750Y-61810000D01*
X135862309Y-61808947D01*
X135841074Y-61805797D01*
X135820250Y-61800581D01*
X135800038Y-61793349D01*
X135780632Y-61784170D01*
X135762219Y-61773134D01*
X135744976Y-61760346D01*
X135729070Y-61745930D01*
X135714654Y-61730024D01*
X135701866Y-61712781D01*
X135690830Y-61694368D01*
X135681651Y-61674962D01*
X135674419Y-61654750D01*
X135669203Y-61633926D01*
X135666053Y-61612691D01*
X135665000Y-61591250D01*
X135665000Y-61153750D01*
X135666053Y-61132309D01*
X135669203Y-61111074D01*
X135674419Y-61090250D01*
X135681651Y-61070038D01*
X135690830Y-61050632D01*
X135701866Y-61032219D01*
X135714654Y-61014976D01*
X135729070Y-60999070D01*
X135744976Y-60984654D01*
X135762219Y-60971866D01*
X135780632Y-60960830D01*
X135800038Y-60951651D01*
X135820250Y-60944419D01*
X135841074Y-60939203D01*
X135862309Y-60936053D01*
X135883750Y-60935000D01*
X136396250Y-60935000D01*
X136417691Y-60936053D01*
G37*
G36*
X132684505Y-59286204D02*
G01*
X132708773Y-59289804D01*
X132732572Y-59295765D01*
X132755671Y-59304030D01*
X132777850Y-59314520D01*
X132798893Y-59327132D01*
X132818599Y-59341747D01*
X132836777Y-59358223D01*
X132853253Y-59376401D01*
X132867868Y-59396107D01*
X132880480Y-59417150D01*
X132890970Y-59439329D01*
X132899235Y-59462428D01*
X132905196Y-59486227D01*
X132908796Y-59510495D01*
X132910000Y-59534999D01*
X132910000Y-60385001D01*
X132908796Y-60409505D01*
X132905196Y-60433773D01*
X132899235Y-60457572D01*
X132890970Y-60480671D01*
X132880480Y-60502850D01*
X132867868Y-60523893D01*
X132853253Y-60543599D01*
X132836777Y-60561777D01*
X132818599Y-60578253D01*
X132798893Y-60592868D01*
X132777850Y-60605480D01*
X132755671Y-60615970D01*
X132732572Y-60624235D01*
X132708773Y-60630196D01*
X132684505Y-60633796D01*
X132660001Y-60635000D01*
X131759999Y-60635000D01*
X131735495Y-60633796D01*
X131711227Y-60630196D01*
X131687428Y-60624235D01*
X131664329Y-60615970D01*
X131642150Y-60605480D01*
X131621107Y-60592868D01*
X131601401Y-60578253D01*
X131583223Y-60561777D01*
X131566747Y-60543599D01*
X131552132Y-60523893D01*
X131539520Y-60502850D01*
X131529030Y-60480671D01*
X131520765Y-60457572D01*
X131514804Y-60433773D01*
X131511204Y-60409505D01*
X131510000Y-60385001D01*
X131510000Y-59534999D01*
X131511204Y-59510495D01*
X131514804Y-59486227D01*
X131520765Y-59462428D01*
X131529030Y-59439329D01*
X131539520Y-59417150D01*
X131552132Y-59396107D01*
X131566747Y-59376401D01*
X131583223Y-59358223D01*
X131601401Y-59341747D01*
X131621107Y-59327132D01*
X131642150Y-59314520D01*
X131664329Y-59304030D01*
X131687428Y-59295765D01*
X131711227Y-59289804D01*
X131735495Y-59286204D01*
X131759999Y-59285000D01*
X132660001Y-59285000D01*
X132684505Y-59286204D01*
G37*
G36*
X129984505Y-59286204D02*
G01*
X130008773Y-59289804D01*
X130032572Y-59295765D01*
X130055671Y-59304030D01*
X130077850Y-59314520D01*
X130098893Y-59327132D01*
X130118599Y-59341747D01*
X130136777Y-59358223D01*
X130153253Y-59376401D01*
X130167868Y-59396107D01*
X130180480Y-59417150D01*
X130190970Y-59439329D01*
X130199235Y-59462428D01*
X130205196Y-59486227D01*
X130208796Y-59510495D01*
X130210000Y-59534999D01*
X130210000Y-60385001D01*
X130208796Y-60409505D01*
X130205196Y-60433773D01*
X130199235Y-60457572D01*
X130190970Y-60480671D01*
X130180480Y-60502850D01*
X130167868Y-60523893D01*
X130153253Y-60543599D01*
X130136777Y-60561777D01*
X130118599Y-60578253D01*
X130098893Y-60592868D01*
X130077850Y-60605480D01*
X130055671Y-60615970D01*
X130032572Y-60624235D01*
X130008773Y-60630196D01*
X129984505Y-60633796D01*
X129960001Y-60635000D01*
X129059999Y-60635000D01*
X129035495Y-60633796D01*
X129011227Y-60630196D01*
X128987428Y-60624235D01*
X128964329Y-60615970D01*
X128942150Y-60605480D01*
X128921107Y-60592868D01*
X128901401Y-60578253D01*
X128883223Y-60561777D01*
X128866747Y-60543599D01*
X128852132Y-60523893D01*
X128839520Y-60502850D01*
X128829030Y-60480671D01*
X128820765Y-60457572D01*
X128814804Y-60433773D01*
X128811204Y-60409505D01*
X128810000Y-60385001D01*
X128810000Y-59534999D01*
X128811204Y-59510495D01*
X128814804Y-59486227D01*
X128820765Y-59462428D01*
X128829030Y-59439329D01*
X128839520Y-59417150D01*
X128852132Y-59396107D01*
X128866747Y-59376401D01*
X128883223Y-59358223D01*
X128901401Y-59341747D01*
X128921107Y-59327132D01*
X128942150Y-59314520D01*
X128964329Y-59304030D01*
X128987428Y-59295765D01*
X129011227Y-59289804D01*
X129035495Y-59286204D01*
X129059999Y-59285000D01*
X129960001Y-59285000D01*
X129984505Y-59286204D01*
G37*
G36*
X132467691Y-61696053D02*
G01*
X132488926Y-61699203D01*
X132509750Y-61704419D01*
X132529962Y-61711651D01*
X132549368Y-61720830D01*
X132567781Y-61731866D01*
X132585024Y-61744654D01*
X132600930Y-61759070D01*
X132615346Y-61774976D01*
X132628134Y-61792219D01*
X132639170Y-61810632D01*
X132648349Y-61830038D01*
X132655581Y-61850250D01*
X132660797Y-61871074D01*
X132663947Y-61892309D01*
X132665000Y-61913750D01*
X132665000Y-62426250D01*
X132663947Y-62447691D01*
X132660797Y-62468926D01*
X132655581Y-62489750D01*
X132648349Y-62509962D01*
X132639170Y-62529368D01*
X132628134Y-62547781D01*
X132615346Y-62565024D01*
X132600930Y-62580930D01*
X132585024Y-62595346D01*
X132567781Y-62608134D01*
X132549368Y-62619170D01*
X132529962Y-62628349D01*
X132509750Y-62635581D01*
X132488926Y-62640797D01*
X132467691Y-62643947D01*
X132446250Y-62645000D01*
X132008750Y-62645000D01*
X131987309Y-62643947D01*
X131966074Y-62640797D01*
X131945250Y-62635581D01*
X131925038Y-62628349D01*
X131905632Y-62619170D01*
X131887219Y-62608134D01*
X131869976Y-62595346D01*
X131854070Y-62580930D01*
X131839654Y-62565024D01*
X131826866Y-62547781D01*
X131815830Y-62529368D01*
X131806651Y-62509962D01*
X131799419Y-62489750D01*
X131794203Y-62468926D01*
X131791053Y-62447691D01*
X131790000Y-62426250D01*
X131790000Y-61913750D01*
X131791053Y-61892309D01*
X131794203Y-61871074D01*
X131799419Y-61850250D01*
X131806651Y-61830038D01*
X131815830Y-61810632D01*
X131826866Y-61792219D01*
X131839654Y-61774976D01*
X131854070Y-61759070D01*
X131869976Y-61744654D01*
X131887219Y-61731866D01*
X131905632Y-61720830D01*
X131925038Y-61711651D01*
X131945250Y-61704419D01*
X131966074Y-61699203D01*
X131987309Y-61696053D01*
X132008750Y-61695000D01*
X132446250Y-61695000D01*
X132467691Y-61696053D01*
G37*
G36*
X130892691Y-61696053D02*
G01*
X130913926Y-61699203D01*
X130934750Y-61704419D01*
X130954962Y-61711651D01*
X130974368Y-61720830D01*
X130992781Y-61731866D01*
X131010024Y-61744654D01*
X131025930Y-61759070D01*
X131040346Y-61774976D01*
X131053134Y-61792219D01*
X131064170Y-61810632D01*
X131073349Y-61830038D01*
X131080581Y-61850250D01*
X131085797Y-61871074D01*
X131088947Y-61892309D01*
X131090000Y-61913750D01*
X131090000Y-62426250D01*
X131088947Y-62447691D01*
X131085797Y-62468926D01*
X131080581Y-62489750D01*
X131073349Y-62509962D01*
X131064170Y-62529368D01*
X131053134Y-62547781D01*
X131040346Y-62565024D01*
X131025930Y-62580930D01*
X131010024Y-62595346D01*
X130992781Y-62608134D01*
X130974368Y-62619170D01*
X130954962Y-62628349D01*
X130934750Y-62635581D01*
X130913926Y-62640797D01*
X130892691Y-62643947D01*
X130871250Y-62645000D01*
X130433750Y-62645000D01*
X130412309Y-62643947D01*
X130391074Y-62640797D01*
X130370250Y-62635581D01*
X130350038Y-62628349D01*
X130330632Y-62619170D01*
X130312219Y-62608134D01*
X130294976Y-62595346D01*
X130279070Y-62580930D01*
X130264654Y-62565024D01*
X130251866Y-62547781D01*
X130240830Y-62529368D01*
X130231651Y-62509962D01*
X130224419Y-62489750D01*
X130219203Y-62468926D01*
X130216053Y-62447691D01*
X130215000Y-62426250D01*
X130215000Y-61913750D01*
X130216053Y-61892309D01*
X130219203Y-61871074D01*
X130224419Y-61850250D01*
X130231651Y-61830038D01*
X130240830Y-61810632D01*
X130251866Y-61792219D01*
X130264654Y-61774976D01*
X130279070Y-61759070D01*
X130294976Y-61744654D01*
X130312219Y-61731866D01*
X130330632Y-61720830D01*
X130350038Y-61711651D01*
X130370250Y-61704419D01*
X130391074Y-61699203D01*
X130412309Y-61696053D01*
X130433750Y-61695000D01*
X130871250Y-61695000D01*
X130892691Y-61696053D01*
G37*
G36*
X131797691Y-72186053D02*
G01*
X131818926Y-72189203D01*
X131839750Y-72194419D01*
X131859962Y-72201651D01*
X131879368Y-72210830D01*
X131897781Y-72221866D01*
X131915024Y-72234654D01*
X131930930Y-72249070D01*
X131945346Y-72264976D01*
X131958134Y-72282219D01*
X131969170Y-72300632D01*
X131978349Y-72320038D01*
X131985581Y-72340250D01*
X131990797Y-72361074D01*
X131993947Y-72382309D01*
X131995000Y-72403750D01*
X131995000Y-72916250D01*
X131993947Y-72937691D01*
X131990797Y-72958926D01*
X131985581Y-72979750D01*
X131978349Y-72999962D01*
X131969170Y-73019368D01*
X131958134Y-73037781D01*
X131945346Y-73055024D01*
X131930930Y-73070930D01*
X131915024Y-73085346D01*
X131897781Y-73098134D01*
X131879368Y-73109170D01*
X131859962Y-73118349D01*
X131839750Y-73125581D01*
X131818926Y-73130797D01*
X131797691Y-73133947D01*
X131776250Y-73135000D01*
X131338750Y-73135000D01*
X131317309Y-73133947D01*
X131296074Y-73130797D01*
X131275250Y-73125581D01*
X131255038Y-73118349D01*
X131235632Y-73109170D01*
X131217219Y-73098134D01*
X131199976Y-73085346D01*
X131184070Y-73070930D01*
X131169654Y-73055024D01*
X131156866Y-73037781D01*
X131145830Y-73019368D01*
X131136651Y-72999962D01*
X131129419Y-72979750D01*
X131124203Y-72958926D01*
X131121053Y-72937691D01*
X131120000Y-72916250D01*
X131120000Y-72403750D01*
X131121053Y-72382309D01*
X131124203Y-72361074D01*
X131129419Y-72340250D01*
X131136651Y-72320038D01*
X131145830Y-72300632D01*
X131156866Y-72282219D01*
X131169654Y-72264976D01*
X131184070Y-72249070D01*
X131199976Y-72234654D01*
X131217219Y-72221866D01*
X131235632Y-72210830D01*
X131255038Y-72201651D01*
X131275250Y-72194419D01*
X131296074Y-72189203D01*
X131317309Y-72186053D01*
X131338750Y-72185000D01*
X131776250Y-72185000D01*
X131797691Y-72186053D01*
G37*
G36*
X130222691Y-72186053D02*
G01*
X130243926Y-72189203D01*
X130264750Y-72194419D01*
X130284962Y-72201651D01*
X130304368Y-72210830D01*
X130322781Y-72221866D01*
X130340024Y-72234654D01*
X130355930Y-72249070D01*
X130370346Y-72264976D01*
X130383134Y-72282219D01*
X130394170Y-72300632D01*
X130403349Y-72320038D01*
X130410581Y-72340250D01*
X130415797Y-72361074D01*
X130418947Y-72382309D01*
X130420000Y-72403750D01*
X130420000Y-72916250D01*
X130418947Y-72937691D01*
X130415797Y-72958926D01*
X130410581Y-72979750D01*
X130403349Y-72999962D01*
X130394170Y-73019368D01*
X130383134Y-73037781D01*
X130370346Y-73055024D01*
X130355930Y-73070930D01*
X130340024Y-73085346D01*
X130322781Y-73098134D01*
X130304368Y-73109170D01*
X130284962Y-73118349D01*
X130264750Y-73125581D01*
X130243926Y-73130797D01*
X130222691Y-73133947D01*
X130201250Y-73135000D01*
X129763750Y-73135000D01*
X129742309Y-73133947D01*
X129721074Y-73130797D01*
X129700250Y-73125581D01*
X129680038Y-73118349D01*
X129660632Y-73109170D01*
X129642219Y-73098134D01*
X129624976Y-73085346D01*
X129609070Y-73070930D01*
X129594654Y-73055024D01*
X129581866Y-73037781D01*
X129570830Y-73019368D01*
X129561651Y-72999962D01*
X129554419Y-72979750D01*
X129549203Y-72958926D01*
X129546053Y-72937691D01*
X129545000Y-72916250D01*
X129545000Y-72403750D01*
X129546053Y-72382309D01*
X129549203Y-72361074D01*
X129554419Y-72340250D01*
X129561651Y-72320038D01*
X129570830Y-72300632D01*
X129581866Y-72282219D01*
X129594654Y-72264976D01*
X129609070Y-72249070D01*
X129624976Y-72234654D01*
X129642219Y-72221866D01*
X129660632Y-72210830D01*
X129680038Y-72201651D01*
X129700250Y-72194419D01*
X129721074Y-72189203D01*
X129742309Y-72186053D01*
X129763750Y-72185000D01*
X130201250Y-72185000D01*
X130222691Y-72186053D01*
G37*
G36*
X133297691Y-76716053D02*
G01*
X133318926Y-76719203D01*
X133339750Y-76724419D01*
X133359962Y-76731651D01*
X133379368Y-76740830D01*
X133397781Y-76751866D01*
X133415024Y-76764654D01*
X133430930Y-76779070D01*
X133445346Y-76794976D01*
X133458134Y-76812219D01*
X133469170Y-76830632D01*
X133478349Y-76850038D01*
X133485581Y-76870250D01*
X133490797Y-76891074D01*
X133493947Y-76912309D01*
X133495000Y-76933750D01*
X133495000Y-77446250D01*
X133493947Y-77467691D01*
X133490797Y-77488926D01*
X133485581Y-77509750D01*
X133478349Y-77529962D01*
X133469170Y-77549368D01*
X133458134Y-77567781D01*
X133445346Y-77585024D01*
X133430930Y-77600930D01*
X133415024Y-77615346D01*
X133397781Y-77628134D01*
X133379368Y-77639170D01*
X133359962Y-77648349D01*
X133339750Y-77655581D01*
X133318926Y-77660797D01*
X133297691Y-77663947D01*
X133276250Y-77665000D01*
X132838750Y-77665000D01*
X132817309Y-77663947D01*
X132796074Y-77660797D01*
X132775250Y-77655581D01*
X132755038Y-77648349D01*
X132735632Y-77639170D01*
X132717219Y-77628134D01*
X132699976Y-77615346D01*
X132684070Y-77600930D01*
X132669654Y-77585024D01*
X132656866Y-77567781D01*
X132645830Y-77549368D01*
X132636651Y-77529962D01*
X132629419Y-77509750D01*
X132624203Y-77488926D01*
X132621053Y-77467691D01*
X132620000Y-77446250D01*
X132620000Y-76933750D01*
X132621053Y-76912309D01*
X132624203Y-76891074D01*
X132629419Y-76870250D01*
X132636651Y-76850038D01*
X132645830Y-76830632D01*
X132656866Y-76812219D01*
X132669654Y-76794976D01*
X132684070Y-76779070D01*
X132699976Y-76764654D01*
X132717219Y-76751866D01*
X132735632Y-76740830D01*
X132755038Y-76731651D01*
X132775250Y-76724419D01*
X132796074Y-76719203D01*
X132817309Y-76716053D01*
X132838750Y-76715000D01*
X133276250Y-76715000D01*
X133297691Y-76716053D01*
G37*
G36*
X131722691Y-76716053D02*
G01*
X131743926Y-76719203D01*
X131764750Y-76724419D01*
X131784962Y-76731651D01*
X131804368Y-76740830D01*
X131822781Y-76751866D01*
X131840024Y-76764654D01*
X131855930Y-76779070D01*
X131870346Y-76794976D01*
X131883134Y-76812219D01*
X131894170Y-76830632D01*
X131903349Y-76850038D01*
X131910581Y-76870250D01*
X131915797Y-76891074D01*
X131918947Y-76912309D01*
X131920000Y-76933750D01*
X131920000Y-77446250D01*
X131918947Y-77467691D01*
X131915797Y-77488926D01*
X131910581Y-77509750D01*
X131903349Y-77529962D01*
X131894170Y-77549368D01*
X131883134Y-77567781D01*
X131870346Y-77585024D01*
X131855930Y-77600930D01*
X131840024Y-77615346D01*
X131822781Y-77628134D01*
X131804368Y-77639170D01*
X131784962Y-77648349D01*
X131764750Y-77655581D01*
X131743926Y-77660797D01*
X131722691Y-77663947D01*
X131701250Y-77665000D01*
X131263750Y-77665000D01*
X131242309Y-77663947D01*
X131221074Y-77660797D01*
X131200250Y-77655581D01*
X131180038Y-77648349D01*
X131160632Y-77639170D01*
X131142219Y-77628134D01*
X131124976Y-77615346D01*
X131109070Y-77600930D01*
X131094654Y-77585024D01*
X131081866Y-77567781D01*
X131070830Y-77549368D01*
X131061651Y-77529962D01*
X131054419Y-77509750D01*
X131049203Y-77488926D01*
X131046053Y-77467691D01*
X131045000Y-77446250D01*
X131045000Y-76933750D01*
X131046053Y-76912309D01*
X131049203Y-76891074D01*
X131054419Y-76870250D01*
X131061651Y-76850038D01*
X131070830Y-76830632D01*
X131081866Y-76812219D01*
X131094654Y-76794976D01*
X131109070Y-76779070D01*
X131124976Y-76764654D01*
X131142219Y-76751866D01*
X131160632Y-76740830D01*
X131180038Y-76731651D01*
X131200250Y-76724419D01*
X131221074Y-76719203D01*
X131242309Y-76716053D01*
X131263750Y-76715000D01*
X131701250Y-76715000D01*
X131722691Y-76716053D01*
G37*
G36*
X121816891Y-74302733D02*
G01*
X121838126Y-74305883D01*
X121858950Y-74311099D01*
X121879162Y-74318331D01*
X121898568Y-74327510D01*
X121916981Y-74338546D01*
X121934224Y-74351334D01*
X121950130Y-74365750D01*
X121964546Y-74381656D01*
X121977334Y-74398899D01*
X121988370Y-74417312D01*
X121997549Y-74436718D01*
X122004781Y-74456930D01*
X122009997Y-74477754D01*
X122013147Y-74498989D01*
X122014200Y-74520430D01*
X122014200Y-75032930D01*
X122013147Y-75054371D01*
X122009997Y-75075606D01*
X122004781Y-75096430D01*
X121997549Y-75116642D01*
X121988370Y-75136048D01*
X121977334Y-75154461D01*
X121964546Y-75171704D01*
X121950130Y-75187610D01*
X121934224Y-75202026D01*
X121916981Y-75214814D01*
X121898568Y-75225850D01*
X121879162Y-75235029D01*
X121858950Y-75242261D01*
X121838126Y-75247477D01*
X121816891Y-75250627D01*
X121795450Y-75251680D01*
X121357950Y-75251680D01*
X121336509Y-75250627D01*
X121315274Y-75247477D01*
X121294450Y-75242261D01*
X121274238Y-75235029D01*
X121254832Y-75225850D01*
X121236419Y-75214814D01*
X121219176Y-75202026D01*
X121203270Y-75187610D01*
X121188854Y-75171704D01*
X121176066Y-75154461D01*
X121165030Y-75136048D01*
X121155851Y-75116642D01*
X121148619Y-75096430D01*
X121143403Y-75075606D01*
X121140253Y-75054371D01*
X121139200Y-75032930D01*
X121139200Y-74520430D01*
X121140253Y-74498989D01*
X121143403Y-74477754D01*
X121148619Y-74456930D01*
X121155851Y-74436718D01*
X121165030Y-74417312D01*
X121176066Y-74398899D01*
X121188854Y-74381656D01*
X121203270Y-74365750D01*
X121219176Y-74351334D01*
X121236419Y-74338546D01*
X121254832Y-74327510D01*
X121274238Y-74318331D01*
X121294450Y-74311099D01*
X121315274Y-74305883D01*
X121336509Y-74302733D01*
X121357950Y-74301680D01*
X121795450Y-74301680D01*
X121816891Y-74302733D01*
G37*
G36*
X123391891Y-74302733D02*
G01*
X123413126Y-74305883D01*
X123433950Y-74311099D01*
X123454162Y-74318331D01*
X123473568Y-74327510D01*
X123491981Y-74338546D01*
X123509224Y-74351334D01*
X123525130Y-74365750D01*
X123539546Y-74381656D01*
X123552334Y-74398899D01*
X123563370Y-74417312D01*
X123572549Y-74436718D01*
X123579781Y-74456930D01*
X123584997Y-74477754D01*
X123588147Y-74498989D01*
X123589200Y-74520430D01*
X123589200Y-75032930D01*
X123588147Y-75054371D01*
X123584997Y-75075606D01*
X123579781Y-75096430D01*
X123572549Y-75116642D01*
X123563370Y-75136048D01*
X123552334Y-75154461D01*
X123539546Y-75171704D01*
X123525130Y-75187610D01*
X123509224Y-75202026D01*
X123491981Y-75214814D01*
X123473568Y-75225850D01*
X123454162Y-75235029D01*
X123433950Y-75242261D01*
X123413126Y-75247477D01*
X123391891Y-75250627D01*
X123370450Y-75251680D01*
X122932950Y-75251680D01*
X122911509Y-75250627D01*
X122890274Y-75247477D01*
X122869450Y-75242261D01*
X122849238Y-75235029D01*
X122829832Y-75225850D01*
X122811419Y-75214814D01*
X122794176Y-75202026D01*
X122778270Y-75187610D01*
X122763854Y-75171704D01*
X122751066Y-75154461D01*
X122740030Y-75136048D01*
X122730851Y-75116642D01*
X122723619Y-75096430D01*
X122718403Y-75075606D01*
X122715253Y-75054371D01*
X122714200Y-75032930D01*
X122714200Y-74520430D01*
X122715253Y-74498989D01*
X122718403Y-74477754D01*
X122723619Y-74456930D01*
X122730851Y-74436718D01*
X122740030Y-74417312D01*
X122751066Y-74398899D01*
X122763854Y-74381656D01*
X122778270Y-74365750D01*
X122794176Y-74351334D01*
X122811419Y-74338546D01*
X122829832Y-74327510D01*
X122849238Y-74318331D01*
X122869450Y-74311099D01*
X122890274Y-74305883D01*
X122911509Y-74302733D01*
X122932950Y-74301680D01*
X123370450Y-74301680D01*
X123391891Y-74302733D01*
G37*
G36*
X121816891Y-72627733D02*
G01*
X121838126Y-72630883D01*
X121858950Y-72636099D01*
X121879162Y-72643331D01*
X121898568Y-72652510D01*
X121916981Y-72663546D01*
X121934224Y-72676334D01*
X121950130Y-72690750D01*
X121964546Y-72706656D01*
X121977334Y-72723899D01*
X121988370Y-72742312D01*
X121997549Y-72761718D01*
X122004781Y-72781930D01*
X122009997Y-72802754D01*
X122013147Y-72823989D01*
X122014200Y-72845430D01*
X122014200Y-73357930D01*
X122013147Y-73379371D01*
X122009997Y-73400606D01*
X122004781Y-73421430D01*
X121997549Y-73441642D01*
X121988370Y-73461048D01*
X121977334Y-73479461D01*
X121964546Y-73496704D01*
X121950130Y-73512610D01*
X121934224Y-73527026D01*
X121916981Y-73539814D01*
X121898568Y-73550850D01*
X121879162Y-73560029D01*
X121858950Y-73567261D01*
X121838126Y-73572477D01*
X121816891Y-73575627D01*
X121795450Y-73576680D01*
X121357950Y-73576680D01*
X121336509Y-73575627D01*
X121315274Y-73572477D01*
X121294450Y-73567261D01*
X121274238Y-73560029D01*
X121254832Y-73550850D01*
X121236419Y-73539814D01*
X121219176Y-73527026D01*
X121203270Y-73512610D01*
X121188854Y-73496704D01*
X121176066Y-73479461D01*
X121165030Y-73461048D01*
X121155851Y-73441642D01*
X121148619Y-73421430D01*
X121143403Y-73400606D01*
X121140253Y-73379371D01*
X121139200Y-73357930D01*
X121139200Y-72845430D01*
X121140253Y-72823989D01*
X121143403Y-72802754D01*
X121148619Y-72781930D01*
X121155851Y-72761718D01*
X121165030Y-72742312D01*
X121176066Y-72723899D01*
X121188854Y-72706656D01*
X121203270Y-72690750D01*
X121219176Y-72676334D01*
X121236419Y-72663546D01*
X121254832Y-72652510D01*
X121274238Y-72643331D01*
X121294450Y-72636099D01*
X121315274Y-72630883D01*
X121336509Y-72627733D01*
X121357950Y-72626680D01*
X121795450Y-72626680D01*
X121816891Y-72627733D01*
G37*
G36*
X123391891Y-72627733D02*
G01*
X123413126Y-72630883D01*
X123433950Y-72636099D01*
X123454162Y-72643331D01*
X123473568Y-72652510D01*
X123491981Y-72663546D01*
X123509224Y-72676334D01*
X123525130Y-72690750D01*
X123539546Y-72706656D01*
X123552334Y-72723899D01*
X123563370Y-72742312D01*
X123572549Y-72761718D01*
X123579781Y-72781930D01*
X123584997Y-72802754D01*
X123588147Y-72823989D01*
X123589200Y-72845430D01*
X123589200Y-73357930D01*
X123588147Y-73379371D01*
X123584997Y-73400606D01*
X123579781Y-73421430D01*
X123572549Y-73441642D01*
X123563370Y-73461048D01*
X123552334Y-73479461D01*
X123539546Y-73496704D01*
X123525130Y-73512610D01*
X123509224Y-73527026D01*
X123491981Y-73539814D01*
X123473568Y-73550850D01*
X123454162Y-73560029D01*
X123433950Y-73567261D01*
X123413126Y-73572477D01*
X123391891Y-73575627D01*
X123370450Y-73576680D01*
X122932950Y-73576680D01*
X122911509Y-73575627D01*
X122890274Y-73572477D01*
X122869450Y-73567261D01*
X122849238Y-73560029D01*
X122829832Y-73550850D01*
X122811419Y-73539814D01*
X122794176Y-73527026D01*
X122778270Y-73512610D01*
X122763854Y-73496704D01*
X122751066Y-73479461D01*
X122740030Y-73461048D01*
X122730851Y-73441642D01*
X122723619Y-73421430D01*
X122718403Y-73400606D01*
X122715253Y-73379371D01*
X122714200Y-73357930D01*
X122714200Y-72845430D01*
X122715253Y-72823989D01*
X122718403Y-72802754D01*
X122723619Y-72781930D01*
X122730851Y-72761718D01*
X122740030Y-72742312D01*
X122751066Y-72723899D01*
X122763854Y-72706656D01*
X122778270Y-72690750D01*
X122794176Y-72676334D01*
X122811419Y-72663546D01*
X122829832Y-72652510D01*
X122849238Y-72643331D01*
X122869450Y-72636099D01*
X122890274Y-72630883D01*
X122911509Y-72627733D01*
X122932950Y-72626680D01*
X123370450Y-72626680D01*
X123391891Y-72627733D01*
G37*
D14*
X136008000Y-73522000D03*
X134258000Y-73522000D03*
X134258000Y-72122000D03*
X136008000Y-72122000D03*
D13*
G36*
X134585691Y-74888053D02*
G01*
X134606926Y-74891203D01*
X134627750Y-74896419D01*
X134647962Y-74903651D01*
X134667368Y-74912830D01*
X134685781Y-74923866D01*
X134703024Y-74936654D01*
X134718930Y-74951070D01*
X134733346Y-74966976D01*
X134746134Y-74984219D01*
X134757170Y-75002632D01*
X134766349Y-75022038D01*
X134773581Y-75042250D01*
X134778797Y-75063074D01*
X134781947Y-75084309D01*
X134783000Y-75105750D01*
X134783000Y-75618250D01*
X134781947Y-75639691D01*
X134778797Y-75660926D01*
X134773581Y-75681750D01*
X134766349Y-75701962D01*
X134757170Y-75721368D01*
X134746134Y-75739781D01*
X134733346Y-75757024D01*
X134718930Y-75772930D01*
X134703024Y-75787346D01*
X134685781Y-75800134D01*
X134667368Y-75811170D01*
X134647962Y-75820349D01*
X134627750Y-75827581D01*
X134606926Y-75832797D01*
X134585691Y-75835947D01*
X134564250Y-75837000D01*
X134126750Y-75837000D01*
X134105309Y-75835947D01*
X134084074Y-75832797D01*
X134063250Y-75827581D01*
X134043038Y-75820349D01*
X134023632Y-75811170D01*
X134005219Y-75800134D01*
X133987976Y-75787346D01*
X133972070Y-75772930D01*
X133957654Y-75757024D01*
X133944866Y-75739781D01*
X133933830Y-75721368D01*
X133924651Y-75701962D01*
X133917419Y-75681750D01*
X133912203Y-75660926D01*
X133909053Y-75639691D01*
X133908000Y-75618250D01*
X133908000Y-75105750D01*
X133909053Y-75084309D01*
X133912203Y-75063074D01*
X133917419Y-75042250D01*
X133924651Y-75022038D01*
X133933830Y-75002632D01*
X133944866Y-74984219D01*
X133957654Y-74966976D01*
X133972070Y-74951070D01*
X133987976Y-74936654D01*
X134005219Y-74923866D01*
X134023632Y-74912830D01*
X134043038Y-74903651D01*
X134063250Y-74896419D01*
X134084074Y-74891203D01*
X134105309Y-74888053D01*
X134126750Y-74887000D01*
X134564250Y-74887000D01*
X134585691Y-74888053D01*
G37*
G36*
X136160691Y-74888053D02*
G01*
X136181926Y-74891203D01*
X136202750Y-74896419D01*
X136222962Y-74903651D01*
X136242368Y-74912830D01*
X136260781Y-74923866D01*
X136278024Y-74936654D01*
X136293930Y-74951070D01*
X136308346Y-74966976D01*
X136321134Y-74984219D01*
X136332170Y-75002632D01*
X136341349Y-75022038D01*
X136348581Y-75042250D01*
X136353797Y-75063074D01*
X136356947Y-75084309D01*
X136358000Y-75105750D01*
X136358000Y-75618250D01*
X136356947Y-75639691D01*
X136353797Y-75660926D01*
X136348581Y-75681750D01*
X136341349Y-75701962D01*
X136332170Y-75721368D01*
X136321134Y-75739781D01*
X136308346Y-75757024D01*
X136293930Y-75772930D01*
X136278024Y-75787346D01*
X136260781Y-75800134D01*
X136242368Y-75811170D01*
X136222962Y-75820349D01*
X136202750Y-75827581D01*
X136181926Y-75832797D01*
X136160691Y-75835947D01*
X136139250Y-75837000D01*
X135701750Y-75837000D01*
X135680309Y-75835947D01*
X135659074Y-75832797D01*
X135638250Y-75827581D01*
X135618038Y-75820349D01*
X135598632Y-75811170D01*
X135580219Y-75800134D01*
X135562976Y-75787346D01*
X135547070Y-75772930D01*
X135532654Y-75757024D01*
X135519866Y-75739781D01*
X135508830Y-75721368D01*
X135499651Y-75701962D01*
X135492419Y-75681750D01*
X135487203Y-75660926D01*
X135484053Y-75639691D01*
X135483000Y-75618250D01*
X135483000Y-75105750D01*
X135484053Y-75084309D01*
X135487203Y-75063074D01*
X135492419Y-75042250D01*
X135499651Y-75022038D01*
X135508830Y-75002632D01*
X135519866Y-74984219D01*
X135532654Y-74966976D01*
X135547070Y-74951070D01*
X135562976Y-74936654D01*
X135580219Y-74923866D01*
X135598632Y-74912830D01*
X135618038Y-74903651D01*
X135638250Y-74896419D01*
X135659074Y-74891203D01*
X135680309Y-74888053D01*
X135701750Y-74887000D01*
X136139250Y-74887000D01*
X136160691Y-74888053D01*
G37*
G36*
X138204691Y-71598053D02*
G01*
X138225926Y-71601203D01*
X138246750Y-71606419D01*
X138266962Y-71613651D01*
X138286368Y-71622830D01*
X138304781Y-71633866D01*
X138322024Y-71646654D01*
X138337930Y-71661070D01*
X138352346Y-71676976D01*
X138365134Y-71694219D01*
X138376170Y-71712632D01*
X138385349Y-71732038D01*
X138392581Y-71752250D01*
X138397797Y-71773074D01*
X138400947Y-71794309D01*
X138402000Y-71815750D01*
X138402000Y-72253250D01*
X138400947Y-72274691D01*
X138397797Y-72295926D01*
X138392581Y-72316750D01*
X138385349Y-72336962D01*
X138376170Y-72356368D01*
X138365134Y-72374781D01*
X138352346Y-72392024D01*
X138337930Y-72407930D01*
X138322024Y-72422346D01*
X138304781Y-72435134D01*
X138286368Y-72446170D01*
X138266962Y-72455349D01*
X138246750Y-72462581D01*
X138225926Y-72467797D01*
X138204691Y-72470947D01*
X138183250Y-72472000D01*
X137670750Y-72472000D01*
X137649309Y-72470947D01*
X137628074Y-72467797D01*
X137607250Y-72462581D01*
X137587038Y-72455349D01*
X137567632Y-72446170D01*
X137549219Y-72435134D01*
X137531976Y-72422346D01*
X137516070Y-72407930D01*
X137501654Y-72392024D01*
X137488866Y-72374781D01*
X137477830Y-72356368D01*
X137468651Y-72336962D01*
X137461419Y-72316750D01*
X137456203Y-72295926D01*
X137453053Y-72274691D01*
X137452000Y-72253250D01*
X137452000Y-71815750D01*
X137453053Y-71794309D01*
X137456203Y-71773074D01*
X137461419Y-71752250D01*
X137468651Y-71732038D01*
X137477830Y-71712632D01*
X137488866Y-71694219D01*
X137501654Y-71676976D01*
X137516070Y-71661070D01*
X137531976Y-71646654D01*
X137549219Y-71633866D01*
X137567632Y-71622830D01*
X137587038Y-71613651D01*
X137607250Y-71606419D01*
X137628074Y-71601203D01*
X137649309Y-71598053D01*
X137670750Y-71597000D01*
X138183250Y-71597000D01*
X138204691Y-71598053D01*
G37*
G36*
X138204691Y-73173053D02*
G01*
X138225926Y-73176203D01*
X138246750Y-73181419D01*
X138266962Y-73188651D01*
X138286368Y-73197830D01*
X138304781Y-73208866D01*
X138322024Y-73221654D01*
X138337930Y-73236070D01*
X138352346Y-73251976D01*
X138365134Y-73269219D01*
X138376170Y-73287632D01*
X138385349Y-73307038D01*
X138392581Y-73327250D01*
X138397797Y-73348074D01*
X138400947Y-73369309D01*
X138402000Y-73390750D01*
X138402000Y-73828250D01*
X138400947Y-73849691D01*
X138397797Y-73870926D01*
X138392581Y-73891750D01*
X138385349Y-73911962D01*
X138376170Y-73931368D01*
X138365134Y-73949781D01*
X138352346Y-73967024D01*
X138337930Y-73982930D01*
X138322024Y-73997346D01*
X138304781Y-74010134D01*
X138286368Y-74021170D01*
X138266962Y-74030349D01*
X138246750Y-74037581D01*
X138225926Y-74042797D01*
X138204691Y-74045947D01*
X138183250Y-74047000D01*
X137670750Y-74047000D01*
X137649309Y-74045947D01*
X137628074Y-74042797D01*
X137607250Y-74037581D01*
X137587038Y-74030349D01*
X137567632Y-74021170D01*
X137549219Y-74010134D01*
X137531976Y-73997346D01*
X137516070Y-73982930D01*
X137501654Y-73967024D01*
X137488866Y-73949781D01*
X137477830Y-73931368D01*
X137468651Y-73911962D01*
X137461419Y-73891750D01*
X137456203Y-73870926D01*
X137453053Y-73849691D01*
X137452000Y-73828250D01*
X137452000Y-73390750D01*
X137453053Y-73369309D01*
X137456203Y-73348074D01*
X137461419Y-73327250D01*
X137468651Y-73307038D01*
X137477830Y-73287632D01*
X137488866Y-73269219D01*
X137501654Y-73251976D01*
X137516070Y-73236070D01*
X137531976Y-73221654D01*
X137549219Y-73208866D01*
X137567632Y-73197830D01*
X137587038Y-73188651D01*
X137607250Y-73181419D01*
X137628074Y-73176203D01*
X137649309Y-73173053D01*
X137670750Y-73172000D01*
X138183250Y-73172000D01*
X138204691Y-73173053D01*
G37*
G36*
X125789691Y-80291053D02*
G01*
X125810926Y-80294203D01*
X125831750Y-80299419D01*
X125851962Y-80306651D01*
X125871368Y-80315830D01*
X125889781Y-80326866D01*
X125907024Y-80339654D01*
X125922930Y-80354070D01*
X125937346Y-80369976D01*
X125950134Y-80387219D01*
X125961170Y-80405632D01*
X125970349Y-80425038D01*
X125977581Y-80445250D01*
X125982797Y-80466074D01*
X125985947Y-80487309D01*
X125987000Y-80508750D01*
X125987000Y-81021250D01*
X125985947Y-81042691D01*
X125982797Y-81063926D01*
X125977581Y-81084750D01*
X125970349Y-81104962D01*
X125961170Y-81124368D01*
X125950134Y-81142781D01*
X125937346Y-81160024D01*
X125922930Y-81175930D01*
X125907024Y-81190346D01*
X125889781Y-81203134D01*
X125871368Y-81214170D01*
X125851962Y-81223349D01*
X125831750Y-81230581D01*
X125810926Y-81235797D01*
X125789691Y-81238947D01*
X125768250Y-81240000D01*
X125330750Y-81240000D01*
X125309309Y-81238947D01*
X125288074Y-81235797D01*
X125267250Y-81230581D01*
X125247038Y-81223349D01*
X125227632Y-81214170D01*
X125209219Y-81203134D01*
X125191976Y-81190346D01*
X125176070Y-81175930D01*
X125161654Y-81160024D01*
X125148866Y-81142781D01*
X125137830Y-81124368D01*
X125128651Y-81104962D01*
X125121419Y-81084750D01*
X125116203Y-81063926D01*
X125113053Y-81042691D01*
X125112000Y-81021250D01*
X125112000Y-80508750D01*
X125113053Y-80487309D01*
X125116203Y-80466074D01*
X125121419Y-80445250D01*
X125128651Y-80425038D01*
X125137830Y-80405632D01*
X125148866Y-80387219D01*
X125161654Y-80369976D01*
X125176070Y-80354070D01*
X125191976Y-80339654D01*
X125209219Y-80326866D01*
X125227632Y-80315830D01*
X125247038Y-80306651D01*
X125267250Y-80299419D01*
X125288074Y-80294203D01*
X125309309Y-80291053D01*
X125330750Y-80290000D01*
X125768250Y-80290000D01*
X125789691Y-80291053D01*
G37*
G36*
X124214691Y-80291053D02*
G01*
X124235926Y-80294203D01*
X124256750Y-80299419D01*
X124276962Y-80306651D01*
X124296368Y-80315830D01*
X124314781Y-80326866D01*
X124332024Y-80339654D01*
X124347930Y-80354070D01*
X124362346Y-80369976D01*
X124375134Y-80387219D01*
X124386170Y-80405632D01*
X124395349Y-80425038D01*
X124402581Y-80445250D01*
X124407797Y-80466074D01*
X124410947Y-80487309D01*
X124412000Y-80508750D01*
X124412000Y-81021250D01*
X124410947Y-81042691D01*
X124407797Y-81063926D01*
X124402581Y-81084750D01*
X124395349Y-81104962D01*
X124386170Y-81124368D01*
X124375134Y-81142781D01*
X124362346Y-81160024D01*
X124347930Y-81175930D01*
X124332024Y-81190346D01*
X124314781Y-81203134D01*
X124296368Y-81214170D01*
X124276962Y-81223349D01*
X124256750Y-81230581D01*
X124235926Y-81235797D01*
X124214691Y-81238947D01*
X124193250Y-81240000D01*
X123755750Y-81240000D01*
X123734309Y-81238947D01*
X123713074Y-81235797D01*
X123692250Y-81230581D01*
X123672038Y-81223349D01*
X123652632Y-81214170D01*
X123634219Y-81203134D01*
X123616976Y-81190346D01*
X123601070Y-81175930D01*
X123586654Y-81160024D01*
X123573866Y-81142781D01*
X123562830Y-81124368D01*
X123553651Y-81104962D01*
X123546419Y-81084750D01*
X123541203Y-81063926D01*
X123538053Y-81042691D01*
X123537000Y-81021250D01*
X123537000Y-80508750D01*
X123538053Y-80487309D01*
X123541203Y-80466074D01*
X123546419Y-80445250D01*
X123553651Y-80425038D01*
X123562830Y-80405632D01*
X123573866Y-80387219D01*
X123586654Y-80369976D01*
X123601070Y-80354070D01*
X123616976Y-80339654D01*
X123634219Y-80326866D01*
X123652632Y-80315830D01*
X123672038Y-80306651D01*
X123692250Y-80299419D01*
X123713074Y-80294203D01*
X123734309Y-80291053D01*
X123755750Y-80290000D01*
X124193250Y-80290000D01*
X124214691Y-80291053D01*
G37*
G36*
X117104931Y-68307533D02*
G01*
X117126166Y-68310683D01*
X117146990Y-68315899D01*
X117167202Y-68323131D01*
X117186608Y-68332310D01*
X117205021Y-68343346D01*
X117222264Y-68356134D01*
X117238170Y-68370550D01*
X117252586Y-68386456D01*
X117265374Y-68403699D01*
X117276410Y-68422112D01*
X117285589Y-68441518D01*
X117292821Y-68461730D01*
X117298037Y-68482554D01*
X117301187Y-68503789D01*
X117302240Y-68525230D01*
X117302240Y-69037730D01*
X117301187Y-69059171D01*
X117298037Y-69080406D01*
X117292821Y-69101230D01*
X117285589Y-69121442D01*
X117276410Y-69140848D01*
X117265374Y-69159261D01*
X117252586Y-69176504D01*
X117238170Y-69192410D01*
X117222264Y-69206826D01*
X117205021Y-69219614D01*
X117186608Y-69230650D01*
X117167202Y-69239829D01*
X117146990Y-69247061D01*
X117126166Y-69252277D01*
X117104931Y-69255427D01*
X117083490Y-69256480D01*
X116645990Y-69256480D01*
X116624549Y-69255427D01*
X116603314Y-69252277D01*
X116582490Y-69247061D01*
X116562278Y-69239829D01*
X116542872Y-69230650D01*
X116524459Y-69219614D01*
X116507216Y-69206826D01*
X116491310Y-69192410D01*
X116476894Y-69176504D01*
X116464106Y-69159261D01*
X116453070Y-69140848D01*
X116443891Y-69121442D01*
X116436659Y-69101230D01*
X116431443Y-69080406D01*
X116428293Y-69059171D01*
X116427240Y-69037730D01*
X116427240Y-68525230D01*
X116428293Y-68503789D01*
X116431443Y-68482554D01*
X116436659Y-68461730D01*
X116443891Y-68441518D01*
X116453070Y-68422112D01*
X116464106Y-68403699D01*
X116476894Y-68386456D01*
X116491310Y-68370550D01*
X116507216Y-68356134D01*
X116524459Y-68343346D01*
X116542872Y-68332310D01*
X116562278Y-68323131D01*
X116582490Y-68315899D01*
X116603314Y-68310683D01*
X116624549Y-68307533D01*
X116645990Y-68306480D01*
X117083490Y-68306480D01*
X117104931Y-68307533D01*
G37*
G36*
X115529931Y-68307533D02*
G01*
X115551166Y-68310683D01*
X115571990Y-68315899D01*
X115592202Y-68323131D01*
X115611608Y-68332310D01*
X115630021Y-68343346D01*
X115647264Y-68356134D01*
X115663170Y-68370550D01*
X115677586Y-68386456D01*
X115690374Y-68403699D01*
X115701410Y-68422112D01*
X115710589Y-68441518D01*
X115717821Y-68461730D01*
X115723037Y-68482554D01*
X115726187Y-68503789D01*
X115727240Y-68525230D01*
X115727240Y-69037730D01*
X115726187Y-69059171D01*
X115723037Y-69080406D01*
X115717821Y-69101230D01*
X115710589Y-69121442D01*
X115701410Y-69140848D01*
X115690374Y-69159261D01*
X115677586Y-69176504D01*
X115663170Y-69192410D01*
X115647264Y-69206826D01*
X115630021Y-69219614D01*
X115611608Y-69230650D01*
X115592202Y-69239829D01*
X115571990Y-69247061D01*
X115551166Y-69252277D01*
X115529931Y-69255427D01*
X115508490Y-69256480D01*
X115070990Y-69256480D01*
X115049549Y-69255427D01*
X115028314Y-69252277D01*
X115007490Y-69247061D01*
X114987278Y-69239829D01*
X114967872Y-69230650D01*
X114949459Y-69219614D01*
X114932216Y-69206826D01*
X114916310Y-69192410D01*
X114901894Y-69176504D01*
X114889106Y-69159261D01*
X114878070Y-69140848D01*
X114868891Y-69121442D01*
X114861659Y-69101230D01*
X114856443Y-69080406D01*
X114853293Y-69059171D01*
X114852240Y-69037730D01*
X114852240Y-68525230D01*
X114853293Y-68503789D01*
X114856443Y-68482554D01*
X114861659Y-68461730D01*
X114868891Y-68441518D01*
X114878070Y-68422112D01*
X114889106Y-68403699D01*
X114901894Y-68386456D01*
X114916310Y-68370550D01*
X114932216Y-68356134D01*
X114949459Y-68343346D01*
X114967872Y-68332310D01*
X114987278Y-68323131D01*
X115007490Y-68315899D01*
X115028314Y-68310683D01*
X115049549Y-68307533D01*
X115070990Y-68306480D01*
X115508490Y-68306480D01*
X115529931Y-68307533D01*
G37*
G36*
X123389691Y-62596053D02*
G01*
X123410926Y-62599203D01*
X123431750Y-62604419D01*
X123451962Y-62611651D01*
X123471368Y-62620830D01*
X123489781Y-62631866D01*
X123507024Y-62644654D01*
X123522930Y-62659070D01*
X123537346Y-62674976D01*
X123550134Y-62692219D01*
X123561170Y-62710632D01*
X123570349Y-62730038D01*
X123577581Y-62750250D01*
X123582797Y-62771074D01*
X123585947Y-62792309D01*
X123587000Y-62813750D01*
X123587000Y-63326250D01*
X123585947Y-63347691D01*
X123582797Y-63368926D01*
X123577581Y-63389750D01*
X123570349Y-63409962D01*
X123561170Y-63429368D01*
X123550134Y-63447781D01*
X123537346Y-63465024D01*
X123522930Y-63480930D01*
X123507024Y-63495346D01*
X123489781Y-63508134D01*
X123471368Y-63519170D01*
X123451962Y-63528349D01*
X123431750Y-63535581D01*
X123410926Y-63540797D01*
X123389691Y-63543947D01*
X123368250Y-63545000D01*
X122930750Y-63545000D01*
X122909309Y-63543947D01*
X122888074Y-63540797D01*
X122867250Y-63535581D01*
X122847038Y-63528349D01*
X122827632Y-63519170D01*
X122809219Y-63508134D01*
X122791976Y-63495346D01*
X122776070Y-63480930D01*
X122761654Y-63465024D01*
X122748866Y-63447781D01*
X122737830Y-63429368D01*
X122728651Y-63409962D01*
X122721419Y-63389750D01*
X122716203Y-63368926D01*
X122713053Y-63347691D01*
X122712000Y-63326250D01*
X122712000Y-62813750D01*
X122713053Y-62792309D01*
X122716203Y-62771074D01*
X122721419Y-62750250D01*
X122728651Y-62730038D01*
X122737830Y-62710632D01*
X122748866Y-62692219D01*
X122761654Y-62674976D01*
X122776070Y-62659070D01*
X122791976Y-62644654D01*
X122809219Y-62631866D01*
X122827632Y-62620830D01*
X122847038Y-62611651D01*
X122867250Y-62604419D01*
X122888074Y-62599203D01*
X122909309Y-62596053D01*
X122930750Y-62595000D01*
X123368250Y-62595000D01*
X123389691Y-62596053D01*
G37*
G36*
X121814691Y-62596053D02*
G01*
X121835926Y-62599203D01*
X121856750Y-62604419D01*
X121876962Y-62611651D01*
X121896368Y-62620830D01*
X121914781Y-62631866D01*
X121932024Y-62644654D01*
X121947930Y-62659070D01*
X121962346Y-62674976D01*
X121975134Y-62692219D01*
X121986170Y-62710632D01*
X121995349Y-62730038D01*
X122002581Y-62750250D01*
X122007797Y-62771074D01*
X122010947Y-62792309D01*
X122012000Y-62813750D01*
X122012000Y-63326250D01*
X122010947Y-63347691D01*
X122007797Y-63368926D01*
X122002581Y-63389750D01*
X121995349Y-63409962D01*
X121986170Y-63429368D01*
X121975134Y-63447781D01*
X121962346Y-63465024D01*
X121947930Y-63480930D01*
X121932024Y-63495346D01*
X121914781Y-63508134D01*
X121896368Y-63519170D01*
X121876962Y-63528349D01*
X121856750Y-63535581D01*
X121835926Y-63540797D01*
X121814691Y-63543947D01*
X121793250Y-63545000D01*
X121355750Y-63545000D01*
X121334309Y-63543947D01*
X121313074Y-63540797D01*
X121292250Y-63535581D01*
X121272038Y-63528349D01*
X121252632Y-63519170D01*
X121234219Y-63508134D01*
X121216976Y-63495346D01*
X121201070Y-63480930D01*
X121186654Y-63465024D01*
X121173866Y-63447781D01*
X121162830Y-63429368D01*
X121153651Y-63409962D01*
X121146419Y-63389750D01*
X121141203Y-63368926D01*
X121138053Y-63347691D01*
X121137000Y-63326250D01*
X121137000Y-62813750D01*
X121138053Y-62792309D01*
X121141203Y-62771074D01*
X121146419Y-62750250D01*
X121153651Y-62730038D01*
X121162830Y-62710632D01*
X121173866Y-62692219D01*
X121186654Y-62674976D01*
X121201070Y-62659070D01*
X121216976Y-62644654D01*
X121234219Y-62631866D01*
X121252632Y-62620830D01*
X121272038Y-62611651D01*
X121292250Y-62604419D01*
X121313074Y-62599203D01*
X121334309Y-62596053D01*
X121355750Y-62595000D01*
X121793250Y-62595000D01*
X121814691Y-62596053D01*
G37*
G36*
X123389691Y-56631053D02*
G01*
X123410926Y-56634203D01*
X123431750Y-56639419D01*
X123451962Y-56646651D01*
X123471368Y-56655830D01*
X123489781Y-56666866D01*
X123507024Y-56679654D01*
X123522930Y-56694070D01*
X123537346Y-56709976D01*
X123550134Y-56727219D01*
X123561170Y-56745632D01*
X123570349Y-56765038D01*
X123577581Y-56785250D01*
X123582797Y-56806074D01*
X123585947Y-56827309D01*
X123587000Y-56848750D01*
X123587000Y-57361250D01*
X123585947Y-57382691D01*
X123582797Y-57403926D01*
X123577581Y-57424750D01*
X123570349Y-57444962D01*
X123561170Y-57464368D01*
X123550134Y-57482781D01*
X123537346Y-57500024D01*
X123522930Y-57515930D01*
X123507024Y-57530346D01*
X123489781Y-57543134D01*
X123471368Y-57554170D01*
X123451962Y-57563349D01*
X123431750Y-57570581D01*
X123410926Y-57575797D01*
X123389691Y-57578947D01*
X123368250Y-57580000D01*
X122930750Y-57580000D01*
X122909309Y-57578947D01*
X122888074Y-57575797D01*
X122867250Y-57570581D01*
X122847038Y-57563349D01*
X122827632Y-57554170D01*
X122809219Y-57543134D01*
X122791976Y-57530346D01*
X122776070Y-57515930D01*
X122761654Y-57500024D01*
X122748866Y-57482781D01*
X122737830Y-57464368D01*
X122728651Y-57444962D01*
X122721419Y-57424750D01*
X122716203Y-57403926D01*
X122713053Y-57382691D01*
X122712000Y-57361250D01*
X122712000Y-56848750D01*
X122713053Y-56827309D01*
X122716203Y-56806074D01*
X122721419Y-56785250D01*
X122728651Y-56765038D01*
X122737830Y-56745632D01*
X122748866Y-56727219D01*
X122761654Y-56709976D01*
X122776070Y-56694070D01*
X122791976Y-56679654D01*
X122809219Y-56666866D01*
X122827632Y-56655830D01*
X122847038Y-56646651D01*
X122867250Y-56639419D01*
X122888074Y-56634203D01*
X122909309Y-56631053D01*
X122930750Y-56630000D01*
X123368250Y-56630000D01*
X123389691Y-56631053D01*
G37*
G36*
X121814691Y-56631053D02*
G01*
X121835926Y-56634203D01*
X121856750Y-56639419D01*
X121876962Y-56646651D01*
X121896368Y-56655830D01*
X121914781Y-56666866D01*
X121932024Y-56679654D01*
X121947930Y-56694070D01*
X121962346Y-56709976D01*
X121975134Y-56727219D01*
X121986170Y-56745632D01*
X121995349Y-56765038D01*
X122002581Y-56785250D01*
X122007797Y-56806074D01*
X122010947Y-56827309D01*
X122012000Y-56848750D01*
X122012000Y-57361250D01*
X122010947Y-57382691D01*
X122007797Y-57403926D01*
X122002581Y-57424750D01*
X121995349Y-57444962D01*
X121986170Y-57464368D01*
X121975134Y-57482781D01*
X121962346Y-57500024D01*
X121947930Y-57515930D01*
X121932024Y-57530346D01*
X121914781Y-57543134D01*
X121896368Y-57554170D01*
X121876962Y-57563349D01*
X121856750Y-57570581D01*
X121835926Y-57575797D01*
X121814691Y-57578947D01*
X121793250Y-57580000D01*
X121355750Y-57580000D01*
X121334309Y-57578947D01*
X121313074Y-57575797D01*
X121292250Y-57570581D01*
X121272038Y-57563349D01*
X121252632Y-57554170D01*
X121234219Y-57543134D01*
X121216976Y-57530346D01*
X121201070Y-57515930D01*
X121186654Y-57500024D01*
X121173866Y-57482781D01*
X121162830Y-57464368D01*
X121153651Y-57444962D01*
X121146419Y-57424750D01*
X121141203Y-57403926D01*
X121138053Y-57382691D01*
X121137000Y-57361250D01*
X121137000Y-56848750D01*
X121138053Y-56827309D01*
X121141203Y-56806074D01*
X121146419Y-56785250D01*
X121153651Y-56765038D01*
X121162830Y-56745632D01*
X121173866Y-56727219D01*
X121186654Y-56709976D01*
X121201070Y-56694070D01*
X121216976Y-56679654D01*
X121234219Y-56666866D01*
X121252632Y-56655830D01*
X121272038Y-56646651D01*
X121292250Y-56639419D01*
X121313074Y-56634203D01*
X121334309Y-56631053D01*
X121355750Y-56630000D01*
X121793250Y-56630000D01*
X121814691Y-56631053D01*
G37*
G36*
X124214691Y-78516053D02*
G01*
X124235926Y-78519203D01*
X124256750Y-78524419D01*
X124276962Y-78531651D01*
X124296368Y-78540830D01*
X124314781Y-78551866D01*
X124332024Y-78564654D01*
X124347930Y-78579070D01*
X124362346Y-78594976D01*
X124375134Y-78612219D01*
X124386170Y-78630632D01*
X124395349Y-78650038D01*
X124402581Y-78670250D01*
X124407797Y-78691074D01*
X124410947Y-78712309D01*
X124412000Y-78733750D01*
X124412000Y-79246250D01*
X124410947Y-79267691D01*
X124407797Y-79288926D01*
X124402581Y-79309750D01*
X124395349Y-79329962D01*
X124386170Y-79349368D01*
X124375134Y-79367781D01*
X124362346Y-79385024D01*
X124347930Y-79400930D01*
X124332024Y-79415346D01*
X124314781Y-79428134D01*
X124296368Y-79439170D01*
X124276962Y-79448349D01*
X124256750Y-79455581D01*
X124235926Y-79460797D01*
X124214691Y-79463947D01*
X124193250Y-79465000D01*
X123755750Y-79465000D01*
X123734309Y-79463947D01*
X123713074Y-79460797D01*
X123692250Y-79455581D01*
X123672038Y-79448349D01*
X123652632Y-79439170D01*
X123634219Y-79428134D01*
X123616976Y-79415346D01*
X123601070Y-79400930D01*
X123586654Y-79385024D01*
X123573866Y-79367781D01*
X123562830Y-79349368D01*
X123553651Y-79329962D01*
X123546419Y-79309750D01*
X123541203Y-79288926D01*
X123538053Y-79267691D01*
X123537000Y-79246250D01*
X123537000Y-78733750D01*
X123538053Y-78712309D01*
X123541203Y-78691074D01*
X123546419Y-78670250D01*
X123553651Y-78650038D01*
X123562830Y-78630632D01*
X123573866Y-78612219D01*
X123586654Y-78594976D01*
X123601070Y-78579070D01*
X123616976Y-78564654D01*
X123634219Y-78551866D01*
X123652632Y-78540830D01*
X123672038Y-78531651D01*
X123692250Y-78524419D01*
X123713074Y-78519203D01*
X123734309Y-78516053D01*
X123755750Y-78515000D01*
X124193250Y-78515000D01*
X124214691Y-78516053D01*
G37*
G36*
X125789691Y-78516053D02*
G01*
X125810926Y-78519203D01*
X125831750Y-78524419D01*
X125851962Y-78531651D01*
X125871368Y-78540830D01*
X125889781Y-78551866D01*
X125907024Y-78564654D01*
X125922930Y-78579070D01*
X125937346Y-78594976D01*
X125950134Y-78612219D01*
X125961170Y-78630632D01*
X125970349Y-78650038D01*
X125977581Y-78670250D01*
X125982797Y-78691074D01*
X125985947Y-78712309D01*
X125987000Y-78733750D01*
X125987000Y-79246250D01*
X125985947Y-79267691D01*
X125982797Y-79288926D01*
X125977581Y-79309750D01*
X125970349Y-79329962D01*
X125961170Y-79349368D01*
X125950134Y-79367781D01*
X125937346Y-79385024D01*
X125922930Y-79400930D01*
X125907024Y-79415346D01*
X125889781Y-79428134D01*
X125871368Y-79439170D01*
X125851962Y-79448349D01*
X125831750Y-79455581D01*
X125810926Y-79460797D01*
X125789691Y-79463947D01*
X125768250Y-79465000D01*
X125330750Y-79465000D01*
X125309309Y-79463947D01*
X125288074Y-79460797D01*
X125267250Y-79455581D01*
X125247038Y-79448349D01*
X125227632Y-79439170D01*
X125209219Y-79428134D01*
X125191976Y-79415346D01*
X125176070Y-79400930D01*
X125161654Y-79385024D01*
X125148866Y-79367781D01*
X125137830Y-79349368D01*
X125128651Y-79329962D01*
X125121419Y-79309750D01*
X125116203Y-79288926D01*
X125113053Y-79267691D01*
X125112000Y-79246250D01*
X125112000Y-78733750D01*
X125113053Y-78712309D01*
X125116203Y-78691074D01*
X125121419Y-78670250D01*
X125128651Y-78650038D01*
X125137830Y-78630632D01*
X125148866Y-78612219D01*
X125161654Y-78594976D01*
X125176070Y-78579070D01*
X125191976Y-78564654D01*
X125209219Y-78551866D01*
X125227632Y-78540830D01*
X125247038Y-78531651D01*
X125267250Y-78524419D01*
X125288074Y-78519203D01*
X125309309Y-78516053D01*
X125330750Y-78515000D01*
X125768250Y-78515000D01*
X125789691Y-78516053D01*
G37*
G36*
X115529931Y-66532533D02*
G01*
X115551166Y-66535683D01*
X115571990Y-66540899D01*
X115592202Y-66548131D01*
X115611608Y-66557310D01*
X115630021Y-66568346D01*
X115647264Y-66581134D01*
X115663170Y-66595550D01*
X115677586Y-66611456D01*
X115690374Y-66628699D01*
X115701410Y-66647112D01*
X115710589Y-66666518D01*
X115717821Y-66686730D01*
X115723037Y-66707554D01*
X115726187Y-66728789D01*
X115727240Y-66750230D01*
X115727240Y-67262730D01*
X115726187Y-67284171D01*
X115723037Y-67305406D01*
X115717821Y-67326230D01*
X115710589Y-67346442D01*
X115701410Y-67365848D01*
X115690374Y-67384261D01*
X115677586Y-67401504D01*
X115663170Y-67417410D01*
X115647264Y-67431826D01*
X115630021Y-67444614D01*
X115611608Y-67455650D01*
X115592202Y-67464829D01*
X115571990Y-67472061D01*
X115551166Y-67477277D01*
X115529931Y-67480427D01*
X115508490Y-67481480D01*
X115070990Y-67481480D01*
X115049549Y-67480427D01*
X115028314Y-67477277D01*
X115007490Y-67472061D01*
X114987278Y-67464829D01*
X114967872Y-67455650D01*
X114949459Y-67444614D01*
X114932216Y-67431826D01*
X114916310Y-67417410D01*
X114901894Y-67401504D01*
X114889106Y-67384261D01*
X114878070Y-67365848D01*
X114868891Y-67346442D01*
X114861659Y-67326230D01*
X114856443Y-67305406D01*
X114853293Y-67284171D01*
X114852240Y-67262730D01*
X114852240Y-66750230D01*
X114853293Y-66728789D01*
X114856443Y-66707554D01*
X114861659Y-66686730D01*
X114868891Y-66666518D01*
X114878070Y-66647112D01*
X114889106Y-66628699D01*
X114901894Y-66611456D01*
X114916310Y-66595550D01*
X114932216Y-66581134D01*
X114949459Y-66568346D01*
X114967872Y-66557310D01*
X114987278Y-66548131D01*
X115007490Y-66540899D01*
X115028314Y-66535683D01*
X115049549Y-66532533D01*
X115070990Y-66531480D01*
X115508490Y-66531480D01*
X115529931Y-66532533D01*
G37*
G36*
X117104931Y-66532533D02*
G01*
X117126166Y-66535683D01*
X117146990Y-66540899D01*
X117167202Y-66548131D01*
X117186608Y-66557310D01*
X117205021Y-66568346D01*
X117222264Y-66581134D01*
X117238170Y-66595550D01*
X117252586Y-66611456D01*
X117265374Y-66628699D01*
X117276410Y-66647112D01*
X117285589Y-66666518D01*
X117292821Y-66686730D01*
X117298037Y-66707554D01*
X117301187Y-66728789D01*
X117302240Y-66750230D01*
X117302240Y-67262730D01*
X117301187Y-67284171D01*
X117298037Y-67305406D01*
X117292821Y-67326230D01*
X117285589Y-67346442D01*
X117276410Y-67365848D01*
X117265374Y-67384261D01*
X117252586Y-67401504D01*
X117238170Y-67417410D01*
X117222264Y-67431826D01*
X117205021Y-67444614D01*
X117186608Y-67455650D01*
X117167202Y-67464829D01*
X117146990Y-67472061D01*
X117126166Y-67477277D01*
X117104931Y-67480427D01*
X117083490Y-67481480D01*
X116645990Y-67481480D01*
X116624549Y-67480427D01*
X116603314Y-67477277D01*
X116582490Y-67472061D01*
X116562278Y-67464829D01*
X116542872Y-67455650D01*
X116524459Y-67444614D01*
X116507216Y-67431826D01*
X116491310Y-67417410D01*
X116476894Y-67401504D01*
X116464106Y-67384261D01*
X116453070Y-67365848D01*
X116443891Y-67346442D01*
X116436659Y-67326230D01*
X116431443Y-67305406D01*
X116428293Y-67284171D01*
X116427240Y-67262730D01*
X116427240Y-66750230D01*
X116428293Y-66728789D01*
X116431443Y-66707554D01*
X116436659Y-66686730D01*
X116443891Y-66666518D01*
X116453070Y-66647112D01*
X116464106Y-66628699D01*
X116476894Y-66611456D01*
X116491310Y-66595550D01*
X116507216Y-66581134D01*
X116524459Y-66568346D01*
X116542872Y-66557310D01*
X116562278Y-66548131D01*
X116582490Y-66540899D01*
X116603314Y-66535683D01*
X116624549Y-66532533D01*
X116645990Y-66531480D01*
X117083490Y-66531480D01*
X117104931Y-66532533D01*
G37*
G36*
X121814691Y-60821053D02*
G01*
X121835926Y-60824203D01*
X121856750Y-60829419D01*
X121876962Y-60836651D01*
X121896368Y-60845830D01*
X121914781Y-60856866D01*
X121932024Y-60869654D01*
X121947930Y-60884070D01*
X121962346Y-60899976D01*
X121975134Y-60917219D01*
X121986170Y-60935632D01*
X121995349Y-60955038D01*
X122002581Y-60975250D01*
X122007797Y-60996074D01*
X122010947Y-61017309D01*
X122012000Y-61038750D01*
X122012000Y-61551250D01*
X122010947Y-61572691D01*
X122007797Y-61593926D01*
X122002581Y-61614750D01*
X121995349Y-61634962D01*
X121986170Y-61654368D01*
X121975134Y-61672781D01*
X121962346Y-61690024D01*
X121947930Y-61705930D01*
X121932024Y-61720346D01*
X121914781Y-61733134D01*
X121896368Y-61744170D01*
X121876962Y-61753349D01*
X121856750Y-61760581D01*
X121835926Y-61765797D01*
X121814691Y-61768947D01*
X121793250Y-61770000D01*
X121355750Y-61770000D01*
X121334309Y-61768947D01*
X121313074Y-61765797D01*
X121292250Y-61760581D01*
X121272038Y-61753349D01*
X121252632Y-61744170D01*
X121234219Y-61733134D01*
X121216976Y-61720346D01*
X121201070Y-61705930D01*
X121186654Y-61690024D01*
X121173866Y-61672781D01*
X121162830Y-61654368D01*
X121153651Y-61634962D01*
X121146419Y-61614750D01*
X121141203Y-61593926D01*
X121138053Y-61572691D01*
X121137000Y-61551250D01*
X121137000Y-61038750D01*
X121138053Y-61017309D01*
X121141203Y-60996074D01*
X121146419Y-60975250D01*
X121153651Y-60955038D01*
X121162830Y-60935632D01*
X121173866Y-60917219D01*
X121186654Y-60899976D01*
X121201070Y-60884070D01*
X121216976Y-60869654D01*
X121234219Y-60856866D01*
X121252632Y-60845830D01*
X121272038Y-60836651D01*
X121292250Y-60829419D01*
X121313074Y-60824203D01*
X121334309Y-60821053D01*
X121355750Y-60820000D01*
X121793250Y-60820000D01*
X121814691Y-60821053D01*
G37*
G36*
X123389691Y-60821053D02*
G01*
X123410926Y-60824203D01*
X123431750Y-60829419D01*
X123451962Y-60836651D01*
X123471368Y-60845830D01*
X123489781Y-60856866D01*
X123507024Y-60869654D01*
X123522930Y-60884070D01*
X123537346Y-60899976D01*
X123550134Y-60917219D01*
X123561170Y-60935632D01*
X123570349Y-60955038D01*
X123577581Y-60975250D01*
X123582797Y-60996074D01*
X123585947Y-61017309D01*
X123587000Y-61038750D01*
X123587000Y-61551250D01*
X123585947Y-61572691D01*
X123582797Y-61593926D01*
X123577581Y-61614750D01*
X123570349Y-61634962D01*
X123561170Y-61654368D01*
X123550134Y-61672781D01*
X123537346Y-61690024D01*
X123522930Y-61705930D01*
X123507024Y-61720346D01*
X123489781Y-61733134D01*
X123471368Y-61744170D01*
X123451962Y-61753349D01*
X123431750Y-61760581D01*
X123410926Y-61765797D01*
X123389691Y-61768947D01*
X123368250Y-61770000D01*
X122930750Y-61770000D01*
X122909309Y-61768947D01*
X122888074Y-61765797D01*
X122867250Y-61760581D01*
X122847038Y-61753349D01*
X122827632Y-61744170D01*
X122809219Y-61733134D01*
X122791976Y-61720346D01*
X122776070Y-61705930D01*
X122761654Y-61690024D01*
X122748866Y-61672781D01*
X122737830Y-61654368D01*
X122728651Y-61634962D01*
X122721419Y-61614750D01*
X122716203Y-61593926D01*
X122713053Y-61572691D01*
X122712000Y-61551250D01*
X122712000Y-61038750D01*
X122713053Y-61017309D01*
X122716203Y-60996074D01*
X122721419Y-60975250D01*
X122728651Y-60955038D01*
X122737830Y-60935632D01*
X122748866Y-60917219D01*
X122761654Y-60899976D01*
X122776070Y-60884070D01*
X122791976Y-60869654D01*
X122809219Y-60856866D01*
X122827632Y-60845830D01*
X122847038Y-60836651D01*
X122867250Y-60829419D01*
X122888074Y-60824203D01*
X122909309Y-60821053D01*
X122930750Y-60820000D01*
X123368250Y-60820000D01*
X123389691Y-60821053D01*
G37*
G36*
X121814691Y-54856053D02*
G01*
X121835926Y-54859203D01*
X121856750Y-54864419D01*
X121876962Y-54871651D01*
X121896368Y-54880830D01*
X121914781Y-54891866D01*
X121932024Y-54904654D01*
X121947930Y-54919070D01*
X121962346Y-54934976D01*
X121975134Y-54952219D01*
X121986170Y-54970632D01*
X121995349Y-54990038D01*
X122002581Y-55010250D01*
X122007797Y-55031074D01*
X122010947Y-55052309D01*
X122012000Y-55073750D01*
X122012000Y-55586250D01*
X122010947Y-55607691D01*
X122007797Y-55628926D01*
X122002581Y-55649750D01*
X121995349Y-55669962D01*
X121986170Y-55689368D01*
X121975134Y-55707781D01*
X121962346Y-55725024D01*
X121947930Y-55740930D01*
X121932024Y-55755346D01*
X121914781Y-55768134D01*
X121896368Y-55779170D01*
X121876962Y-55788349D01*
X121856750Y-55795581D01*
X121835926Y-55800797D01*
X121814691Y-55803947D01*
X121793250Y-55805000D01*
X121355750Y-55805000D01*
X121334309Y-55803947D01*
X121313074Y-55800797D01*
X121292250Y-55795581D01*
X121272038Y-55788349D01*
X121252632Y-55779170D01*
X121234219Y-55768134D01*
X121216976Y-55755346D01*
X121201070Y-55740930D01*
X121186654Y-55725024D01*
X121173866Y-55707781D01*
X121162830Y-55689368D01*
X121153651Y-55669962D01*
X121146419Y-55649750D01*
X121141203Y-55628926D01*
X121138053Y-55607691D01*
X121137000Y-55586250D01*
X121137000Y-55073750D01*
X121138053Y-55052309D01*
X121141203Y-55031074D01*
X121146419Y-55010250D01*
X121153651Y-54990038D01*
X121162830Y-54970632D01*
X121173866Y-54952219D01*
X121186654Y-54934976D01*
X121201070Y-54919070D01*
X121216976Y-54904654D01*
X121234219Y-54891866D01*
X121252632Y-54880830D01*
X121272038Y-54871651D01*
X121292250Y-54864419D01*
X121313074Y-54859203D01*
X121334309Y-54856053D01*
X121355750Y-54855000D01*
X121793250Y-54855000D01*
X121814691Y-54856053D01*
G37*
G36*
X123389691Y-54856053D02*
G01*
X123410926Y-54859203D01*
X123431750Y-54864419D01*
X123451962Y-54871651D01*
X123471368Y-54880830D01*
X123489781Y-54891866D01*
X123507024Y-54904654D01*
X123522930Y-54919070D01*
X123537346Y-54934976D01*
X123550134Y-54952219D01*
X123561170Y-54970632D01*
X123570349Y-54990038D01*
X123577581Y-55010250D01*
X123582797Y-55031074D01*
X123585947Y-55052309D01*
X123587000Y-55073750D01*
X123587000Y-55586250D01*
X123585947Y-55607691D01*
X123582797Y-55628926D01*
X123577581Y-55649750D01*
X123570349Y-55669962D01*
X123561170Y-55689368D01*
X123550134Y-55707781D01*
X123537346Y-55725024D01*
X123522930Y-55740930D01*
X123507024Y-55755346D01*
X123489781Y-55768134D01*
X123471368Y-55779170D01*
X123451962Y-55788349D01*
X123431750Y-55795581D01*
X123410926Y-55800797D01*
X123389691Y-55803947D01*
X123368250Y-55805000D01*
X122930750Y-55805000D01*
X122909309Y-55803947D01*
X122888074Y-55800797D01*
X122867250Y-55795581D01*
X122847038Y-55788349D01*
X122827632Y-55779170D01*
X122809219Y-55768134D01*
X122791976Y-55755346D01*
X122776070Y-55740930D01*
X122761654Y-55725024D01*
X122748866Y-55707781D01*
X122737830Y-55689368D01*
X122728651Y-55669962D01*
X122721419Y-55649750D01*
X122716203Y-55628926D01*
X122713053Y-55607691D01*
X122712000Y-55586250D01*
X122712000Y-55073750D01*
X122713053Y-55052309D01*
X122716203Y-55031074D01*
X122721419Y-55010250D01*
X122728651Y-54990038D01*
X122737830Y-54970632D01*
X122748866Y-54952219D01*
X122761654Y-54934976D01*
X122776070Y-54919070D01*
X122791976Y-54904654D01*
X122809219Y-54891866D01*
X122827632Y-54880830D01*
X122847038Y-54871651D01*
X122867250Y-54864419D01*
X122888074Y-54859203D01*
X122909309Y-54856053D01*
X122930750Y-54855000D01*
X123368250Y-54855000D01*
X123389691Y-54856053D01*
G37*
G36*
X123307691Y-68376053D02*
G01*
X123328926Y-68379203D01*
X123349750Y-68384419D01*
X123369962Y-68391651D01*
X123389368Y-68400830D01*
X123407781Y-68411866D01*
X123425024Y-68424654D01*
X123440930Y-68439070D01*
X123455346Y-68454976D01*
X123468134Y-68472219D01*
X123479170Y-68490632D01*
X123488349Y-68510038D01*
X123495581Y-68530250D01*
X123500797Y-68551074D01*
X123503947Y-68572309D01*
X123505000Y-68593750D01*
X123505000Y-69106250D01*
X123503947Y-69127691D01*
X123500797Y-69148926D01*
X123495581Y-69169750D01*
X123488349Y-69189962D01*
X123479170Y-69209368D01*
X123468134Y-69227781D01*
X123455346Y-69245024D01*
X123440930Y-69260930D01*
X123425024Y-69275346D01*
X123407781Y-69288134D01*
X123389368Y-69299170D01*
X123369962Y-69308349D01*
X123349750Y-69315581D01*
X123328926Y-69320797D01*
X123307691Y-69323947D01*
X123286250Y-69325000D01*
X122848750Y-69325000D01*
X122827309Y-69323947D01*
X122806074Y-69320797D01*
X122785250Y-69315581D01*
X122765038Y-69308349D01*
X122745632Y-69299170D01*
X122727219Y-69288134D01*
X122709976Y-69275346D01*
X122694070Y-69260930D01*
X122679654Y-69245024D01*
X122666866Y-69227781D01*
X122655830Y-69209368D01*
X122646651Y-69189962D01*
X122639419Y-69169750D01*
X122634203Y-69148926D01*
X122631053Y-69127691D01*
X122630000Y-69106250D01*
X122630000Y-68593750D01*
X122631053Y-68572309D01*
X122634203Y-68551074D01*
X122639419Y-68530250D01*
X122646651Y-68510038D01*
X122655830Y-68490632D01*
X122666866Y-68472219D01*
X122679654Y-68454976D01*
X122694070Y-68439070D01*
X122709976Y-68424654D01*
X122727219Y-68411866D01*
X122745632Y-68400830D01*
X122765038Y-68391651D01*
X122785250Y-68384419D01*
X122806074Y-68379203D01*
X122827309Y-68376053D01*
X122848750Y-68375000D01*
X123286250Y-68375000D01*
X123307691Y-68376053D01*
G37*
G36*
X121732691Y-68376053D02*
G01*
X121753926Y-68379203D01*
X121774750Y-68384419D01*
X121794962Y-68391651D01*
X121814368Y-68400830D01*
X121832781Y-68411866D01*
X121850024Y-68424654D01*
X121865930Y-68439070D01*
X121880346Y-68454976D01*
X121893134Y-68472219D01*
X121904170Y-68490632D01*
X121913349Y-68510038D01*
X121920581Y-68530250D01*
X121925797Y-68551074D01*
X121928947Y-68572309D01*
X121930000Y-68593750D01*
X121930000Y-69106250D01*
X121928947Y-69127691D01*
X121925797Y-69148926D01*
X121920581Y-69169750D01*
X121913349Y-69189962D01*
X121904170Y-69209368D01*
X121893134Y-69227781D01*
X121880346Y-69245024D01*
X121865930Y-69260930D01*
X121850024Y-69275346D01*
X121832781Y-69288134D01*
X121814368Y-69299170D01*
X121794962Y-69308349D01*
X121774750Y-69315581D01*
X121753926Y-69320797D01*
X121732691Y-69323947D01*
X121711250Y-69325000D01*
X121273750Y-69325000D01*
X121252309Y-69323947D01*
X121231074Y-69320797D01*
X121210250Y-69315581D01*
X121190038Y-69308349D01*
X121170632Y-69299170D01*
X121152219Y-69288134D01*
X121134976Y-69275346D01*
X121119070Y-69260930D01*
X121104654Y-69245024D01*
X121091866Y-69227781D01*
X121080830Y-69209368D01*
X121071651Y-69189962D01*
X121064419Y-69169750D01*
X121059203Y-69148926D01*
X121056053Y-69127691D01*
X121055000Y-69106250D01*
X121055000Y-68593750D01*
X121056053Y-68572309D01*
X121059203Y-68551074D01*
X121064419Y-68530250D01*
X121071651Y-68510038D01*
X121080830Y-68490632D01*
X121091866Y-68472219D01*
X121104654Y-68454976D01*
X121119070Y-68439070D01*
X121134976Y-68424654D01*
X121152219Y-68411866D01*
X121170632Y-68400830D01*
X121190038Y-68391651D01*
X121210250Y-68384419D01*
X121231074Y-68379203D01*
X121252309Y-68376053D01*
X121273750Y-68375000D01*
X121711250Y-68375000D01*
X121732691Y-68376053D01*
G37*
G36*
X118186691Y-74326053D02*
G01*
X118207926Y-74329203D01*
X118228750Y-74334419D01*
X118248962Y-74341651D01*
X118268368Y-74350830D01*
X118286781Y-74361866D01*
X118304024Y-74374654D01*
X118319930Y-74389070D01*
X118334346Y-74404976D01*
X118347134Y-74422219D01*
X118358170Y-74440632D01*
X118367349Y-74460038D01*
X118374581Y-74480250D01*
X118379797Y-74501074D01*
X118382947Y-74522309D01*
X118384000Y-74543750D01*
X118384000Y-75056250D01*
X118382947Y-75077691D01*
X118379797Y-75098926D01*
X118374581Y-75119750D01*
X118367349Y-75139962D01*
X118358170Y-75159368D01*
X118347134Y-75177781D01*
X118334346Y-75195024D01*
X118319930Y-75210930D01*
X118304024Y-75225346D01*
X118286781Y-75238134D01*
X118268368Y-75249170D01*
X118248962Y-75258349D01*
X118228750Y-75265581D01*
X118207926Y-75270797D01*
X118186691Y-75273947D01*
X118165250Y-75275000D01*
X117727750Y-75275000D01*
X117706309Y-75273947D01*
X117685074Y-75270797D01*
X117664250Y-75265581D01*
X117644038Y-75258349D01*
X117624632Y-75249170D01*
X117606219Y-75238134D01*
X117588976Y-75225346D01*
X117573070Y-75210930D01*
X117558654Y-75195024D01*
X117545866Y-75177781D01*
X117534830Y-75159368D01*
X117525651Y-75139962D01*
X117518419Y-75119750D01*
X117513203Y-75098926D01*
X117510053Y-75077691D01*
X117509000Y-75056250D01*
X117509000Y-74543750D01*
X117510053Y-74522309D01*
X117513203Y-74501074D01*
X117518419Y-74480250D01*
X117525651Y-74460038D01*
X117534830Y-74440632D01*
X117545866Y-74422219D01*
X117558654Y-74404976D01*
X117573070Y-74389070D01*
X117588976Y-74374654D01*
X117606219Y-74361866D01*
X117624632Y-74350830D01*
X117644038Y-74341651D01*
X117664250Y-74334419D01*
X117685074Y-74329203D01*
X117706309Y-74326053D01*
X117727750Y-74325000D01*
X118165250Y-74325000D01*
X118186691Y-74326053D01*
G37*
G36*
X119761691Y-74326053D02*
G01*
X119782926Y-74329203D01*
X119803750Y-74334419D01*
X119823962Y-74341651D01*
X119843368Y-74350830D01*
X119861781Y-74361866D01*
X119879024Y-74374654D01*
X119894930Y-74389070D01*
X119909346Y-74404976D01*
X119922134Y-74422219D01*
X119933170Y-74440632D01*
X119942349Y-74460038D01*
X119949581Y-74480250D01*
X119954797Y-74501074D01*
X119957947Y-74522309D01*
X119959000Y-74543750D01*
X119959000Y-75056250D01*
X119957947Y-75077691D01*
X119954797Y-75098926D01*
X119949581Y-75119750D01*
X119942349Y-75139962D01*
X119933170Y-75159368D01*
X119922134Y-75177781D01*
X119909346Y-75195024D01*
X119894930Y-75210930D01*
X119879024Y-75225346D01*
X119861781Y-75238134D01*
X119843368Y-75249170D01*
X119823962Y-75258349D01*
X119803750Y-75265581D01*
X119782926Y-75270797D01*
X119761691Y-75273947D01*
X119740250Y-75275000D01*
X119302750Y-75275000D01*
X119281309Y-75273947D01*
X119260074Y-75270797D01*
X119239250Y-75265581D01*
X119219038Y-75258349D01*
X119199632Y-75249170D01*
X119181219Y-75238134D01*
X119163976Y-75225346D01*
X119148070Y-75210930D01*
X119133654Y-75195024D01*
X119120866Y-75177781D01*
X119109830Y-75159368D01*
X119100651Y-75139962D01*
X119093419Y-75119750D01*
X119088203Y-75098926D01*
X119085053Y-75077691D01*
X119084000Y-75056250D01*
X119084000Y-74543750D01*
X119085053Y-74522309D01*
X119088203Y-74501074D01*
X119093419Y-74480250D01*
X119100651Y-74460038D01*
X119109830Y-74440632D01*
X119120866Y-74422219D01*
X119133654Y-74404976D01*
X119148070Y-74389070D01*
X119163976Y-74374654D01*
X119181219Y-74361866D01*
X119199632Y-74350830D01*
X119219038Y-74341651D01*
X119239250Y-74334419D01*
X119260074Y-74329203D01*
X119281309Y-74326053D01*
X119302750Y-74325000D01*
X119740250Y-74325000D01*
X119761691Y-74326053D01*
G37*
G36*
X120586691Y-80326053D02*
G01*
X120607926Y-80329203D01*
X120628750Y-80334419D01*
X120648962Y-80341651D01*
X120668368Y-80350830D01*
X120686781Y-80361866D01*
X120704024Y-80374654D01*
X120719930Y-80389070D01*
X120734346Y-80404976D01*
X120747134Y-80422219D01*
X120758170Y-80440632D01*
X120767349Y-80460038D01*
X120774581Y-80480250D01*
X120779797Y-80501074D01*
X120782947Y-80522309D01*
X120784000Y-80543750D01*
X120784000Y-81056250D01*
X120782947Y-81077691D01*
X120779797Y-81098926D01*
X120774581Y-81119750D01*
X120767349Y-81139962D01*
X120758170Y-81159368D01*
X120747134Y-81177781D01*
X120734346Y-81195024D01*
X120719930Y-81210930D01*
X120704024Y-81225346D01*
X120686781Y-81238134D01*
X120668368Y-81249170D01*
X120648962Y-81258349D01*
X120628750Y-81265581D01*
X120607926Y-81270797D01*
X120586691Y-81273947D01*
X120565250Y-81275000D01*
X120127750Y-81275000D01*
X120106309Y-81273947D01*
X120085074Y-81270797D01*
X120064250Y-81265581D01*
X120044038Y-81258349D01*
X120024632Y-81249170D01*
X120006219Y-81238134D01*
X119988976Y-81225346D01*
X119973070Y-81210930D01*
X119958654Y-81195024D01*
X119945866Y-81177781D01*
X119934830Y-81159368D01*
X119925651Y-81139962D01*
X119918419Y-81119750D01*
X119913203Y-81098926D01*
X119910053Y-81077691D01*
X119909000Y-81056250D01*
X119909000Y-80543750D01*
X119910053Y-80522309D01*
X119913203Y-80501074D01*
X119918419Y-80480250D01*
X119925651Y-80460038D01*
X119934830Y-80440632D01*
X119945866Y-80422219D01*
X119958654Y-80404976D01*
X119973070Y-80389070D01*
X119988976Y-80374654D01*
X120006219Y-80361866D01*
X120024632Y-80350830D01*
X120044038Y-80341651D01*
X120064250Y-80334419D01*
X120085074Y-80329203D01*
X120106309Y-80326053D01*
X120127750Y-80325000D01*
X120565250Y-80325000D01*
X120586691Y-80326053D01*
G37*
G36*
X122161691Y-80326053D02*
G01*
X122182926Y-80329203D01*
X122203750Y-80334419D01*
X122223962Y-80341651D01*
X122243368Y-80350830D01*
X122261781Y-80361866D01*
X122279024Y-80374654D01*
X122294930Y-80389070D01*
X122309346Y-80404976D01*
X122322134Y-80422219D01*
X122333170Y-80440632D01*
X122342349Y-80460038D01*
X122349581Y-80480250D01*
X122354797Y-80501074D01*
X122357947Y-80522309D01*
X122359000Y-80543750D01*
X122359000Y-81056250D01*
X122357947Y-81077691D01*
X122354797Y-81098926D01*
X122349581Y-81119750D01*
X122342349Y-81139962D01*
X122333170Y-81159368D01*
X122322134Y-81177781D01*
X122309346Y-81195024D01*
X122294930Y-81210930D01*
X122279024Y-81225346D01*
X122261781Y-81238134D01*
X122243368Y-81249170D01*
X122223962Y-81258349D01*
X122203750Y-81265581D01*
X122182926Y-81270797D01*
X122161691Y-81273947D01*
X122140250Y-81275000D01*
X121702750Y-81275000D01*
X121681309Y-81273947D01*
X121660074Y-81270797D01*
X121639250Y-81265581D01*
X121619038Y-81258349D01*
X121599632Y-81249170D01*
X121581219Y-81238134D01*
X121563976Y-81225346D01*
X121548070Y-81210930D01*
X121533654Y-81195024D01*
X121520866Y-81177781D01*
X121509830Y-81159368D01*
X121500651Y-81139962D01*
X121493419Y-81119750D01*
X121488203Y-81098926D01*
X121485053Y-81077691D01*
X121484000Y-81056250D01*
X121484000Y-80543750D01*
X121485053Y-80522309D01*
X121488203Y-80501074D01*
X121493419Y-80480250D01*
X121500651Y-80460038D01*
X121509830Y-80440632D01*
X121520866Y-80422219D01*
X121533654Y-80404976D01*
X121548070Y-80389070D01*
X121563976Y-80374654D01*
X121581219Y-80361866D01*
X121599632Y-80350830D01*
X121619038Y-80341651D01*
X121639250Y-80334419D01*
X121660074Y-80329203D01*
X121681309Y-80326053D01*
X121702750Y-80325000D01*
X122140250Y-80325000D01*
X122161691Y-80326053D01*
G37*
G36*
X130452691Y-81426053D02*
G01*
X130473926Y-81429203D01*
X130494750Y-81434419D01*
X130514962Y-81441651D01*
X130534368Y-81450830D01*
X130552781Y-81461866D01*
X130570024Y-81474654D01*
X130585930Y-81489070D01*
X130600346Y-81504976D01*
X130613134Y-81522219D01*
X130624170Y-81540632D01*
X130633349Y-81560038D01*
X130640581Y-81580250D01*
X130645797Y-81601074D01*
X130648947Y-81622309D01*
X130650000Y-81643750D01*
X130650000Y-82156250D01*
X130648947Y-82177691D01*
X130645797Y-82198926D01*
X130640581Y-82219750D01*
X130633349Y-82239962D01*
X130624170Y-82259368D01*
X130613134Y-82277781D01*
X130600346Y-82295024D01*
X130585930Y-82310930D01*
X130570024Y-82325346D01*
X130552781Y-82338134D01*
X130534368Y-82349170D01*
X130514962Y-82358349D01*
X130494750Y-82365581D01*
X130473926Y-82370797D01*
X130452691Y-82373947D01*
X130431250Y-82375000D01*
X129993750Y-82375000D01*
X129972309Y-82373947D01*
X129951074Y-82370797D01*
X129930250Y-82365581D01*
X129910038Y-82358349D01*
X129890632Y-82349170D01*
X129872219Y-82338134D01*
X129854976Y-82325346D01*
X129839070Y-82310930D01*
X129824654Y-82295024D01*
X129811866Y-82277781D01*
X129800830Y-82259368D01*
X129791651Y-82239962D01*
X129784419Y-82219750D01*
X129779203Y-82198926D01*
X129776053Y-82177691D01*
X129775000Y-82156250D01*
X129775000Y-81643750D01*
X129776053Y-81622309D01*
X129779203Y-81601074D01*
X129784419Y-81580250D01*
X129791651Y-81560038D01*
X129800830Y-81540632D01*
X129811866Y-81522219D01*
X129824654Y-81504976D01*
X129839070Y-81489070D01*
X129854976Y-81474654D01*
X129872219Y-81461866D01*
X129890632Y-81450830D01*
X129910038Y-81441651D01*
X129930250Y-81434419D01*
X129951074Y-81429203D01*
X129972309Y-81426053D01*
X129993750Y-81425000D01*
X130431250Y-81425000D01*
X130452691Y-81426053D01*
G37*
G36*
X132027691Y-81426053D02*
G01*
X132048926Y-81429203D01*
X132069750Y-81434419D01*
X132089962Y-81441651D01*
X132109368Y-81450830D01*
X132127781Y-81461866D01*
X132145024Y-81474654D01*
X132160930Y-81489070D01*
X132175346Y-81504976D01*
X132188134Y-81522219D01*
X132199170Y-81540632D01*
X132208349Y-81560038D01*
X132215581Y-81580250D01*
X132220797Y-81601074D01*
X132223947Y-81622309D01*
X132225000Y-81643750D01*
X132225000Y-82156250D01*
X132223947Y-82177691D01*
X132220797Y-82198926D01*
X132215581Y-82219750D01*
X132208349Y-82239962D01*
X132199170Y-82259368D01*
X132188134Y-82277781D01*
X132175346Y-82295024D01*
X132160930Y-82310930D01*
X132145024Y-82325346D01*
X132127781Y-82338134D01*
X132109368Y-82349170D01*
X132089962Y-82358349D01*
X132069750Y-82365581D01*
X132048926Y-82370797D01*
X132027691Y-82373947D01*
X132006250Y-82375000D01*
X131568750Y-82375000D01*
X131547309Y-82373947D01*
X131526074Y-82370797D01*
X131505250Y-82365581D01*
X131485038Y-82358349D01*
X131465632Y-82349170D01*
X131447219Y-82338134D01*
X131429976Y-82325346D01*
X131414070Y-82310930D01*
X131399654Y-82295024D01*
X131386866Y-82277781D01*
X131375830Y-82259368D01*
X131366651Y-82239962D01*
X131359419Y-82219750D01*
X131354203Y-82198926D01*
X131351053Y-82177691D01*
X131350000Y-82156250D01*
X131350000Y-81643750D01*
X131351053Y-81622309D01*
X131354203Y-81601074D01*
X131359419Y-81580250D01*
X131366651Y-81560038D01*
X131375830Y-81540632D01*
X131386866Y-81522219D01*
X131399654Y-81504976D01*
X131414070Y-81489070D01*
X131429976Y-81474654D01*
X131447219Y-81461866D01*
X131465632Y-81450830D01*
X131485038Y-81441651D01*
X131505250Y-81434419D01*
X131526074Y-81429203D01*
X131547309Y-81426053D01*
X131568750Y-81425000D01*
X132006250Y-81425000D01*
X132027691Y-81426053D01*
G37*
G36*
X118252691Y-62626053D02*
G01*
X118273926Y-62629203D01*
X118294750Y-62634419D01*
X118314962Y-62641651D01*
X118334368Y-62650830D01*
X118352781Y-62661866D01*
X118370024Y-62674654D01*
X118385930Y-62689070D01*
X118400346Y-62704976D01*
X118413134Y-62722219D01*
X118424170Y-62740632D01*
X118433349Y-62760038D01*
X118440581Y-62780250D01*
X118445797Y-62801074D01*
X118448947Y-62822309D01*
X118450000Y-62843750D01*
X118450000Y-63356250D01*
X118448947Y-63377691D01*
X118445797Y-63398926D01*
X118440581Y-63419750D01*
X118433349Y-63439962D01*
X118424170Y-63459368D01*
X118413134Y-63477781D01*
X118400346Y-63495024D01*
X118385930Y-63510930D01*
X118370024Y-63525346D01*
X118352781Y-63538134D01*
X118334368Y-63549170D01*
X118314962Y-63558349D01*
X118294750Y-63565581D01*
X118273926Y-63570797D01*
X118252691Y-63573947D01*
X118231250Y-63575000D01*
X117793750Y-63575000D01*
X117772309Y-63573947D01*
X117751074Y-63570797D01*
X117730250Y-63565581D01*
X117710038Y-63558349D01*
X117690632Y-63549170D01*
X117672219Y-63538134D01*
X117654976Y-63525346D01*
X117639070Y-63510930D01*
X117624654Y-63495024D01*
X117611866Y-63477781D01*
X117600830Y-63459368D01*
X117591651Y-63439962D01*
X117584419Y-63419750D01*
X117579203Y-63398926D01*
X117576053Y-63377691D01*
X117575000Y-63356250D01*
X117575000Y-62843750D01*
X117576053Y-62822309D01*
X117579203Y-62801074D01*
X117584419Y-62780250D01*
X117591651Y-62760038D01*
X117600830Y-62740632D01*
X117611866Y-62722219D01*
X117624654Y-62704976D01*
X117639070Y-62689070D01*
X117654976Y-62674654D01*
X117672219Y-62661866D01*
X117690632Y-62650830D01*
X117710038Y-62641651D01*
X117730250Y-62634419D01*
X117751074Y-62629203D01*
X117772309Y-62626053D01*
X117793750Y-62625000D01*
X118231250Y-62625000D01*
X118252691Y-62626053D01*
G37*
G36*
X119827691Y-62626053D02*
G01*
X119848926Y-62629203D01*
X119869750Y-62634419D01*
X119889962Y-62641651D01*
X119909368Y-62650830D01*
X119927781Y-62661866D01*
X119945024Y-62674654D01*
X119960930Y-62689070D01*
X119975346Y-62704976D01*
X119988134Y-62722219D01*
X119999170Y-62740632D01*
X120008349Y-62760038D01*
X120015581Y-62780250D01*
X120020797Y-62801074D01*
X120023947Y-62822309D01*
X120025000Y-62843750D01*
X120025000Y-63356250D01*
X120023947Y-63377691D01*
X120020797Y-63398926D01*
X120015581Y-63419750D01*
X120008349Y-63439962D01*
X119999170Y-63459368D01*
X119988134Y-63477781D01*
X119975346Y-63495024D01*
X119960930Y-63510930D01*
X119945024Y-63525346D01*
X119927781Y-63538134D01*
X119909368Y-63549170D01*
X119889962Y-63558349D01*
X119869750Y-63565581D01*
X119848926Y-63570797D01*
X119827691Y-63573947D01*
X119806250Y-63575000D01*
X119368750Y-63575000D01*
X119347309Y-63573947D01*
X119326074Y-63570797D01*
X119305250Y-63565581D01*
X119285038Y-63558349D01*
X119265632Y-63549170D01*
X119247219Y-63538134D01*
X119229976Y-63525346D01*
X119214070Y-63510930D01*
X119199654Y-63495024D01*
X119186866Y-63477781D01*
X119175830Y-63459368D01*
X119166651Y-63439962D01*
X119159419Y-63419750D01*
X119154203Y-63398926D01*
X119151053Y-63377691D01*
X119150000Y-63356250D01*
X119150000Y-62843750D01*
X119151053Y-62822309D01*
X119154203Y-62801074D01*
X119159419Y-62780250D01*
X119166651Y-62760038D01*
X119175830Y-62740632D01*
X119186866Y-62722219D01*
X119199654Y-62704976D01*
X119214070Y-62689070D01*
X119229976Y-62674654D01*
X119247219Y-62661866D01*
X119265632Y-62650830D01*
X119285038Y-62641651D01*
X119305250Y-62634419D01*
X119326074Y-62629203D01*
X119347309Y-62626053D01*
X119368750Y-62625000D01*
X119806250Y-62625000D01*
X119827691Y-62626053D01*
G37*
G36*
X118152691Y-56626053D02*
G01*
X118173926Y-56629203D01*
X118194750Y-56634419D01*
X118214962Y-56641651D01*
X118234368Y-56650830D01*
X118252781Y-56661866D01*
X118270024Y-56674654D01*
X118285930Y-56689070D01*
X118300346Y-56704976D01*
X118313134Y-56722219D01*
X118324170Y-56740632D01*
X118333349Y-56760038D01*
X118340581Y-56780250D01*
X118345797Y-56801074D01*
X118348947Y-56822309D01*
X118350000Y-56843750D01*
X118350000Y-57356250D01*
X118348947Y-57377691D01*
X118345797Y-57398926D01*
X118340581Y-57419750D01*
X118333349Y-57439962D01*
X118324170Y-57459368D01*
X118313134Y-57477781D01*
X118300346Y-57495024D01*
X118285930Y-57510930D01*
X118270024Y-57525346D01*
X118252781Y-57538134D01*
X118234368Y-57549170D01*
X118214962Y-57558349D01*
X118194750Y-57565581D01*
X118173926Y-57570797D01*
X118152691Y-57573947D01*
X118131250Y-57575000D01*
X117693750Y-57575000D01*
X117672309Y-57573947D01*
X117651074Y-57570797D01*
X117630250Y-57565581D01*
X117610038Y-57558349D01*
X117590632Y-57549170D01*
X117572219Y-57538134D01*
X117554976Y-57525346D01*
X117539070Y-57510930D01*
X117524654Y-57495024D01*
X117511866Y-57477781D01*
X117500830Y-57459368D01*
X117491651Y-57439962D01*
X117484419Y-57419750D01*
X117479203Y-57398926D01*
X117476053Y-57377691D01*
X117475000Y-57356250D01*
X117475000Y-56843750D01*
X117476053Y-56822309D01*
X117479203Y-56801074D01*
X117484419Y-56780250D01*
X117491651Y-56760038D01*
X117500830Y-56740632D01*
X117511866Y-56722219D01*
X117524654Y-56704976D01*
X117539070Y-56689070D01*
X117554976Y-56674654D01*
X117572219Y-56661866D01*
X117590632Y-56650830D01*
X117610038Y-56641651D01*
X117630250Y-56634419D01*
X117651074Y-56629203D01*
X117672309Y-56626053D01*
X117693750Y-56625000D01*
X118131250Y-56625000D01*
X118152691Y-56626053D01*
G37*
G36*
X119727691Y-56626053D02*
G01*
X119748926Y-56629203D01*
X119769750Y-56634419D01*
X119789962Y-56641651D01*
X119809368Y-56650830D01*
X119827781Y-56661866D01*
X119845024Y-56674654D01*
X119860930Y-56689070D01*
X119875346Y-56704976D01*
X119888134Y-56722219D01*
X119899170Y-56740632D01*
X119908349Y-56760038D01*
X119915581Y-56780250D01*
X119920797Y-56801074D01*
X119923947Y-56822309D01*
X119925000Y-56843750D01*
X119925000Y-57356250D01*
X119923947Y-57377691D01*
X119920797Y-57398926D01*
X119915581Y-57419750D01*
X119908349Y-57439962D01*
X119899170Y-57459368D01*
X119888134Y-57477781D01*
X119875346Y-57495024D01*
X119860930Y-57510930D01*
X119845024Y-57525346D01*
X119827781Y-57538134D01*
X119809368Y-57549170D01*
X119789962Y-57558349D01*
X119769750Y-57565581D01*
X119748926Y-57570797D01*
X119727691Y-57573947D01*
X119706250Y-57575000D01*
X119268750Y-57575000D01*
X119247309Y-57573947D01*
X119226074Y-57570797D01*
X119205250Y-57565581D01*
X119185038Y-57558349D01*
X119165632Y-57549170D01*
X119147219Y-57538134D01*
X119129976Y-57525346D01*
X119114070Y-57510930D01*
X119099654Y-57495024D01*
X119086866Y-57477781D01*
X119075830Y-57459368D01*
X119066651Y-57439962D01*
X119059419Y-57419750D01*
X119054203Y-57398926D01*
X119051053Y-57377691D01*
X119050000Y-57356250D01*
X119050000Y-56843750D01*
X119051053Y-56822309D01*
X119054203Y-56801074D01*
X119059419Y-56780250D01*
X119066651Y-56760038D01*
X119075830Y-56740632D01*
X119086866Y-56722219D01*
X119099654Y-56704976D01*
X119114070Y-56689070D01*
X119129976Y-56674654D01*
X119147219Y-56661866D01*
X119165632Y-56650830D01*
X119185038Y-56641651D01*
X119205250Y-56634419D01*
X119226074Y-56629203D01*
X119247309Y-56626053D01*
X119268750Y-56625000D01*
X119706250Y-56625000D01*
X119727691Y-56626053D01*
G37*
G36*
X127586691Y-56636053D02*
G01*
X127607926Y-56639203D01*
X127628750Y-56644419D01*
X127648962Y-56651651D01*
X127668368Y-56660830D01*
X127686781Y-56671866D01*
X127704024Y-56684654D01*
X127719930Y-56699070D01*
X127734346Y-56714976D01*
X127747134Y-56732219D01*
X127758170Y-56750632D01*
X127767349Y-56770038D01*
X127774581Y-56790250D01*
X127779797Y-56811074D01*
X127782947Y-56832309D01*
X127784000Y-56853750D01*
X127784000Y-57366250D01*
X127782947Y-57387691D01*
X127779797Y-57408926D01*
X127774581Y-57429750D01*
X127767349Y-57449962D01*
X127758170Y-57469368D01*
X127747134Y-57487781D01*
X127734346Y-57505024D01*
X127719930Y-57520930D01*
X127704024Y-57535346D01*
X127686781Y-57548134D01*
X127668368Y-57559170D01*
X127648962Y-57568349D01*
X127628750Y-57575581D01*
X127607926Y-57580797D01*
X127586691Y-57583947D01*
X127565250Y-57585000D01*
X127127750Y-57585000D01*
X127106309Y-57583947D01*
X127085074Y-57580797D01*
X127064250Y-57575581D01*
X127044038Y-57568349D01*
X127024632Y-57559170D01*
X127006219Y-57548134D01*
X126988976Y-57535346D01*
X126973070Y-57520930D01*
X126958654Y-57505024D01*
X126945866Y-57487781D01*
X126934830Y-57469368D01*
X126925651Y-57449962D01*
X126918419Y-57429750D01*
X126913203Y-57408926D01*
X126910053Y-57387691D01*
X126909000Y-57366250D01*
X126909000Y-56853750D01*
X126910053Y-56832309D01*
X126913203Y-56811074D01*
X126918419Y-56790250D01*
X126925651Y-56770038D01*
X126934830Y-56750632D01*
X126945866Y-56732219D01*
X126958654Y-56714976D01*
X126973070Y-56699070D01*
X126988976Y-56684654D01*
X127006219Y-56671866D01*
X127024632Y-56660830D01*
X127044038Y-56651651D01*
X127064250Y-56644419D01*
X127085074Y-56639203D01*
X127106309Y-56636053D01*
X127127750Y-56635000D01*
X127565250Y-56635000D01*
X127586691Y-56636053D01*
G37*
G36*
X129161691Y-56636053D02*
G01*
X129182926Y-56639203D01*
X129203750Y-56644419D01*
X129223962Y-56651651D01*
X129243368Y-56660830D01*
X129261781Y-56671866D01*
X129279024Y-56684654D01*
X129294930Y-56699070D01*
X129309346Y-56714976D01*
X129322134Y-56732219D01*
X129333170Y-56750632D01*
X129342349Y-56770038D01*
X129349581Y-56790250D01*
X129354797Y-56811074D01*
X129357947Y-56832309D01*
X129359000Y-56853750D01*
X129359000Y-57366250D01*
X129357947Y-57387691D01*
X129354797Y-57408926D01*
X129349581Y-57429750D01*
X129342349Y-57449962D01*
X129333170Y-57469368D01*
X129322134Y-57487781D01*
X129309346Y-57505024D01*
X129294930Y-57520930D01*
X129279024Y-57535346D01*
X129261781Y-57548134D01*
X129243368Y-57559170D01*
X129223962Y-57568349D01*
X129203750Y-57575581D01*
X129182926Y-57580797D01*
X129161691Y-57583947D01*
X129140250Y-57585000D01*
X128702750Y-57585000D01*
X128681309Y-57583947D01*
X128660074Y-57580797D01*
X128639250Y-57575581D01*
X128619038Y-57568349D01*
X128599632Y-57559170D01*
X128581219Y-57548134D01*
X128563976Y-57535346D01*
X128548070Y-57520930D01*
X128533654Y-57505024D01*
X128520866Y-57487781D01*
X128509830Y-57469368D01*
X128500651Y-57449962D01*
X128493419Y-57429750D01*
X128488203Y-57408926D01*
X128485053Y-57387691D01*
X128484000Y-57366250D01*
X128484000Y-56853750D01*
X128485053Y-56832309D01*
X128488203Y-56811074D01*
X128493419Y-56790250D01*
X128500651Y-56770038D01*
X128509830Y-56750632D01*
X128520866Y-56732219D01*
X128533654Y-56714976D01*
X128548070Y-56699070D01*
X128563976Y-56684654D01*
X128581219Y-56671866D01*
X128599632Y-56660830D01*
X128619038Y-56651651D01*
X128639250Y-56644419D01*
X128660074Y-56639203D01*
X128681309Y-56636053D01*
X128702750Y-56635000D01*
X129140250Y-56635000D01*
X129161691Y-56636053D01*
G37*
G36*
X116277691Y-74251053D02*
G01*
X116298926Y-74254203D01*
X116319750Y-74259419D01*
X116339962Y-74266651D01*
X116359368Y-74275830D01*
X116377781Y-74286866D01*
X116395024Y-74299654D01*
X116410930Y-74314070D01*
X116425346Y-74329976D01*
X116438134Y-74347219D01*
X116449170Y-74365632D01*
X116458349Y-74385038D01*
X116465581Y-74405250D01*
X116470797Y-74426074D01*
X116473947Y-74447309D01*
X116475000Y-74468750D01*
X116475000Y-74906250D01*
X116473947Y-74927691D01*
X116470797Y-74948926D01*
X116465581Y-74969750D01*
X116458349Y-74989962D01*
X116449170Y-75009368D01*
X116438134Y-75027781D01*
X116425346Y-75045024D01*
X116410930Y-75060930D01*
X116395024Y-75075346D01*
X116377781Y-75088134D01*
X116359368Y-75099170D01*
X116339962Y-75108349D01*
X116319750Y-75115581D01*
X116298926Y-75120797D01*
X116277691Y-75123947D01*
X116256250Y-75125000D01*
X115743750Y-75125000D01*
X115722309Y-75123947D01*
X115701074Y-75120797D01*
X115680250Y-75115581D01*
X115660038Y-75108349D01*
X115640632Y-75099170D01*
X115622219Y-75088134D01*
X115604976Y-75075346D01*
X115589070Y-75060930D01*
X115574654Y-75045024D01*
X115561866Y-75027781D01*
X115550830Y-75009368D01*
X115541651Y-74989962D01*
X115534419Y-74969750D01*
X115529203Y-74948926D01*
X115526053Y-74927691D01*
X115525000Y-74906250D01*
X115525000Y-74468750D01*
X115526053Y-74447309D01*
X115529203Y-74426074D01*
X115534419Y-74405250D01*
X115541651Y-74385038D01*
X115550830Y-74365632D01*
X115561866Y-74347219D01*
X115574654Y-74329976D01*
X115589070Y-74314070D01*
X115604976Y-74299654D01*
X115622219Y-74286866D01*
X115640632Y-74275830D01*
X115660038Y-74266651D01*
X115680250Y-74259419D01*
X115701074Y-74254203D01*
X115722309Y-74251053D01*
X115743750Y-74250000D01*
X116256250Y-74250000D01*
X116277691Y-74251053D01*
G37*
G36*
X116277691Y-72676053D02*
G01*
X116298926Y-72679203D01*
X116319750Y-72684419D01*
X116339962Y-72691651D01*
X116359368Y-72700830D01*
X116377781Y-72711866D01*
X116395024Y-72724654D01*
X116410930Y-72739070D01*
X116425346Y-72754976D01*
X116438134Y-72772219D01*
X116449170Y-72790632D01*
X116458349Y-72810038D01*
X116465581Y-72830250D01*
X116470797Y-72851074D01*
X116473947Y-72872309D01*
X116475000Y-72893750D01*
X116475000Y-73331250D01*
X116473947Y-73352691D01*
X116470797Y-73373926D01*
X116465581Y-73394750D01*
X116458349Y-73414962D01*
X116449170Y-73434368D01*
X116438134Y-73452781D01*
X116425346Y-73470024D01*
X116410930Y-73485930D01*
X116395024Y-73500346D01*
X116377781Y-73513134D01*
X116359368Y-73524170D01*
X116339962Y-73533349D01*
X116319750Y-73540581D01*
X116298926Y-73545797D01*
X116277691Y-73548947D01*
X116256250Y-73550000D01*
X115743750Y-73550000D01*
X115722309Y-73548947D01*
X115701074Y-73545797D01*
X115680250Y-73540581D01*
X115660038Y-73533349D01*
X115640632Y-73524170D01*
X115622219Y-73513134D01*
X115604976Y-73500346D01*
X115589070Y-73485930D01*
X115574654Y-73470024D01*
X115561866Y-73452781D01*
X115550830Y-73434368D01*
X115541651Y-73414962D01*
X115534419Y-73394750D01*
X115529203Y-73373926D01*
X115526053Y-73352691D01*
X115525000Y-73331250D01*
X115525000Y-72893750D01*
X115526053Y-72872309D01*
X115529203Y-72851074D01*
X115534419Y-72830250D01*
X115541651Y-72810038D01*
X115550830Y-72790632D01*
X115561866Y-72772219D01*
X115574654Y-72754976D01*
X115589070Y-72739070D01*
X115604976Y-72724654D01*
X115622219Y-72711866D01*
X115640632Y-72700830D01*
X115660038Y-72691651D01*
X115680250Y-72684419D01*
X115701074Y-72679203D01*
X115722309Y-72676053D01*
X115743750Y-72675000D01*
X116256250Y-72675000D01*
X116277691Y-72676053D01*
G37*
G36*
X118677691Y-80251053D02*
G01*
X118698926Y-80254203D01*
X118719750Y-80259419D01*
X118739962Y-80266651D01*
X118759368Y-80275830D01*
X118777781Y-80286866D01*
X118795024Y-80299654D01*
X118810930Y-80314070D01*
X118825346Y-80329976D01*
X118838134Y-80347219D01*
X118849170Y-80365632D01*
X118858349Y-80385038D01*
X118865581Y-80405250D01*
X118870797Y-80426074D01*
X118873947Y-80447309D01*
X118875000Y-80468750D01*
X118875000Y-80906250D01*
X118873947Y-80927691D01*
X118870797Y-80948926D01*
X118865581Y-80969750D01*
X118858349Y-80989962D01*
X118849170Y-81009368D01*
X118838134Y-81027781D01*
X118825346Y-81045024D01*
X118810930Y-81060930D01*
X118795024Y-81075346D01*
X118777781Y-81088134D01*
X118759368Y-81099170D01*
X118739962Y-81108349D01*
X118719750Y-81115581D01*
X118698926Y-81120797D01*
X118677691Y-81123947D01*
X118656250Y-81125000D01*
X118143750Y-81125000D01*
X118122309Y-81123947D01*
X118101074Y-81120797D01*
X118080250Y-81115581D01*
X118060038Y-81108349D01*
X118040632Y-81099170D01*
X118022219Y-81088134D01*
X118004976Y-81075346D01*
X117989070Y-81060930D01*
X117974654Y-81045024D01*
X117961866Y-81027781D01*
X117950830Y-81009368D01*
X117941651Y-80989962D01*
X117934419Y-80969750D01*
X117929203Y-80948926D01*
X117926053Y-80927691D01*
X117925000Y-80906250D01*
X117925000Y-80468750D01*
X117926053Y-80447309D01*
X117929203Y-80426074D01*
X117934419Y-80405250D01*
X117941651Y-80385038D01*
X117950830Y-80365632D01*
X117961866Y-80347219D01*
X117974654Y-80329976D01*
X117989070Y-80314070D01*
X118004976Y-80299654D01*
X118022219Y-80286866D01*
X118040632Y-80275830D01*
X118060038Y-80266651D01*
X118080250Y-80259419D01*
X118101074Y-80254203D01*
X118122309Y-80251053D01*
X118143750Y-80250000D01*
X118656250Y-80250000D01*
X118677691Y-80251053D01*
G37*
G36*
X118677691Y-78676053D02*
G01*
X118698926Y-78679203D01*
X118719750Y-78684419D01*
X118739962Y-78691651D01*
X118759368Y-78700830D01*
X118777781Y-78711866D01*
X118795024Y-78724654D01*
X118810930Y-78739070D01*
X118825346Y-78754976D01*
X118838134Y-78772219D01*
X118849170Y-78790632D01*
X118858349Y-78810038D01*
X118865581Y-78830250D01*
X118870797Y-78851074D01*
X118873947Y-78872309D01*
X118875000Y-78893750D01*
X118875000Y-79331250D01*
X118873947Y-79352691D01*
X118870797Y-79373926D01*
X118865581Y-79394750D01*
X118858349Y-79414962D01*
X118849170Y-79434368D01*
X118838134Y-79452781D01*
X118825346Y-79470024D01*
X118810930Y-79485930D01*
X118795024Y-79500346D01*
X118777781Y-79513134D01*
X118759368Y-79524170D01*
X118739962Y-79533349D01*
X118719750Y-79540581D01*
X118698926Y-79545797D01*
X118677691Y-79548947D01*
X118656250Y-79550000D01*
X118143750Y-79550000D01*
X118122309Y-79548947D01*
X118101074Y-79545797D01*
X118080250Y-79540581D01*
X118060038Y-79533349D01*
X118040632Y-79524170D01*
X118022219Y-79513134D01*
X118004976Y-79500346D01*
X117989070Y-79485930D01*
X117974654Y-79470024D01*
X117961866Y-79452781D01*
X117950830Y-79434368D01*
X117941651Y-79414962D01*
X117934419Y-79394750D01*
X117929203Y-79373926D01*
X117926053Y-79352691D01*
X117925000Y-79331250D01*
X117925000Y-78893750D01*
X117926053Y-78872309D01*
X117929203Y-78851074D01*
X117934419Y-78830250D01*
X117941651Y-78810038D01*
X117950830Y-78790632D01*
X117961866Y-78772219D01*
X117974654Y-78754976D01*
X117989070Y-78739070D01*
X118004976Y-78724654D01*
X118022219Y-78711866D01*
X118040632Y-78700830D01*
X118060038Y-78691651D01*
X118080250Y-78684419D01*
X118101074Y-78679203D01*
X118122309Y-78676053D01*
X118143750Y-78675000D01*
X118656250Y-78675000D01*
X118677691Y-78676053D01*
G37*
G36*
X128577691Y-81351053D02*
G01*
X128598926Y-81354203D01*
X128619750Y-81359419D01*
X128639962Y-81366651D01*
X128659368Y-81375830D01*
X128677781Y-81386866D01*
X128695024Y-81399654D01*
X128710930Y-81414070D01*
X128725346Y-81429976D01*
X128738134Y-81447219D01*
X128749170Y-81465632D01*
X128758349Y-81485038D01*
X128765581Y-81505250D01*
X128770797Y-81526074D01*
X128773947Y-81547309D01*
X128775000Y-81568750D01*
X128775000Y-82006250D01*
X128773947Y-82027691D01*
X128770797Y-82048926D01*
X128765581Y-82069750D01*
X128758349Y-82089962D01*
X128749170Y-82109368D01*
X128738134Y-82127781D01*
X128725346Y-82145024D01*
X128710930Y-82160930D01*
X128695024Y-82175346D01*
X128677781Y-82188134D01*
X128659368Y-82199170D01*
X128639962Y-82208349D01*
X128619750Y-82215581D01*
X128598926Y-82220797D01*
X128577691Y-82223947D01*
X128556250Y-82225000D01*
X128043750Y-82225000D01*
X128022309Y-82223947D01*
X128001074Y-82220797D01*
X127980250Y-82215581D01*
X127960038Y-82208349D01*
X127940632Y-82199170D01*
X127922219Y-82188134D01*
X127904976Y-82175346D01*
X127889070Y-82160930D01*
X127874654Y-82145024D01*
X127861866Y-82127781D01*
X127850830Y-82109368D01*
X127841651Y-82089962D01*
X127834419Y-82069750D01*
X127829203Y-82048926D01*
X127826053Y-82027691D01*
X127825000Y-82006250D01*
X127825000Y-81568750D01*
X127826053Y-81547309D01*
X127829203Y-81526074D01*
X127834419Y-81505250D01*
X127841651Y-81485038D01*
X127850830Y-81465632D01*
X127861866Y-81447219D01*
X127874654Y-81429976D01*
X127889070Y-81414070D01*
X127904976Y-81399654D01*
X127922219Y-81386866D01*
X127940632Y-81375830D01*
X127960038Y-81366651D01*
X127980250Y-81359419D01*
X128001074Y-81354203D01*
X128022309Y-81351053D01*
X128043750Y-81350000D01*
X128556250Y-81350000D01*
X128577691Y-81351053D01*
G37*
G36*
X128577691Y-79776053D02*
G01*
X128598926Y-79779203D01*
X128619750Y-79784419D01*
X128639962Y-79791651D01*
X128659368Y-79800830D01*
X128677781Y-79811866D01*
X128695024Y-79824654D01*
X128710930Y-79839070D01*
X128725346Y-79854976D01*
X128738134Y-79872219D01*
X128749170Y-79890632D01*
X128758349Y-79910038D01*
X128765581Y-79930250D01*
X128770797Y-79951074D01*
X128773947Y-79972309D01*
X128775000Y-79993750D01*
X128775000Y-80431250D01*
X128773947Y-80452691D01*
X128770797Y-80473926D01*
X128765581Y-80494750D01*
X128758349Y-80514962D01*
X128749170Y-80534368D01*
X128738134Y-80552781D01*
X128725346Y-80570024D01*
X128710930Y-80585930D01*
X128695024Y-80600346D01*
X128677781Y-80613134D01*
X128659368Y-80624170D01*
X128639962Y-80633349D01*
X128619750Y-80640581D01*
X128598926Y-80645797D01*
X128577691Y-80648947D01*
X128556250Y-80650000D01*
X128043750Y-80650000D01*
X128022309Y-80648947D01*
X128001074Y-80645797D01*
X127980250Y-80640581D01*
X127960038Y-80633349D01*
X127940632Y-80624170D01*
X127922219Y-80613134D01*
X127904976Y-80600346D01*
X127889070Y-80585930D01*
X127874654Y-80570024D01*
X127861866Y-80552781D01*
X127850830Y-80534368D01*
X127841651Y-80514962D01*
X127834419Y-80494750D01*
X127829203Y-80473926D01*
X127826053Y-80452691D01*
X127825000Y-80431250D01*
X127825000Y-79993750D01*
X127826053Y-79972309D01*
X127829203Y-79951074D01*
X127834419Y-79930250D01*
X127841651Y-79910038D01*
X127850830Y-79890632D01*
X127861866Y-79872219D01*
X127874654Y-79854976D01*
X127889070Y-79839070D01*
X127904976Y-79824654D01*
X127922219Y-79811866D01*
X127940632Y-79800830D01*
X127960038Y-79791651D01*
X127980250Y-79784419D01*
X128001074Y-79779203D01*
X128022309Y-79776053D01*
X128043750Y-79775000D01*
X128556250Y-79775000D01*
X128577691Y-79776053D01*
G37*
G36*
X116477691Y-62551053D02*
G01*
X116498926Y-62554203D01*
X116519750Y-62559419D01*
X116539962Y-62566651D01*
X116559368Y-62575830D01*
X116577781Y-62586866D01*
X116595024Y-62599654D01*
X116610930Y-62614070D01*
X116625346Y-62629976D01*
X116638134Y-62647219D01*
X116649170Y-62665632D01*
X116658349Y-62685038D01*
X116665581Y-62705250D01*
X116670797Y-62726074D01*
X116673947Y-62747309D01*
X116675000Y-62768750D01*
X116675000Y-63206250D01*
X116673947Y-63227691D01*
X116670797Y-63248926D01*
X116665581Y-63269750D01*
X116658349Y-63289962D01*
X116649170Y-63309368D01*
X116638134Y-63327781D01*
X116625346Y-63345024D01*
X116610930Y-63360930D01*
X116595024Y-63375346D01*
X116577781Y-63388134D01*
X116559368Y-63399170D01*
X116539962Y-63408349D01*
X116519750Y-63415581D01*
X116498926Y-63420797D01*
X116477691Y-63423947D01*
X116456250Y-63425000D01*
X115943750Y-63425000D01*
X115922309Y-63423947D01*
X115901074Y-63420797D01*
X115880250Y-63415581D01*
X115860038Y-63408349D01*
X115840632Y-63399170D01*
X115822219Y-63388134D01*
X115804976Y-63375346D01*
X115789070Y-63360930D01*
X115774654Y-63345024D01*
X115761866Y-63327781D01*
X115750830Y-63309368D01*
X115741651Y-63289962D01*
X115734419Y-63269750D01*
X115729203Y-63248926D01*
X115726053Y-63227691D01*
X115725000Y-63206250D01*
X115725000Y-62768750D01*
X115726053Y-62747309D01*
X115729203Y-62726074D01*
X115734419Y-62705250D01*
X115741651Y-62685038D01*
X115750830Y-62665632D01*
X115761866Y-62647219D01*
X115774654Y-62629976D01*
X115789070Y-62614070D01*
X115804976Y-62599654D01*
X115822219Y-62586866D01*
X115840632Y-62575830D01*
X115860038Y-62566651D01*
X115880250Y-62559419D01*
X115901074Y-62554203D01*
X115922309Y-62551053D01*
X115943750Y-62550000D01*
X116456250Y-62550000D01*
X116477691Y-62551053D01*
G37*
G36*
X116477691Y-60976053D02*
G01*
X116498926Y-60979203D01*
X116519750Y-60984419D01*
X116539962Y-60991651D01*
X116559368Y-61000830D01*
X116577781Y-61011866D01*
X116595024Y-61024654D01*
X116610930Y-61039070D01*
X116625346Y-61054976D01*
X116638134Y-61072219D01*
X116649170Y-61090632D01*
X116658349Y-61110038D01*
X116665581Y-61130250D01*
X116670797Y-61151074D01*
X116673947Y-61172309D01*
X116675000Y-61193750D01*
X116675000Y-61631250D01*
X116673947Y-61652691D01*
X116670797Y-61673926D01*
X116665581Y-61694750D01*
X116658349Y-61714962D01*
X116649170Y-61734368D01*
X116638134Y-61752781D01*
X116625346Y-61770024D01*
X116610930Y-61785930D01*
X116595024Y-61800346D01*
X116577781Y-61813134D01*
X116559368Y-61824170D01*
X116539962Y-61833349D01*
X116519750Y-61840581D01*
X116498926Y-61845797D01*
X116477691Y-61848947D01*
X116456250Y-61850000D01*
X115943750Y-61850000D01*
X115922309Y-61848947D01*
X115901074Y-61845797D01*
X115880250Y-61840581D01*
X115860038Y-61833349D01*
X115840632Y-61824170D01*
X115822219Y-61813134D01*
X115804976Y-61800346D01*
X115789070Y-61785930D01*
X115774654Y-61770024D01*
X115761866Y-61752781D01*
X115750830Y-61734368D01*
X115741651Y-61714962D01*
X115734419Y-61694750D01*
X115729203Y-61673926D01*
X115726053Y-61652691D01*
X115725000Y-61631250D01*
X115725000Y-61193750D01*
X115726053Y-61172309D01*
X115729203Y-61151074D01*
X115734419Y-61130250D01*
X115741651Y-61110038D01*
X115750830Y-61090632D01*
X115761866Y-61072219D01*
X115774654Y-61054976D01*
X115789070Y-61039070D01*
X115804976Y-61024654D01*
X115822219Y-61011866D01*
X115840632Y-61000830D01*
X115860038Y-60991651D01*
X115880250Y-60984419D01*
X115901074Y-60979203D01*
X115922309Y-60976053D01*
X115943750Y-60975000D01*
X116456250Y-60975000D01*
X116477691Y-60976053D01*
G37*
G36*
X116277691Y-56551053D02*
G01*
X116298926Y-56554203D01*
X116319750Y-56559419D01*
X116339962Y-56566651D01*
X116359368Y-56575830D01*
X116377781Y-56586866D01*
X116395024Y-56599654D01*
X116410930Y-56614070D01*
X116425346Y-56629976D01*
X116438134Y-56647219D01*
X116449170Y-56665632D01*
X116458349Y-56685038D01*
X116465581Y-56705250D01*
X116470797Y-56726074D01*
X116473947Y-56747309D01*
X116475000Y-56768750D01*
X116475000Y-57206250D01*
X116473947Y-57227691D01*
X116470797Y-57248926D01*
X116465581Y-57269750D01*
X116458349Y-57289962D01*
X116449170Y-57309368D01*
X116438134Y-57327781D01*
X116425346Y-57345024D01*
X116410930Y-57360930D01*
X116395024Y-57375346D01*
X116377781Y-57388134D01*
X116359368Y-57399170D01*
X116339962Y-57408349D01*
X116319750Y-57415581D01*
X116298926Y-57420797D01*
X116277691Y-57423947D01*
X116256250Y-57425000D01*
X115743750Y-57425000D01*
X115722309Y-57423947D01*
X115701074Y-57420797D01*
X115680250Y-57415581D01*
X115660038Y-57408349D01*
X115640632Y-57399170D01*
X115622219Y-57388134D01*
X115604976Y-57375346D01*
X115589070Y-57360930D01*
X115574654Y-57345024D01*
X115561866Y-57327781D01*
X115550830Y-57309368D01*
X115541651Y-57289962D01*
X115534419Y-57269750D01*
X115529203Y-57248926D01*
X115526053Y-57227691D01*
X115525000Y-57206250D01*
X115525000Y-56768750D01*
X115526053Y-56747309D01*
X115529203Y-56726074D01*
X115534419Y-56705250D01*
X115541651Y-56685038D01*
X115550830Y-56665632D01*
X115561866Y-56647219D01*
X115574654Y-56629976D01*
X115589070Y-56614070D01*
X115604976Y-56599654D01*
X115622219Y-56586866D01*
X115640632Y-56575830D01*
X115660038Y-56566651D01*
X115680250Y-56559419D01*
X115701074Y-56554203D01*
X115722309Y-56551053D01*
X115743750Y-56550000D01*
X116256250Y-56550000D01*
X116277691Y-56551053D01*
G37*
G36*
X116277691Y-54976053D02*
G01*
X116298926Y-54979203D01*
X116319750Y-54984419D01*
X116339962Y-54991651D01*
X116359368Y-55000830D01*
X116377781Y-55011866D01*
X116395024Y-55024654D01*
X116410930Y-55039070D01*
X116425346Y-55054976D01*
X116438134Y-55072219D01*
X116449170Y-55090632D01*
X116458349Y-55110038D01*
X116465581Y-55130250D01*
X116470797Y-55151074D01*
X116473947Y-55172309D01*
X116475000Y-55193750D01*
X116475000Y-55631250D01*
X116473947Y-55652691D01*
X116470797Y-55673926D01*
X116465581Y-55694750D01*
X116458349Y-55714962D01*
X116449170Y-55734368D01*
X116438134Y-55752781D01*
X116425346Y-55770024D01*
X116410930Y-55785930D01*
X116395024Y-55800346D01*
X116377781Y-55813134D01*
X116359368Y-55824170D01*
X116339962Y-55833349D01*
X116319750Y-55840581D01*
X116298926Y-55845797D01*
X116277691Y-55848947D01*
X116256250Y-55850000D01*
X115743750Y-55850000D01*
X115722309Y-55848947D01*
X115701074Y-55845797D01*
X115680250Y-55840581D01*
X115660038Y-55833349D01*
X115640632Y-55824170D01*
X115622219Y-55813134D01*
X115604976Y-55800346D01*
X115589070Y-55785930D01*
X115574654Y-55770024D01*
X115561866Y-55752781D01*
X115550830Y-55734368D01*
X115541651Y-55714962D01*
X115534419Y-55694750D01*
X115529203Y-55673926D01*
X115526053Y-55652691D01*
X115525000Y-55631250D01*
X115525000Y-55193750D01*
X115526053Y-55172309D01*
X115529203Y-55151074D01*
X115534419Y-55130250D01*
X115541651Y-55110038D01*
X115550830Y-55090632D01*
X115561866Y-55072219D01*
X115574654Y-55054976D01*
X115589070Y-55039070D01*
X115604976Y-55024654D01*
X115622219Y-55011866D01*
X115640632Y-55000830D01*
X115660038Y-54991651D01*
X115680250Y-54984419D01*
X115701074Y-54979203D01*
X115722309Y-54976053D01*
X115743750Y-54975000D01*
X116256250Y-54975000D01*
X116277691Y-54976053D01*
G37*
G36*
X125677691Y-56538553D02*
G01*
X125698926Y-56541703D01*
X125719750Y-56546919D01*
X125739962Y-56554151D01*
X125759368Y-56563330D01*
X125777781Y-56574366D01*
X125795024Y-56587154D01*
X125810930Y-56601570D01*
X125825346Y-56617476D01*
X125838134Y-56634719D01*
X125849170Y-56653132D01*
X125858349Y-56672538D01*
X125865581Y-56692750D01*
X125870797Y-56713574D01*
X125873947Y-56734809D01*
X125875000Y-56756250D01*
X125875000Y-57193750D01*
X125873947Y-57215191D01*
X125870797Y-57236426D01*
X125865581Y-57257250D01*
X125858349Y-57277462D01*
X125849170Y-57296868D01*
X125838134Y-57315281D01*
X125825346Y-57332524D01*
X125810930Y-57348430D01*
X125795024Y-57362846D01*
X125777781Y-57375634D01*
X125759368Y-57386670D01*
X125739962Y-57395849D01*
X125719750Y-57403081D01*
X125698926Y-57408297D01*
X125677691Y-57411447D01*
X125656250Y-57412500D01*
X125143750Y-57412500D01*
X125122309Y-57411447D01*
X125101074Y-57408297D01*
X125080250Y-57403081D01*
X125060038Y-57395849D01*
X125040632Y-57386670D01*
X125022219Y-57375634D01*
X125004976Y-57362846D01*
X124989070Y-57348430D01*
X124974654Y-57332524D01*
X124961866Y-57315281D01*
X124950830Y-57296868D01*
X124941651Y-57277462D01*
X124934419Y-57257250D01*
X124929203Y-57236426D01*
X124926053Y-57215191D01*
X124925000Y-57193750D01*
X124925000Y-56756250D01*
X124926053Y-56734809D01*
X124929203Y-56713574D01*
X124934419Y-56692750D01*
X124941651Y-56672538D01*
X124950830Y-56653132D01*
X124961866Y-56634719D01*
X124974654Y-56617476D01*
X124989070Y-56601570D01*
X125004976Y-56587154D01*
X125022219Y-56574366D01*
X125040632Y-56563330D01*
X125060038Y-56554151D01*
X125080250Y-56546919D01*
X125101074Y-56541703D01*
X125122309Y-56538553D01*
X125143750Y-56537500D01*
X125656250Y-56537500D01*
X125677691Y-56538553D01*
G37*
G36*
X125677691Y-54963553D02*
G01*
X125698926Y-54966703D01*
X125719750Y-54971919D01*
X125739962Y-54979151D01*
X125759368Y-54988330D01*
X125777781Y-54999366D01*
X125795024Y-55012154D01*
X125810930Y-55026570D01*
X125825346Y-55042476D01*
X125838134Y-55059719D01*
X125849170Y-55078132D01*
X125858349Y-55097538D01*
X125865581Y-55117750D01*
X125870797Y-55138574D01*
X125873947Y-55159809D01*
X125875000Y-55181250D01*
X125875000Y-55618750D01*
X125873947Y-55640191D01*
X125870797Y-55661426D01*
X125865581Y-55682250D01*
X125858349Y-55702462D01*
X125849170Y-55721868D01*
X125838134Y-55740281D01*
X125825346Y-55757524D01*
X125810930Y-55773430D01*
X125795024Y-55787846D01*
X125777781Y-55800634D01*
X125759368Y-55811670D01*
X125739962Y-55820849D01*
X125719750Y-55828081D01*
X125698926Y-55833297D01*
X125677691Y-55836447D01*
X125656250Y-55837500D01*
X125143750Y-55837500D01*
X125122309Y-55836447D01*
X125101074Y-55833297D01*
X125080250Y-55828081D01*
X125060038Y-55820849D01*
X125040632Y-55811670D01*
X125022219Y-55800634D01*
X125004976Y-55787846D01*
X124989070Y-55773430D01*
X124974654Y-55757524D01*
X124961866Y-55740281D01*
X124950830Y-55721868D01*
X124941651Y-55702462D01*
X124934419Y-55682250D01*
X124929203Y-55661426D01*
X124926053Y-55640191D01*
X124925000Y-55618750D01*
X124925000Y-55181250D01*
X124926053Y-55159809D01*
X124929203Y-55138574D01*
X124934419Y-55117750D01*
X124941651Y-55097538D01*
X124950830Y-55078132D01*
X124961866Y-55059719D01*
X124974654Y-55042476D01*
X124989070Y-55026570D01*
X125004976Y-55012154D01*
X125022219Y-54999366D01*
X125040632Y-54988330D01*
X125060038Y-54979151D01*
X125080250Y-54971919D01*
X125101074Y-54966703D01*
X125122309Y-54963553D01*
X125143750Y-54962500D01*
X125656250Y-54962500D01*
X125677691Y-54963553D01*
G37*
G36*
X123307691Y-66576053D02*
G01*
X123328926Y-66579203D01*
X123349750Y-66584419D01*
X123369962Y-66591651D01*
X123389368Y-66600830D01*
X123407781Y-66611866D01*
X123425024Y-66624654D01*
X123440930Y-66639070D01*
X123455346Y-66654976D01*
X123468134Y-66672219D01*
X123479170Y-66690632D01*
X123488349Y-66710038D01*
X123495581Y-66730250D01*
X123500797Y-66751074D01*
X123503947Y-66772309D01*
X123505000Y-66793750D01*
X123505000Y-67306250D01*
X123503947Y-67327691D01*
X123500797Y-67348926D01*
X123495581Y-67369750D01*
X123488349Y-67389962D01*
X123479170Y-67409368D01*
X123468134Y-67427781D01*
X123455346Y-67445024D01*
X123440930Y-67460930D01*
X123425024Y-67475346D01*
X123407781Y-67488134D01*
X123389368Y-67499170D01*
X123369962Y-67508349D01*
X123349750Y-67515581D01*
X123328926Y-67520797D01*
X123307691Y-67523947D01*
X123286250Y-67525000D01*
X122848750Y-67525000D01*
X122827309Y-67523947D01*
X122806074Y-67520797D01*
X122785250Y-67515581D01*
X122765038Y-67508349D01*
X122745632Y-67499170D01*
X122727219Y-67488134D01*
X122709976Y-67475346D01*
X122694070Y-67460930D01*
X122679654Y-67445024D01*
X122666866Y-67427781D01*
X122655830Y-67409368D01*
X122646651Y-67389962D01*
X122639419Y-67369750D01*
X122634203Y-67348926D01*
X122631053Y-67327691D01*
X122630000Y-67306250D01*
X122630000Y-66793750D01*
X122631053Y-66772309D01*
X122634203Y-66751074D01*
X122639419Y-66730250D01*
X122646651Y-66710038D01*
X122655830Y-66690632D01*
X122666866Y-66672219D01*
X122679654Y-66654976D01*
X122694070Y-66639070D01*
X122709976Y-66624654D01*
X122727219Y-66611866D01*
X122745632Y-66600830D01*
X122765038Y-66591651D01*
X122785250Y-66584419D01*
X122806074Y-66579203D01*
X122827309Y-66576053D01*
X122848750Y-66575000D01*
X123286250Y-66575000D01*
X123307691Y-66576053D01*
G37*
G36*
X121732691Y-66576053D02*
G01*
X121753926Y-66579203D01*
X121774750Y-66584419D01*
X121794962Y-66591651D01*
X121814368Y-66600830D01*
X121832781Y-66611866D01*
X121850024Y-66624654D01*
X121865930Y-66639070D01*
X121880346Y-66654976D01*
X121893134Y-66672219D01*
X121904170Y-66690632D01*
X121913349Y-66710038D01*
X121920581Y-66730250D01*
X121925797Y-66751074D01*
X121928947Y-66772309D01*
X121930000Y-66793750D01*
X121930000Y-67306250D01*
X121928947Y-67327691D01*
X121925797Y-67348926D01*
X121920581Y-67369750D01*
X121913349Y-67389962D01*
X121904170Y-67409368D01*
X121893134Y-67427781D01*
X121880346Y-67445024D01*
X121865930Y-67460930D01*
X121850024Y-67475346D01*
X121832781Y-67488134D01*
X121814368Y-67499170D01*
X121794962Y-67508349D01*
X121774750Y-67515581D01*
X121753926Y-67520797D01*
X121732691Y-67523947D01*
X121711250Y-67525000D01*
X121273750Y-67525000D01*
X121252309Y-67523947D01*
X121231074Y-67520797D01*
X121210250Y-67515581D01*
X121190038Y-67508349D01*
X121170632Y-67499170D01*
X121152219Y-67488134D01*
X121134976Y-67475346D01*
X121119070Y-67460930D01*
X121104654Y-67445024D01*
X121091866Y-67427781D01*
X121080830Y-67409368D01*
X121071651Y-67389962D01*
X121064419Y-67369750D01*
X121059203Y-67348926D01*
X121056053Y-67327691D01*
X121055000Y-67306250D01*
X121055000Y-66793750D01*
X121056053Y-66772309D01*
X121059203Y-66751074D01*
X121064419Y-66730250D01*
X121071651Y-66710038D01*
X121080830Y-66690632D01*
X121091866Y-66672219D01*
X121104654Y-66654976D01*
X121119070Y-66639070D01*
X121134976Y-66624654D01*
X121152219Y-66611866D01*
X121170632Y-66600830D01*
X121190038Y-66591651D01*
X121210250Y-66584419D01*
X121231074Y-66579203D01*
X121252309Y-66576053D01*
X121273750Y-66575000D01*
X121711250Y-66575000D01*
X121732691Y-66576053D01*
G37*
G36*
X118186691Y-72521053D02*
G01*
X118207926Y-72524203D01*
X118228750Y-72529419D01*
X118248962Y-72536651D01*
X118268368Y-72545830D01*
X118286781Y-72556866D01*
X118304024Y-72569654D01*
X118319930Y-72584070D01*
X118334346Y-72599976D01*
X118347134Y-72617219D01*
X118358170Y-72635632D01*
X118367349Y-72655038D01*
X118374581Y-72675250D01*
X118379797Y-72696074D01*
X118382947Y-72717309D01*
X118384000Y-72738750D01*
X118384000Y-73251250D01*
X118382947Y-73272691D01*
X118379797Y-73293926D01*
X118374581Y-73314750D01*
X118367349Y-73334962D01*
X118358170Y-73354368D01*
X118347134Y-73372781D01*
X118334346Y-73390024D01*
X118319930Y-73405930D01*
X118304024Y-73420346D01*
X118286781Y-73433134D01*
X118268368Y-73444170D01*
X118248962Y-73453349D01*
X118228750Y-73460581D01*
X118207926Y-73465797D01*
X118186691Y-73468947D01*
X118165250Y-73470000D01*
X117727750Y-73470000D01*
X117706309Y-73468947D01*
X117685074Y-73465797D01*
X117664250Y-73460581D01*
X117644038Y-73453349D01*
X117624632Y-73444170D01*
X117606219Y-73433134D01*
X117588976Y-73420346D01*
X117573070Y-73405930D01*
X117558654Y-73390024D01*
X117545866Y-73372781D01*
X117534830Y-73354368D01*
X117525651Y-73334962D01*
X117518419Y-73314750D01*
X117513203Y-73293926D01*
X117510053Y-73272691D01*
X117509000Y-73251250D01*
X117509000Y-72738750D01*
X117510053Y-72717309D01*
X117513203Y-72696074D01*
X117518419Y-72675250D01*
X117525651Y-72655038D01*
X117534830Y-72635632D01*
X117545866Y-72617219D01*
X117558654Y-72599976D01*
X117573070Y-72584070D01*
X117588976Y-72569654D01*
X117606219Y-72556866D01*
X117624632Y-72545830D01*
X117644038Y-72536651D01*
X117664250Y-72529419D01*
X117685074Y-72524203D01*
X117706309Y-72521053D01*
X117727750Y-72520000D01*
X118165250Y-72520000D01*
X118186691Y-72521053D01*
G37*
G36*
X119761691Y-72521053D02*
G01*
X119782926Y-72524203D01*
X119803750Y-72529419D01*
X119823962Y-72536651D01*
X119843368Y-72545830D01*
X119861781Y-72556866D01*
X119879024Y-72569654D01*
X119894930Y-72584070D01*
X119909346Y-72599976D01*
X119922134Y-72617219D01*
X119933170Y-72635632D01*
X119942349Y-72655038D01*
X119949581Y-72675250D01*
X119954797Y-72696074D01*
X119957947Y-72717309D01*
X119959000Y-72738750D01*
X119959000Y-73251250D01*
X119957947Y-73272691D01*
X119954797Y-73293926D01*
X119949581Y-73314750D01*
X119942349Y-73334962D01*
X119933170Y-73354368D01*
X119922134Y-73372781D01*
X119909346Y-73390024D01*
X119894930Y-73405930D01*
X119879024Y-73420346D01*
X119861781Y-73433134D01*
X119843368Y-73444170D01*
X119823962Y-73453349D01*
X119803750Y-73460581D01*
X119782926Y-73465797D01*
X119761691Y-73468947D01*
X119740250Y-73470000D01*
X119302750Y-73470000D01*
X119281309Y-73468947D01*
X119260074Y-73465797D01*
X119239250Y-73460581D01*
X119219038Y-73453349D01*
X119199632Y-73444170D01*
X119181219Y-73433134D01*
X119163976Y-73420346D01*
X119148070Y-73405930D01*
X119133654Y-73390024D01*
X119120866Y-73372781D01*
X119109830Y-73354368D01*
X119100651Y-73334962D01*
X119093419Y-73314750D01*
X119088203Y-73293926D01*
X119085053Y-73272691D01*
X119084000Y-73251250D01*
X119084000Y-72738750D01*
X119085053Y-72717309D01*
X119088203Y-72696074D01*
X119093419Y-72675250D01*
X119100651Y-72655038D01*
X119109830Y-72635632D01*
X119120866Y-72617219D01*
X119133654Y-72599976D01*
X119148070Y-72584070D01*
X119163976Y-72569654D01*
X119181219Y-72556866D01*
X119199632Y-72545830D01*
X119219038Y-72536651D01*
X119239250Y-72529419D01*
X119260074Y-72524203D01*
X119281309Y-72521053D01*
X119302750Y-72520000D01*
X119740250Y-72520000D01*
X119761691Y-72521053D01*
G37*
G36*
X120586691Y-78516053D02*
G01*
X120607926Y-78519203D01*
X120628750Y-78524419D01*
X120648962Y-78531651D01*
X120668368Y-78540830D01*
X120686781Y-78551866D01*
X120704024Y-78564654D01*
X120719930Y-78579070D01*
X120734346Y-78594976D01*
X120747134Y-78612219D01*
X120758170Y-78630632D01*
X120767349Y-78650038D01*
X120774581Y-78670250D01*
X120779797Y-78691074D01*
X120782947Y-78712309D01*
X120784000Y-78733750D01*
X120784000Y-79246250D01*
X120782947Y-79267691D01*
X120779797Y-79288926D01*
X120774581Y-79309750D01*
X120767349Y-79329962D01*
X120758170Y-79349368D01*
X120747134Y-79367781D01*
X120734346Y-79385024D01*
X120719930Y-79400930D01*
X120704024Y-79415346D01*
X120686781Y-79428134D01*
X120668368Y-79439170D01*
X120648962Y-79448349D01*
X120628750Y-79455581D01*
X120607926Y-79460797D01*
X120586691Y-79463947D01*
X120565250Y-79465000D01*
X120127750Y-79465000D01*
X120106309Y-79463947D01*
X120085074Y-79460797D01*
X120064250Y-79455581D01*
X120044038Y-79448349D01*
X120024632Y-79439170D01*
X120006219Y-79428134D01*
X119988976Y-79415346D01*
X119973070Y-79400930D01*
X119958654Y-79385024D01*
X119945866Y-79367781D01*
X119934830Y-79349368D01*
X119925651Y-79329962D01*
X119918419Y-79309750D01*
X119913203Y-79288926D01*
X119910053Y-79267691D01*
X119909000Y-79246250D01*
X119909000Y-78733750D01*
X119910053Y-78712309D01*
X119913203Y-78691074D01*
X119918419Y-78670250D01*
X119925651Y-78650038D01*
X119934830Y-78630632D01*
X119945866Y-78612219D01*
X119958654Y-78594976D01*
X119973070Y-78579070D01*
X119988976Y-78564654D01*
X120006219Y-78551866D01*
X120024632Y-78540830D01*
X120044038Y-78531651D01*
X120064250Y-78524419D01*
X120085074Y-78519203D01*
X120106309Y-78516053D01*
X120127750Y-78515000D01*
X120565250Y-78515000D01*
X120586691Y-78516053D01*
G37*
G36*
X122161691Y-78516053D02*
G01*
X122182926Y-78519203D01*
X122203750Y-78524419D01*
X122223962Y-78531651D01*
X122243368Y-78540830D01*
X122261781Y-78551866D01*
X122279024Y-78564654D01*
X122294930Y-78579070D01*
X122309346Y-78594976D01*
X122322134Y-78612219D01*
X122333170Y-78630632D01*
X122342349Y-78650038D01*
X122349581Y-78670250D01*
X122354797Y-78691074D01*
X122357947Y-78712309D01*
X122359000Y-78733750D01*
X122359000Y-79246250D01*
X122357947Y-79267691D01*
X122354797Y-79288926D01*
X122349581Y-79309750D01*
X122342349Y-79329962D01*
X122333170Y-79349368D01*
X122322134Y-79367781D01*
X122309346Y-79385024D01*
X122294930Y-79400930D01*
X122279024Y-79415346D01*
X122261781Y-79428134D01*
X122243368Y-79439170D01*
X122223962Y-79448349D01*
X122203750Y-79455581D01*
X122182926Y-79460797D01*
X122161691Y-79463947D01*
X122140250Y-79465000D01*
X121702750Y-79465000D01*
X121681309Y-79463947D01*
X121660074Y-79460797D01*
X121639250Y-79455581D01*
X121619038Y-79448349D01*
X121599632Y-79439170D01*
X121581219Y-79428134D01*
X121563976Y-79415346D01*
X121548070Y-79400930D01*
X121533654Y-79385024D01*
X121520866Y-79367781D01*
X121509830Y-79349368D01*
X121500651Y-79329962D01*
X121493419Y-79309750D01*
X121488203Y-79288926D01*
X121485053Y-79267691D01*
X121484000Y-79246250D01*
X121484000Y-78733750D01*
X121485053Y-78712309D01*
X121488203Y-78691074D01*
X121493419Y-78670250D01*
X121500651Y-78650038D01*
X121509830Y-78630632D01*
X121520866Y-78612219D01*
X121533654Y-78594976D01*
X121548070Y-78579070D01*
X121563976Y-78564654D01*
X121581219Y-78551866D01*
X121599632Y-78540830D01*
X121619038Y-78531651D01*
X121639250Y-78524419D01*
X121660074Y-78519203D01*
X121681309Y-78516053D01*
X121702750Y-78515000D01*
X122140250Y-78515000D01*
X122161691Y-78516053D01*
G37*
G36*
X130486691Y-79646053D02*
G01*
X130507926Y-79649203D01*
X130528750Y-79654419D01*
X130548962Y-79661651D01*
X130568368Y-79670830D01*
X130586781Y-79681866D01*
X130604024Y-79694654D01*
X130619930Y-79709070D01*
X130634346Y-79724976D01*
X130647134Y-79742219D01*
X130658170Y-79760632D01*
X130667349Y-79780038D01*
X130674581Y-79800250D01*
X130679797Y-79821074D01*
X130682947Y-79842309D01*
X130684000Y-79863750D01*
X130684000Y-80376250D01*
X130682947Y-80397691D01*
X130679797Y-80418926D01*
X130674581Y-80439750D01*
X130667349Y-80459962D01*
X130658170Y-80479368D01*
X130647134Y-80497781D01*
X130634346Y-80515024D01*
X130619930Y-80530930D01*
X130604024Y-80545346D01*
X130586781Y-80558134D01*
X130568368Y-80569170D01*
X130548962Y-80578349D01*
X130528750Y-80585581D01*
X130507926Y-80590797D01*
X130486691Y-80593947D01*
X130465250Y-80595000D01*
X130027750Y-80595000D01*
X130006309Y-80593947D01*
X129985074Y-80590797D01*
X129964250Y-80585581D01*
X129944038Y-80578349D01*
X129924632Y-80569170D01*
X129906219Y-80558134D01*
X129888976Y-80545346D01*
X129873070Y-80530930D01*
X129858654Y-80515024D01*
X129845866Y-80497781D01*
X129834830Y-80479368D01*
X129825651Y-80459962D01*
X129818419Y-80439750D01*
X129813203Y-80418926D01*
X129810053Y-80397691D01*
X129809000Y-80376250D01*
X129809000Y-79863750D01*
X129810053Y-79842309D01*
X129813203Y-79821074D01*
X129818419Y-79800250D01*
X129825651Y-79780038D01*
X129834830Y-79760632D01*
X129845866Y-79742219D01*
X129858654Y-79724976D01*
X129873070Y-79709070D01*
X129888976Y-79694654D01*
X129906219Y-79681866D01*
X129924632Y-79670830D01*
X129944038Y-79661651D01*
X129964250Y-79654419D01*
X129985074Y-79649203D01*
X130006309Y-79646053D01*
X130027750Y-79645000D01*
X130465250Y-79645000D01*
X130486691Y-79646053D01*
G37*
G36*
X132061691Y-79646053D02*
G01*
X132082926Y-79649203D01*
X132103750Y-79654419D01*
X132123962Y-79661651D01*
X132143368Y-79670830D01*
X132161781Y-79681866D01*
X132179024Y-79694654D01*
X132194930Y-79709070D01*
X132209346Y-79724976D01*
X132222134Y-79742219D01*
X132233170Y-79760632D01*
X132242349Y-79780038D01*
X132249581Y-79800250D01*
X132254797Y-79821074D01*
X132257947Y-79842309D01*
X132259000Y-79863750D01*
X132259000Y-80376250D01*
X132257947Y-80397691D01*
X132254797Y-80418926D01*
X132249581Y-80439750D01*
X132242349Y-80459962D01*
X132233170Y-80479368D01*
X132222134Y-80497781D01*
X132209346Y-80515024D01*
X132194930Y-80530930D01*
X132179024Y-80545346D01*
X132161781Y-80558134D01*
X132143368Y-80569170D01*
X132123962Y-80578349D01*
X132103750Y-80585581D01*
X132082926Y-80590797D01*
X132061691Y-80593947D01*
X132040250Y-80595000D01*
X131602750Y-80595000D01*
X131581309Y-80593947D01*
X131560074Y-80590797D01*
X131539250Y-80585581D01*
X131519038Y-80578349D01*
X131499632Y-80569170D01*
X131481219Y-80558134D01*
X131463976Y-80545346D01*
X131448070Y-80530930D01*
X131433654Y-80515024D01*
X131420866Y-80497781D01*
X131409830Y-80479368D01*
X131400651Y-80459962D01*
X131393419Y-80439750D01*
X131388203Y-80418926D01*
X131385053Y-80397691D01*
X131384000Y-80376250D01*
X131384000Y-79863750D01*
X131385053Y-79842309D01*
X131388203Y-79821074D01*
X131393419Y-79800250D01*
X131400651Y-79780038D01*
X131409830Y-79760632D01*
X131420866Y-79742219D01*
X131433654Y-79724976D01*
X131448070Y-79709070D01*
X131463976Y-79694654D01*
X131481219Y-79681866D01*
X131499632Y-79670830D01*
X131519038Y-79661651D01*
X131539250Y-79654419D01*
X131560074Y-79649203D01*
X131581309Y-79646053D01*
X131602750Y-79645000D01*
X132040250Y-79645000D01*
X132061691Y-79646053D01*
G37*
G36*
X118287691Y-60821053D02*
G01*
X118308926Y-60824203D01*
X118329750Y-60829419D01*
X118349962Y-60836651D01*
X118369368Y-60845830D01*
X118387781Y-60856866D01*
X118405024Y-60869654D01*
X118420930Y-60884070D01*
X118435346Y-60899976D01*
X118448134Y-60917219D01*
X118459170Y-60935632D01*
X118468349Y-60955038D01*
X118475581Y-60975250D01*
X118480797Y-60996074D01*
X118483947Y-61017309D01*
X118485000Y-61038750D01*
X118485000Y-61551250D01*
X118483947Y-61572691D01*
X118480797Y-61593926D01*
X118475581Y-61614750D01*
X118468349Y-61634962D01*
X118459170Y-61654368D01*
X118448134Y-61672781D01*
X118435346Y-61690024D01*
X118420930Y-61705930D01*
X118405024Y-61720346D01*
X118387781Y-61733134D01*
X118369368Y-61744170D01*
X118349962Y-61753349D01*
X118329750Y-61760581D01*
X118308926Y-61765797D01*
X118287691Y-61768947D01*
X118266250Y-61770000D01*
X117828750Y-61770000D01*
X117807309Y-61768947D01*
X117786074Y-61765797D01*
X117765250Y-61760581D01*
X117745038Y-61753349D01*
X117725632Y-61744170D01*
X117707219Y-61733134D01*
X117689976Y-61720346D01*
X117674070Y-61705930D01*
X117659654Y-61690024D01*
X117646866Y-61672781D01*
X117635830Y-61654368D01*
X117626651Y-61634962D01*
X117619419Y-61614750D01*
X117614203Y-61593926D01*
X117611053Y-61572691D01*
X117610000Y-61551250D01*
X117610000Y-61038750D01*
X117611053Y-61017309D01*
X117614203Y-60996074D01*
X117619419Y-60975250D01*
X117626651Y-60955038D01*
X117635830Y-60935632D01*
X117646866Y-60917219D01*
X117659654Y-60899976D01*
X117674070Y-60884070D01*
X117689976Y-60869654D01*
X117707219Y-60856866D01*
X117725632Y-60845830D01*
X117745038Y-60836651D01*
X117765250Y-60829419D01*
X117786074Y-60824203D01*
X117807309Y-60821053D01*
X117828750Y-60820000D01*
X118266250Y-60820000D01*
X118287691Y-60821053D01*
G37*
G36*
X119862691Y-60821053D02*
G01*
X119883926Y-60824203D01*
X119904750Y-60829419D01*
X119924962Y-60836651D01*
X119944368Y-60845830D01*
X119962781Y-60856866D01*
X119980024Y-60869654D01*
X119995930Y-60884070D01*
X120010346Y-60899976D01*
X120023134Y-60917219D01*
X120034170Y-60935632D01*
X120043349Y-60955038D01*
X120050581Y-60975250D01*
X120055797Y-60996074D01*
X120058947Y-61017309D01*
X120060000Y-61038750D01*
X120060000Y-61551250D01*
X120058947Y-61572691D01*
X120055797Y-61593926D01*
X120050581Y-61614750D01*
X120043349Y-61634962D01*
X120034170Y-61654368D01*
X120023134Y-61672781D01*
X120010346Y-61690024D01*
X119995930Y-61705930D01*
X119980024Y-61720346D01*
X119962781Y-61733134D01*
X119944368Y-61744170D01*
X119924962Y-61753349D01*
X119904750Y-61760581D01*
X119883926Y-61765797D01*
X119862691Y-61768947D01*
X119841250Y-61770000D01*
X119403750Y-61770000D01*
X119382309Y-61768947D01*
X119361074Y-61765797D01*
X119340250Y-61760581D01*
X119320038Y-61753349D01*
X119300632Y-61744170D01*
X119282219Y-61733134D01*
X119264976Y-61720346D01*
X119249070Y-61705930D01*
X119234654Y-61690024D01*
X119221866Y-61672781D01*
X119210830Y-61654368D01*
X119201651Y-61634962D01*
X119194419Y-61614750D01*
X119189203Y-61593926D01*
X119186053Y-61572691D01*
X119185000Y-61551250D01*
X119185000Y-61038750D01*
X119186053Y-61017309D01*
X119189203Y-60996074D01*
X119194419Y-60975250D01*
X119201651Y-60955038D01*
X119210830Y-60935632D01*
X119221866Y-60917219D01*
X119234654Y-60899976D01*
X119249070Y-60884070D01*
X119264976Y-60869654D01*
X119282219Y-60856866D01*
X119300632Y-60845830D01*
X119320038Y-60836651D01*
X119340250Y-60829419D01*
X119361074Y-60824203D01*
X119382309Y-60821053D01*
X119403750Y-60820000D01*
X119841250Y-60820000D01*
X119862691Y-60821053D01*
G37*
G36*
X118187691Y-54856053D02*
G01*
X118208926Y-54859203D01*
X118229750Y-54864419D01*
X118249962Y-54871651D01*
X118269368Y-54880830D01*
X118287781Y-54891866D01*
X118305024Y-54904654D01*
X118320930Y-54919070D01*
X118335346Y-54934976D01*
X118348134Y-54952219D01*
X118359170Y-54970632D01*
X118368349Y-54990038D01*
X118375581Y-55010250D01*
X118380797Y-55031074D01*
X118383947Y-55052309D01*
X118385000Y-55073750D01*
X118385000Y-55586250D01*
X118383947Y-55607691D01*
X118380797Y-55628926D01*
X118375581Y-55649750D01*
X118368349Y-55669962D01*
X118359170Y-55689368D01*
X118348134Y-55707781D01*
X118335346Y-55725024D01*
X118320930Y-55740930D01*
X118305024Y-55755346D01*
X118287781Y-55768134D01*
X118269368Y-55779170D01*
X118249962Y-55788349D01*
X118229750Y-55795581D01*
X118208926Y-55800797D01*
X118187691Y-55803947D01*
X118166250Y-55805000D01*
X117728750Y-55805000D01*
X117707309Y-55803947D01*
X117686074Y-55800797D01*
X117665250Y-55795581D01*
X117645038Y-55788349D01*
X117625632Y-55779170D01*
X117607219Y-55768134D01*
X117589976Y-55755346D01*
X117574070Y-55740930D01*
X117559654Y-55725024D01*
X117546866Y-55707781D01*
X117535830Y-55689368D01*
X117526651Y-55669962D01*
X117519419Y-55649750D01*
X117514203Y-55628926D01*
X117511053Y-55607691D01*
X117510000Y-55586250D01*
X117510000Y-55073750D01*
X117511053Y-55052309D01*
X117514203Y-55031074D01*
X117519419Y-55010250D01*
X117526651Y-54990038D01*
X117535830Y-54970632D01*
X117546866Y-54952219D01*
X117559654Y-54934976D01*
X117574070Y-54919070D01*
X117589976Y-54904654D01*
X117607219Y-54891866D01*
X117625632Y-54880830D01*
X117645038Y-54871651D01*
X117665250Y-54864419D01*
X117686074Y-54859203D01*
X117707309Y-54856053D01*
X117728750Y-54855000D01*
X118166250Y-54855000D01*
X118187691Y-54856053D01*
G37*
G36*
X119762691Y-54856053D02*
G01*
X119783926Y-54859203D01*
X119804750Y-54864419D01*
X119824962Y-54871651D01*
X119844368Y-54880830D01*
X119862781Y-54891866D01*
X119880024Y-54904654D01*
X119895930Y-54919070D01*
X119910346Y-54934976D01*
X119923134Y-54952219D01*
X119934170Y-54970632D01*
X119943349Y-54990038D01*
X119950581Y-55010250D01*
X119955797Y-55031074D01*
X119958947Y-55052309D01*
X119960000Y-55073750D01*
X119960000Y-55586250D01*
X119958947Y-55607691D01*
X119955797Y-55628926D01*
X119950581Y-55649750D01*
X119943349Y-55669962D01*
X119934170Y-55689368D01*
X119923134Y-55707781D01*
X119910346Y-55725024D01*
X119895930Y-55740930D01*
X119880024Y-55755346D01*
X119862781Y-55768134D01*
X119844368Y-55779170D01*
X119824962Y-55788349D01*
X119804750Y-55795581D01*
X119783926Y-55800797D01*
X119762691Y-55803947D01*
X119741250Y-55805000D01*
X119303750Y-55805000D01*
X119282309Y-55803947D01*
X119261074Y-55800797D01*
X119240250Y-55795581D01*
X119220038Y-55788349D01*
X119200632Y-55779170D01*
X119182219Y-55768134D01*
X119164976Y-55755346D01*
X119149070Y-55740930D01*
X119134654Y-55725024D01*
X119121866Y-55707781D01*
X119110830Y-55689368D01*
X119101651Y-55669962D01*
X119094419Y-55649750D01*
X119089203Y-55628926D01*
X119086053Y-55607691D01*
X119085000Y-55586250D01*
X119085000Y-55073750D01*
X119086053Y-55052309D01*
X119089203Y-55031074D01*
X119094419Y-55010250D01*
X119101651Y-54990038D01*
X119110830Y-54970632D01*
X119121866Y-54952219D01*
X119134654Y-54934976D01*
X119149070Y-54919070D01*
X119164976Y-54904654D01*
X119182219Y-54891866D01*
X119200632Y-54880830D01*
X119220038Y-54871651D01*
X119240250Y-54864419D01*
X119261074Y-54859203D01*
X119282309Y-54856053D01*
X119303750Y-54855000D01*
X119741250Y-54855000D01*
X119762691Y-54856053D01*
G37*
G36*
X127586691Y-54861053D02*
G01*
X127607926Y-54864203D01*
X127628750Y-54869419D01*
X127648962Y-54876651D01*
X127668368Y-54885830D01*
X127686781Y-54896866D01*
X127704024Y-54909654D01*
X127719930Y-54924070D01*
X127734346Y-54939976D01*
X127747134Y-54957219D01*
X127758170Y-54975632D01*
X127767349Y-54995038D01*
X127774581Y-55015250D01*
X127779797Y-55036074D01*
X127782947Y-55057309D01*
X127784000Y-55078750D01*
X127784000Y-55591250D01*
X127782947Y-55612691D01*
X127779797Y-55633926D01*
X127774581Y-55654750D01*
X127767349Y-55674962D01*
X127758170Y-55694368D01*
X127747134Y-55712781D01*
X127734346Y-55730024D01*
X127719930Y-55745930D01*
X127704024Y-55760346D01*
X127686781Y-55773134D01*
X127668368Y-55784170D01*
X127648962Y-55793349D01*
X127628750Y-55800581D01*
X127607926Y-55805797D01*
X127586691Y-55808947D01*
X127565250Y-55810000D01*
X127127750Y-55810000D01*
X127106309Y-55808947D01*
X127085074Y-55805797D01*
X127064250Y-55800581D01*
X127044038Y-55793349D01*
X127024632Y-55784170D01*
X127006219Y-55773134D01*
X126988976Y-55760346D01*
X126973070Y-55745930D01*
X126958654Y-55730024D01*
X126945866Y-55712781D01*
X126934830Y-55694368D01*
X126925651Y-55674962D01*
X126918419Y-55654750D01*
X126913203Y-55633926D01*
X126910053Y-55612691D01*
X126909000Y-55591250D01*
X126909000Y-55078750D01*
X126910053Y-55057309D01*
X126913203Y-55036074D01*
X126918419Y-55015250D01*
X126925651Y-54995038D01*
X126934830Y-54975632D01*
X126945866Y-54957219D01*
X126958654Y-54939976D01*
X126973070Y-54924070D01*
X126988976Y-54909654D01*
X127006219Y-54896866D01*
X127024632Y-54885830D01*
X127044038Y-54876651D01*
X127064250Y-54869419D01*
X127085074Y-54864203D01*
X127106309Y-54861053D01*
X127127750Y-54860000D01*
X127565250Y-54860000D01*
X127586691Y-54861053D01*
G37*
G36*
X129161691Y-54861053D02*
G01*
X129182926Y-54864203D01*
X129203750Y-54869419D01*
X129223962Y-54876651D01*
X129243368Y-54885830D01*
X129261781Y-54896866D01*
X129279024Y-54909654D01*
X129294930Y-54924070D01*
X129309346Y-54939976D01*
X129322134Y-54957219D01*
X129333170Y-54975632D01*
X129342349Y-54995038D01*
X129349581Y-55015250D01*
X129354797Y-55036074D01*
X129357947Y-55057309D01*
X129359000Y-55078750D01*
X129359000Y-55591250D01*
X129357947Y-55612691D01*
X129354797Y-55633926D01*
X129349581Y-55654750D01*
X129342349Y-55674962D01*
X129333170Y-55694368D01*
X129322134Y-55712781D01*
X129309346Y-55730024D01*
X129294930Y-55745930D01*
X129279024Y-55760346D01*
X129261781Y-55773134D01*
X129243368Y-55784170D01*
X129223962Y-55793349D01*
X129203750Y-55800581D01*
X129182926Y-55805797D01*
X129161691Y-55808947D01*
X129140250Y-55810000D01*
X128702750Y-55810000D01*
X128681309Y-55808947D01*
X128660074Y-55805797D01*
X128639250Y-55800581D01*
X128619038Y-55793349D01*
X128599632Y-55784170D01*
X128581219Y-55773134D01*
X128563976Y-55760346D01*
X128548070Y-55745930D01*
X128533654Y-55730024D01*
X128520866Y-55712781D01*
X128509830Y-55694368D01*
X128500651Y-55674962D01*
X128493419Y-55654750D01*
X128488203Y-55633926D01*
X128485053Y-55612691D01*
X128484000Y-55591250D01*
X128484000Y-55078750D01*
X128485053Y-55057309D01*
X128488203Y-55036074D01*
X128493419Y-55015250D01*
X128500651Y-54995038D01*
X128509830Y-54975632D01*
X128520866Y-54957219D01*
X128533654Y-54939976D01*
X128548070Y-54924070D01*
X128563976Y-54909654D01*
X128581219Y-54896866D01*
X128599632Y-54885830D01*
X128619038Y-54876651D01*
X128639250Y-54869419D01*
X128660074Y-54864203D01*
X128681309Y-54861053D01*
X128702750Y-54860000D01*
X129140250Y-54860000D01*
X129161691Y-54861053D01*
G37*
D15*
X106421000Y-43070000D03*
D16*
X97021000Y-43070000D03*
X99021000Y-35670000D03*
X99021000Y-47100000D03*
X97021000Y-54500000D03*
D15*
X106421000Y-54500000D03*
D16*
X99021000Y-58530000D03*
X97021000Y-65930000D03*
D15*
X106421000Y-65930000D03*
X106421000Y-101490000D03*
D16*
X97021000Y-101490000D03*
X99021000Y-94090000D03*
D15*
X106421000Y-90060000D03*
D16*
X97021000Y-90060000D03*
X99021000Y-82660000D03*
X99021000Y-71230000D03*
X97021000Y-78630000D03*
D15*
X106421000Y-78630000D03*
M02*
