M48
INCH,TZ
T1C0.0118
T2C0.0394
T3C0.0669
T4C0.1181
%
G90
G05
T1
X37402Y-14961
X37402Y-17717
X37402Y-20079
X37402Y-22835
X37402Y-25197
X37402Y-28346
X37402Y-30709
X37402Y-33071
X37402Y-35433
X37402Y-38189
X37795Y-12598
X38189Y-17697
X38189Y-22205
X38189Y-26693
X38189Y-31713
X38189Y-36201
X38189Y-40689
X39764Y-41732
X40157Y-12402
X40945Y-16142
X40945Y-17717
X40945Y-20866
X40945Y-22441
X40945Y-25984
X40945Y-30315
X40945Y-31890
X40945Y-35433
X40945Y-40157
X42126Y-36614
X42126Y-38976
X42520Y-34252
X42520Y-40945
X42717Y-12402
X42913Y-20866
X42913Y-22047
X42913Y-25591
X42913Y-26378
X42913Y-31496
X42913Y-41732
X43307Y-30315
X43701Y-16535
X43701Y-17323
X43701Y-35039
X43701Y-39370
X44488Y-25591
X44488Y-26378
X44488Y-31496
X44882Y-21654
X44882Y-36220
X44882Y-40551
X45020Y-26378
X45020Y-27087
X45276Y-12402
X45276Y-29921
X45276Y-41732
X45669Y-34252
X46063Y-16535
X46063Y-21260
X46063Y-21791
X46063Y-28740
X46063Y-30709
X46063Y-32677
X46122Y-24134
X46457Y-23228
X46457Y-39370
X46850Y-34646
X46850Y-40157
X47008Y-31102
X47244Y-18110
X47244Y-32677
X47500Y-21791
X47500Y-22480
X47500Y-24134
X47500Y-24823
X47500Y-28780
X47500Y-29429
X47638Y-12402
X48031Y-21260
X48031Y-27953
X48031Y-37795
X48425Y-17717
X48425Y-20079
X48445Y-31102
X48445Y-31791
X48819Y-26398
X48819Y-27106
X48819Y-38189
X48819Y-41732
X49016Y-39764
X49213Y-14173
X49213Y-18898
X49213Y-23228
X49213Y-29921
X49449Y-28780
X49606Y-20472
X49606Y-25591
X49606Y-36220
X49764Y-21772
X50000Y-32677
X50000Y-34252
X50276Y-28150
X50394Y-24016
X50394Y-36614
X50787Y-14173
X50906Y-31535
X50984Y-12402
X50984Y-40551
X51181Y-32677
X51402Y-30394
X51437Y-23602
X51437Y-24094
X51496Y-25886
X51496Y-27244
X51575Y-21260
X51575Y-22047
X51575Y-34252
X51693Y-29024
X51969Y-33071
X51969Y-41732
X51988Y-28228
X52740Y-30386
X52756Y-21260
X52756Y-22047
X52756Y-23622
X52756Y-31890
X52756Y-32677
X52756Y-34252
X52854Y-25886
X52854Y-27244
X53150Y-35433
X53346Y-12402
X53547Y-29307
X53870Y-29677
X53937Y-36811
X54307Y-29331
X54528Y-37598
X54724Y-34646
X55118Y-35827
X55118Y-41732
X55512Y-21260
X55512Y-22047
X55512Y-23622
X55512Y-25197
X55512Y-27559
X55512Y-28346
X55512Y-29528
X55512Y-30709
X55512Y-31890
X55512Y-32677
X55709Y-12402
X55906Y-35433
X56496Y-38189
X57087Y-36614
X57480Y-39173
X57874Y-21260
X57874Y-22047
X57874Y-23622
X57874Y-25197
X57874Y-27559
X57874Y-28346
X57874Y-29528
X57874Y-30709
X57874Y-31890
X57874Y-32677
X57874Y-41732
X58071Y-12402
X58268Y-37992
X60236Y-21260
X60236Y-22047
X60236Y-23622
X60236Y-25197
X60236Y-27559
X60236Y-28346
X60236Y-29528
X60236Y-30709
X60236Y-31890
X60236Y-32677
X60433Y-40945
X60630Y-12402
X60630Y-41732
X60827Y-14370
X61024Y-39567
X62402Y-12795
X62598Y-14764
X62598Y-17913
X62598Y-19685
X62598Y-21260
X62598Y-32677
X62598Y-34252
X62598Y-36220
X62598Y-38976
X62598Y-39764
T2
X62200Y-22400
X62200Y-23400
X62200Y-24400
X62200Y-25400
X62200Y-26400
X62200Y-27400
X62200Y-28400
X62200Y-29400
X62200Y-30400
X62200Y-31400
T3
X38630Y-38500
X41386Y-38500
X38630Y-34000
X41386Y-34000
X38630Y-15500
X41386Y-15500
X38630Y-24500
X41386Y-24500
X38630Y-20000
X41386Y-20000
X38630Y-29500
X41386Y-29500
T4
X61500Y-13500
X50000Y-40500
X50000Y-13500
X61500Y-40500
T2
G00X55008Y-36750
M15
G01X55992Y-36750
M16
G05
G00X55106Y-39112
M15
G01X55894Y-39112
M16
G05
G00X57350Y-37537
M15
G01X57350Y-38325
M16
G05
T0
M30
