G04 #@! TF.GenerationSoftware,KiCad,Pcbnew,(5.1.5)-3*
G04 #@! TF.CreationDate,2020-03-16T22:45:32+11:00*
G04 #@! TF.ProjectId,ADE7816_Breakout,41444537-3831-4365-9f42-7265616b6f75,rev?*
G04 #@! TF.SameCoordinates,Original*
G04 #@! TF.FileFunction,Legend,Bot*
G04 #@! TF.FilePolarity,Positive*
%FSLAX46Y46*%
G04 Gerber Fmt 4.6, Leading zero omitted, Abs format (unit mm)*
G04 Created by KiCad (PCBNEW (5.1.5)-3) date 2020-03-16 22:45:32*
%MOMM*%
%LPD*%
G04 APERTURE LIST*
%ADD10C,0.150000*%
G04 APERTURE END LIST*
D10*
X154931904Y-79510000D02*
X155027142Y-79462380D01*
X155170000Y-79462380D01*
X155312857Y-79510000D01*
X155408095Y-79605238D01*
X155455714Y-79700476D01*
X155503333Y-79890952D01*
X155503333Y-80033809D01*
X155455714Y-80224285D01*
X155408095Y-80319523D01*
X155312857Y-80414761D01*
X155170000Y-80462380D01*
X155074761Y-80462380D01*
X154931904Y-80414761D01*
X154884285Y-80367142D01*
X154884285Y-80033809D01*
X155074761Y-80033809D01*
X154455714Y-80462380D02*
X154455714Y-79462380D01*
X153884285Y-80462380D01*
X153884285Y-79462380D01*
X153408095Y-80462380D02*
X153408095Y-79462380D01*
X153170000Y-79462380D01*
X153027142Y-79510000D01*
X152931904Y-79605238D01*
X152884285Y-79700476D01*
X152836666Y-79890952D01*
X152836666Y-80033809D01*
X152884285Y-80224285D01*
X152931904Y-80319523D01*
X153027142Y-80414761D01*
X153170000Y-80462380D01*
X153408095Y-80462380D01*
X152408095Y-80462380D02*
X152408095Y-79462380D01*
X152170000Y-79462380D01*
X152027142Y-79510000D01*
X151931904Y-79605238D01*
X151884285Y-79700476D01*
X151836666Y-79890952D01*
X151836666Y-80033809D01*
X151884285Y-80224285D01*
X151931904Y-80319523D01*
X152027142Y-80414761D01*
X152170000Y-80462380D01*
X152408095Y-80462380D01*
X155543095Y-76922380D02*
X154924047Y-76922380D01*
X155257380Y-77303333D01*
X155114523Y-77303333D01*
X155019285Y-77350952D01*
X154971666Y-77398571D01*
X154924047Y-77493809D01*
X154924047Y-77731904D01*
X154971666Y-77827142D01*
X155019285Y-77874761D01*
X155114523Y-77922380D01*
X155400238Y-77922380D01*
X155495476Y-77874761D01*
X155543095Y-77827142D01*
X154638333Y-76922380D02*
X154305000Y-77922380D01*
X153971666Y-76922380D01*
X153733571Y-76922380D02*
X153114523Y-76922380D01*
X153447857Y-77303333D01*
X153305000Y-77303333D01*
X153209761Y-77350952D01*
X153162142Y-77398571D01*
X153114523Y-77493809D01*
X153114523Y-77731904D01*
X153162142Y-77827142D01*
X153209761Y-77874761D01*
X153305000Y-77922380D01*
X153590714Y-77922380D01*
X153685952Y-77874761D01*
X153733571Y-77827142D01*
X155693810Y-74015000D02*
X155217619Y-74015000D01*
X155455715Y-75382380D02*
X155455715Y-74382380D01*
X155217619Y-74015000D02*
X154217619Y-74015000D01*
X154408095Y-75382380D02*
X154741429Y-74906190D01*
X154979524Y-75382380D02*
X154979524Y-74382380D01*
X154598572Y-74382380D01*
X154503334Y-74430000D01*
X154455715Y-74477619D01*
X154408095Y-74572857D01*
X154408095Y-74715714D01*
X154455715Y-74810952D01*
X154503334Y-74858571D01*
X154598572Y-74906190D01*
X154979524Y-74906190D01*
X154217619Y-74015000D02*
X153170000Y-74015000D01*
X153312857Y-75477619D02*
X153408095Y-75430000D01*
X153503334Y-75334761D01*
X153646191Y-75191904D01*
X153741429Y-75144285D01*
X153836667Y-75144285D01*
X153789048Y-75382380D02*
X153884286Y-75334761D01*
X153979524Y-75239523D01*
X154027143Y-75049047D01*
X154027143Y-74715714D01*
X153979524Y-74525238D01*
X153884286Y-74430000D01*
X153789048Y-74382380D01*
X153598572Y-74382380D01*
X153503334Y-74430000D01*
X153408095Y-74525238D01*
X153360476Y-74715714D01*
X153360476Y-75049047D01*
X153408095Y-75239523D01*
X153503334Y-75334761D01*
X153598572Y-75382380D01*
X153789048Y-75382380D01*
X153170000Y-74015000D02*
X152217619Y-74015000D01*
X152741429Y-74382380D02*
X152646191Y-74382380D01*
X152550953Y-74430000D01*
X152503334Y-74477619D01*
X152455715Y-74572857D01*
X152408095Y-74763333D01*
X152408095Y-75001428D01*
X152455715Y-75191904D01*
X152503334Y-75287142D01*
X152550953Y-75334761D01*
X152646191Y-75382380D01*
X152741429Y-75382380D01*
X152836667Y-75334761D01*
X152884286Y-75287142D01*
X152931905Y-75191904D01*
X152979524Y-75001428D01*
X152979524Y-74763333D01*
X152931905Y-74572857D01*
X152884286Y-74477619D01*
X152836667Y-74430000D01*
X152741429Y-74382380D01*
X155693810Y-71475000D02*
X155217619Y-71475000D01*
X155455715Y-72842380D02*
X155455715Y-71842380D01*
X155217619Y-71475000D02*
X154217619Y-71475000D01*
X154408095Y-72842380D02*
X154741429Y-72366190D01*
X154979524Y-72842380D02*
X154979524Y-71842380D01*
X154598572Y-71842380D01*
X154503334Y-71890000D01*
X154455715Y-71937619D01*
X154408095Y-72032857D01*
X154408095Y-72175714D01*
X154455715Y-72270952D01*
X154503334Y-72318571D01*
X154598572Y-72366190D01*
X154979524Y-72366190D01*
X154217619Y-71475000D02*
X153170000Y-71475000D01*
X153312857Y-72937619D02*
X153408095Y-72890000D01*
X153503334Y-72794761D01*
X153646191Y-72651904D01*
X153741429Y-72604285D01*
X153836667Y-72604285D01*
X153789048Y-72842380D02*
X153884286Y-72794761D01*
X153979524Y-72699523D01*
X154027143Y-72509047D01*
X154027143Y-72175714D01*
X153979524Y-71985238D01*
X153884286Y-71890000D01*
X153789048Y-71842380D01*
X153598572Y-71842380D01*
X153503334Y-71890000D01*
X153408095Y-71985238D01*
X153360476Y-72175714D01*
X153360476Y-72509047D01*
X153408095Y-72699523D01*
X153503334Y-72794761D01*
X153598572Y-72842380D01*
X153789048Y-72842380D01*
X153170000Y-71475000D02*
X152217619Y-71475000D01*
X152408095Y-72842380D02*
X152979524Y-72842380D01*
X152693810Y-72842380D02*
X152693810Y-71842380D01*
X152789048Y-71985238D01*
X152884286Y-72080476D01*
X152979524Y-72128095D01*
X155455714Y-70302380D02*
X155455714Y-69302380D01*
X155455714Y-69778571D02*
X154884286Y-69778571D01*
X154884286Y-70302380D02*
X154884286Y-69302380D01*
X154455714Y-70254761D02*
X154312857Y-70302380D01*
X154074762Y-70302380D01*
X153979524Y-70254761D01*
X153931905Y-70207142D01*
X153884286Y-70111904D01*
X153884286Y-70016666D01*
X153931905Y-69921428D01*
X153979524Y-69873809D01*
X154074762Y-69826190D01*
X154265238Y-69778571D01*
X154360476Y-69730952D01*
X154408095Y-69683333D01*
X154455714Y-69588095D01*
X154455714Y-69492857D01*
X154408095Y-69397619D01*
X154360476Y-69350000D01*
X154265238Y-69302380D01*
X154027143Y-69302380D01*
X153884286Y-69350000D01*
X152884286Y-70207142D02*
X152931905Y-70254761D01*
X153074762Y-70302380D01*
X153170000Y-70302380D01*
X153312857Y-70254761D01*
X153408095Y-70159523D01*
X153455714Y-70064285D01*
X153503333Y-69873809D01*
X153503333Y-69730952D01*
X153455714Y-69540476D01*
X153408095Y-69445238D01*
X153312857Y-69350000D01*
X153170000Y-69302380D01*
X153074762Y-69302380D01*
X152931905Y-69350000D01*
X152884286Y-69397619D01*
X151979524Y-70302380D02*
X152455714Y-70302380D01*
X152455714Y-69302380D01*
X151646190Y-70302380D02*
X151646190Y-69302380D01*
X151074762Y-70302380D02*
X151503333Y-69730952D01*
X151074762Y-69302380D02*
X151646190Y-69873809D01*
X155503333Y-67714761D02*
X155360476Y-67762380D01*
X155122380Y-67762380D01*
X155027142Y-67714761D01*
X154979523Y-67667142D01*
X154931904Y-67571904D01*
X154931904Y-67476666D01*
X154979523Y-67381428D01*
X155027142Y-67333809D01*
X155122380Y-67286190D01*
X155312857Y-67238571D01*
X155408095Y-67190952D01*
X155455714Y-67143333D01*
X155503333Y-67048095D01*
X155503333Y-66952857D01*
X155455714Y-66857619D01*
X155408095Y-66810000D01*
X155312857Y-66762380D01*
X155074761Y-66762380D01*
X154931904Y-66810000D01*
X153931904Y-67667142D02*
X153979523Y-67714761D01*
X154122380Y-67762380D01*
X154217618Y-67762380D01*
X154360476Y-67714761D01*
X154455714Y-67619523D01*
X154503333Y-67524285D01*
X154550952Y-67333809D01*
X154550952Y-67190952D01*
X154503333Y-67000476D01*
X154455714Y-66905238D01*
X154360476Y-66810000D01*
X154217618Y-66762380D01*
X154122380Y-66762380D01*
X153979523Y-66810000D01*
X153931904Y-66857619D01*
X153027142Y-67762380D02*
X153503333Y-67762380D01*
X153503333Y-66762380D01*
X152693809Y-67762380D02*
X152693809Y-66762380D01*
X152122380Y-67762380D02*
X152550952Y-67190952D01*
X152122380Y-66762380D02*
X152693809Y-67333809D01*
X155455714Y-65222380D02*
X155455714Y-64222380D01*
X155122381Y-64936666D01*
X154789047Y-64222380D01*
X154789047Y-65222380D01*
X154312857Y-65222380D02*
X154312857Y-64222380D01*
X153884286Y-65174761D02*
X153741428Y-65222380D01*
X153503333Y-65222380D01*
X153408095Y-65174761D01*
X153360476Y-65127142D01*
X153312857Y-65031904D01*
X153312857Y-64936666D01*
X153360476Y-64841428D01*
X153408095Y-64793809D01*
X153503333Y-64746190D01*
X153693809Y-64698571D01*
X153789047Y-64650952D01*
X153836666Y-64603333D01*
X153884286Y-64508095D01*
X153884286Y-64412857D01*
X153836666Y-64317619D01*
X153789047Y-64270000D01*
X153693809Y-64222380D01*
X153455714Y-64222380D01*
X153312857Y-64270000D01*
X152693809Y-64222380D02*
X152503333Y-64222380D01*
X152408095Y-64270000D01*
X152312857Y-64365238D01*
X152265238Y-64555714D01*
X152265238Y-64889047D01*
X152312857Y-65079523D01*
X152408095Y-65174761D01*
X152503333Y-65222380D01*
X152693809Y-65222380D01*
X152789047Y-65174761D01*
X152884286Y-65079523D01*
X152931905Y-64889047D01*
X152931905Y-64555714D01*
X152884286Y-64365238D01*
X152789047Y-64270000D01*
X152693809Y-64222380D01*
X155455714Y-62682380D02*
X155455714Y-61682380D01*
X155122381Y-62396666D01*
X154789047Y-61682380D01*
X154789047Y-62682380D01*
X154122381Y-61682380D02*
X153931905Y-61682380D01*
X153836666Y-61730000D01*
X153741428Y-61825238D01*
X153693809Y-62015714D01*
X153693809Y-62349047D01*
X153741428Y-62539523D01*
X153836666Y-62634761D01*
X153931905Y-62682380D01*
X154122381Y-62682380D01*
X154217619Y-62634761D01*
X154312857Y-62539523D01*
X154360476Y-62349047D01*
X154360476Y-62015714D01*
X154312857Y-61825238D01*
X154217619Y-61730000D01*
X154122381Y-61682380D01*
X153312857Y-62634761D02*
X153170000Y-62682380D01*
X152931905Y-62682380D01*
X152836666Y-62634761D01*
X152789047Y-62587142D01*
X152741428Y-62491904D01*
X152741428Y-62396666D01*
X152789047Y-62301428D01*
X152836666Y-62253809D01*
X152931905Y-62206190D01*
X153122381Y-62158571D01*
X153217619Y-62110952D01*
X153265238Y-62063333D01*
X153312857Y-61968095D01*
X153312857Y-61872857D01*
X153265238Y-61777619D01*
X153217619Y-61730000D01*
X153122381Y-61682380D01*
X152884286Y-61682380D01*
X152741428Y-61730000D01*
X152312857Y-62682380D02*
X152312857Y-61682380D01*
X155693809Y-58775000D02*
X154693809Y-58775000D01*
X154884285Y-60047142D02*
X154931904Y-60094761D01*
X155074761Y-60142380D01*
X155169999Y-60142380D01*
X155312857Y-60094761D01*
X155408095Y-59999523D01*
X155455714Y-59904285D01*
X155503333Y-59713809D01*
X155503333Y-59570952D01*
X155455714Y-59380476D01*
X155408095Y-59285238D01*
X155312857Y-59190000D01*
X155169999Y-59142380D01*
X155074761Y-59142380D01*
X154931904Y-59190000D01*
X154884285Y-59237619D01*
X154693809Y-58775000D02*
X153741428Y-58775000D01*
X154503333Y-60094761D02*
X154360476Y-60142380D01*
X154122380Y-60142380D01*
X154027142Y-60094761D01*
X153979523Y-60047142D01*
X153931904Y-59951904D01*
X153931904Y-59856666D01*
X153979523Y-59761428D01*
X154027142Y-59713809D01*
X154122380Y-59666190D01*
X154312857Y-59618571D01*
X154408095Y-59570952D01*
X154455714Y-59523333D01*
X154503333Y-59428095D01*
X154503333Y-59332857D01*
X154455714Y-59237619D01*
X154408095Y-59190000D01*
X154312857Y-59142380D01*
X154074761Y-59142380D01*
X153931904Y-59190000D01*
X155693809Y-56235000D02*
X154693809Y-56235000D01*
X154884285Y-57602380D02*
X155217619Y-57126190D01*
X155455714Y-57602380D02*
X155455714Y-56602380D01*
X155074762Y-56602380D01*
X154979524Y-56650000D01*
X154931905Y-56697619D01*
X154884285Y-56792857D01*
X154884285Y-56935714D01*
X154931905Y-57030952D01*
X154979524Y-57078571D01*
X155074762Y-57126190D01*
X155455714Y-57126190D01*
X154693809Y-56235000D02*
X153789047Y-56235000D01*
X154455714Y-57078571D02*
X154122381Y-57078571D01*
X153979524Y-57602380D02*
X154455714Y-57602380D01*
X154455714Y-56602380D01*
X153979524Y-56602380D01*
X153789047Y-56235000D02*
X152836666Y-56235000D01*
X153598571Y-57554761D02*
X153455714Y-57602380D01*
X153217619Y-57602380D01*
X153122381Y-57554761D01*
X153074762Y-57507142D01*
X153027143Y-57411904D01*
X153027143Y-57316666D01*
X153074762Y-57221428D01*
X153122381Y-57173809D01*
X153217619Y-57126190D01*
X153408095Y-57078571D01*
X153503333Y-57030952D01*
X153550952Y-56983333D01*
X153598571Y-56888095D01*
X153598571Y-56792857D01*
X153550952Y-56697619D01*
X153503333Y-56650000D01*
X153408095Y-56602380D01*
X153170000Y-56602380D01*
X153027143Y-56650000D01*
X152836666Y-56235000D02*
X151931905Y-56235000D01*
X152598571Y-57078571D02*
X152265238Y-57078571D01*
X152122381Y-57602380D02*
X152598571Y-57602380D01*
X152598571Y-56602380D01*
X152122381Y-56602380D01*
X151931905Y-56235000D02*
X151170000Y-56235000D01*
X151836666Y-56602380D02*
X151265238Y-56602380D01*
X151550952Y-57602380D02*
X151550952Y-56602380D01*
M02*
