M48
INCH,TZ
T1C0.0079
T2C0.0157
T3C0.0394
T4C0.0669
T5C0.1181
%
G90
G05
T1
X51390Y-26140
X51390Y-26547
X51390Y-26953
X51390Y-27360
X51797Y-26140
X51797Y-26547
X51797Y-26953
X51797Y-27360
X52203Y-26140
X52203Y-26547
X52203Y-26953
X52203Y-27360
X52610Y-26140
X52610Y-26547
X52610Y-26953
X52610Y-27360
T2
X39000Y-13000
X39000Y-17500
X39000Y-22000
X39000Y-27000
X39000Y-31500
X39000Y-36000
X39000Y-41000
X40500Y-13000
X40500Y-17500
X40500Y-22000
X40500Y-27000
X40500Y-31500
X40500Y-36000
X40500Y-41000
X42000Y-13000
X42000Y-41000
X43500Y-13000
X43500Y-41000
X43990Y-37290
X44000Y-19000
X44000Y-23200
X44000Y-28210
X44000Y-32800
X44020Y-14300
X45000Y-13000
X45000Y-41000
X46500Y-13000
X46500Y-41000
X46880Y-20120
X46880Y-24920
X46880Y-34120
X46886Y-27582
X46920Y-29802
X47500Y-32300
X48000Y-13000
X48000Y-41000
X48100Y-30400
X48300Y-29500
X48905Y-26825
X49000Y-15500
X49000Y-17000
X49000Y-18000
X51000Y-15000
X51000Y-16500
X51000Y-18000
X51000Y-19500
X51000Y-28300
X52000Y-13000
X52000Y-41000
X52160Y-28954
X53500Y-13000
X53500Y-41000
X54342Y-23640
X54445Y-33650
X55000Y-13000
X55000Y-41000
X56500Y-13000
X56500Y-41000
X58000Y-13000
X58000Y-41000
X58020Y-22800
X59000Y-33500
X59500Y-13000
X59500Y-41000
X60400Y-30400
X60500Y-33500
X62000Y-15500
X62000Y-17000
X62000Y-18500
X62000Y-20000
X62000Y-21500
X62000Y-33500
X62000Y-34500
X62000Y-36000
X62000Y-37500
X62000Y-39000
T3
X62200Y-22400
X62200Y-23400
X62200Y-24400
X62200Y-25400
X62200Y-26400
X62200Y-27400
X62200Y-28400
X62200Y-29400
X62200Y-30400
X62200Y-31400
T4
X38630Y-29500
X41386Y-29500
X38630Y-15500
X41386Y-15500
X38630Y-34000
X41386Y-34000
X38630Y-20000
X41386Y-20000
X38630Y-24500
X41386Y-24500
X38630Y-38500
X41386Y-38500
T5
X50000Y-13500
X50000Y-40500
X61500Y-13500
X61500Y-40500
T3
G00X55106Y-36750
M15
G01X55894Y-36750
M16
G05
G00X55106Y-39112
M15
G01X55894Y-39112
M16
G05
G00X57350Y-38325
M15
G01X57350Y-37537
M16
G05
T0
M30
