G04 #@! TF.GenerationSoftware,KiCad,Pcbnew,(5.1.5)-3*
G04 #@! TF.CreationDate,2020-02-29T11:27:19+11:00*
G04 #@! TF.ProjectId,ADE7816_Breakout,41444537-3831-4365-9f42-7265616b6f75,rev?*
G04 #@! TF.SameCoordinates,Original*
G04 #@! TF.FileFunction,Legend,Top*
G04 #@! TF.FilePolarity,Positive*
%FSLAX46Y46*%
G04 Gerber Fmt 4.6, Leading zero omitted, Abs format (unit mm)*
G04 Created by KiCad (PCBNEW (5.1.5)-3) date 2020-02-29 11:27:19*
%MOMM*%
%LPD*%
G04 APERTURE LIST*
%ADD10C,0.120000*%
%ADD11C,0.150000*%
G04 APERTURE END LIST*
D10*
X134690000Y-65760000D02*
X134690000Y-65335000D01*
X129470000Y-70555000D02*
X129895000Y-70555000D01*
X129470000Y-70130000D02*
X129470000Y-70555000D01*
X129470000Y-65335000D02*
X129895000Y-65335000D01*
X129470000Y-65760000D02*
X129470000Y-65335000D01*
X134690000Y-70555000D02*
X134265000Y-70555000D01*
X134690000Y-70130000D02*
X134690000Y-70555000D01*
X143614000Y-57312779D02*
X143614000Y-56987221D01*
X142594000Y-57312779D02*
X142594000Y-56987221D01*
X125855000Y-72100221D02*
X125855000Y-72425779D01*
X126875000Y-72100221D02*
X126875000Y-72425779D01*
X123525000Y-69953000D02*
X123525000Y-73863000D01*
X125395000Y-69953000D02*
X123525000Y-69953000D01*
X125395000Y-73863000D02*
X125395000Y-69953000D01*
X145925000Y-57312779D02*
X145925000Y-56987221D01*
X144905000Y-57312779D02*
X144905000Y-56987221D01*
X134212700Y-59034400D02*
X130302700Y-59034400D01*
X134212700Y-60904400D02*
X134212700Y-59034400D01*
X130302700Y-60904400D02*
X134212700Y-60904400D01*
X129262000Y-78278000D02*
X133172000Y-78278000D01*
X129262000Y-76408000D02*
X129262000Y-78278000D01*
X133172000Y-76408000D02*
X129262000Y-76408000D01*
X132065479Y-61364400D02*
X131739921Y-61364400D01*
X132065479Y-62384400D02*
X131739921Y-62384400D01*
X131409221Y-75948000D02*
X131734779Y-75948000D01*
X131409221Y-74928000D02*
X131734779Y-74928000D01*
X133542721Y-82044000D02*
X133868279Y-82044000D01*
X133542721Y-81024000D02*
X133868279Y-81024000D01*
X120126979Y-77066680D02*
X119801421Y-77066680D01*
X120126979Y-78086680D02*
X119801421Y-78086680D01*
X120126979Y-73891680D02*
X119801421Y-73891680D01*
X120126979Y-74911680D02*
X119801421Y-74911680D01*
X137413000Y-73022000D02*
X134113000Y-73022000D01*
X137413000Y-75822000D02*
X137413000Y-73022000D01*
X135925779Y-76452000D02*
X135600221Y-76452000D01*
X135925779Y-77472000D02*
X135600221Y-77472000D01*
X139067000Y-74584779D02*
X139067000Y-74259221D01*
X138047000Y-74584779D02*
X138047000Y-74259221D01*
X119699221Y-88775000D02*
X120024779Y-88775000D01*
X119699221Y-87755000D02*
X120024779Y-87755000D01*
X119714461Y-72041480D02*
X120040019Y-72041480D01*
X119714461Y-71021480D02*
X120040019Y-71021480D01*
X119699221Y-65280000D02*
X120024779Y-65280000D01*
X119699221Y-64260000D02*
X120024779Y-64260000D01*
X119699221Y-53215000D02*
X120024779Y-53215000D01*
X119699221Y-52195000D02*
X120024779Y-52195000D01*
X120024779Y-84580000D02*
X119699221Y-84580000D01*
X120024779Y-85600000D02*
X119699221Y-85600000D01*
X120040019Y-67846480D02*
X119714461Y-67846480D01*
X120040019Y-68866480D02*
X119714461Y-68866480D01*
X120024779Y-61085000D02*
X119699221Y-61085000D01*
X120024779Y-62105000D02*
X119699221Y-62105000D01*
X120024779Y-49020000D02*
X119699221Y-49020000D01*
X120024779Y-50040000D02*
X119699221Y-50040000D01*
X144617221Y-85600000D02*
X144942779Y-85600000D01*
X144617221Y-84580000D02*
X144942779Y-84580000D01*
X140460000Y-86188733D02*
X140460000Y-86531267D01*
X141480000Y-86188733D02*
X141480000Y-86531267D01*
X114996779Y-76960000D02*
X114671221Y-76960000D01*
X114996779Y-77980000D02*
X114671221Y-77980000D01*
X114996779Y-87755000D02*
X114671221Y-87755000D01*
X114996779Y-88775000D02*
X114671221Y-88775000D01*
X114996779Y-99185000D02*
X114671221Y-99185000D01*
X114996779Y-100205000D02*
X114671221Y-100205000D01*
X114996779Y-64260000D02*
X114671221Y-64260000D01*
X114996779Y-65280000D02*
X114671221Y-65280000D01*
X114996779Y-52195000D02*
X114671221Y-52195000D01*
X114996779Y-53215000D02*
X114671221Y-53215000D01*
X114996779Y-41400000D02*
X114671221Y-41400000D01*
X114996779Y-42420000D02*
X114671221Y-42420000D01*
X111250000Y-76672221D02*
X111250000Y-76997779D01*
X112270000Y-76672221D02*
X112270000Y-76997779D01*
X111250000Y-87467221D02*
X111250000Y-87792779D01*
X112270000Y-87467221D02*
X112270000Y-87792779D01*
X111250000Y-98897221D02*
X111250000Y-99222779D01*
X112270000Y-98897221D02*
X112270000Y-99222779D01*
X111250000Y-64099221D02*
X111250000Y-64424779D01*
X112270000Y-64099221D02*
X112270000Y-64424779D01*
X111250000Y-51907221D02*
X111250000Y-52232779D01*
X112270000Y-51907221D02*
X112270000Y-52232779D01*
X111250000Y-41112221D02*
X111250000Y-41437779D01*
X112270000Y-41112221D02*
X112270000Y-41437779D01*
X156658000Y-55566000D02*
X157988000Y-55566000D01*
X156658000Y-56896000D02*
X156658000Y-55566000D01*
X156658000Y-58166000D02*
X159318000Y-58166000D01*
X159318000Y-58166000D02*
X159318000Y-81086000D01*
X156658000Y-58166000D02*
X156658000Y-81086000D01*
X156658000Y-81086000D02*
X159318000Y-81086000D01*
X136370000Y-92445000D02*
X138970000Y-92445000D01*
X136370000Y-107145000D02*
X136370000Y-92445000D01*
X145570000Y-92445000D02*
X145570000Y-94345000D01*
X142870000Y-92445000D02*
X145570000Y-92445000D01*
X145570000Y-107145000D02*
X136370000Y-107145000D01*
X145570000Y-98345000D02*
X145570000Y-107145000D01*
X136170000Y-93295000D02*
X136170000Y-92245000D01*
X137220000Y-92245000D02*
X136170000Y-92245000D01*
X98321000Y-78030000D02*
X98321000Y-80030000D01*
X95721000Y-78030000D02*
X95721000Y-80030000D01*
X104821000Y-78030000D02*
X98321000Y-78030000D01*
X109221000Y-78030000D02*
X108021000Y-78030000D01*
X109221000Y-71830000D02*
X109221000Y-78030000D01*
X100321000Y-71830000D02*
X109221000Y-71830000D01*
X94521000Y-71830000D02*
X97721000Y-71830000D01*
X94521000Y-72330000D02*
X94521000Y-71830000D01*
X92021000Y-72330000D02*
X94521000Y-72330000D01*
X92021000Y-77530000D02*
X92021000Y-72330000D01*
X94521000Y-77530000D02*
X92021000Y-77530000D01*
X94521000Y-78030000D02*
X94521000Y-77530000D01*
X95721000Y-78030000D02*
X94521000Y-78030000D01*
X98321000Y-89460000D02*
X98321000Y-91460000D01*
X95721000Y-89460000D02*
X95721000Y-91460000D01*
X104821000Y-89460000D02*
X98321000Y-89460000D01*
X109221000Y-89460000D02*
X108021000Y-89460000D01*
X109221000Y-83260000D02*
X109221000Y-89460000D01*
X100321000Y-83260000D02*
X109221000Y-83260000D01*
X94521000Y-83260000D02*
X97721000Y-83260000D01*
X94521000Y-83760000D02*
X94521000Y-83260000D01*
X92021000Y-83760000D02*
X94521000Y-83760000D01*
X92021000Y-88960000D02*
X92021000Y-83760000D01*
X94521000Y-88960000D02*
X92021000Y-88960000D01*
X94521000Y-89460000D02*
X94521000Y-88960000D01*
X95721000Y-89460000D02*
X94521000Y-89460000D01*
X98321000Y-100890000D02*
X98321000Y-102890000D01*
X95721000Y-100890000D02*
X95721000Y-102890000D01*
X104821000Y-100890000D02*
X98321000Y-100890000D01*
X109221000Y-100890000D02*
X108021000Y-100890000D01*
X109221000Y-94690000D02*
X109221000Y-100890000D01*
X100321000Y-94690000D02*
X109221000Y-94690000D01*
X94521000Y-94690000D02*
X97721000Y-94690000D01*
X94521000Y-95190000D02*
X94521000Y-94690000D01*
X92021000Y-95190000D02*
X94521000Y-95190000D01*
X92021000Y-100390000D02*
X92021000Y-95190000D01*
X94521000Y-100390000D02*
X92021000Y-100390000D01*
X94521000Y-100890000D02*
X94521000Y-100390000D01*
X95721000Y-100890000D02*
X94521000Y-100890000D01*
X98321000Y-65330000D02*
X98321000Y-67330000D01*
X95721000Y-65330000D02*
X95721000Y-67330000D01*
X104821000Y-65330000D02*
X98321000Y-65330000D01*
X109221000Y-65330000D02*
X108021000Y-65330000D01*
X109221000Y-59130000D02*
X109221000Y-65330000D01*
X100321000Y-59130000D02*
X109221000Y-59130000D01*
X94521000Y-59130000D02*
X97721000Y-59130000D01*
X94521000Y-59630000D02*
X94521000Y-59130000D01*
X92021000Y-59630000D02*
X94521000Y-59630000D01*
X92021000Y-64830000D02*
X92021000Y-59630000D01*
X94521000Y-64830000D02*
X92021000Y-64830000D01*
X94521000Y-65330000D02*
X94521000Y-64830000D01*
X95721000Y-65330000D02*
X94521000Y-65330000D01*
X98321000Y-53900000D02*
X98321000Y-55900000D01*
X95721000Y-53900000D02*
X95721000Y-55900000D01*
X104821000Y-53900000D02*
X98321000Y-53900000D01*
X109221000Y-53900000D02*
X108021000Y-53900000D01*
X109221000Y-47700000D02*
X109221000Y-53900000D01*
X100321000Y-47700000D02*
X109221000Y-47700000D01*
X94521000Y-47700000D02*
X97721000Y-47700000D01*
X94521000Y-48200000D02*
X94521000Y-47700000D01*
X92021000Y-48200000D02*
X94521000Y-48200000D01*
X92021000Y-53400000D02*
X92021000Y-48200000D01*
X94521000Y-53400000D02*
X92021000Y-53400000D01*
X94521000Y-53900000D02*
X94521000Y-53400000D01*
X95721000Y-53900000D02*
X94521000Y-53900000D01*
X98321000Y-42470000D02*
X98321000Y-44470000D01*
X95721000Y-42470000D02*
X95721000Y-44470000D01*
X104821000Y-42470000D02*
X98321000Y-42470000D01*
X109221000Y-42470000D02*
X108021000Y-42470000D01*
X109221000Y-36270000D02*
X109221000Y-42470000D01*
X100321000Y-36270000D02*
X109221000Y-36270000D01*
X94521000Y-36270000D02*
X97721000Y-36270000D01*
X94521000Y-36770000D02*
X94521000Y-36270000D01*
X92021000Y-36770000D02*
X94521000Y-36770000D01*
X92021000Y-41970000D02*
X92021000Y-36770000D01*
X94521000Y-41970000D02*
X92021000Y-41970000D01*
X94521000Y-42470000D02*
X94521000Y-41970000D01*
X95721000Y-42470000D02*
X94521000Y-42470000D01*
X144617221Y-83060000D02*
X144942779Y-83060000D01*
X144617221Y-82040000D02*
X144942779Y-82040000D01*
X114996779Y-73785000D02*
X114671221Y-73785000D01*
X114996779Y-74805000D02*
X114671221Y-74805000D01*
X114996779Y-84580000D02*
X114671221Y-84580000D01*
X114996779Y-85600000D02*
X114671221Y-85600000D01*
X114996779Y-96010000D02*
X114671221Y-96010000D01*
X114996779Y-97030000D02*
X114671221Y-97030000D01*
X115097779Y-61085000D02*
X114772221Y-61085000D01*
X115097779Y-62105000D02*
X114772221Y-62105000D01*
X115097779Y-49020000D02*
X114772221Y-49020000D01*
X115097779Y-50040000D02*
X114772221Y-50040000D01*
X114996779Y-38225000D02*
X114671221Y-38225000D01*
X114996779Y-39245000D02*
X114671221Y-39245000D01*
D11*
X135332380Y-68706904D02*
X136141904Y-68706904D01*
X136237142Y-68659285D01*
X136284761Y-68611666D01*
X136332380Y-68516428D01*
X136332380Y-68325952D01*
X136284761Y-68230714D01*
X136237142Y-68183095D01*
X136141904Y-68135476D01*
X135332380Y-68135476D01*
X136332380Y-67135476D02*
X136332380Y-67706904D01*
X136332380Y-67421190D02*
X135332380Y-67421190D01*
X135475238Y-67516428D01*
X135570476Y-67611666D01*
X135618095Y-67706904D01*
X143785380Y-60967857D02*
X143309190Y-61301190D01*
X143785380Y-61539285D02*
X142785380Y-61539285D01*
X142785380Y-61158333D01*
X142833000Y-61063095D01*
X142880619Y-61015476D01*
X142975857Y-60967857D01*
X143118714Y-60967857D01*
X143213952Y-61015476D01*
X143261571Y-61063095D01*
X143309190Y-61158333D01*
X143309190Y-61539285D01*
X142880619Y-60586904D02*
X142833000Y-60539285D01*
X142785380Y-60444047D01*
X142785380Y-60205952D01*
X142833000Y-60110714D01*
X142880619Y-60063095D01*
X142975857Y-60015476D01*
X143071095Y-60015476D01*
X143213952Y-60063095D01*
X143785380Y-60634523D01*
X143785380Y-60015476D01*
X142880619Y-59634523D02*
X142833000Y-59586904D01*
X142785380Y-59491666D01*
X142785380Y-59253571D01*
X142833000Y-59158333D01*
X142880619Y-59110714D01*
X142975857Y-59063095D01*
X143071095Y-59063095D01*
X143213952Y-59110714D01*
X143785380Y-59682142D01*
X143785380Y-59063095D01*
X126722142Y-69095857D02*
X126769761Y-69143476D01*
X126817380Y-69286333D01*
X126817380Y-69381571D01*
X126769761Y-69524428D01*
X126674523Y-69619666D01*
X126579285Y-69667285D01*
X126388809Y-69714904D01*
X126245952Y-69714904D01*
X126055476Y-69667285D01*
X125960238Y-69619666D01*
X125865000Y-69524428D01*
X125817380Y-69381571D01*
X125817380Y-69286333D01*
X125865000Y-69143476D01*
X125912619Y-69095857D01*
X125912619Y-68714904D02*
X125865000Y-68667285D01*
X125817380Y-68572047D01*
X125817380Y-68333952D01*
X125865000Y-68238714D01*
X125912619Y-68191095D01*
X126007857Y-68143476D01*
X126103095Y-68143476D01*
X126245952Y-68191095D01*
X126817380Y-68762523D01*
X126817380Y-68143476D01*
X125817380Y-67810142D02*
X125817380Y-67191095D01*
X126198333Y-67524428D01*
X126198333Y-67381571D01*
X126245952Y-67286333D01*
X126293571Y-67238714D01*
X126388809Y-67191095D01*
X126626904Y-67191095D01*
X126722142Y-67238714D01*
X126769761Y-67286333D01*
X126817380Y-67381571D01*
X126817380Y-67667285D01*
X126769761Y-67762523D01*
X126722142Y-67810142D01*
X124817142Y-69095857D02*
X124864761Y-69143476D01*
X124912380Y-69286333D01*
X124912380Y-69381571D01*
X124864761Y-69524428D01*
X124769523Y-69619666D01*
X124674285Y-69667285D01*
X124483809Y-69714904D01*
X124340952Y-69714904D01*
X124150476Y-69667285D01*
X124055238Y-69619666D01*
X123960000Y-69524428D01*
X123912380Y-69381571D01*
X123912380Y-69286333D01*
X123960000Y-69143476D01*
X124007619Y-69095857D01*
X124007619Y-68714904D02*
X123960000Y-68667285D01*
X123912380Y-68572047D01*
X123912380Y-68333952D01*
X123960000Y-68238714D01*
X124007619Y-68191095D01*
X124102857Y-68143476D01*
X124198095Y-68143476D01*
X124340952Y-68191095D01*
X124912380Y-68762523D01*
X124912380Y-68143476D01*
X124007619Y-67762523D02*
X123960000Y-67714904D01*
X123912380Y-67619666D01*
X123912380Y-67381571D01*
X123960000Y-67286333D01*
X124007619Y-67238714D01*
X124102857Y-67191095D01*
X124198095Y-67191095D01*
X124340952Y-67238714D01*
X124912380Y-67810142D01*
X124912380Y-67191095D01*
X145772142Y-60967857D02*
X145819761Y-61015476D01*
X145867380Y-61158333D01*
X145867380Y-61253571D01*
X145819761Y-61396428D01*
X145724523Y-61491666D01*
X145629285Y-61539285D01*
X145438809Y-61586904D01*
X145295952Y-61586904D01*
X145105476Y-61539285D01*
X145010238Y-61491666D01*
X144915000Y-61396428D01*
X144867380Y-61253571D01*
X144867380Y-61158333D01*
X144915000Y-61015476D01*
X144962619Y-60967857D01*
X144962619Y-60586904D02*
X144915000Y-60539285D01*
X144867380Y-60444047D01*
X144867380Y-60205952D01*
X144915000Y-60110714D01*
X144962619Y-60063095D01*
X145057857Y-60015476D01*
X145153095Y-60015476D01*
X145295952Y-60063095D01*
X145867380Y-60634523D01*
X145867380Y-60015476D01*
X145867380Y-59063095D02*
X145867380Y-59634523D01*
X145867380Y-59348809D02*
X144867380Y-59348809D01*
X145010238Y-59444047D01*
X145105476Y-59539285D01*
X145153095Y-59634523D01*
X127449842Y-60326542D02*
X127402223Y-60374161D01*
X127259366Y-60421780D01*
X127164128Y-60421780D01*
X127021271Y-60374161D01*
X126926033Y-60278923D01*
X126878414Y-60183685D01*
X126830795Y-59993209D01*
X126830795Y-59850352D01*
X126878414Y-59659876D01*
X126926033Y-59564638D01*
X127021271Y-59469400D01*
X127164128Y-59421780D01*
X127259366Y-59421780D01*
X127402223Y-59469400D01*
X127449842Y-59517019D01*
X127830795Y-59517019D02*
X127878414Y-59469400D01*
X127973652Y-59421780D01*
X128211747Y-59421780D01*
X128306985Y-59469400D01*
X128354604Y-59517019D01*
X128402223Y-59612257D01*
X128402223Y-59707495D01*
X128354604Y-59850352D01*
X127783176Y-60421780D01*
X128402223Y-60421780D01*
X129021271Y-59421780D02*
X129116509Y-59421780D01*
X129211747Y-59469400D01*
X129259366Y-59517019D01*
X129306985Y-59612257D01*
X129354604Y-59802733D01*
X129354604Y-60040828D01*
X129306985Y-60231304D01*
X129259366Y-60326542D01*
X129211747Y-60374161D01*
X129116509Y-60421780D01*
X129021271Y-60421780D01*
X128926033Y-60374161D01*
X128878414Y-60326542D01*
X128830795Y-60231304D01*
X128783176Y-60040828D01*
X128783176Y-59802733D01*
X128830795Y-59612257D01*
X128878414Y-59517019D01*
X128926033Y-59469400D01*
X129021271Y-59421780D01*
X126865142Y-77573142D02*
X126817523Y-77620761D01*
X126674666Y-77668380D01*
X126579428Y-77668380D01*
X126436571Y-77620761D01*
X126341333Y-77525523D01*
X126293714Y-77430285D01*
X126246095Y-77239809D01*
X126246095Y-77096952D01*
X126293714Y-76906476D01*
X126341333Y-76811238D01*
X126436571Y-76716000D01*
X126579428Y-76668380D01*
X126674666Y-76668380D01*
X126817523Y-76716000D01*
X126865142Y-76763619D01*
X127817523Y-77668380D02*
X127246095Y-77668380D01*
X127531809Y-77668380D02*
X127531809Y-76668380D01*
X127436571Y-76811238D01*
X127341333Y-76906476D01*
X127246095Y-76954095D01*
X128293714Y-77668380D02*
X128484190Y-77668380D01*
X128579428Y-77620761D01*
X128627047Y-77573142D01*
X128722285Y-77430285D01*
X128769904Y-77239809D01*
X128769904Y-76858857D01*
X128722285Y-76763619D01*
X128674666Y-76716000D01*
X128579428Y-76668380D01*
X128388952Y-76668380D01*
X128293714Y-76716000D01*
X128246095Y-76763619D01*
X128198476Y-76858857D01*
X128198476Y-77096952D01*
X128246095Y-77192190D01*
X128293714Y-77239809D01*
X128388952Y-77287428D01*
X128579428Y-77287428D01*
X128674666Y-77239809D01*
X128722285Y-77192190D01*
X128769904Y-77096952D01*
X127449842Y-62231542D02*
X127402223Y-62279161D01*
X127259366Y-62326780D01*
X127164128Y-62326780D01*
X127021271Y-62279161D01*
X126926033Y-62183923D01*
X126878414Y-62088685D01*
X126830795Y-61898209D01*
X126830795Y-61755352D01*
X126878414Y-61564876D01*
X126926033Y-61469638D01*
X127021271Y-61374400D01*
X127164128Y-61326780D01*
X127259366Y-61326780D01*
X127402223Y-61374400D01*
X127449842Y-61422019D01*
X128402223Y-62326780D02*
X127830795Y-62326780D01*
X128116509Y-62326780D02*
X128116509Y-61326780D01*
X128021271Y-61469638D01*
X127926033Y-61564876D01*
X127830795Y-61612495D01*
X128973652Y-61755352D02*
X128878414Y-61707733D01*
X128830795Y-61660114D01*
X128783176Y-61564876D01*
X128783176Y-61517257D01*
X128830795Y-61422019D01*
X128878414Y-61374400D01*
X128973652Y-61326780D01*
X129164128Y-61326780D01*
X129259366Y-61374400D01*
X129306985Y-61422019D01*
X129354604Y-61517257D01*
X129354604Y-61564876D01*
X129306985Y-61660114D01*
X129259366Y-61707733D01*
X129164128Y-61755352D01*
X128973652Y-61755352D01*
X128878414Y-61802971D01*
X128830795Y-61850590D01*
X128783176Y-61945828D01*
X128783176Y-62136304D01*
X128830795Y-62231542D01*
X128878414Y-62279161D01*
X128973652Y-62326780D01*
X129164128Y-62326780D01*
X129259366Y-62279161D01*
X129306985Y-62231542D01*
X129354604Y-62136304D01*
X129354604Y-61945828D01*
X129306985Y-61850590D01*
X129259366Y-61802971D01*
X129164128Y-61755352D01*
X126865142Y-75795142D02*
X126817523Y-75842761D01*
X126674666Y-75890380D01*
X126579428Y-75890380D01*
X126436571Y-75842761D01*
X126341333Y-75747523D01*
X126293714Y-75652285D01*
X126246095Y-75461809D01*
X126246095Y-75318952D01*
X126293714Y-75128476D01*
X126341333Y-75033238D01*
X126436571Y-74938000D01*
X126579428Y-74890380D01*
X126674666Y-74890380D01*
X126817523Y-74938000D01*
X126865142Y-74985619D01*
X127817523Y-75890380D02*
X127246095Y-75890380D01*
X127531809Y-75890380D02*
X127531809Y-74890380D01*
X127436571Y-75033238D01*
X127341333Y-75128476D01*
X127246095Y-75176095D01*
X128150857Y-74890380D02*
X128817523Y-74890380D01*
X128388952Y-75890380D01*
X133691333Y-83510380D02*
X133215142Y-83510380D01*
X133215142Y-82510380D01*
X134548476Y-83510380D02*
X133977047Y-83510380D01*
X134262761Y-83510380D02*
X134262761Y-82510380D01*
X134167523Y-82653238D01*
X134072285Y-82748476D01*
X133977047Y-82796095D01*
X119499142Y-79700380D02*
X119165809Y-79224190D01*
X118927714Y-79700380D02*
X118927714Y-78700380D01*
X119308666Y-78700380D01*
X119403904Y-78748000D01*
X119451523Y-78795619D01*
X119499142Y-78890857D01*
X119499142Y-79033714D01*
X119451523Y-79128952D01*
X119403904Y-79176571D01*
X119308666Y-79224190D01*
X118927714Y-79224190D01*
X119880095Y-78795619D02*
X119927714Y-78748000D01*
X120022952Y-78700380D01*
X120261047Y-78700380D01*
X120356285Y-78748000D01*
X120403904Y-78795619D01*
X120451523Y-78890857D01*
X120451523Y-78986095D01*
X120403904Y-79128952D01*
X119832476Y-79700380D01*
X120451523Y-79700380D01*
X121403904Y-79700380D02*
X120832476Y-79700380D01*
X121118190Y-79700380D02*
X121118190Y-78700380D01*
X121022952Y-78843238D01*
X120927714Y-78938476D01*
X120832476Y-78986095D01*
X119499142Y-76557142D02*
X119451523Y-76604761D01*
X119308666Y-76652380D01*
X119213428Y-76652380D01*
X119070571Y-76604761D01*
X118975333Y-76509523D01*
X118927714Y-76414285D01*
X118880095Y-76223809D01*
X118880095Y-76080952D01*
X118927714Y-75890476D01*
X118975333Y-75795238D01*
X119070571Y-75700000D01*
X119213428Y-75652380D01*
X119308666Y-75652380D01*
X119451523Y-75700000D01*
X119499142Y-75747619D01*
X120451523Y-76652380D02*
X119880095Y-76652380D01*
X120165809Y-76652380D02*
X120165809Y-75652380D01*
X120070571Y-75795238D01*
X119975333Y-75890476D01*
X119880095Y-75938095D01*
X121308666Y-75985714D02*
X121308666Y-76652380D01*
X121070571Y-75604761D02*
X120832476Y-76319047D01*
X121451523Y-76319047D01*
X135866190Y-72231190D02*
X136342380Y-72231190D01*
X135342380Y-72564523D02*
X135866190Y-72231190D01*
X135342380Y-71897857D01*
X136342380Y-71040714D02*
X136342380Y-71612142D01*
X136342380Y-71326428D02*
X135342380Y-71326428D01*
X135485238Y-71421666D01*
X135580476Y-71516904D01*
X135628095Y-71612142D01*
X135120142Y-78749142D02*
X135072523Y-78796761D01*
X134929666Y-78844380D01*
X134834428Y-78844380D01*
X134691571Y-78796761D01*
X134596333Y-78701523D01*
X134548714Y-78606285D01*
X134501095Y-78415809D01*
X134501095Y-78272952D01*
X134548714Y-78082476D01*
X134596333Y-77987238D01*
X134691571Y-77892000D01*
X134834428Y-77844380D01*
X134929666Y-77844380D01*
X135072523Y-77892000D01*
X135120142Y-77939619D01*
X136072523Y-78844380D02*
X135501095Y-78844380D01*
X135786809Y-78844380D02*
X135786809Y-77844380D01*
X135691571Y-77987238D01*
X135596333Y-78082476D01*
X135501095Y-78130095D01*
X136929666Y-77844380D02*
X136739190Y-77844380D01*
X136643952Y-77892000D01*
X136596333Y-77939619D01*
X136501095Y-78082476D01*
X136453476Y-78272952D01*
X136453476Y-78653904D01*
X136501095Y-78749142D01*
X136548714Y-78796761D01*
X136643952Y-78844380D01*
X136834428Y-78844380D01*
X136929666Y-78796761D01*
X136977285Y-78749142D01*
X137024904Y-78653904D01*
X137024904Y-78415809D01*
X136977285Y-78320571D01*
X136929666Y-78272952D01*
X136834428Y-78225333D01*
X136643952Y-78225333D01*
X136548714Y-78272952D01*
X136501095Y-78320571D01*
X136453476Y-78415809D01*
X140551143Y-75064857D02*
X140598762Y-75112476D01*
X140646381Y-75255333D01*
X140646381Y-75350571D01*
X140598762Y-75493428D01*
X140503524Y-75588666D01*
X140408286Y-75636285D01*
X140217810Y-75683904D01*
X140074953Y-75683904D01*
X139884477Y-75636285D01*
X139789239Y-75588666D01*
X139694001Y-75493428D01*
X139646381Y-75350571D01*
X139646381Y-75255333D01*
X139694001Y-75112476D01*
X139741620Y-75064857D01*
X140646381Y-74112476D02*
X140646381Y-74683904D01*
X140646381Y-74398190D02*
X139646381Y-74398190D01*
X139789239Y-74493428D01*
X139884477Y-74588666D01*
X139932096Y-74683904D01*
X139646381Y-73207714D02*
X139646381Y-73683904D01*
X140122572Y-73731523D01*
X140074953Y-73683904D01*
X140027334Y-73588666D01*
X140027334Y-73350571D01*
X140074953Y-73255333D01*
X140122572Y-73207714D01*
X140217810Y-73160095D01*
X140455905Y-73160095D01*
X140551143Y-73207714D01*
X140598762Y-73255333D01*
X140646381Y-73350571D01*
X140646381Y-73588666D01*
X140598762Y-73683904D01*
X140551143Y-73731523D01*
X119066642Y-89987380D02*
X118733309Y-89511190D01*
X118495214Y-89987380D02*
X118495214Y-88987380D01*
X118876166Y-88987380D01*
X118971404Y-89035000D01*
X119019023Y-89082619D01*
X119066642Y-89177857D01*
X119066642Y-89320714D01*
X119019023Y-89415952D01*
X118971404Y-89463571D01*
X118876166Y-89511190D01*
X118495214Y-89511190D01*
X120019023Y-89987380D02*
X119447595Y-89987380D01*
X119733309Y-89987380D02*
X119733309Y-88987380D01*
X119638071Y-89130238D01*
X119542833Y-89225476D01*
X119447595Y-89273095D01*
X120590452Y-89415952D02*
X120495214Y-89368333D01*
X120447595Y-89320714D01*
X120399976Y-89225476D01*
X120399976Y-89177857D01*
X120447595Y-89082619D01*
X120495214Y-89035000D01*
X120590452Y-88987380D01*
X120780928Y-88987380D01*
X120876166Y-89035000D01*
X120923785Y-89082619D01*
X120971404Y-89177857D01*
X120971404Y-89225476D01*
X120923785Y-89320714D01*
X120876166Y-89368333D01*
X120780928Y-89415952D01*
X120590452Y-89415952D01*
X120495214Y-89463571D01*
X120447595Y-89511190D01*
X120399976Y-89606428D01*
X120399976Y-89796904D01*
X120447595Y-89892142D01*
X120495214Y-89939761D01*
X120590452Y-89987380D01*
X120780928Y-89987380D01*
X120876166Y-89939761D01*
X120923785Y-89892142D01*
X120971404Y-89796904D01*
X120971404Y-89606428D01*
X120923785Y-89511190D01*
X120876166Y-89463571D01*
X120780928Y-89415952D01*
X119234382Y-73253860D02*
X118901049Y-72777670D01*
X118662954Y-73253860D02*
X118662954Y-72253860D01*
X119043906Y-72253860D01*
X119139144Y-72301480D01*
X119186763Y-72349099D01*
X119234382Y-72444337D01*
X119234382Y-72587194D01*
X119186763Y-72682432D01*
X119139144Y-72730051D01*
X119043906Y-72777670D01*
X118662954Y-72777670D01*
X120186763Y-73253860D02*
X119615335Y-73253860D01*
X119901049Y-73253860D02*
X119901049Y-72253860D01*
X119805811Y-72396718D01*
X119710573Y-72491956D01*
X119615335Y-72539575D01*
X120520097Y-72253860D02*
X121186763Y-72253860D01*
X120758192Y-73253860D01*
X119219142Y-66492380D02*
X118885809Y-66016190D01*
X118647714Y-66492380D02*
X118647714Y-65492380D01*
X119028666Y-65492380D01*
X119123904Y-65540000D01*
X119171523Y-65587619D01*
X119219142Y-65682857D01*
X119219142Y-65825714D01*
X119171523Y-65920952D01*
X119123904Y-65968571D01*
X119028666Y-66016190D01*
X118647714Y-66016190D01*
X120171523Y-66492380D02*
X119600095Y-66492380D01*
X119885809Y-66492380D02*
X119885809Y-65492380D01*
X119790571Y-65635238D01*
X119695333Y-65730476D01*
X119600095Y-65778095D01*
X121028666Y-65492380D02*
X120838190Y-65492380D01*
X120742952Y-65540000D01*
X120695333Y-65587619D01*
X120600095Y-65730476D01*
X120552476Y-65920952D01*
X120552476Y-66301904D01*
X120600095Y-66397142D01*
X120647714Y-66444761D01*
X120742952Y-66492380D01*
X120933428Y-66492380D01*
X121028666Y-66444761D01*
X121076285Y-66397142D01*
X121123904Y-66301904D01*
X121123904Y-66063809D01*
X121076285Y-65968571D01*
X121028666Y-65920952D01*
X120933428Y-65873333D01*
X120742952Y-65873333D01*
X120647714Y-65920952D01*
X120600095Y-65968571D01*
X120552476Y-66063809D01*
X119219142Y-54427380D02*
X118885809Y-53951190D01*
X118647714Y-54427380D02*
X118647714Y-53427380D01*
X119028666Y-53427380D01*
X119123904Y-53475000D01*
X119171523Y-53522619D01*
X119219142Y-53617857D01*
X119219142Y-53760714D01*
X119171523Y-53855952D01*
X119123904Y-53903571D01*
X119028666Y-53951190D01*
X118647714Y-53951190D01*
X120171523Y-54427380D02*
X119600095Y-54427380D01*
X119885809Y-54427380D02*
X119885809Y-53427380D01*
X119790571Y-53570238D01*
X119695333Y-53665476D01*
X119600095Y-53713095D01*
X121076285Y-53427380D02*
X120600095Y-53427380D01*
X120552476Y-53903571D01*
X120600095Y-53855952D01*
X120695333Y-53808333D01*
X120933428Y-53808333D01*
X121028666Y-53855952D01*
X121076285Y-53903571D01*
X121123904Y-53998809D01*
X121123904Y-54236904D01*
X121076285Y-54332142D01*
X121028666Y-54379761D01*
X120933428Y-54427380D01*
X120695333Y-54427380D01*
X120600095Y-54379761D01*
X120552476Y-54332142D01*
X119219142Y-86877142D02*
X119171523Y-86924761D01*
X119028666Y-86972380D01*
X118933428Y-86972380D01*
X118790571Y-86924761D01*
X118695333Y-86829523D01*
X118647714Y-86734285D01*
X118600095Y-86543809D01*
X118600095Y-86400952D01*
X118647714Y-86210476D01*
X118695333Y-86115238D01*
X118790571Y-86020000D01*
X118933428Y-85972380D01*
X119028666Y-85972380D01*
X119171523Y-86020000D01*
X119219142Y-86067619D01*
X120171523Y-86972380D02*
X119600095Y-86972380D01*
X119885809Y-86972380D02*
X119885809Y-85972380D01*
X119790571Y-86115238D01*
X119695333Y-86210476D01*
X119600095Y-86258095D01*
X121123904Y-86972380D02*
X120552476Y-86972380D01*
X120838190Y-86972380D02*
X120838190Y-85972380D01*
X120742952Y-86115238D01*
X120647714Y-86210476D01*
X120552476Y-86258095D01*
X119234382Y-70143622D02*
X119186763Y-70191241D01*
X119043906Y-70238860D01*
X118948668Y-70238860D01*
X118805811Y-70191241D01*
X118710573Y-70096003D01*
X118662954Y-70000765D01*
X118615335Y-69810289D01*
X118615335Y-69667432D01*
X118662954Y-69476956D01*
X118710573Y-69381718D01*
X118805811Y-69286480D01*
X118948668Y-69238860D01*
X119043906Y-69238860D01*
X119186763Y-69286480D01*
X119234382Y-69334099D01*
X120186763Y-70238860D02*
X119615335Y-70238860D01*
X119901049Y-70238860D02*
X119901049Y-69238860D01*
X119805811Y-69381718D01*
X119710573Y-69476956D01*
X119615335Y-69524575D01*
X120805811Y-69238860D02*
X120901049Y-69238860D01*
X120996287Y-69286480D01*
X121043906Y-69334099D01*
X121091525Y-69429337D01*
X121139144Y-69619813D01*
X121139144Y-69857908D01*
X121091525Y-70048384D01*
X121043906Y-70143622D01*
X120996287Y-70191241D01*
X120901049Y-70238860D01*
X120805811Y-70238860D01*
X120710573Y-70191241D01*
X120662954Y-70143622D01*
X120615335Y-70048384D01*
X120567716Y-69857908D01*
X120567716Y-69619813D01*
X120615335Y-69429337D01*
X120662954Y-69334099D01*
X120710573Y-69286480D01*
X120805811Y-69238860D01*
X119695333Y-63382142D02*
X119647714Y-63429761D01*
X119504857Y-63477380D01*
X119409619Y-63477380D01*
X119266761Y-63429761D01*
X119171523Y-63334523D01*
X119123904Y-63239285D01*
X119076285Y-63048809D01*
X119076285Y-62905952D01*
X119123904Y-62715476D01*
X119171523Y-62620238D01*
X119266761Y-62525000D01*
X119409619Y-62477380D01*
X119504857Y-62477380D01*
X119647714Y-62525000D01*
X119695333Y-62572619D01*
X120171523Y-63477380D02*
X120362000Y-63477380D01*
X120457238Y-63429761D01*
X120504857Y-63382142D01*
X120600095Y-63239285D01*
X120647714Y-63048809D01*
X120647714Y-62667857D01*
X120600095Y-62572619D01*
X120552476Y-62525000D01*
X120457238Y-62477380D01*
X120266761Y-62477380D01*
X120171523Y-62525000D01*
X120123904Y-62572619D01*
X120076285Y-62667857D01*
X120076285Y-62905952D01*
X120123904Y-63001190D01*
X120171523Y-63048809D01*
X120266761Y-63096428D01*
X120457238Y-63096428D01*
X120552476Y-63048809D01*
X120600095Y-63001190D01*
X120647714Y-62905952D01*
X119695333Y-51317142D02*
X119647714Y-51364761D01*
X119504857Y-51412380D01*
X119409619Y-51412380D01*
X119266761Y-51364761D01*
X119171523Y-51269523D01*
X119123904Y-51174285D01*
X119076285Y-50983809D01*
X119076285Y-50840952D01*
X119123904Y-50650476D01*
X119171523Y-50555238D01*
X119266761Y-50460000D01*
X119409619Y-50412380D01*
X119504857Y-50412380D01*
X119647714Y-50460000D01*
X119695333Y-50507619D01*
X120266761Y-50840952D02*
X120171523Y-50793333D01*
X120123904Y-50745714D01*
X120076285Y-50650476D01*
X120076285Y-50602857D01*
X120123904Y-50507619D01*
X120171523Y-50460000D01*
X120266761Y-50412380D01*
X120457238Y-50412380D01*
X120552476Y-50460000D01*
X120600095Y-50507619D01*
X120647714Y-50602857D01*
X120647714Y-50650476D01*
X120600095Y-50745714D01*
X120552476Y-50793333D01*
X120457238Y-50840952D01*
X120266761Y-50840952D01*
X120171523Y-50888571D01*
X120123904Y-50936190D01*
X120076285Y-51031428D01*
X120076285Y-51221904D01*
X120123904Y-51317142D01*
X120171523Y-51364761D01*
X120266761Y-51412380D01*
X120457238Y-51412380D01*
X120552476Y-51364761D01*
X120600095Y-51317142D01*
X120647714Y-51221904D01*
X120647714Y-51031428D01*
X120600095Y-50936190D01*
X120552476Y-50888571D01*
X120457238Y-50840952D01*
X147312142Y-85542380D02*
X146978809Y-85066190D01*
X146740714Y-85542380D02*
X146740714Y-84542380D01*
X147121666Y-84542380D01*
X147216904Y-84590000D01*
X147264523Y-84637619D01*
X147312142Y-84732857D01*
X147312142Y-84875714D01*
X147264523Y-84970952D01*
X147216904Y-85018571D01*
X147121666Y-85066190D01*
X146740714Y-85066190D01*
X148264523Y-85542380D02*
X147693095Y-85542380D01*
X147978809Y-85542380D02*
X147978809Y-84542380D01*
X147883571Y-84685238D01*
X147788333Y-84780476D01*
X147693095Y-84828095D01*
X149121666Y-84875714D02*
X149121666Y-85542380D01*
X148883571Y-84494761D02*
X148645476Y-85209047D01*
X149264523Y-85209047D01*
X142852380Y-87002857D02*
X142376190Y-87336190D01*
X142852380Y-87574285D02*
X141852380Y-87574285D01*
X141852380Y-87193333D01*
X141900000Y-87098095D01*
X141947619Y-87050476D01*
X142042857Y-87002857D01*
X142185714Y-87002857D01*
X142280952Y-87050476D01*
X142328571Y-87098095D01*
X142376190Y-87193333D01*
X142376190Y-87574285D01*
X142852380Y-86050476D02*
X142852380Y-86621904D01*
X142852380Y-86336190D02*
X141852380Y-86336190D01*
X141995238Y-86431428D01*
X142090476Y-86526666D01*
X142138095Y-86621904D01*
X141852380Y-85717142D02*
X141852380Y-85098095D01*
X142233333Y-85431428D01*
X142233333Y-85288571D01*
X142280952Y-85193333D01*
X142328571Y-85145714D01*
X142423809Y-85098095D01*
X142661904Y-85098095D01*
X142757142Y-85145714D01*
X142804761Y-85193333D01*
X142852380Y-85288571D01*
X142852380Y-85574285D01*
X142804761Y-85669523D01*
X142757142Y-85717142D01*
X114191142Y-79700380D02*
X113857809Y-79224190D01*
X113619714Y-79700380D02*
X113619714Y-78700380D01*
X114000666Y-78700380D01*
X114095904Y-78748000D01*
X114143523Y-78795619D01*
X114191142Y-78890857D01*
X114191142Y-79033714D01*
X114143523Y-79128952D01*
X114095904Y-79176571D01*
X114000666Y-79224190D01*
X113619714Y-79224190D01*
X115143523Y-79700380D02*
X114572095Y-79700380D01*
X114857809Y-79700380D02*
X114857809Y-78700380D01*
X114762571Y-78843238D01*
X114667333Y-78938476D01*
X114572095Y-78986095D01*
X115524476Y-78795619D02*
X115572095Y-78748000D01*
X115667333Y-78700380D01*
X115905428Y-78700380D01*
X116000666Y-78748000D01*
X116048285Y-78795619D01*
X116095904Y-78890857D01*
X116095904Y-78986095D01*
X116048285Y-79128952D01*
X115476857Y-79700380D01*
X116095904Y-79700380D01*
X114191142Y-90147380D02*
X113857809Y-89671190D01*
X113619714Y-90147380D02*
X113619714Y-89147380D01*
X114000666Y-89147380D01*
X114095904Y-89195000D01*
X114143523Y-89242619D01*
X114191142Y-89337857D01*
X114191142Y-89480714D01*
X114143523Y-89575952D01*
X114095904Y-89623571D01*
X114000666Y-89671190D01*
X113619714Y-89671190D01*
X115143523Y-90147380D02*
X114572095Y-90147380D01*
X114857809Y-90147380D02*
X114857809Y-89147380D01*
X114762571Y-89290238D01*
X114667333Y-89385476D01*
X114572095Y-89433095D01*
X116095904Y-90147380D02*
X115524476Y-90147380D01*
X115810190Y-90147380D02*
X115810190Y-89147380D01*
X115714952Y-89290238D01*
X115619714Y-89385476D01*
X115524476Y-89433095D01*
X114191142Y-101577380D02*
X113857809Y-101101190D01*
X113619714Y-101577380D02*
X113619714Y-100577380D01*
X114000666Y-100577380D01*
X114095904Y-100625000D01*
X114143523Y-100672619D01*
X114191142Y-100767857D01*
X114191142Y-100910714D01*
X114143523Y-101005952D01*
X114095904Y-101053571D01*
X114000666Y-101101190D01*
X113619714Y-101101190D01*
X115143523Y-101577380D02*
X114572095Y-101577380D01*
X114857809Y-101577380D02*
X114857809Y-100577380D01*
X114762571Y-100720238D01*
X114667333Y-100815476D01*
X114572095Y-100863095D01*
X115762571Y-100577380D02*
X115857809Y-100577380D01*
X115953047Y-100625000D01*
X116000666Y-100672619D01*
X116048285Y-100767857D01*
X116095904Y-100958333D01*
X116095904Y-101196428D01*
X116048285Y-101386904D01*
X116000666Y-101482142D01*
X115953047Y-101529761D01*
X115857809Y-101577380D01*
X115762571Y-101577380D01*
X115667333Y-101529761D01*
X115619714Y-101482142D01*
X115572095Y-101386904D01*
X115524476Y-101196428D01*
X115524476Y-100958333D01*
X115572095Y-100767857D01*
X115619714Y-100672619D01*
X115667333Y-100625000D01*
X115762571Y-100577380D01*
X114667333Y-66652380D02*
X114334000Y-66176190D01*
X114095904Y-66652380D02*
X114095904Y-65652380D01*
X114476857Y-65652380D01*
X114572095Y-65700000D01*
X114619714Y-65747619D01*
X114667333Y-65842857D01*
X114667333Y-65985714D01*
X114619714Y-66080952D01*
X114572095Y-66128571D01*
X114476857Y-66176190D01*
X114095904Y-66176190D01*
X115143523Y-66652380D02*
X115334000Y-66652380D01*
X115429238Y-66604761D01*
X115476857Y-66557142D01*
X115572095Y-66414285D01*
X115619714Y-66223809D01*
X115619714Y-65842857D01*
X115572095Y-65747619D01*
X115524476Y-65700000D01*
X115429238Y-65652380D01*
X115238761Y-65652380D01*
X115143523Y-65700000D01*
X115095904Y-65747619D01*
X115048285Y-65842857D01*
X115048285Y-66080952D01*
X115095904Y-66176190D01*
X115143523Y-66223809D01*
X115238761Y-66271428D01*
X115429238Y-66271428D01*
X115524476Y-66223809D01*
X115572095Y-66176190D01*
X115619714Y-66080952D01*
X114667333Y-54587380D02*
X114334000Y-54111190D01*
X114095904Y-54587380D02*
X114095904Y-53587380D01*
X114476857Y-53587380D01*
X114572095Y-53635000D01*
X114619714Y-53682619D01*
X114667333Y-53777857D01*
X114667333Y-53920714D01*
X114619714Y-54015952D01*
X114572095Y-54063571D01*
X114476857Y-54111190D01*
X114095904Y-54111190D01*
X115238761Y-54015952D02*
X115143523Y-53968333D01*
X115095904Y-53920714D01*
X115048285Y-53825476D01*
X115048285Y-53777857D01*
X115095904Y-53682619D01*
X115143523Y-53635000D01*
X115238761Y-53587380D01*
X115429238Y-53587380D01*
X115524476Y-53635000D01*
X115572095Y-53682619D01*
X115619714Y-53777857D01*
X115619714Y-53825476D01*
X115572095Y-53920714D01*
X115524476Y-53968333D01*
X115429238Y-54015952D01*
X115238761Y-54015952D01*
X115143523Y-54063571D01*
X115095904Y-54111190D01*
X115048285Y-54206428D01*
X115048285Y-54396904D01*
X115095904Y-54492142D01*
X115143523Y-54539761D01*
X115238761Y-54587380D01*
X115429238Y-54587380D01*
X115524476Y-54539761D01*
X115572095Y-54492142D01*
X115619714Y-54396904D01*
X115619714Y-54206428D01*
X115572095Y-54111190D01*
X115524476Y-54063571D01*
X115429238Y-54015952D01*
X114667333Y-43792380D02*
X114334000Y-43316190D01*
X114095904Y-43792380D02*
X114095904Y-42792380D01*
X114476857Y-42792380D01*
X114572095Y-42840000D01*
X114619714Y-42887619D01*
X114667333Y-42982857D01*
X114667333Y-43125714D01*
X114619714Y-43220952D01*
X114572095Y-43268571D01*
X114476857Y-43316190D01*
X114095904Y-43316190D01*
X115000666Y-42792380D02*
X115667333Y-42792380D01*
X115238761Y-43792380D01*
X110942380Y-77001666D02*
X110466190Y-77335000D01*
X110942380Y-77573095D02*
X109942380Y-77573095D01*
X109942380Y-77192142D01*
X109990000Y-77096904D01*
X110037619Y-77049285D01*
X110132857Y-77001666D01*
X110275714Y-77001666D01*
X110370952Y-77049285D01*
X110418571Y-77096904D01*
X110466190Y-77192142D01*
X110466190Y-77573095D01*
X109942380Y-76144523D02*
X109942380Y-76335000D01*
X109990000Y-76430238D01*
X110037619Y-76477857D01*
X110180476Y-76573095D01*
X110370952Y-76620714D01*
X110751904Y-76620714D01*
X110847142Y-76573095D01*
X110894761Y-76525476D01*
X110942380Y-76430238D01*
X110942380Y-76239761D01*
X110894761Y-76144523D01*
X110847142Y-76096904D01*
X110751904Y-76049285D01*
X110513809Y-76049285D01*
X110418571Y-76096904D01*
X110370952Y-76144523D01*
X110323333Y-76239761D01*
X110323333Y-76430238D01*
X110370952Y-76525476D01*
X110418571Y-76573095D01*
X110513809Y-76620714D01*
X110942380Y-87796666D02*
X110466190Y-88130000D01*
X110942380Y-88368095D02*
X109942380Y-88368095D01*
X109942380Y-87987142D01*
X109990000Y-87891904D01*
X110037619Y-87844285D01*
X110132857Y-87796666D01*
X110275714Y-87796666D01*
X110370952Y-87844285D01*
X110418571Y-87891904D01*
X110466190Y-87987142D01*
X110466190Y-88368095D01*
X109942380Y-86891904D02*
X109942380Y-87368095D01*
X110418571Y-87415714D01*
X110370952Y-87368095D01*
X110323333Y-87272857D01*
X110323333Y-87034761D01*
X110370952Y-86939523D01*
X110418571Y-86891904D01*
X110513809Y-86844285D01*
X110751904Y-86844285D01*
X110847142Y-86891904D01*
X110894761Y-86939523D01*
X110942380Y-87034761D01*
X110942380Y-87272857D01*
X110894761Y-87368095D01*
X110847142Y-87415714D01*
X110942380Y-99226666D02*
X110466190Y-99560000D01*
X110942380Y-99798095D02*
X109942380Y-99798095D01*
X109942380Y-99417142D01*
X109990000Y-99321904D01*
X110037619Y-99274285D01*
X110132857Y-99226666D01*
X110275714Y-99226666D01*
X110370952Y-99274285D01*
X110418571Y-99321904D01*
X110466190Y-99417142D01*
X110466190Y-99798095D01*
X110275714Y-98369523D02*
X110942380Y-98369523D01*
X109894761Y-98607619D02*
X110609047Y-98845714D01*
X110609047Y-98226666D01*
X110942380Y-64428666D02*
X110466190Y-64762000D01*
X110942380Y-65000095D02*
X109942380Y-65000095D01*
X109942380Y-64619142D01*
X109990000Y-64523904D01*
X110037619Y-64476285D01*
X110132857Y-64428666D01*
X110275714Y-64428666D01*
X110370952Y-64476285D01*
X110418571Y-64523904D01*
X110466190Y-64619142D01*
X110466190Y-65000095D01*
X109942380Y-64095333D02*
X109942380Y-63476285D01*
X110323333Y-63809619D01*
X110323333Y-63666761D01*
X110370952Y-63571523D01*
X110418571Y-63523904D01*
X110513809Y-63476285D01*
X110751904Y-63476285D01*
X110847142Y-63523904D01*
X110894761Y-63571523D01*
X110942380Y-63666761D01*
X110942380Y-63952476D01*
X110894761Y-64047714D01*
X110847142Y-64095333D01*
X110942380Y-52236666D02*
X110466190Y-52570000D01*
X110942380Y-52808095D02*
X109942380Y-52808095D01*
X109942380Y-52427142D01*
X109990000Y-52331904D01*
X110037619Y-52284285D01*
X110132857Y-52236666D01*
X110275714Y-52236666D01*
X110370952Y-52284285D01*
X110418571Y-52331904D01*
X110466190Y-52427142D01*
X110466190Y-52808095D01*
X110037619Y-51855714D02*
X109990000Y-51808095D01*
X109942380Y-51712857D01*
X109942380Y-51474761D01*
X109990000Y-51379523D01*
X110037619Y-51331904D01*
X110132857Y-51284285D01*
X110228095Y-51284285D01*
X110370952Y-51331904D01*
X110942380Y-51903333D01*
X110942380Y-51284285D01*
X110942380Y-41441666D02*
X110466190Y-41775000D01*
X110942380Y-42013095D02*
X109942380Y-42013095D01*
X109942380Y-41632142D01*
X109990000Y-41536904D01*
X110037619Y-41489285D01*
X110132857Y-41441666D01*
X110275714Y-41441666D01*
X110370952Y-41489285D01*
X110418571Y-41536904D01*
X110466190Y-41632142D01*
X110466190Y-42013095D01*
X110942380Y-40489285D02*
X110942380Y-41060714D01*
X110942380Y-40775000D02*
X109942380Y-40775000D01*
X110085238Y-40870238D01*
X110180476Y-40965476D01*
X110228095Y-41060714D01*
X157654666Y-54018380D02*
X157654666Y-54732666D01*
X157607047Y-54875523D01*
X157511809Y-54970761D01*
X157368952Y-55018380D01*
X157273714Y-55018380D01*
X158273714Y-54446952D02*
X158178476Y-54399333D01*
X158130857Y-54351714D01*
X158083238Y-54256476D01*
X158083238Y-54208857D01*
X158130857Y-54113619D01*
X158178476Y-54066000D01*
X158273714Y-54018380D01*
X158464190Y-54018380D01*
X158559428Y-54066000D01*
X158607047Y-54113619D01*
X158654666Y-54208857D01*
X158654666Y-54256476D01*
X158607047Y-54351714D01*
X158559428Y-54399333D01*
X158464190Y-54446952D01*
X158273714Y-54446952D01*
X158178476Y-54494571D01*
X158130857Y-54542190D01*
X158083238Y-54637428D01*
X158083238Y-54827904D01*
X158130857Y-54923142D01*
X158178476Y-54970761D01*
X158273714Y-55018380D01*
X158464190Y-55018380D01*
X158559428Y-54970761D01*
X158607047Y-54923142D01*
X158654666Y-54827904D01*
X158654666Y-54637428D01*
X158607047Y-54542190D01*
X158559428Y-54494571D01*
X158464190Y-54446952D01*
X146172380Y-102128333D02*
X146886666Y-102128333D01*
X147029523Y-102175952D01*
X147124761Y-102271190D01*
X147172380Y-102414047D01*
X147172380Y-102509285D01*
X146172380Y-101747380D02*
X146172380Y-101080714D01*
X147172380Y-101509285D01*
X90173380Y-75263333D02*
X90887666Y-75263333D01*
X91030523Y-75310952D01*
X91125761Y-75406190D01*
X91173380Y-75549047D01*
X91173380Y-75644285D01*
X90173380Y-74358571D02*
X90173380Y-74549047D01*
X90221000Y-74644285D01*
X90268619Y-74691904D01*
X90411476Y-74787142D01*
X90601952Y-74834761D01*
X90982904Y-74834761D01*
X91078142Y-74787142D01*
X91125761Y-74739523D01*
X91173380Y-74644285D01*
X91173380Y-74453809D01*
X91125761Y-74358571D01*
X91078142Y-74310952D01*
X90982904Y-74263333D01*
X90744809Y-74263333D01*
X90649571Y-74310952D01*
X90601952Y-74358571D01*
X90554333Y-74453809D01*
X90554333Y-74644285D01*
X90601952Y-74739523D01*
X90649571Y-74787142D01*
X90744809Y-74834761D01*
X90173380Y-86693333D02*
X90887666Y-86693333D01*
X91030523Y-86740952D01*
X91125761Y-86836190D01*
X91173380Y-86979047D01*
X91173380Y-87074285D01*
X90173380Y-85740952D02*
X90173380Y-86217142D01*
X90649571Y-86264761D01*
X90601952Y-86217142D01*
X90554333Y-86121904D01*
X90554333Y-85883809D01*
X90601952Y-85788571D01*
X90649571Y-85740952D01*
X90744809Y-85693333D01*
X90982904Y-85693333D01*
X91078142Y-85740952D01*
X91125761Y-85788571D01*
X91173380Y-85883809D01*
X91173380Y-86121904D01*
X91125761Y-86217142D01*
X91078142Y-86264761D01*
X90173380Y-98123333D02*
X90887666Y-98123333D01*
X91030523Y-98170952D01*
X91125761Y-98266190D01*
X91173380Y-98409047D01*
X91173380Y-98504285D01*
X90506714Y-97218571D02*
X91173380Y-97218571D01*
X90125761Y-97456666D02*
X90840047Y-97694761D01*
X90840047Y-97075714D01*
X90173380Y-62563333D02*
X90887666Y-62563333D01*
X91030523Y-62610952D01*
X91125761Y-62706190D01*
X91173380Y-62849047D01*
X91173380Y-62944285D01*
X90173380Y-62182380D02*
X90173380Y-61563333D01*
X90554333Y-61896666D01*
X90554333Y-61753809D01*
X90601952Y-61658571D01*
X90649571Y-61610952D01*
X90744809Y-61563333D01*
X90982904Y-61563333D01*
X91078142Y-61610952D01*
X91125761Y-61658571D01*
X91173380Y-61753809D01*
X91173380Y-62039523D01*
X91125761Y-62134761D01*
X91078142Y-62182380D01*
X90173380Y-51133333D02*
X90887666Y-51133333D01*
X91030523Y-51180952D01*
X91125761Y-51276190D01*
X91173380Y-51419047D01*
X91173380Y-51514285D01*
X90268619Y-50704761D02*
X90221000Y-50657142D01*
X90173380Y-50561904D01*
X90173380Y-50323809D01*
X90221000Y-50228571D01*
X90268619Y-50180952D01*
X90363857Y-50133333D01*
X90459095Y-50133333D01*
X90601952Y-50180952D01*
X91173380Y-50752380D01*
X91173380Y-50133333D01*
X90173380Y-39703333D02*
X90887666Y-39703333D01*
X91030523Y-39750952D01*
X91125761Y-39846190D01*
X91173380Y-39989047D01*
X91173380Y-40084285D01*
X91173380Y-38703333D02*
X91173380Y-39274761D01*
X91173380Y-38989047D02*
X90173380Y-38989047D01*
X90316238Y-39084285D01*
X90411476Y-39179523D01*
X90459095Y-39274761D01*
X147153333Y-82907142D02*
X147105714Y-82954761D01*
X146962857Y-83002380D01*
X146867619Y-83002380D01*
X146724761Y-82954761D01*
X146629523Y-82859523D01*
X146581904Y-82764285D01*
X146534285Y-82573809D01*
X146534285Y-82430952D01*
X146581904Y-82240476D01*
X146629523Y-82145238D01*
X146724761Y-82050000D01*
X146867619Y-82002380D01*
X146962857Y-82002380D01*
X147105714Y-82050000D01*
X147153333Y-82097619D01*
X147486666Y-82002380D02*
X148153333Y-82002380D01*
X147724761Y-83002380D01*
X114667333Y-76049142D02*
X114619714Y-76096761D01*
X114476857Y-76144380D01*
X114381619Y-76144380D01*
X114238761Y-76096761D01*
X114143523Y-76001523D01*
X114095904Y-75906285D01*
X114048285Y-75715809D01*
X114048285Y-75572952D01*
X114095904Y-75382476D01*
X114143523Y-75287238D01*
X114238761Y-75192000D01*
X114381619Y-75144380D01*
X114476857Y-75144380D01*
X114619714Y-75192000D01*
X114667333Y-75239619D01*
X115524476Y-75144380D02*
X115334000Y-75144380D01*
X115238761Y-75192000D01*
X115191142Y-75239619D01*
X115095904Y-75382476D01*
X115048285Y-75572952D01*
X115048285Y-75953904D01*
X115095904Y-76049142D01*
X115143523Y-76096761D01*
X115238761Y-76144380D01*
X115429238Y-76144380D01*
X115524476Y-76096761D01*
X115572095Y-76049142D01*
X115619714Y-75953904D01*
X115619714Y-75715809D01*
X115572095Y-75620571D01*
X115524476Y-75572952D01*
X115429238Y-75525333D01*
X115238761Y-75525333D01*
X115143523Y-75572952D01*
X115095904Y-75620571D01*
X115048285Y-75715809D01*
X114667333Y-86877142D02*
X114619714Y-86924761D01*
X114476857Y-86972380D01*
X114381619Y-86972380D01*
X114238761Y-86924761D01*
X114143523Y-86829523D01*
X114095904Y-86734285D01*
X114048285Y-86543809D01*
X114048285Y-86400952D01*
X114095904Y-86210476D01*
X114143523Y-86115238D01*
X114238761Y-86020000D01*
X114381619Y-85972380D01*
X114476857Y-85972380D01*
X114619714Y-86020000D01*
X114667333Y-86067619D01*
X115572095Y-85972380D02*
X115095904Y-85972380D01*
X115048285Y-86448571D01*
X115095904Y-86400952D01*
X115191142Y-86353333D01*
X115429238Y-86353333D01*
X115524476Y-86400952D01*
X115572095Y-86448571D01*
X115619714Y-86543809D01*
X115619714Y-86781904D01*
X115572095Y-86877142D01*
X115524476Y-86924761D01*
X115429238Y-86972380D01*
X115191142Y-86972380D01*
X115095904Y-86924761D01*
X115048285Y-86877142D01*
X114667333Y-98307142D02*
X114619714Y-98354761D01*
X114476857Y-98402380D01*
X114381619Y-98402380D01*
X114238761Y-98354761D01*
X114143523Y-98259523D01*
X114095904Y-98164285D01*
X114048285Y-97973809D01*
X114048285Y-97830952D01*
X114095904Y-97640476D01*
X114143523Y-97545238D01*
X114238761Y-97450000D01*
X114381619Y-97402380D01*
X114476857Y-97402380D01*
X114619714Y-97450000D01*
X114667333Y-97497619D01*
X115524476Y-97735714D02*
X115524476Y-98402380D01*
X115286380Y-97354761D02*
X115048285Y-98069047D01*
X115667333Y-98069047D01*
X114768333Y-63382142D02*
X114720714Y-63429761D01*
X114577857Y-63477380D01*
X114482619Y-63477380D01*
X114339761Y-63429761D01*
X114244523Y-63334523D01*
X114196904Y-63239285D01*
X114149285Y-63048809D01*
X114149285Y-62905952D01*
X114196904Y-62715476D01*
X114244523Y-62620238D01*
X114339761Y-62525000D01*
X114482619Y-62477380D01*
X114577857Y-62477380D01*
X114720714Y-62525000D01*
X114768333Y-62572619D01*
X115101666Y-62477380D02*
X115720714Y-62477380D01*
X115387380Y-62858333D01*
X115530238Y-62858333D01*
X115625476Y-62905952D01*
X115673095Y-62953571D01*
X115720714Y-63048809D01*
X115720714Y-63286904D01*
X115673095Y-63382142D01*
X115625476Y-63429761D01*
X115530238Y-63477380D01*
X115244523Y-63477380D01*
X115149285Y-63429761D01*
X115101666Y-63382142D01*
X114768333Y-51317142D02*
X114720714Y-51364761D01*
X114577857Y-51412380D01*
X114482619Y-51412380D01*
X114339761Y-51364761D01*
X114244523Y-51269523D01*
X114196904Y-51174285D01*
X114149285Y-50983809D01*
X114149285Y-50840952D01*
X114196904Y-50650476D01*
X114244523Y-50555238D01*
X114339761Y-50460000D01*
X114482619Y-50412380D01*
X114577857Y-50412380D01*
X114720714Y-50460000D01*
X114768333Y-50507619D01*
X115149285Y-50507619D02*
X115196904Y-50460000D01*
X115292142Y-50412380D01*
X115530238Y-50412380D01*
X115625476Y-50460000D01*
X115673095Y-50507619D01*
X115720714Y-50602857D01*
X115720714Y-50698095D01*
X115673095Y-50840952D01*
X115101666Y-51412380D01*
X115720714Y-51412380D01*
X114667333Y-40522142D02*
X114619714Y-40569761D01*
X114476857Y-40617380D01*
X114381619Y-40617380D01*
X114238761Y-40569761D01*
X114143523Y-40474523D01*
X114095904Y-40379285D01*
X114048285Y-40188809D01*
X114048285Y-40045952D01*
X114095904Y-39855476D01*
X114143523Y-39760238D01*
X114238761Y-39665000D01*
X114381619Y-39617380D01*
X114476857Y-39617380D01*
X114619714Y-39665000D01*
X114667333Y-39712619D01*
X115619714Y-40617380D02*
X115048285Y-40617380D01*
X115334000Y-40617380D02*
X115334000Y-39617380D01*
X115238761Y-39760238D01*
X115143523Y-39855476D01*
X115048285Y-39903095D01*
M02*
