G04 #@! TF.GenerationSoftware,KiCad,Pcbnew,(5.1.5)-3*
G04 #@! TF.CreationDate,2020-02-29T11:27:19+11:00*
G04 #@! TF.ProjectId,ADE7816_Breakout,41444537-3831-4365-9f42-7265616b6f75,rev?*
G04 #@! TF.SameCoordinates,Original*
G04 #@! TF.FileFunction,Copper,L2,Bot*
G04 #@! TF.FilePolarity,Positive*
%FSLAX46Y46*%
G04 Gerber Fmt 4.6, Leading zero omitted, Abs format (unit mm)*
G04 Created by KiCad (PCBNEW (5.1.5)-3) date 2020-02-29 11:27:19*
%MOMM*%
%LPD*%
G04 APERTURE LIST*
%ADD10C,0.100000*%
%ADD11C,0.500000*%
%ADD12O,1.700000X1.700000*%
%ADD13R,1.700000X1.700000*%
%ADD14R,3.500000X3.500000*%
%ADD15C,0.800000*%
%ADD16C,0.250000*%
%ADD17C,0.254000*%
G04 APERTURE END LIST*
G04 #@! TA.AperFunction,Conductor*
D10*
G36*
X133654506Y-66146204D02*
G01*
X133678774Y-66149804D01*
X133702573Y-66155765D01*
X133725672Y-66164030D01*
X133747850Y-66174519D01*
X133768893Y-66187132D01*
X133788599Y-66201747D01*
X133806777Y-66218223D01*
X133823253Y-66236401D01*
X133837868Y-66256107D01*
X133850481Y-66277150D01*
X133860970Y-66299328D01*
X133869235Y-66322427D01*
X133875196Y-66346226D01*
X133878796Y-66370494D01*
X133880000Y-66394998D01*
X133880000Y-69495002D01*
X133878796Y-69519506D01*
X133875196Y-69543774D01*
X133869235Y-69567573D01*
X133860970Y-69590672D01*
X133850481Y-69612850D01*
X133837868Y-69633893D01*
X133823253Y-69653599D01*
X133806777Y-69671777D01*
X133788599Y-69688253D01*
X133768893Y-69702868D01*
X133747850Y-69715481D01*
X133725672Y-69725970D01*
X133702573Y-69734235D01*
X133678774Y-69740196D01*
X133654506Y-69743796D01*
X133630002Y-69745000D01*
X130529998Y-69745000D01*
X130505494Y-69743796D01*
X130481226Y-69740196D01*
X130457427Y-69734235D01*
X130434328Y-69725970D01*
X130412150Y-69715481D01*
X130391107Y-69702868D01*
X130371401Y-69688253D01*
X130353223Y-69671777D01*
X130336747Y-69653599D01*
X130322132Y-69633893D01*
X130309519Y-69612850D01*
X130299030Y-69590672D01*
X130290765Y-69567573D01*
X130284804Y-69543774D01*
X130281204Y-69519506D01*
X130280000Y-69495002D01*
X130280000Y-66394998D01*
X130281204Y-66370494D01*
X130284804Y-66346226D01*
X130290765Y-66322427D01*
X130299030Y-66299328D01*
X130309519Y-66277150D01*
X130322132Y-66256107D01*
X130336747Y-66236401D01*
X130353223Y-66218223D01*
X130371401Y-66201747D01*
X130391107Y-66187132D01*
X130412150Y-66174519D01*
X130434328Y-66164030D01*
X130457427Y-66155765D01*
X130481226Y-66149804D01*
X130505494Y-66146204D01*
X130529998Y-66145000D01*
X133630002Y-66145000D01*
X133654506Y-66146204D01*
G37*
G04 #@! TD.AperFunction*
D11*
X130530000Y-69495000D03*
X130530000Y-68461667D03*
X130530000Y-67428333D03*
X130530000Y-66395000D03*
X131563333Y-69495000D03*
X131563333Y-68461667D03*
X131563333Y-67428333D03*
X131563333Y-66395000D03*
X132596667Y-69495000D03*
X132596667Y-68461667D03*
X132596667Y-67428333D03*
X132596667Y-66395000D03*
X133630000Y-69495000D03*
X133630000Y-68461667D03*
X133630000Y-67428333D03*
X133630000Y-66395000D03*
D12*
X157988000Y-79756000D03*
X157988000Y-77216000D03*
X157988000Y-74676000D03*
X157988000Y-72136000D03*
X157988000Y-69596000D03*
X157988000Y-67056000D03*
X157988000Y-64516000D03*
X157988000Y-61976000D03*
X157988000Y-59436000D03*
D13*
X157988000Y-56896000D03*
G04 #@! TA.AperFunction,ComponentPad*
D10*
G36*
X146630765Y-94599213D02*
G01*
X146715704Y-94611813D01*
X146798999Y-94632677D01*
X146879848Y-94661605D01*
X146957472Y-94698319D01*
X147031124Y-94742464D01*
X147100094Y-94793616D01*
X147163718Y-94851282D01*
X147221384Y-94914906D01*
X147272536Y-94983876D01*
X147316681Y-95057528D01*
X147353395Y-95135152D01*
X147382323Y-95216001D01*
X147403187Y-95299296D01*
X147415787Y-95384235D01*
X147420000Y-95470000D01*
X147420000Y-97220000D01*
X147415787Y-97305765D01*
X147403187Y-97390704D01*
X147382323Y-97473999D01*
X147353395Y-97554848D01*
X147316681Y-97632472D01*
X147272536Y-97706124D01*
X147221384Y-97775094D01*
X147163718Y-97838718D01*
X147100094Y-97896384D01*
X147031124Y-97947536D01*
X146957472Y-97991681D01*
X146879848Y-98028395D01*
X146798999Y-98057323D01*
X146715704Y-98078187D01*
X146630765Y-98090787D01*
X146545000Y-98095000D01*
X144795000Y-98095000D01*
X144709235Y-98090787D01*
X144624296Y-98078187D01*
X144541001Y-98057323D01*
X144460152Y-98028395D01*
X144382528Y-97991681D01*
X144308876Y-97947536D01*
X144239906Y-97896384D01*
X144176282Y-97838718D01*
X144118616Y-97775094D01*
X144067464Y-97706124D01*
X144023319Y-97632472D01*
X143986605Y-97554848D01*
X143957677Y-97473999D01*
X143936813Y-97390704D01*
X143924213Y-97305765D01*
X143920000Y-97220000D01*
X143920000Y-95470000D01*
X143924213Y-95384235D01*
X143936813Y-95299296D01*
X143957677Y-95216001D01*
X143986605Y-95135152D01*
X144023319Y-95057528D01*
X144067464Y-94983876D01*
X144118616Y-94914906D01*
X144176282Y-94851282D01*
X144239906Y-94793616D01*
X144308876Y-94742464D01*
X144382528Y-94698319D01*
X144460152Y-94661605D01*
X144541001Y-94632677D01*
X144624296Y-94611813D01*
X144709235Y-94599213D01*
X144795000Y-94595000D01*
X146545000Y-94595000D01*
X146630765Y-94599213D01*
G37*
G04 #@! TD.AperFunction*
G04 #@! TA.AperFunction,ComponentPad*
G36*
X142043513Y-97848611D02*
G01*
X142116318Y-97859411D01*
X142187714Y-97877295D01*
X142257013Y-97902090D01*
X142323548Y-97933559D01*
X142386678Y-97971398D01*
X142445795Y-98015242D01*
X142500330Y-98064670D01*
X142549758Y-98119205D01*
X142593602Y-98178322D01*
X142631441Y-98241452D01*
X142662910Y-98307987D01*
X142687705Y-98377286D01*
X142705589Y-98448682D01*
X142716389Y-98521487D01*
X142720000Y-98595000D01*
X142720000Y-100095000D01*
X142716389Y-100168513D01*
X142705589Y-100241318D01*
X142687705Y-100312714D01*
X142662910Y-100382013D01*
X142631441Y-100448548D01*
X142593602Y-100511678D01*
X142549758Y-100570795D01*
X142500330Y-100625330D01*
X142445795Y-100674758D01*
X142386678Y-100718602D01*
X142323548Y-100756441D01*
X142257013Y-100787910D01*
X142187714Y-100812705D01*
X142116318Y-100830589D01*
X142043513Y-100841389D01*
X141970000Y-100845000D01*
X139970000Y-100845000D01*
X139896487Y-100841389D01*
X139823682Y-100830589D01*
X139752286Y-100812705D01*
X139682987Y-100787910D01*
X139616452Y-100756441D01*
X139553322Y-100718602D01*
X139494205Y-100674758D01*
X139439670Y-100625330D01*
X139390242Y-100570795D01*
X139346398Y-100511678D01*
X139308559Y-100448548D01*
X139277090Y-100382013D01*
X139252295Y-100312714D01*
X139234411Y-100241318D01*
X139223611Y-100168513D01*
X139220000Y-100095000D01*
X139220000Y-98595000D01*
X139223611Y-98521487D01*
X139234411Y-98448682D01*
X139252295Y-98377286D01*
X139277090Y-98307987D01*
X139308559Y-98241452D01*
X139346398Y-98178322D01*
X139390242Y-98119205D01*
X139439670Y-98064670D01*
X139494205Y-98015242D01*
X139553322Y-97971398D01*
X139616452Y-97933559D01*
X139682987Y-97902090D01*
X139752286Y-97877295D01*
X139823682Y-97859411D01*
X139896487Y-97848611D01*
X139970000Y-97845000D01*
X141970000Y-97845000D01*
X142043513Y-97848611D01*
G37*
G04 #@! TD.AperFunction*
D14*
X140970000Y-93345000D03*
D15*
X129540000Y-71882000D03*
X119074500Y-63297500D03*
X119176700Y-75697180D03*
X119089740Y-70058980D03*
X119074500Y-86665500D03*
X119074500Y-51105500D03*
X111760000Y-71653400D03*
X111760000Y-83312000D03*
X111734600Y-94716600D03*
X111760000Y-58928000D03*
X111760000Y-48260000D03*
X111810800Y-36322000D03*
X122682000Y-74930000D03*
X157480000Y-99060000D03*
X157480000Y-95250000D03*
X157480000Y-91440000D03*
X157480000Y-87630000D03*
X151130000Y-104140000D03*
X147320000Y-104140000D03*
X143510000Y-104140000D03*
X139700000Y-104140000D03*
X135890000Y-104140000D03*
X132080000Y-104140000D03*
X121920000Y-104140000D03*
X118110000Y-104140000D03*
X114300000Y-104140000D03*
X110490000Y-104140000D03*
X106680000Y-104140000D03*
X102870000Y-104140000D03*
X99060000Y-104140000D03*
X99060000Y-91440000D03*
X102870000Y-91440000D03*
X99060000Y-80010000D03*
X102870000Y-80010000D03*
X99060000Y-68580000D03*
X102870000Y-68580000D03*
X99060000Y-55880000D03*
X102870000Y-55880000D03*
X121920000Y-33020000D03*
X118110000Y-33020000D03*
X114300000Y-33020000D03*
X110490000Y-33020000D03*
X106680000Y-33020000D03*
X102870000Y-33020000D03*
X99060000Y-33020000D03*
X124460000Y-39370000D03*
X124460000Y-43180000D03*
X124460000Y-45720000D03*
X157480000Y-85090000D03*
X153670000Y-85090000D03*
X149860000Y-85090000D03*
X99060000Y-44450000D03*
X102870000Y-44450000D03*
X138028680Y-60045600D03*
X132080000Y-33020000D03*
X135890000Y-33020000D03*
X139700000Y-33020000D03*
X143510000Y-33020000D03*
X147320000Y-33020000D03*
X151130000Y-33020000D03*
X157480000Y-39370000D03*
X157480000Y-43180000D03*
X157480000Y-46990000D03*
X157480000Y-50800000D03*
X157480000Y-54610000D03*
X129540000Y-38100000D03*
X129540000Y-41910000D03*
X129540000Y-45720000D03*
X129540000Y-49530000D03*
X153416000Y-77216000D03*
X147370800Y-57912000D03*
X132486400Y-73543160D03*
X124218700Y-68135500D03*
X138290300Y-85471000D03*
X122174000Y-77216000D03*
X120649500Y-82042500D03*
D16*
X129540000Y-70485000D02*
X132080000Y-67945000D01*
X129540000Y-71882000D02*
X129540000Y-70485000D01*
X125730000Y-71882000D02*
X122682000Y-74930000D01*
X129540000Y-71882000D02*
X125730000Y-71882000D01*
X153416000Y-59182998D02*
X152145002Y-57912000D01*
X153416000Y-77216000D02*
X153416000Y-59182998D01*
X152145002Y-57912000D02*
X147370800Y-57912000D01*
X136159240Y-77216000D02*
X132486400Y-73543160D01*
X153416000Y-77216000D02*
X136159240Y-77216000D01*
X138290300Y-85471000D02*
X124574300Y-85471000D01*
X124574300Y-85471000D02*
X123164600Y-84061300D01*
X123164600Y-84061300D02*
X123164600Y-76835000D01*
X123164600Y-76835000D02*
X120027700Y-73698100D01*
X124218700Y-69507100D02*
X124218700Y-68135500D01*
X120027700Y-73698100D02*
X124218700Y-69507100D01*
X120649500Y-78740500D02*
X122174000Y-77216000D01*
X120649500Y-82042500D02*
X120649500Y-78740500D01*
D17*
G36*
X126873000Y-32155000D02*
G01*
X126789721Y-32155000D01*
X126377244Y-32237047D01*
X125988698Y-32397988D01*
X125639017Y-32631637D01*
X125341637Y-32929017D01*
X125107988Y-33278698D01*
X124947047Y-33667244D01*
X124865000Y-34079721D01*
X124865000Y-34500279D01*
X124947047Y-34912756D01*
X125107988Y-35301302D01*
X125341637Y-35650983D01*
X125639017Y-35948363D01*
X125988698Y-36182012D01*
X126377244Y-36342953D01*
X126789721Y-36425000D01*
X126873000Y-36425000D01*
X126873000Y-74930000D01*
X126875440Y-74954776D01*
X126882667Y-74978601D01*
X126894403Y-75000557D01*
X126910197Y-75019803D01*
X126929443Y-75035597D01*
X126951399Y-75047333D01*
X126975224Y-75054560D01*
X127000000Y-75057000D01*
X132925439Y-75057000D01*
X133223000Y-75354561D01*
X133223000Y-83820000D01*
X133225440Y-83844776D01*
X133232667Y-83868601D01*
X133244403Y-83890557D01*
X133260197Y-83909803D01*
X133279443Y-83925597D01*
X133301399Y-83937333D01*
X133325224Y-83944560D01*
X133350000Y-83947000D01*
X159360000Y-83947000D01*
X159360000Y-102837721D01*
X159296904Y-103481221D01*
X159119394Y-104069164D01*
X158831063Y-104611436D01*
X158442906Y-105087364D01*
X157969686Y-105478845D01*
X157429449Y-105770950D01*
X156842756Y-105952563D01*
X156201130Y-106020000D01*
X97822279Y-106020000D01*
X97178779Y-105956904D01*
X96590836Y-105779394D01*
X96048564Y-105491063D01*
X95572636Y-105102906D01*
X95181155Y-104629686D01*
X94889050Y-104089449D01*
X94707437Y-103502756D01*
X94640000Y-102861130D01*
X94640000Y-102659721D01*
X124865000Y-102659721D01*
X124865000Y-103080279D01*
X124947047Y-103492756D01*
X125107988Y-103881302D01*
X125341637Y-104230983D01*
X125639017Y-104528363D01*
X125988698Y-104762012D01*
X126377244Y-104922953D01*
X126789721Y-105005000D01*
X127210279Y-105005000D01*
X127622756Y-104922953D01*
X128011302Y-104762012D01*
X128360983Y-104528363D01*
X128658363Y-104230983D01*
X128892012Y-103881302D01*
X129052953Y-103492756D01*
X129135000Y-103080279D01*
X129135000Y-102659721D01*
X154075000Y-102659721D01*
X154075000Y-103080279D01*
X154157047Y-103492756D01*
X154317988Y-103881302D01*
X154551637Y-104230983D01*
X154849017Y-104528363D01*
X155198698Y-104762012D01*
X155587244Y-104922953D01*
X155999721Y-105005000D01*
X156420279Y-105005000D01*
X156832756Y-104922953D01*
X157221302Y-104762012D01*
X157570983Y-104528363D01*
X157868363Y-104230983D01*
X158102012Y-103881302D01*
X158262953Y-103492756D01*
X158345000Y-103080279D01*
X158345000Y-102659721D01*
X158262953Y-102247244D01*
X158102012Y-101858698D01*
X157868363Y-101509017D01*
X157570983Y-101211637D01*
X157221302Y-100977988D01*
X156832756Y-100817047D01*
X156420279Y-100735000D01*
X155999721Y-100735000D01*
X155587244Y-100817047D01*
X155198698Y-100977988D01*
X154849017Y-101211637D01*
X154551637Y-101509017D01*
X154317988Y-101858698D01*
X154157047Y-102247244D01*
X154075000Y-102659721D01*
X129135000Y-102659721D01*
X129052953Y-102247244D01*
X128892012Y-101858698D01*
X128658363Y-101509017D01*
X128360983Y-101211637D01*
X128011302Y-100977988D01*
X127690241Y-100845000D01*
X138581928Y-100845000D01*
X138594188Y-100969482D01*
X138630498Y-101089180D01*
X138689463Y-101199494D01*
X138768815Y-101296185D01*
X138865506Y-101375537D01*
X138975820Y-101434502D01*
X139095518Y-101470812D01*
X139220000Y-101483072D01*
X140684250Y-101480000D01*
X140843000Y-101321250D01*
X140843000Y-99472000D01*
X141097000Y-99472000D01*
X141097000Y-101321250D01*
X141255750Y-101480000D01*
X142720000Y-101483072D01*
X142844482Y-101470812D01*
X142964180Y-101434502D01*
X143074494Y-101375537D01*
X143171185Y-101296185D01*
X143250537Y-101199494D01*
X143309502Y-101089180D01*
X143345812Y-100969482D01*
X143358072Y-100845000D01*
X143355000Y-99630750D01*
X143196250Y-99472000D01*
X141097000Y-99472000D01*
X140843000Y-99472000D01*
X138743750Y-99472000D01*
X138585000Y-99630750D01*
X138581928Y-100845000D01*
X127690241Y-100845000D01*
X127622756Y-100817047D01*
X127210279Y-100735000D01*
X126789721Y-100735000D01*
X126377244Y-100817047D01*
X125988698Y-100977988D01*
X125639017Y-101211637D01*
X125341637Y-101509017D01*
X125107988Y-101858698D01*
X124947047Y-102247244D01*
X124865000Y-102659721D01*
X94640000Y-102659721D01*
X94640000Y-97643740D01*
X96636000Y-97643740D01*
X96636000Y-97936260D01*
X96693068Y-98223158D01*
X96805010Y-98493411D01*
X96967525Y-98736632D01*
X97174368Y-98943475D01*
X97417589Y-99105990D01*
X97687842Y-99217932D01*
X97974740Y-99275000D01*
X98267260Y-99275000D01*
X98554158Y-99217932D01*
X98824411Y-99105990D01*
X99067632Y-98943475D01*
X99274475Y-98736632D01*
X99436990Y-98493411D01*
X99548932Y-98223158D01*
X99606000Y-97936260D01*
X99606000Y-97643740D01*
X103636000Y-97643740D01*
X103636000Y-97936260D01*
X103693068Y-98223158D01*
X103805010Y-98493411D01*
X103967525Y-98736632D01*
X104174368Y-98943475D01*
X104417589Y-99105990D01*
X104687842Y-99217932D01*
X104974740Y-99275000D01*
X105267260Y-99275000D01*
X105554158Y-99217932D01*
X105824411Y-99105990D01*
X106067632Y-98943475D01*
X106274475Y-98736632D01*
X106436990Y-98493411D01*
X106548932Y-98223158D01*
X106606000Y-97936260D01*
X106606000Y-97845000D01*
X138581928Y-97845000D01*
X138585000Y-99059250D01*
X138743750Y-99218000D01*
X140843000Y-99218000D01*
X140843000Y-97368750D01*
X141097000Y-97368750D01*
X141097000Y-99218000D01*
X143196250Y-99218000D01*
X143355000Y-99059250D01*
X143358072Y-97845000D01*
X143345812Y-97720518D01*
X143309502Y-97600820D01*
X143250537Y-97490506D01*
X143171185Y-97393815D01*
X143074494Y-97314463D01*
X142964180Y-97255498D01*
X142844482Y-97219188D01*
X142720000Y-97206928D01*
X141255750Y-97210000D01*
X141097000Y-97368750D01*
X140843000Y-97368750D01*
X140684250Y-97210000D01*
X139220000Y-97206928D01*
X139095518Y-97219188D01*
X138975820Y-97255498D01*
X138865506Y-97314463D01*
X138768815Y-97393815D01*
X138689463Y-97490506D01*
X138630498Y-97600820D01*
X138594188Y-97720518D01*
X138581928Y-97845000D01*
X106606000Y-97845000D01*
X106606000Y-97643740D01*
X106548932Y-97356842D01*
X106436990Y-97086589D01*
X106274475Y-96843368D01*
X106067632Y-96636525D01*
X105824411Y-96474010D01*
X105554158Y-96362068D01*
X105267260Y-96305000D01*
X104974740Y-96305000D01*
X104687842Y-96362068D01*
X104417589Y-96474010D01*
X104174368Y-96636525D01*
X103967525Y-96843368D01*
X103805010Y-97086589D01*
X103693068Y-97356842D01*
X103636000Y-97643740D01*
X99606000Y-97643740D01*
X99548932Y-97356842D01*
X99436990Y-97086589D01*
X99274475Y-96843368D01*
X99067632Y-96636525D01*
X98824411Y-96474010D01*
X98554158Y-96362068D01*
X98267260Y-96305000D01*
X97974740Y-96305000D01*
X97687842Y-96362068D01*
X97417589Y-96474010D01*
X97174368Y-96636525D01*
X96967525Y-96843368D01*
X96805010Y-97086589D01*
X96693068Y-97356842D01*
X96636000Y-97643740D01*
X94640000Y-97643740D01*
X94640000Y-91595000D01*
X138581928Y-91595000D01*
X138581928Y-95095000D01*
X138594188Y-95219482D01*
X138630498Y-95339180D01*
X138689463Y-95449494D01*
X138768815Y-95546185D01*
X138865506Y-95625537D01*
X138975820Y-95684502D01*
X139095518Y-95720812D01*
X139220000Y-95733072D01*
X142720000Y-95733072D01*
X142844482Y-95720812D01*
X142964180Y-95684502D01*
X143074494Y-95625537D01*
X143171185Y-95546185D01*
X143250537Y-95449494D01*
X143291494Y-95372869D01*
X143281928Y-95470000D01*
X143281928Y-97220000D01*
X143311001Y-97515186D01*
X143397104Y-97799028D01*
X143536927Y-98060618D01*
X143725097Y-98289903D01*
X143954382Y-98478073D01*
X144215972Y-98617896D01*
X144499814Y-98703999D01*
X144795000Y-98733072D01*
X146545000Y-98733072D01*
X146840186Y-98703999D01*
X147124028Y-98617896D01*
X147385618Y-98478073D01*
X147614903Y-98289903D01*
X147803073Y-98060618D01*
X147942896Y-97799028D01*
X148028999Y-97515186D01*
X148058072Y-97220000D01*
X148058072Y-95470000D01*
X148028999Y-95174814D01*
X147942896Y-94890972D01*
X147803073Y-94629382D01*
X147614903Y-94400097D01*
X147385618Y-94211927D01*
X147124028Y-94072104D01*
X146840186Y-93986001D01*
X146545000Y-93956928D01*
X144795000Y-93956928D01*
X144499814Y-93986001D01*
X144215972Y-94072104D01*
X143954382Y-94211927D01*
X143725097Y-94400097D01*
X143536927Y-94629382D01*
X143397104Y-94890972D01*
X143358072Y-95019643D01*
X143358072Y-91595000D01*
X143345812Y-91470518D01*
X143309502Y-91350820D01*
X143250537Y-91240506D01*
X143171185Y-91143815D01*
X143074494Y-91064463D01*
X142964180Y-91005498D01*
X142844482Y-90969188D01*
X142720000Y-90956928D01*
X139220000Y-90956928D01*
X139095518Y-90969188D01*
X138975820Y-91005498D01*
X138865506Y-91064463D01*
X138768815Y-91143815D01*
X138689463Y-91240506D01*
X138630498Y-91350820D01*
X138594188Y-91470518D01*
X138581928Y-91595000D01*
X94640000Y-91595000D01*
X94640000Y-86213740D01*
X96636000Y-86213740D01*
X96636000Y-86506260D01*
X96693068Y-86793158D01*
X96805010Y-87063411D01*
X96967525Y-87306632D01*
X97174368Y-87513475D01*
X97417589Y-87675990D01*
X97687842Y-87787932D01*
X97974740Y-87845000D01*
X98267260Y-87845000D01*
X98554158Y-87787932D01*
X98824411Y-87675990D01*
X99067632Y-87513475D01*
X99274475Y-87306632D01*
X99436990Y-87063411D01*
X99548932Y-86793158D01*
X99606000Y-86506260D01*
X99606000Y-86213740D01*
X103636000Y-86213740D01*
X103636000Y-86506260D01*
X103693068Y-86793158D01*
X103805010Y-87063411D01*
X103967525Y-87306632D01*
X104174368Y-87513475D01*
X104417589Y-87675990D01*
X104687842Y-87787932D01*
X104974740Y-87845000D01*
X105267260Y-87845000D01*
X105554158Y-87787932D01*
X105824411Y-87675990D01*
X106067632Y-87513475D01*
X106274475Y-87306632D01*
X106436990Y-87063411D01*
X106548932Y-86793158D01*
X106606000Y-86506260D01*
X106606000Y-86213740D01*
X106548932Y-85926842D01*
X106436990Y-85656589D01*
X106274475Y-85413368D01*
X106067632Y-85206525D01*
X105824411Y-85044010D01*
X105554158Y-84932068D01*
X105267260Y-84875000D01*
X104974740Y-84875000D01*
X104687842Y-84932068D01*
X104417589Y-85044010D01*
X104174368Y-85206525D01*
X103967525Y-85413368D01*
X103805010Y-85656589D01*
X103693068Y-85926842D01*
X103636000Y-86213740D01*
X99606000Y-86213740D01*
X99548932Y-85926842D01*
X99436990Y-85656589D01*
X99274475Y-85413368D01*
X99067632Y-85206525D01*
X98824411Y-85044010D01*
X98554158Y-84932068D01*
X98267260Y-84875000D01*
X97974740Y-84875000D01*
X97687842Y-84932068D01*
X97417589Y-85044010D01*
X97174368Y-85206525D01*
X96967525Y-85413368D01*
X96805010Y-85656589D01*
X96693068Y-85926842D01*
X96636000Y-86213740D01*
X94640000Y-86213740D01*
X94640000Y-74783740D01*
X96636000Y-74783740D01*
X96636000Y-75076260D01*
X96693068Y-75363158D01*
X96805010Y-75633411D01*
X96967525Y-75876632D01*
X97174368Y-76083475D01*
X97417589Y-76245990D01*
X97687842Y-76357932D01*
X97974740Y-76415000D01*
X98267260Y-76415000D01*
X98554158Y-76357932D01*
X98824411Y-76245990D01*
X99067632Y-76083475D01*
X99274475Y-75876632D01*
X99436990Y-75633411D01*
X99548932Y-75363158D01*
X99606000Y-75076260D01*
X99606000Y-74783740D01*
X103636000Y-74783740D01*
X103636000Y-75076260D01*
X103693068Y-75363158D01*
X103805010Y-75633411D01*
X103967525Y-75876632D01*
X104174368Y-76083475D01*
X104417589Y-76245990D01*
X104687842Y-76357932D01*
X104974740Y-76415000D01*
X105267260Y-76415000D01*
X105554158Y-76357932D01*
X105824411Y-76245990D01*
X106067632Y-76083475D01*
X106274475Y-75876632D01*
X106436990Y-75633411D01*
X106548932Y-75363158D01*
X106606000Y-75076260D01*
X106606000Y-74783740D01*
X106548932Y-74496842D01*
X106436990Y-74226589D01*
X106274475Y-73983368D01*
X106067632Y-73776525D01*
X105950261Y-73698100D01*
X119264024Y-73698100D01*
X119278698Y-73847085D01*
X119322154Y-73990346D01*
X119392726Y-74122376D01*
X119487699Y-74238101D01*
X119516703Y-74261904D01*
X121605724Y-76350926D01*
X121514226Y-76412063D01*
X121370063Y-76556226D01*
X121256795Y-76725744D01*
X121178774Y-76914102D01*
X121139000Y-77114061D01*
X121139000Y-77176198D01*
X120138498Y-78176701D01*
X120109500Y-78200499D01*
X120085702Y-78229497D01*
X120085701Y-78229498D01*
X120014526Y-78316224D01*
X119943954Y-78448254D01*
X119918554Y-78531990D01*
X119900498Y-78591514D01*
X119895335Y-78643932D01*
X119885824Y-78740500D01*
X119889501Y-78777832D01*
X119889500Y-81338789D01*
X119845563Y-81382726D01*
X119732295Y-81552244D01*
X119654274Y-81740602D01*
X119614500Y-81940561D01*
X119614500Y-82144439D01*
X119654274Y-82344398D01*
X119732295Y-82532756D01*
X119845563Y-82702274D01*
X119989726Y-82846437D01*
X120159244Y-82959705D01*
X120347602Y-83037726D01*
X120547561Y-83077500D01*
X120751439Y-83077500D01*
X120951398Y-83037726D01*
X121139756Y-82959705D01*
X121309274Y-82846437D01*
X121453437Y-82702274D01*
X121566705Y-82532756D01*
X121644726Y-82344398D01*
X121684500Y-82144439D01*
X121684500Y-81940561D01*
X121644726Y-81740602D01*
X121566705Y-81552244D01*
X121453437Y-81382726D01*
X121409500Y-81338789D01*
X121409500Y-79055301D01*
X122213802Y-78251000D01*
X122275939Y-78251000D01*
X122404601Y-78225408D01*
X122404600Y-84023977D01*
X122400924Y-84061300D01*
X122404600Y-84098622D01*
X122404600Y-84098632D01*
X122415597Y-84210285D01*
X122459054Y-84353546D01*
X122529626Y-84485576D01*
X122569471Y-84534126D01*
X122624599Y-84601301D01*
X122653603Y-84625104D01*
X124010501Y-85982003D01*
X124034299Y-86011001D01*
X124150024Y-86105974D01*
X124282053Y-86176546D01*
X124425314Y-86220003D01*
X124536967Y-86231000D01*
X124536977Y-86231000D01*
X124574300Y-86234676D01*
X124611623Y-86231000D01*
X137586589Y-86231000D01*
X137630526Y-86274937D01*
X137800044Y-86388205D01*
X137988402Y-86466226D01*
X138188361Y-86506000D01*
X138392239Y-86506000D01*
X138592198Y-86466226D01*
X138780556Y-86388205D01*
X138950074Y-86274937D01*
X139094237Y-86130774D01*
X139207505Y-85961256D01*
X139285526Y-85772898D01*
X139325300Y-85572939D01*
X139325300Y-85369061D01*
X139285526Y-85169102D01*
X139207505Y-84980744D01*
X139094237Y-84811226D01*
X138950074Y-84667063D01*
X138780556Y-84553795D01*
X138592198Y-84475774D01*
X138392239Y-84436000D01*
X138188361Y-84436000D01*
X137988402Y-84475774D01*
X137800044Y-84553795D01*
X137630526Y-84667063D01*
X137586589Y-84711000D01*
X124889102Y-84711000D01*
X123924600Y-83746499D01*
X123924600Y-76872333D01*
X123928277Y-76835000D01*
X123913603Y-76686014D01*
X123870146Y-76542753D01*
X123799574Y-76410724D01*
X123728399Y-76323997D01*
X123704601Y-76294999D01*
X123675603Y-76271201D01*
X121102501Y-73698100D01*
X124729704Y-70070898D01*
X124758701Y-70047101D01*
X124806236Y-69989180D01*
X124853674Y-69931377D01*
X124924246Y-69799347D01*
X124924246Y-69799346D01*
X124967703Y-69656086D01*
X124978700Y-69544433D01*
X124978700Y-69544424D01*
X124982376Y-69507101D01*
X124978700Y-69469778D01*
X124978700Y-68839211D01*
X125022637Y-68795274D01*
X125135905Y-68625756D01*
X125213926Y-68437398D01*
X125253700Y-68237439D01*
X125253700Y-68033561D01*
X125213926Y-67833602D01*
X125135905Y-67645244D01*
X125022637Y-67475726D01*
X124878474Y-67331563D01*
X124708956Y-67218295D01*
X124520598Y-67140274D01*
X124320639Y-67100500D01*
X124116761Y-67100500D01*
X123916802Y-67140274D01*
X123728444Y-67218295D01*
X123558926Y-67331563D01*
X123414763Y-67475726D01*
X123301495Y-67645244D01*
X123223474Y-67833602D01*
X123183700Y-68033561D01*
X123183700Y-68237439D01*
X123223474Y-68437398D01*
X123301495Y-68625756D01*
X123414763Y-68795274D01*
X123458700Y-68839211D01*
X123458700Y-69192298D01*
X119516703Y-73134296D01*
X119487699Y-73158099D01*
X119411528Y-73250914D01*
X119392726Y-73273824D01*
X119322154Y-73405854D01*
X119278698Y-73549115D01*
X119264024Y-73698100D01*
X105950261Y-73698100D01*
X105824411Y-73614010D01*
X105554158Y-73502068D01*
X105267260Y-73445000D01*
X104974740Y-73445000D01*
X104687842Y-73502068D01*
X104417589Y-73614010D01*
X104174368Y-73776525D01*
X103967525Y-73983368D01*
X103805010Y-74226589D01*
X103693068Y-74496842D01*
X103636000Y-74783740D01*
X99606000Y-74783740D01*
X99548932Y-74496842D01*
X99436990Y-74226589D01*
X99274475Y-73983368D01*
X99067632Y-73776525D01*
X98824411Y-73614010D01*
X98554158Y-73502068D01*
X98267260Y-73445000D01*
X97974740Y-73445000D01*
X97687842Y-73502068D01*
X97417589Y-73614010D01*
X97174368Y-73776525D01*
X96967525Y-73983368D01*
X96805010Y-74226589D01*
X96693068Y-74496842D01*
X96636000Y-74783740D01*
X94640000Y-74783740D01*
X94640000Y-62083740D01*
X96636000Y-62083740D01*
X96636000Y-62376260D01*
X96693068Y-62663158D01*
X96805010Y-62933411D01*
X96967525Y-63176632D01*
X97174368Y-63383475D01*
X97417589Y-63545990D01*
X97687842Y-63657932D01*
X97974740Y-63715000D01*
X98267260Y-63715000D01*
X98554158Y-63657932D01*
X98824411Y-63545990D01*
X99067632Y-63383475D01*
X99274475Y-63176632D01*
X99436990Y-62933411D01*
X99548932Y-62663158D01*
X99606000Y-62376260D01*
X99606000Y-62083740D01*
X103636000Y-62083740D01*
X103636000Y-62376260D01*
X103693068Y-62663158D01*
X103805010Y-62933411D01*
X103967525Y-63176632D01*
X104174368Y-63383475D01*
X104417589Y-63545990D01*
X104687842Y-63657932D01*
X104974740Y-63715000D01*
X105267260Y-63715000D01*
X105554158Y-63657932D01*
X105824411Y-63545990D01*
X106067632Y-63383475D01*
X106274475Y-63176632D01*
X106436990Y-62933411D01*
X106548932Y-62663158D01*
X106606000Y-62376260D01*
X106606000Y-62083740D01*
X106548932Y-61796842D01*
X106436990Y-61526589D01*
X106274475Y-61283368D01*
X106067632Y-61076525D01*
X105824411Y-60914010D01*
X105554158Y-60802068D01*
X105267260Y-60745000D01*
X104974740Y-60745000D01*
X104687842Y-60802068D01*
X104417589Y-60914010D01*
X104174368Y-61076525D01*
X103967525Y-61283368D01*
X103805010Y-61526589D01*
X103693068Y-61796842D01*
X103636000Y-62083740D01*
X99606000Y-62083740D01*
X99548932Y-61796842D01*
X99436990Y-61526589D01*
X99274475Y-61283368D01*
X99067632Y-61076525D01*
X98824411Y-60914010D01*
X98554158Y-60802068D01*
X98267260Y-60745000D01*
X97974740Y-60745000D01*
X97687842Y-60802068D01*
X97417589Y-60914010D01*
X97174368Y-61076525D01*
X96967525Y-61283368D01*
X96805010Y-61526589D01*
X96693068Y-61796842D01*
X96636000Y-62083740D01*
X94640000Y-62083740D01*
X94640000Y-50653740D01*
X96636000Y-50653740D01*
X96636000Y-50946260D01*
X96693068Y-51233158D01*
X96805010Y-51503411D01*
X96967525Y-51746632D01*
X97174368Y-51953475D01*
X97417589Y-52115990D01*
X97687842Y-52227932D01*
X97974740Y-52285000D01*
X98267260Y-52285000D01*
X98554158Y-52227932D01*
X98824411Y-52115990D01*
X99067632Y-51953475D01*
X99274475Y-51746632D01*
X99436990Y-51503411D01*
X99548932Y-51233158D01*
X99606000Y-50946260D01*
X99606000Y-50653740D01*
X103636000Y-50653740D01*
X103636000Y-50946260D01*
X103693068Y-51233158D01*
X103805010Y-51503411D01*
X103967525Y-51746632D01*
X104174368Y-51953475D01*
X104417589Y-52115990D01*
X104687842Y-52227932D01*
X104974740Y-52285000D01*
X105267260Y-52285000D01*
X105554158Y-52227932D01*
X105824411Y-52115990D01*
X106067632Y-51953475D01*
X106274475Y-51746632D01*
X106436990Y-51503411D01*
X106548932Y-51233158D01*
X106606000Y-50946260D01*
X106606000Y-50653740D01*
X106548932Y-50366842D01*
X106436990Y-50096589D01*
X106274475Y-49853368D01*
X106067632Y-49646525D01*
X105824411Y-49484010D01*
X105554158Y-49372068D01*
X105267260Y-49315000D01*
X104974740Y-49315000D01*
X104687842Y-49372068D01*
X104417589Y-49484010D01*
X104174368Y-49646525D01*
X103967525Y-49853368D01*
X103805010Y-50096589D01*
X103693068Y-50366842D01*
X103636000Y-50653740D01*
X99606000Y-50653740D01*
X99548932Y-50366842D01*
X99436990Y-50096589D01*
X99274475Y-49853368D01*
X99067632Y-49646525D01*
X98824411Y-49484010D01*
X98554158Y-49372068D01*
X98267260Y-49315000D01*
X97974740Y-49315000D01*
X97687842Y-49372068D01*
X97417589Y-49484010D01*
X97174368Y-49646525D01*
X96967525Y-49853368D01*
X96805010Y-50096589D01*
X96693068Y-50366842D01*
X96636000Y-50653740D01*
X94640000Y-50653740D01*
X94640000Y-39223740D01*
X96636000Y-39223740D01*
X96636000Y-39516260D01*
X96693068Y-39803158D01*
X96805010Y-40073411D01*
X96967525Y-40316632D01*
X97174368Y-40523475D01*
X97417589Y-40685990D01*
X97687842Y-40797932D01*
X97974740Y-40855000D01*
X98267260Y-40855000D01*
X98554158Y-40797932D01*
X98824411Y-40685990D01*
X99067632Y-40523475D01*
X99274475Y-40316632D01*
X99436990Y-40073411D01*
X99548932Y-39803158D01*
X99606000Y-39516260D01*
X99606000Y-39223740D01*
X103636000Y-39223740D01*
X103636000Y-39516260D01*
X103693068Y-39803158D01*
X103805010Y-40073411D01*
X103967525Y-40316632D01*
X104174368Y-40523475D01*
X104417589Y-40685990D01*
X104687842Y-40797932D01*
X104974740Y-40855000D01*
X105267260Y-40855000D01*
X105554158Y-40797932D01*
X105824411Y-40685990D01*
X106067632Y-40523475D01*
X106274475Y-40316632D01*
X106436990Y-40073411D01*
X106548932Y-39803158D01*
X106606000Y-39516260D01*
X106606000Y-39223740D01*
X106548932Y-38936842D01*
X106436990Y-38666589D01*
X106274475Y-38423368D01*
X106067632Y-38216525D01*
X105824411Y-38054010D01*
X105554158Y-37942068D01*
X105267260Y-37885000D01*
X104974740Y-37885000D01*
X104687842Y-37942068D01*
X104417589Y-38054010D01*
X104174368Y-38216525D01*
X103967525Y-38423368D01*
X103805010Y-38666589D01*
X103693068Y-38936842D01*
X103636000Y-39223740D01*
X99606000Y-39223740D01*
X99548932Y-38936842D01*
X99436990Y-38666589D01*
X99274475Y-38423368D01*
X99067632Y-38216525D01*
X98824411Y-38054010D01*
X98554158Y-37942068D01*
X98267260Y-37885000D01*
X97974740Y-37885000D01*
X97687842Y-37942068D01*
X97417589Y-38054010D01*
X97174368Y-38216525D01*
X96967525Y-38423368D01*
X96805010Y-38666589D01*
X96693068Y-38936842D01*
X96636000Y-39223740D01*
X94640000Y-39223740D01*
X94640000Y-34322279D01*
X94703096Y-33678778D01*
X94880606Y-33090836D01*
X95168937Y-32548564D01*
X95557094Y-32072636D01*
X96030314Y-31681155D01*
X96570552Y-31389049D01*
X97157244Y-31207437D01*
X97798879Y-31140000D01*
X126873000Y-31140000D01*
X126873000Y-32155000D01*
G37*
X126873000Y-32155000D02*
X126789721Y-32155000D01*
X126377244Y-32237047D01*
X125988698Y-32397988D01*
X125639017Y-32631637D01*
X125341637Y-32929017D01*
X125107988Y-33278698D01*
X124947047Y-33667244D01*
X124865000Y-34079721D01*
X124865000Y-34500279D01*
X124947047Y-34912756D01*
X125107988Y-35301302D01*
X125341637Y-35650983D01*
X125639017Y-35948363D01*
X125988698Y-36182012D01*
X126377244Y-36342953D01*
X126789721Y-36425000D01*
X126873000Y-36425000D01*
X126873000Y-74930000D01*
X126875440Y-74954776D01*
X126882667Y-74978601D01*
X126894403Y-75000557D01*
X126910197Y-75019803D01*
X126929443Y-75035597D01*
X126951399Y-75047333D01*
X126975224Y-75054560D01*
X127000000Y-75057000D01*
X132925439Y-75057000D01*
X133223000Y-75354561D01*
X133223000Y-83820000D01*
X133225440Y-83844776D01*
X133232667Y-83868601D01*
X133244403Y-83890557D01*
X133260197Y-83909803D01*
X133279443Y-83925597D01*
X133301399Y-83937333D01*
X133325224Y-83944560D01*
X133350000Y-83947000D01*
X159360000Y-83947000D01*
X159360000Y-102837721D01*
X159296904Y-103481221D01*
X159119394Y-104069164D01*
X158831063Y-104611436D01*
X158442906Y-105087364D01*
X157969686Y-105478845D01*
X157429449Y-105770950D01*
X156842756Y-105952563D01*
X156201130Y-106020000D01*
X97822279Y-106020000D01*
X97178779Y-105956904D01*
X96590836Y-105779394D01*
X96048564Y-105491063D01*
X95572636Y-105102906D01*
X95181155Y-104629686D01*
X94889050Y-104089449D01*
X94707437Y-103502756D01*
X94640000Y-102861130D01*
X94640000Y-102659721D01*
X124865000Y-102659721D01*
X124865000Y-103080279D01*
X124947047Y-103492756D01*
X125107988Y-103881302D01*
X125341637Y-104230983D01*
X125639017Y-104528363D01*
X125988698Y-104762012D01*
X126377244Y-104922953D01*
X126789721Y-105005000D01*
X127210279Y-105005000D01*
X127622756Y-104922953D01*
X128011302Y-104762012D01*
X128360983Y-104528363D01*
X128658363Y-104230983D01*
X128892012Y-103881302D01*
X129052953Y-103492756D01*
X129135000Y-103080279D01*
X129135000Y-102659721D01*
X154075000Y-102659721D01*
X154075000Y-103080279D01*
X154157047Y-103492756D01*
X154317988Y-103881302D01*
X154551637Y-104230983D01*
X154849017Y-104528363D01*
X155198698Y-104762012D01*
X155587244Y-104922953D01*
X155999721Y-105005000D01*
X156420279Y-105005000D01*
X156832756Y-104922953D01*
X157221302Y-104762012D01*
X157570983Y-104528363D01*
X157868363Y-104230983D01*
X158102012Y-103881302D01*
X158262953Y-103492756D01*
X158345000Y-103080279D01*
X158345000Y-102659721D01*
X158262953Y-102247244D01*
X158102012Y-101858698D01*
X157868363Y-101509017D01*
X157570983Y-101211637D01*
X157221302Y-100977988D01*
X156832756Y-100817047D01*
X156420279Y-100735000D01*
X155999721Y-100735000D01*
X155587244Y-100817047D01*
X155198698Y-100977988D01*
X154849017Y-101211637D01*
X154551637Y-101509017D01*
X154317988Y-101858698D01*
X154157047Y-102247244D01*
X154075000Y-102659721D01*
X129135000Y-102659721D01*
X129052953Y-102247244D01*
X128892012Y-101858698D01*
X128658363Y-101509017D01*
X128360983Y-101211637D01*
X128011302Y-100977988D01*
X127690241Y-100845000D01*
X138581928Y-100845000D01*
X138594188Y-100969482D01*
X138630498Y-101089180D01*
X138689463Y-101199494D01*
X138768815Y-101296185D01*
X138865506Y-101375537D01*
X138975820Y-101434502D01*
X139095518Y-101470812D01*
X139220000Y-101483072D01*
X140684250Y-101480000D01*
X140843000Y-101321250D01*
X140843000Y-99472000D01*
X141097000Y-99472000D01*
X141097000Y-101321250D01*
X141255750Y-101480000D01*
X142720000Y-101483072D01*
X142844482Y-101470812D01*
X142964180Y-101434502D01*
X143074494Y-101375537D01*
X143171185Y-101296185D01*
X143250537Y-101199494D01*
X143309502Y-101089180D01*
X143345812Y-100969482D01*
X143358072Y-100845000D01*
X143355000Y-99630750D01*
X143196250Y-99472000D01*
X141097000Y-99472000D01*
X140843000Y-99472000D01*
X138743750Y-99472000D01*
X138585000Y-99630750D01*
X138581928Y-100845000D01*
X127690241Y-100845000D01*
X127622756Y-100817047D01*
X127210279Y-100735000D01*
X126789721Y-100735000D01*
X126377244Y-100817047D01*
X125988698Y-100977988D01*
X125639017Y-101211637D01*
X125341637Y-101509017D01*
X125107988Y-101858698D01*
X124947047Y-102247244D01*
X124865000Y-102659721D01*
X94640000Y-102659721D01*
X94640000Y-97643740D01*
X96636000Y-97643740D01*
X96636000Y-97936260D01*
X96693068Y-98223158D01*
X96805010Y-98493411D01*
X96967525Y-98736632D01*
X97174368Y-98943475D01*
X97417589Y-99105990D01*
X97687842Y-99217932D01*
X97974740Y-99275000D01*
X98267260Y-99275000D01*
X98554158Y-99217932D01*
X98824411Y-99105990D01*
X99067632Y-98943475D01*
X99274475Y-98736632D01*
X99436990Y-98493411D01*
X99548932Y-98223158D01*
X99606000Y-97936260D01*
X99606000Y-97643740D01*
X103636000Y-97643740D01*
X103636000Y-97936260D01*
X103693068Y-98223158D01*
X103805010Y-98493411D01*
X103967525Y-98736632D01*
X104174368Y-98943475D01*
X104417589Y-99105990D01*
X104687842Y-99217932D01*
X104974740Y-99275000D01*
X105267260Y-99275000D01*
X105554158Y-99217932D01*
X105824411Y-99105990D01*
X106067632Y-98943475D01*
X106274475Y-98736632D01*
X106436990Y-98493411D01*
X106548932Y-98223158D01*
X106606000Y-97936260D01*
X106606000Y-97845000D01*
X138581928Y-97845000D01*
X138585000Y-99059250D01*
X138743750Y-99218000D01*
X140843000Y-99218000D01*
X140843000Y-97368750D01*
X141097000Y-97368750D01*
X141097000Y-99218000D01*
X143196250Y-99218000D01*
X143355000Y-99059250D01*
X143358072Y-97845000D01*
X143345812Y-97720518D01*
X143309502Y-97600820D01*
X143250537Y-97490506D01*
X143171185Y-97393815D01*
X143074494Y-97314463D01*
X142964180Y-97255498D01*
X142844482Y-97219188D01*
X142720000Y-97206928D01*
X141255750Y-97210000D01*
X141097000Y-97368750D01*
X140843000Y-97368750D01*
X140684250Y-97210000D01*
X139220000Y-97206928D01*
X139095518Y-97219188D01*
X138975820Y-97255498D01*
X138865506Y-97314463D01*
X138768815Y-97393815D01*
X138689463Y-97490506D01*
X138630498Y-97600820D01*
X138594188Y-97720518D01*
X138581928Y-97845000D01*
X106606000Y-97845000D01*
X106606000Y-97643740D01*
X106548932Y-97356842D01*
X106436990Y-97086589D01*
X106274475Y-96843368D01*
X106067632Y-96636525D01*
X105824411Y-96474010D01*
X105554158Y-96362068D01*
X105267260Y-96305000D01*
X104974740Y-96305000D01*
X104687842Y-96362068D01*
X104417589Y-96474010D01*
X104174368Y-96636525D01*
X103967525Y-96843368D01*
X103805010Y-97086589D01*
X103693068Y-97356842D01*
X103636000Y-97643740D01*
X99606000Y-97643740D01*
X99548932Y-97356842D01*
X99436990Y-97086589D01*
X99274475Y-96843368D01*
X99067632Y-96636525D01*
X98824411Y-96474010D01*
X98554158Y-96362068D01*
X98267260Y-96305000D01*
X97974740Y-96305000D01*
X97687842Y-96362068D01*
X97417589Y-96474010D01*
X97174368Y-96636525D01*
X96967525Y-96843368D01*
X96805010Y-97086589D01*
X96693068Y-97356842D01*
X96636000Y-97643740D01*
X94640000Y-97643740D01*
X94640000Y-91595000D01*
X138581928Y-91595000D01*
X138581928Y-95095000D01*
X138594188Y-95219482D01*
X138630498Y-95339180D01*
X138689463Y-95449494D01*
X138768815Y-95546185D01*
X138865506Y-95625537D01*
X138975820Y-95684502D01*
X139095518Y-95720812D01*
X139220000Y-95733072D01*
X142720000Y-95733072D01*
X142844482Y-95720812D01*
X142964180Y-95684502D01*
X143074494Y-95625537D01*
X143171185Y-95546185D01*
X143250537Y-95449494D01*
X143291494Y-95372869D01*
X143281928Y-95470000D01*
X143281928Y-97220000D01*
X143311001Y-97515186D01*
X143397104Y-97799028D01*
X143536927Y-98060618D01*
X143725097Y-98289903D01*
X143954382Y-98478073D01*
X144215972Y-98617896D01*
X144499814Y-98703999D01*
X144795000Y-98733072D01*
X146545000Y-98733072D01*
X146840186Y-98703999D01*
X147124028Y-98617896D01*
X147385618Y-98478073D01*
X147614903Y-98289903D01*
X147803073Y-98060618D01*
X147942896Y-97799028D01*
X148028999Y-97515186D01*
X148058072Y-97220000D01*
X148058072Y-95470000D01*
X148028999Y-95174814D01*
X147942896Y-94890972D01*
X147803073Y-94629382D01*
X147614903Y-94400097D01*
X147385618Y-94211927D01*
X147124028Y-94072104D01*
X146840186Y-93986001D01*
X146545000Y-93956928D01*
X144795000Y-93956928D01*
X144499814Y-93986001D01*
X144215972Y-94072104D01*
X143954382Y-94211927D01*
X143725097Y-94400097D01*
X143536927Y-94629382D01*
X143397104Y-94890972D01*
X143358072Y-95019643D01*
X143358072Y-91595000D01*
X143345812Y-91470518D01*
X143309502Y-91350820D01*
X143250537Y-91240506D01*
X143171185Y-91143815D01*
X143074494Y-91064463D01*
X142964180Y-91005498D01*
X142844482Y-90969188D01*
X142720000Y-90956928D01*
X139220000Y-90956928D01*
X139095518Y-90969188D01*
X138975820Y-91005498D01*
X138865506Y-91064463D01*
X138768815Y-91143815D01*
X138689463Y-91240506D01*
X138630498Y-91350820D01*
X138594188Y-91470518D01*
X138581928Y-91595000D01*
X94640000Y-91595000D01*
X94640000Y-86213740D01*
X96636000Y-86213740D01*
X96636000Y-86506260D01*
X96693068Y-86793158D01*
X96805010Y-87063411D01*
X96967525Y-87306632D01*
X97174368Y-87513475D01*
X97417589Y-87675990D01*
X97687842Y-87787932D01*
X97974740Y-87845000D01*
X98267260Y-87845000D01*
X98554158Y-87787932D01*
X98824411Y-87675990D01*
X99067632Y-87513475D01*
X99274475Y-87306632D01*
X99436990Y-87063411D01*
X99548932Y-86793158D01*
X99606000Y-86506260D01*
X99606000Y-86213740D01*
X103636000Y-86213740D01*
X103636000Y-86506260D01*
X103693068Y-86793158D01*
X103805010Y-87063411D01*
X103967525Y-87306632D01*
X104174368Y-87513475D01*
X104417589Y-87675990D01*
X104687842Y-87787932D01*
X104974740Y-87845000D01*
X105267260Y-87845000D01*
X105554158Y-87787932D01*
X105824411Y-87675990D01*
X106067632Y-87513475D01*
X106274475Y-87306632D01*
X106436990Y-87063411D01*
X106548932Y-86793158D01*
X106606000Y-86506260D01*
X106606000Y-86213740D01*
X106548932Y-85926842D01*
X106436990Y-85656589D01*
X106274475Y-85413368D01*
X106067632Y-85206525D01*
X105824411Y-85044010D01*
X105554158Y-84932068D01*
X105267260Y-84875000D01*
X104974740Y-84875000D01*
X104687842Y-84932068D01*
X104417589Y-85044010D01*
X104174368Y-85206525D01*
X103967525Y-85413368D01*
X103805010Y-85656589D01*
X103693068Y-85926842D01*
X103636000Y-86213740D01*
X99606000Y-86213740D01*
X99548932Y-85926842D01*
X99436990Y-85656589D01*
X99274475Y-85413368D01*
X99067632Y-85206525D01*
X98824411Y-85044010D01*
X98554158Y-84932068D01*
X98267260Y-84875000D01*
X97974740Y-84875000D01*
X97687842Y-84932068D01*
X97417589Y-85044010D01*
X97174368Y-85206525D01*
X96967525Y-85413368D01*
X96805010Y-85656589D01*
X96693068Y-85926842D01*
X96636000Y-86213740D01*
X94640000Y-86213740D01*
X94640000Y-74783740D01*
X96636000Y-74783740D01*
X96636000Y-75076260D01*
X96693068Y-75363158D01*
X96805010Y-75633411D01*
X96967525Y-75876632D01*
X97174368Y-76083475D01*
X97417589Y-76245990D01*
X97687842Y-76357932D01*
X97974740Y-76415000D01*
X98267260Y-76415000D01*
X98554158Y-76357932D01*
X98824411Y-76245990D01*
X99067632Y-76083475D01*
X99274475Y-75876632D01*
X99436990Y-75633411D01*
X99548932Y-75363158D01*
X99606000Y-75076260D01*
X99606000Y-74783740D01*
X103636000Y-74783740D01*
X103636000Y-75076260D01*
X103693068Y-75363158D01*
X103805010Y-75633411D01*
X103967525Y-75876632D01*
X104174368Y-76083475D01*
X104417589Y-76245990D01*
X104687842Y-76357932D01*
X104974740Y-76415000D01*
X105267260Y-76415000D01*
X105554158Y-76357932D01*
X105824411Y-76245990D01*
X106067632Y-76083475D01*
X106274475Y-75876632D01*
X106436990Y-75633411D01*
X106548932Y-75363158D01*
X106606000Y-75076260D01*
X106606000Y-74783740D01*
X106548932Y-74496842D01*
X106436990Y-74226589D01*
X106274475Y-73983368D01*
X106067632Y-73776525D01*
X105950261Y-73698100D01*
X119264024Y-73698100D01*
X119278698Y-73847085D01*
X119322154Y-73990346D01*
X119392726Y-74122376D01*
X119487699Y-74238101D01*
X119516703Y-74261904D01*
X121605724Y-76350926D01*
X121514226Y-76412063D01*
X121370063Y-76556226D01*
X121256795Y-76725744D01*
X121178774Y-76914102D01*
X121139000Y-77114061D01*
X121139000Y-77176198D01*
X120138498Y-78176701D01*
X120109500Y-78200499D01*
X120085702Y-78229497D01*
X120085701Y-78229498D01*
X120014526Y-78316224D01*
X119943954Y-78448254D01*
X119918554Y-78531990D01*
X119900498Y-78591514D01*
X119895335Y-78643932D01*
X119885824Y-78740500D01*
X119889501Y-78777832D01*
X119889500Y-81338789D01*
X119845563Y-81382726D01*
X119732295Y-81552244D01*
X119654274Y-81740602D01*
X119614500Y-81940561D01*
X119614500Y-82144439D01*
X119654274Y-82344398D01*
X119732295Y-82532756D01*
X119845563Y-82702274D01*
X119989726Y-82846437D01*
X120159244Y-82959705D01*
X120347602Y-83037726D01*
X120547561Y-83077500D01*
X120751439Y-83077500D01*
X120951398Y-83037726D01*
X121139756Y-82959705D01*
X121309274Y-82846437D01*
X121453437Y-82702274D01*
X121566705Y-82532756D01*
X121644726Y-82344398D01*
X121684500Y-82144439D01*
X121684500Y-81940561D01*
X121644726Y-81740602D01*
X121566705Y-81552244D01*
X121453437Y-81382726D01*
X121409500Y-81338789D01*
X121409500Y-79055301D01*
X122213802Y-78251000D01*
X122275939Y-78251000D01*
X122404601Y-78225408D01*
X122404600Y-84023977D01*
X122400924Y-84061300D01*
X122404600Y-84098622D01*
X122404600Y-84098632D01*
X122415597Y-84210285D01*
X122459054Y-84353546D01*
X122529626Y-84485576D01*
X122569471Y-84534126D01*
X122624599Y-84601301D01*
X122653603Y-84625104D01*
X124010501Y-85982003D01*
X124034299Y-86011001D01*
X124150024Y-86105974D01*
X124282053Y-86176546D01*
X124425314Y-86220003D01*
X124536967Y-86231000D01*
X124536977Y-86231000D01*
X124574300Y-86234676D01*
X124611623Y-86231000D01*
X137586589Y-86231000D01*
X137630526Y-86274937D01*
X137800044Y-86388205D01*
X137988402Y-86466226D01*
X138188361Y-86506000D01*
X138392239Y-86506000D01*
X138592198Y-86466226D01*
X138780556Y-86388205D01*
X138950074Y-86274937D01*
X139094237Y-86130774D01*
X139207505Y-85961256D01*
X139285526Y-85772898D01*
X139325300Y-85572939D01*
X139325300Y-85369061D01*
X139285526Y-85169102D01*
X139207505Y-84980744D01*
X139094237Y-84811226D01*
X138950074Y-84667063D01*
X138780556Y-84553795D01*
X138592198Y-84475774D01*
X138392239Y-84436000D01*
X138188361Y-84436000D01*
X137988402Y-84475774D01*
X137800044Y-84553795D01*
X137630526Y-84667063D01*
X137586589Y-84711000D01*
X124889102Y-84711000D01*
X123924600Y-83746499D01*
X123924600Y-76872333D01*
X123928277Y-76835000D01*
X123913603Y-76686014D01*
X123870146Y-76542753D01*
X123799574Y-76410724D01*
X123728399Y-76323997D01*
X123704601Y-76294999D01*
X123675603Y-76271201D01*
X121102501Y-73698100D01*
X124729704Y-70070898D01*
X124758701Y-70047101D01*
X124806236Y-69989180D01*
X124853674Y-69931377D01*
X124924246Y-69799347D01*
X124924246Y-69799346D01*
X124967703Y-69656086D01*
X124978700Y-69544433D01*
X124978700Y-69544424D01*
X124982376Y-69507101D01*
X124978700Y-69469778D01*
X124978700Y-68839211D01*
X125022637Y-68795274D01*
X125135905Y-68625756D01*
X125213926Y-68437398D01*
X125253700Y-68237439D01*
X125253700Y-68033561D01*
X125213926Y-67833602D01*
X125135905Y-67645244D01*
X125022637Y-67475726D01*
X124878474Y-67331563D01*
X124708956Y-67218295D01*
X124520598Y-67140274D01*
X124320639Y-67100500D01*
X124116761Y-67100500D01*
X123916802Y-67140274D01*
X123728444Y-67218295D01*
X123558926Y-67331563D01*
X123414763Y-67475726D01*
X123301495Y-67645244D01*
X123223474Y-67833602D01*
X123183700Y-68033561D01*
X123183700Y-68237439D01*
X123223474Y-68437398D01*
X123301495Y-68625756D01*
X123414763Y-68795274D01*
X123458700Y-68839211D01*
X123458700Y-69192298D01*
X119516703Y-73134296D01*
X119487699Y-73158099D01*
X119411528Y-73250914D01*
X119392726Y-73273824D01*
X119322154Y-73405854D01*
X119278698Y-73549115D01*
X119264024Y-73698100D01*
X105950261Y-73698100D01*
X105824411Y-73614010D01*
X105554158Y-73502068D01*
X105267260Y-73445000D01*
X104974740Y-73445000D01*
X104687842Y-73502068D01*
X104417589Y-73614010D01*
X104174368Y-73776525D01*
X103967525Y-73983368D01*
X103805010Y-74226589D01*
X103693068Y-74496842D01*
X103636000Y-74783740D01*
X99606000Y-74783740D01*
X99548932Y-74496842D01*
X99436990Y-74226589D01*
X99274475Y-73983368D01*
X99067632Y-73776525D01*
X98824411Y-73614010D01*
X98554158Y-73502068D01*
X98267260Y-73445000D01*
X97974740Y-73445000D01*
X97687842Y-73502068D01*
X97417589Y-73614010D01*
X97174368Y-73776525D01*
X96967525Y-73983368D01*
X96805010Y-74226589D01*
X96693068Y-74496842D01*
X96636000Y-74783740D01*
X94640000Y-74783740D01*
X94640000Y-62083740D01*
X96636000Y-62083740D01*
X96636000Y-62376260D01*
X96693068Y-62663158D01*
X96805010Y-62933411D01*
X96967525Y-63176632D01*
X97174368Y-63383475D01*
X97417589Y-63545990D01*
X97687842Y-63657932D01*
X97974740Y-63715000D01*
X98267260Y-63715000D01*
X98554158Y-63657932D01*
X98824411Y-63545990D01*
X99067632Y-63383475D01*
X99274475Y-63176632D01*
X99436990Y-62933411D01*
X99548932Y-62663158D01*
X99606000Y-62376260D01*
X99606000Y-62083740D01*
X103636000Y-62083740D01*
X103636000Y-62376260D01*
X103693068Y-62663158D01*
X103805010Y-62933411D01*
X103967525Y-63176632D01*
X104174368Y-63383475D01*
X104417589Y-63545990D01*
X104687842Y-63657932D01*
X104974740Y-63715000D01*
X105267260Y-63715000D01*
X105554158Y-63657932D01*
X105824411Y-63545990D01*
X106067632Y-63383475D01*
X106274475Y-63176632D01*
X106436990Y-62933411D01*
X106548932Y-62663158D01*
X106606000Y-62376260D01*
X106606000Y-62083740D01*
X106548932Y-61796842D01*
X106436990Y-61526589D01*
X106274475Y-61283368D01*
X106067632Y-61076525D01*
X105824411Y-60914010D01*
X105554158Y-60802068D01*
X105267260Y-60745000D01*
X104974740Y-60745000D01*
X104687842Y-60802068D01*
X104417589Y-60914010D01*
X104174368Y-61076525D01*
X103967525Y-61283368D01*
X103805010Y-61526589D01*
X103693068Y-61796842D01*
X103636000Y-62083740D01*
X99606000Y-62083740D01*
X99548932Y-61796842D01*
X99436990Y-61526589D01*
X99274475Y-61283368D01*
X99067632Y-61076525D01*
X98824411Y-60914010D01*
X98554158Y-60802068D01*
X98267260Y-60745000D01*
X97974740Y-60745000D01*
X97687842Y-60802068D01*
X97417589Y-60914010D01*
X97174368Y-61076525D01*
X96967525Y-61283368D01*
X96805010Y-61526589D01*
X96693068Y-61796842D01*
X96636000Y-62083740D01*
X94640000Y-62083740D01*
X94640000Y-50653740D01*
X96636000Y-50653740D01*
X96636000Y-50946260D01*
X96693068Y-51233158D01*
X96805010Y-51503411D01*
X96967525Y-51746632D01*
X97174368Y-51953475D01*
X97417589Y-52115990D01*
X97687842Y-52227932D01*
X97974740Y-52285000D01*
X98267260Y-52285000D01*
X98554158Y-52227932D01*
X98824411Y-52115990D01*
X99067632Y-51953475D01*
X99274475Y-51746632D01*
X99436990Y-51503411D01*
X99548932Y-51233158D01*
X99606000Y-50946260D01*
X99606000Y-50653740D01*
X103636000Y-50653740D01*
X103636000Y-50946260D01*
X103693068Y-51233158D01*
X103805010Y-51503411D01*
X103967525Y-51746632D01*
X104174368Y-51953475D01*
X104417589Y-52115990D01*
X104687842Y-52227932D01*
X104974740Y-52285000D01*
X105267260Y-52285000D01*
X105554158Y-52227932D01*
X105824411Y-52115990D01*
X106067632Y-51953475D01*
X106274475Y-51746632D01*
X106436990Y-51503411D01*
X106548932Y-51233158D01*
X106606000Y-50946260D01*
X106606000Y-50653740D01*
X106548932Y-50366842D01*
X106436990Y-50096589D01*
X106274475Y-49853368D01*
X106067632Y-49646525D01*
X105824411Y-49484010D01*
X105554158Y-49372068D01*
X105267260Y-49315000D01*
X104974740Y-49315000D01*
X104687842Y-49372068D01*
X104417589Y-49484010D01*
X104174368Y-49646525D01*
X103967525Y-49853368D01*
X103805010Y-50096589D01*
X103693068Y-50366842D01*
X103636000Y-50653740D01*
X99606000Y-50653740D01*
X99548932Y-50366842D01*
X99436990Y-50096589D01*
X99274475Y-49853368D01*
X99067632Y-49646525D01*
X98824411Y-49484010D01*
X98554158Y-49372068D01*
X98267260Y-49315000D01*
X97974740Y-49315000D01*
X97687842Y-49372068D01*
X97417589Y-49484010D01*
X97174368Y-49646525D01*
X96967525Y-49853368D01*
X96805010Y-50096589D01*
X96693068Y-50366842D01*
X96636000Y-50653740D01*
X94640000Y-50653740D01*
X94640000Y-39223740D01*
X96636000Y-39223740D01*
X96636000Y-39516260D01*
X96693068Y-39803158D01*
X96805010Y-40073411D01*
X96967525Y-40316632D01*
X97174368Y-40523475D01*
X97417589Y-40685990D01*
X97687842Y-40797932D01*
X97974740Y-40855000D01*
X98267260Y-40855000D01*
X98554158Y-40797932D01*
X98824411Y-40685990D01*
X99067632Y-40523475D01*
X99274475Y-40316632D01*
X99436990Y-40073411D01*
X99548932Y-39803158D01*
X99606000Y-39516260D01*
X99606000Y-39223740D01*
X103636000Y-39223740D01*
X103636000Y-39516260D01*
X103693068Y-39803158D01*
X103805010Y-40073411D01*
X103967525Y-40316632D01*
X104174368Y-40523475D01*
X104417589Y-40685990D01*
X104687842Y-40797932D01*
X104974740Y-40855000D01*
X105267260Y-40855000D01*
X105554158Y-40797932D01*
X105824411Y-40685990D01*
X106067632Y-40523475D01*
X106274475Y-40316632D01*
X106436990Y-40073411D01*
X106548932Y-39803158D01*
X106606000Y-39516260D01*
X106606000Y-39223740D01*
X106548932Y-38936842D01*
X106436990Y-38666589D01*
X106274475Y-38423368D01*
X106067632Y-38216525D01*
X105824411Y-38054010D01*
X105554158Y-37942068D01*
X105267260Y-37885000D01*
X104974740Y-37885000D01*
X104687842Y-37942068D01*
X104417589Y-38054010D01*
X104174368Y-38216525D01*
X103967525Y-38423368D01*
X103805010Y-38666589D01*
X103693068Y-38936842D01*
X103636000Y-39223740D01*
X99606000Y-39223740D01*
X99548932Y-38936842D01*
X99436990Y-38666589D01*
X99274475Y-38423368D01*
X99067632Y-38216525D01*
X98824411Y-38054010D01*
X98554158Y-37942068D01*
X98267260Y-37885000D01*
X97974740Y-37885000D01*
X97687842Y-37942068D01*
X97417589Y-38054010D01*
X97174368Y-38216525D01*
X96967525Y-38423368D01*
X96805010Y-38666589D01*
X96693068Y-38936842D01*
X96636000Y-39223740D01*
X94640000Y-39223740D01*
X94640000Y-34322279D01*
X94703096Y-33678778D01*
X94880606Y-33090836D01*
X95168937Y-32548564D01*
X95557094Y-32072636D01*
X96030314Y-31681155D01*
X96570552Y-31389049D01*
X97157244Y-31207437D01*
X97798879Y-31140000D01*
X126873000Y-31140000D01*
X126873000Y-32155000D01*
G36*
X156821222Y-31203096D02*
G01*
X157409164Y-31380606D01*
X157951436Y-31668937D01*
X158427364Y-32057094D01*
X158818845Y-32530314D01*
X159110951Y-33070552D01*
X159292563Y-33657244D01*
X159360001Y-34298888D01*
X159360001Y-55681104D01*
X159289185Y-55594815D01*
X159192494Y-55515463D01*
X159082180Y-55456498D01*
X158962482Y-55420188D01*
X158838000Y-55407928D01*
X157138000Y-55407928D01*
X157013518Y-55420188D01*
X156893820Y-55456498D01*
X156783506Y-55515463D01*
X156686815Y-55594815D01*
X156607463Y-55691506D01*
X156548498Y-55801820D01*
X156512188Y-55921518D01*
X156499928Y-56046000D01*
X156499928Y-57746000D01*
X156512188Y-57870482D01*
X156548498Y-57990180D01*
X156607463Y-58100494D01*
X156686815Y-58197185D01*
X156783506Y-58276537D01*
X156893820Y-58335502D01*
X156966380Y-58357513D01*
X156834525Y-58489368D01*
X156672010Y-58732589D01*
X156560068Y-59002842D01*
X156503000Y-59289740D01*
X156503000Y-59582260D01*
X156560068Y-59869158D01*
X156672010Y-60139411D01*
X156834525Y-60382632D01*
X157041368Y-60589475D01*
X157215760Y-60706000D01*
X157041368Y-60822525D01*
X156834525Y-61029368D01*
X156672010Y-61272589D01*
X156560068Y-61542842D01*
X156503000Y-61829740D01*
X156503000Y-62122260D01*
X156560068Y-62409158D01*
X156672010Y-62679411D01*
X156834525Y-62922632D01*
X157041368Y-63129475D01*
X157215760Y-63246000D01*
X157041368Y-63362525D01*
X156834525Y-63569368D01*
X156672010Y-63812589D01*
X156560068Y-64082842D01*
X156503000Y-64369740D01*
X156503000Y-64662260D01*
X156560068Y-64949158D01*
X156672010Y-65219411D01*
X156834525Y-65462632D01*
X157041368Y-65669475D01*
X157215760Y-65786000D01*
X157041368Y-65902525D01*
X156834525Y-66109368D01*
X156672010Y-66352589D01*
X156560068Y-66622842D01*
X156503000Y-66909740D01*
X156503000Y-67202260D01*
X156560068Y-67489158D01*
X156672010Y-67759411D01*
X156834525Y-68002632D01*
X157041368Y-68209475D01*
X157215760Y-68326000D01*
X157041368Y-68442525D01*
X156834525Y-68649368D01*
X156672010Y-68892589D01*
X156560068Y-69162842D01*
X156503000Y-69449740D01*
X156503000Y-69742260D01*
X156560068Y-70029158D01*
X156672010Y-70299411D01*
X156834525Y-70542632D01*
X157041368Y-70749475D01*
X157215760Y-70866000D01*
X157041368Y-70982525D01*
X156834525Y-71189368D01*
X156672010Y-71432589D01*
X156560068Y-71702842D01*
X156503000Y-71989740D01*
X156503000Y-72282260D01*
X156560068Y-72569158D01*
X156672010Y-72839411D01*
X156834525Y-73082632D01*
X157041368Y-73289475D01*
X157215760Y-73406000D01*
X157041368Y-73522525D01*
X156834525Y-73729368D01*
X156672010Y-73972589D01*
X156560068Y-74242842D01*
X156503000Y-74529740D01*
X156503000Y-74822260D01*
X156560068Y-75109158D01*
X156672010Y-75379411D01*
X156834525Y-75622632D01*
X157041368Y-75829475D01*
X157215760Y-75946000D01*
X157041368Y-76062525D01*
X156834525Y-76269368D01*
X156672010Y-76512589D01*
X156560068Y-76782842D01*
X156503000Y-77069740D01*
X156503000Y-77362260D01*
X156560068Y-77649158D01*
X156672010Y-77919411D01*
X156834525Y-78162632D01*
X157041368Y-78369475D01*
X157223534Y-78491195D01*
X157106645Y-78560822D01*
X156890412Y-78755731D01*
X156716359Y-78989080D01*
X156591175Y-79251901D01*
X156546524Y-79399110D01*
X156667845Y-79629000D01*
X157861000Y-79629000D01*
X157861000Y-79609000D01*
X158115000Y-79609000D01*
X158115000Y-79629000D01*
X158135000Y-79629000D01*
X158135000Y-79883000D01*
X158115000Y-79883000D01*
X158115000Y-81076814D01*
X158344891Y-81197481D01*
X158619252Y-81100157D01*
X158869355Y-80951178D01*
X159085588Y-80756269D01*
X159259641Y-80522920D01*
X159360000Y-80312218D01*
X159360000Y-82423792D01*
X134747000Y-82453327D01*
X134747000Y-80112890D01*
X156546524Y-80112890D01*
X156591175Y-80260099D01*
X156716359Y-80522920D01*
X156890412Y-80756269D01*
X157106645Y-80951178D01*
X157356748Y-81100157D01*
X157631109Y-81197481D01*
X157861000Y-81076814D01*
X157861000Y-79883000D01*
X156667845Y-79883000D01*
X156546524Y-80112890D01*
X134747000Y-80112890D01*
X134747000Y-76878562D01*
X135595441Y-77727003D01*
X135619239Y-77756001D01*
X135648237Y-77779799D01*
X135734963Y-77850974D01*
X135862999Y-77919411D01*
X135866993Y-77921546D01*
X136010254Y-77965003D01*
X136121907Y-77976000D01*
X136121916Y-77976000D01*
X136159239Y-77979676D01*
X136196562Y-77976000D01*
X152712289Y-77976000D01*
X152756226Y-78019937D01*
X152925744Y-78133205D01*
X153114102Y-78211226D01*
X153314061Y-78251000D01*
X153517939Y-78251000D01*
X153717898Y-78211226D01*
X153906256Y-78133205D01*
X154075774Y-78019937D01*
X154219937Y-77875774D01*
X154333205Y-77706256D01*
X154411226Y-77517898D01*
X154451000Y-77317939D01*
X154451000Y-77114061D01*
X154411226Y-76914102D01*
X154333205Y-76725744D01*
X154219937Y-76556226D01*
X154176000Y-76512289D01*
X154176000Y-59220331D01*
X154179677Y-59182998D01*
X154165003Y-59034012D01*
X154121546Y-58890751D01*
X154050974Y-58758722D01*
X153979799Y-58671995D01*
X153956001Y-58642997D01*
X153927003Y-58619199D01*
X152708806Y-57401003D01*
X152685003Y-57371999D01*
X152569278Y-57277026D01*
X152437249Y-57206454D01*
X152293988Y-57162997D01*
X152182335Y-57152000D01*
X152182324Y-57152000D01*
X152145002Y-57148324D01*
X152107680Y-57152000D01*
X148074511Y-57152000D01*
X148030574Y-57108063D01*
X147861056Y-56994795D01*
X147672698Y-56916774D01*
X147472739Y-56877000D01*
X147268861Y-56877000D01*
X147068902Y-56916774D01*
X146880544Y-56994795D01*
X146711026Y-57108063D01*
X146566863Y-57252226D01*
X146453595Y-57421744D01*
X146375574Y-57610102D01*
X146335800Y-57810061D01*
X146335800Y-58013939D01*
X146375574Y-58213898D01*
X146453595Y-58402256D01*
X146566863Y-58571774D01*
X146711026Y-58715937D01*
X146880544Y-58829205D01*
X147068902Y-58907226D01*
X147268861Y-58947000D01*
X147472739Y-58947000D01*
X147672698Y-58907226D01*
X147861056Y-58829205D01*
X148030574Y-58715937D01*
X148074511Y-58672000D01*
X151830201Y-58672000D01*
X152656001Y-59497801D01*
X152656000Y-76456000D01*
X136474042Y-76456000D01*
X133521400Y-73503359D01*
X133521400Y-73441221D01*
X133481626Y-73241262D01*
X133403605Y-73052904D01*
X133290337Y-72883386D01*
X133146174Y-72739223D01*
X132976656Y-72625955D01*
X132788298Y-72547934D01*
X132588339Y-72508160D01*
X132384461Y-72508160D01*
X132184502Y-72547934D01*
X131996144Y-72625955D01*
X131967318Y-72645216D01*
X130485319Y-71459616D01*
X130457205Y-71391744D01*
X130343937Y-71222226D01*
X130300000Y-71178289D01*
X130300000Y-70799801D01*
X130716730Y-70383072D01*
X133630002Y-70383072D01*
X133661193Y-70380000D01*
X133717165Y-70380000D01*
X133772062Y-70369080D01*
X133803256Y-70366008D01*
X133833252Y-70356909D01*
X133888145Y-70345990D01*
X133939852Y-70324572D01*
X133969852Y-70315472D01*
X133997499Y-70300694D01*
X134049205Y-70279277D01*
X134095743Y-70248181D01*
X134123387Y-70233405D01*
X134147617Y-70213520D01*
X134194155Y-70182424D01*
X134233732Y-70142847D01*
X134257962Y-70122962D01*
X134277847Y-70098732D01*
X134317424Y-70059155D01*
X134348520Y-70012617D01*
X134368405Y-69988387D01*
X134383181Y-69960743D01*
X134414277Y-69914205D01*
X134435694Y-69862499D01*
X134450472Y-69834852D01*
X134459572Y-69804852D01*
X134480990Y-69753145D01*
X134491909Y-69698252D01*
X134501008Y-69668256D01*
X134504080Y-69637062D01*
X134515000Y-69582165D01*
X134515000Y-69526193D01*
X134518072Y-69495002D01*
X134518072Y-66394998D01*
X134515000Y-66363807D01*
X134515000Y-66307835D01*
X134504080Y-66252938D01*
X134501008Y-66221744D01*
X134491909Y-66191748D01*
X134480990Y-66136855D01*
X134459572Y-66085148D01*
X134450472Y-66055148D01*
X134435694Y-66027501D01*
X134414277Y-65975795D01*
X134383181Y-65929257D01*
X134368405Y-65901613D01*
X134348520Y-65877383D01*
X134317424Y-65830845D01*
X134277847Y-65791268D01*
X134257962Y-65767038D01*
X134233732Y-65747153D01*
X134194155Y-65707576D01*
X134147617Y-65676480D01*
X134123387Y-65656595D01*
X134095743Y-65641819D01*
X134049205Y-65610723D01*
X133997499Y-65589306D01*
X133969852Y-65574528D01*
X133939852Y-65565428D01*
X133888145Y-65544010D01*
X133833252Y-65533091D01*
X133803256Y-65523992D01*
X133772062Y-65520920D01*
X133717165Y-65510000D01*
X133661193Y-65510000D01*
X133630002Y-65506928D01*
X130529998Y-65506928D01*
X130498807Y-65510000D01*
X130442835Y-65510000D01*
X130387938Y-65520920D01*
X130356744Y-65523992D01*
X130326748Y-65533091D01*
X130271855Y-65544010D01*
X130220148Y-65565428D01*
X130190148Y-65574528D01*
X130162501Y-65589306D01*
X130110795Y-65610723D01*
X130064257Y-65641819D01*
X130036613Y-65656595D01*
X130012383Y-65676480D01*
X129965845Y-65707576D01*
X129926268Y-65747153D01*
X129902038Y-65767038D01*
X129882153Y-65791268D01*
X129842576Y-65830845D01*
X129811480Y-65877383D01*
X129791595Y-65901613D01*
X129776819Y-65929257D01*
X129745723Y-65975795D01*
X129724306Y-66027501D01*
X129709528Y-66055148D01*
X129700428Y-66085148D01*
X129679010Y-66136855D01*
X129668091Y-66191748D01*
X129658992Y-66221744D01*
X129655920Y-66252938D01*
X129645000Y-66307835D01*
X129645000Y-66363807D01*
X129641928Y-66394998D01*
X129641928Y-69308270D01*
X129028998Y-69921201D01*
X129000000Y-69944999D01*
X128976202Y-69973997D01*
X128976201Y-69973998D01*
X128905026Y-70060724D01*
X128854609Y-70155048D01*
X128397000Y-69788961D01*
X128397000Y-35912346D01*
X128658363Y-35650983D01*
X128892012Y-35301302D01*
X129052953Y-34912756D01*
X129135000Y-34500279D01*
X129135000Y-34079721D01*
X154075000Y-34079721D01*
X154075000Y-34500279D01*
X154157047Y-34912756D01*
X154317988Y-35301302D01*
X154551637Y-35650983D01*
X154849017Y-35948363D01*
X155198698Y-36182012D01*
X155587244Y-36342953D01*
X155999721Y-36425000D01*
X156420279Y-36425000D01*
X156832756Y-36342953D01*
X157221302Y-36182012D01*
X157570983Y-35948363D01*
X157868363Y-35650983D01*
X158102012Y-35301302D01*
X158262953Y-34912756D01*
X158345000Y-34500279D01*
X158345000Y-34079721D01*
X158262953Y-33667244D01*
X158102012Y-33278698D01*
X157868363Y-32929017D01*
X157570983Y-32631637D01*
X157221302Y-32397988D01*
X156832756Y-32237047D01*
X156420279Y-32155000D01*
X155999721Y-32155000D01*
X155587244Y-32237047D01*
X155198698Y-32397988D01*
X154849017Y-32631637D01*
X154551637Y-32929017D01*
X154317988Y-33278698D01*
X154157047Y-33667244D01*
X154075000Y-34079721D01*
X129135000Y-34079721D01*
X129052953Y-33667244D01*
X128892012Y-33278698D01*
X128658363Y-32929017D01*
X128397000Y-32667654D01*
X128397000Y-31140000D01*
X156177721Y-31140000D01*
X156821222Y-31203096D01*
G37*
X156821222Y-31203096D02*
X157409164Y-31380606D01*
X157951436Y-31668937D01*
X158427364Y-32057094D01*
X158818845Y-32530314D01*
X159110951Y-33070552D01*
X159292563Y-33657244D01*
X159360001Y-34298888D01*
X159360001Y-55681104D01*
X159289185Y-55594815D01*
X159192494Y-55515463D01*
X159082180Y-55456498D01*
X158962482Y-55420188D01*
X158838000Y-55407928D01*
X157138000Y-55407928D01*
X157013518Y-55420188D01*
X156893820Y-55456498D01*
X156783506Y-55515463D01*
X156686815Y-55594815D01*
X156607463Y-55691506D01*
X156548498Y-55801820D01*
X156512188Y-55921518D01*
X156499928Y-56046000D01*
X156499928Y-57746000D01*
X156512188Y-57870482D01*
X156548498Y-57990180D01*
X156607463Y-58100494D01*
X156686815Y-58197185D01*
X156783506Y-58276537D01*
X156893820Y-58335502D01*
X156966380Y-58357513D01*
X156834525Y-58489368D01*
X156672010Y-58732589D01*
X156560068Y-59002842D01*
X156503000Y-59289740D01*
X156503000Y-59582260D01*
X156560068Y-59869158D01*
X156672010Y-60139411D01*
X156834525Y-60382632D01*
X157041368Y-60589475D01*
X157215760Y-60706000D01*
X157041368Y-60822525D01*
X156834525Y-61029368D01*
X156672010Y-61272589D01*
X156560068Y-61542842D01*
X156503000Y-61829740D01*
X156503000Y-62122260D01*
X156560068Y-62409158D01*
X156672010Y-62679411D01*
X156834525Y-62922632D01*
X157041368Y-63129475D01*
X157215760Y-63246000D01*
X157041368Y-63362525D01*
X156834525Y-63569368D01*
X156672010Y-63812589D01*
X156560068Y-64082842D01*
X156503000Y-64369740D01*
X156503000Y-64662260D01*
X156560068Y-64949158D01*
X156672010Y-65219411D01*
X156834525Y-65462632D01*
X157041368Y-65669475D01*
X157215760Y-65786000D01*
X157041368Y-65902525D01*
X156834525Y-66109368D01*
X156672010Y-66352589D01*
X156560068Y-66622842D01*
X156503000Y-66909740D01*
X156503000Y-67202260D01*
X156560068Y-67489158D01*
X156672010Y-67759411D01*
X156834525Y-68002632D01*
X157041368Y-68209475D01*
X157215760Y-68326000D01*
X157041368Y-68442525D01*
X156834525Y-68649368D01*
X156672010Y-68892589D01*
X156560068Y-69162842D01*
X156503000Y-69449740D01*
X156503000Y-69742260D01*
X156560068Y-70029158D01*
X156672010Y-70299411D01*
X156834525Y-70542632D01*
X157041368Y-70749475D01*
X157215760Y-70866000D01*
X157041368Y-70982525D01*
X156834525Y-71189368D01*
X156672010Y-71432589D01*
X156560068Y-71702842D01*
X156503000Y-71989740D01*
X156503000Y-72282260D01*
X156560068Y-72569158D01*
X156672010Y-72839411D01*
X156834525Y-73082632D01*
X157041368Y-73289475D01*
X157215760Y-73406000D01*
X157041368Y-73522525D01*
X156834525Y-73729368D01*
X156672010Y-73972589D01*
X156560068Y-74242842D01*
X156503000Y-74529740D01*
X156503000Y-74822260D01*
X156560068Y-75109158D01*
X156672010Y-75379411D01*
X156834525Y-75622632D01*
X157041368Y-75829475D01*
X157215760Y-75946000D01*
X157041368Y-76062525D01*
X156834525Y-76269368D01*
X156672010Y-76512589D01*
X156560068Y-76782842D01*
X156503000Y-77069740D01*
X156503000Y-77362260D01*
X156560068Y-77649158D01*
X156672010Y-77919411D01*
X156834525Y-78162632D01*
X157041368Y-78369475D01*
X157223534Y-78491195D01*
X157106645Y-78560822D01*
X156890412Y-78755731D01*
X156716359Y-78989080D01*
X156591175Y-79251901D01*
X156546524Y-79399110D01*
X156667845Y-79629000D01*
X157861000Y-79629000D01*
X157861000Y-79609000D01*
X158115000Y-79609000D01*
X158115000Y-79629000D01*
X158135000Y-79629000D01*
X158135000Y-79883000D01*
X158115000Y-79883000D01*
X158115000Y-81076814D01*
X158344891Y-81197481D01*
X158619252Y-81100157D01*
X158869355Y-80951178D01*
X159085588Y-80756269D01*
X159259641Y-80522920D01*
X159360000Y-80312218D01*
X159360000Y-82423792D01*
X134747000Y-82453327D01*
X134747000Y-80112890D01*
X156546524Y-80112890D01*
X156591175Y-80260099D01*
X156716359Y-80522920D01*
X156890412Y-80756269D01*
X157106645Y-80951178D01*
X157356748Y-81100157D01*
X157631109Y-81197481D01*
X157861000Y-81076814D01*
X157861000Y-79883000D01*
X156667845Y-79883000D01*
X156546524Y-80112890D01*
X134747000Y-80112890D01*
X134747000Y-76878562D01*
X135595441Y-77727003D01*
X135619239Y-77756001D01*
X135648237Y-77779799D01*
X135734963Y-77850974D01*
X135862999Y-77919411D01*
X135866993Y-77921546D01*
X136010254Y-77965003D01*
X136121907Y-77976000D01*
X136121916Y-77976000D01*
X136159239Y-77979676D01*
X136196562Y-77976000D01*
X152712289Y-77976000D01*
X152756226Y-78019937D01*
X152925744Y-78133205D01*
X153114102Y-78211226D01*
X153314061Y-78251000D01*
X153517939Y-78251000D01*
X153717898Y-78211226D01*
X153906256Y-78133205D01*
X154075774Y-78019937D01*
X154219937Y-77875774D01*
X154333205Y-77706256D01*
X154411226Y-77517898D01*
X154451000Y-77317939D01*
X154451000Y-77114061D01*
X154411226Y-76914102D01*
X154333205Y-76725744D01*
X154219937Y-76556226D01*
X154176000Y-76512289D01*
X154176000Y-59220331D01*
X154179677Y-59182998D01*
X154165003Y-59034012D01*
X154121546Y-58890751D01*
X154050974Y-58758722D01*
X153979799Y-58671995D01*
X153956001Y-58642997D01*
X153927003Y-58619199D01*
X152708806Y-57401003D01*
X152685003Y-57371999D01*
X152569278Y-57277026D01*
X152437249Y-57206454D01*
X152293988Y-57162997D01*
X152182335Y-57152000D01*
X152182324Y-57152000D01*
X152145002Y-57148324D01*
X152107680Y-57152000D01*
X148074511Y-57152000D01*
X148030574Y-57108063D01*
X147861056Y-56994795D01*
X147672698Y-56916774D01*
X147472739Y-56877000D01*
X147268861Y-56877000D01*
X147068902Y-56916774D01*
X146880544Y-56994795D01*
X146711026Y-57108063D01*
X146566863Y-57252226D01*
X146453595Y-57421744D01*
X146375574Y-57610102D01*
X146335800Y-57810061D01*
X146335800Y-58013939D01*
X146375574Y-58213898D01*
X146453595Y-58402256D01*
X146566863Y-58571774D01*
X146711026Y-58715937D01*
X146880544Y-58829205D01*
X147068902Y-58907226D01*
X147268861Y-58947000D01*
X147472739Y-58947000D01*
X147672698Y-58907226D01*
X147861056Y-58829205D01*
X148030574Y-58715937D01*
X148074511Y-58672000D01*
X151830201Y-58672000D01*
X152656001Y-59497801D01*
X152656000Y-76456000D01*
X136474042Y-76456000D01*
X133521400Y-73503359D01*
X133521400Y-73441221D01*
X133481626Y-73241262D01*
X133403605Y-73052904D01*
X133290337Y-72883386D01*
X133146174Y-72739223D01*
X132976656Y-72625955D01*
X132788298Y-72547934D01*
X132588339Y-72508160D01*
X132384461Y-72508160D01*
X132184502Y-72547934D01*
X131996144Y-72625955D01*
X131967318Y-72645216D01*
X130485319Y-71459616D01*
X130457205Y-71391744D01*
X130343937Y-71222226D01*
X130300000Y-71178289D01*
X130300000Y-70799801D01*
X130716730Y-70383072D01*
X133630002Y-70383072D01*
X133661193Y-70380000D01*
X133717165Y-70380000D01*
X133772062Y-70369080D01*
X133803256Y-70366008D01*
X133833252Y-70356909D01*
X133888145Y-70345990D01*
X133939852Y-70324572D01*
X133969852Y-70315472D01*
X133997499Y-70300694D01*
X134049205Y-70279277D01*
X134095743Y-70248181D01*
X134123387Y-70233405D01*
X134147617Y-70213520D01*
X134194155Y-70182424D01*
X134233732Y-70142847D01*
X134257962Y-70122962D01*
X134277847Y-70098732D01*
X134317424Y-70059155D01*
X134348520Y-70012617D01*
X134368405Y-69988387D01*
X134383181Y-69960743D01*
X134414277Y-69914205D01*
X134435694Y-69862499D01*
X134450472Y-69834852D01*
X134459572Y-69804852D01*
X134480990Y-69753145D01*
X134491909Y-69698252D01*
X134501008Y-69668256D01*
X134504080Y-69637062D01*
X134515000Y-69582165D01*
X134515000Y-69526193D01*
X134518072Y-69495002D01*
X134518072Y-66394998D01*
X134515000Y-66363807D01*
X134515000Y-66307835D01*
X134504080Y-66252938D01*
X134501008Y-66221744D01*
X134491909Y-66191748D01*
X134480990Y-66136855D01*
X134459572Y-66085148D01*
X134450472Y-66055148D01*
X134435694Y-66027501D01*
X134414277Y-65975795D01*
X134383181Y-65929257D01*
X134368405Y-65901613D01*
X134348520Y-65877383D01*
X134317424Y-65830845D01*
X134277847Y-65791268D01*
X134257962Y-65767038D01*
X134233732Y-65747153D01*
X134194155Y-65707576D01*
X134147617Y-65676480D01*
X134123387Y-65656595D01*
X134095743Y-65641819D01*
X134049205Y-65610723D01*
X133997499Y-65589306D01*
X133969852Y-65574528D01*
X133939852Y-65565428D01*
X133888145Y-65544010D01*
X133833252Y-65533091D01*
X133803256Y-65523992D01*
X133772062Y-65520920D01*
X133717165Y-65510000D01*
X133661193Y-65510000D01*
X133630002Y-65506928D01*
X130529998Y-65506928D01*
X130498807Y-65510000D01*
X130442835Y-65510000D01*
X130387938Y-65520920D01*
X130356744Y-65523992D01*
X130326748Y-65533091D01*
X130271855Y-65544010D01*
X130220148Y-65565428D01*
X130190148Y-65574528D01*
X130162501Y-65589306D01*
X130110795Y-65610723D01*
X130064257Y-65641819D01*
X130036613Y-65656595D01*
X130012383Y-65676480D01*
X129965845Y-65707576D01*
X129926268Y-65747153D01*
X129902038Y-65767038D01*
X129882153Y-65791268D01*
X129842576Y-65830845D01*
X129811480Y-65877383D01*
X129791595Y-65901613D01*
X129776819Y-65929257D01*
X129745723Y-65975795D01*
X129724306Y-66027501D01*
X129709528Y-66055148D01*
X129700428Y-66085148D01*
X129679010Y-66136855D01*
X129668091Y-66191748D01*
X129658992Y-66221744D01*
X129655920Y-66252938D01*
X129645000Y-66307835D01*
X129645000Y-66363807D01*
X129641928Y-66394998D01*
X129641928Y-69308270D01*
X129028998Y-69921201D01*
X129000000Y-69944999D01*
X128976202Y-69973997D01*
X128976201Y-69973998D01*
X128905026Y-70060724D01*
X128854609Y-70155048D01*
X128397000Y-69788961D01*
X128397000Y-35912346D01*
X128658363Y-35650983D01*
X128892012Y-35301302D01*
X129052953Y-34912756D01*
X129135000Y-34500279D01*
X129135000Y-34079721D01*
X154075000Y-34079721D01*
X154075000Y-34500279D01*
X154157047Y-34912756D01*
X154317988Y-35301302D01*
X154551637Y-35650983D01*
X154849017Y-35948363D01*
X155198698Y-36182012D01*
X155587244Y-36342953D01*
X155999721Y-36425000D01*
X156420279Y-36425000D01*
X156832756Y-36342953D01*
X157221302Y-36182012D01*
X157570983Y-35948363D01*
X157868363Y-35650983D01*
X158102012Y-35301302D01*
X158262953Y-34912756D01*
X158345000Y-34500279D01*
X158345000Y-34079721D01*
X158262953Y-33667244D01*
X158102012Y-33278698D01*
X157868363Y-32929017D01*
X157570983Y-32631637D01*
X157221302Y-32397988D01*
X156832756Y-32237047D01*
X156420279Y-32155000D01*
X155999721Y-32155000D01*
X155587244Y-32237047D01*
X155198698Y-32397988D01*
X154849017Y-32631637D01*
X154551637Y-32929017D01*
X154317988Y-33278698D01*
X154157047Y-33667244D01*
X154075000Y-34079721D01*
X129135000Y-34079721D01*
X129052953Y-33667244D01*
X128892012Y-33278698D01*
X128658363Y-32929017D01*
X128397000Y-32667654D01*
X128397000Y-31140000D01*
X156177721Y-31140000D01*
X156821222Y-31203096D01*
M02*
