G04 #@! TF.GenerationSoftware,KiCad,Pcbnew,(5.1.5)-3*
G04 #@! TF.CreationDate,2020-02-29T11:27:19+11:00*
G04 #@! TF.ProjectId,ADE7816_Breakout,41444537-3831-4365-9f42-7265616b6f75,rev?*
G04 #@! TF.SameCoordinates,Original*
G04 #@! TF.FileFunction,Soldermask,Top*
G04 #@! TF.FilePolarity,Negative*
%FSLAX46Y46*%
G04 Gerber Fmt 4.6, Leading zero omitted, Abs format (unit mm)*
G04 Created by KiCad (PCBNEW (5.1.5)-3) date 2020-02-29 11:27:19*
%MOMM*%
%LPD*%
G04 APERTURE LIST*
%ADD10C,0.100000*%
G04 APERTURE END LIST*
D10*
G36*
X156512585Y-101348802D02*
G01*
X156662410Y-101378604D01*
X156944674Y-101495521D01*
X157198705Y-101665259D01*
X157414741Y-101881295D01*
X157584479Y-102135326D01*
X157701396Y-102417590D01*
X157761000Y-102717240D01*
X157761000Y-103022760D01*
X157701396Y-103322410D01*
X157584479Y-103604674D01*
X157414741Y-103858705D01*
X157198705Y-104074741D01*
X156944674Y-104244479D01*
X156662410Y-104361396D01*
X156512585Y-104391198D01*
X156362761Y-104421000D01*
X156057239Y-104421000D01*
X155907415Y-104391198D01*
X155757590Y-104361396D01*
X155475326Y-104244479D01*
X155221295Y-104074741D01*
X155005259Y-103858705D01*
X154835521Y-103604674D01*
X154718604Y-103322410D01*
X154659000Y-103022760D01*
X154659000Y-102717240D01*
X154718604Y-102417590D01*
X154835521Y-102135326D01*
X155005259Y-101881295D01*
X155221295Y-101665259D01*
X155475326Y-101495521D01*
X155757590Y-101378604D01*
X155907415Y-101348802D01*
X156057239Y-101319000D01*
X156362761Y-101319000D01*
X156512585Y-101348802D01*
G37*
G36*
X127302585Y-101348802D02*
G01*
X127452410Y-101378604D01*
X127734674Y-101495521D01*
X127988705Y-101665259D01*
X128204741Y-101881295D01*
X128374479Y-102135326D01*
X128491396Y-102417590D01*
X128551000Y-102717240D01*
X128551000Y-103022760D01*
X128491396Y-103322410D01*
X128374479Y-103604674D01*
X128204741Y-103858705D01*
X127988705Y-104074741D01*
X127734674Y-104244479D01*
X127452410Y-104361396D01*
X127302585Y-104391198D01*
X127152761Y-104421000D01*
X126847239Y-104421000D01*
X126697415Y-104391198D01*
X126547590Y-104361396D01*
X126265326Y-104244479D01*
X126011295Y-104074741D01*
X125795259Y-103858705D01*
X125625521Y-103604674D01*
X125508604Y-103322410D01*
X125449000Y-103022760D01*
X125449000Y-102717240D01*
X125508604Y-102417590D01*
X125625521Y-102135326D01*
X125795259Y-101881295D01*
X126011295Y-101665259D01*
X126265326Y-101495521D01*
X126547590Y-101378604D01*
X126697415Y-101348802D01*
X126847239Y-101319000D01*
X127152761Y-101319000D01*
X127302585Y-101348802D01*
G37*
G36*
X107872000Y-102941000D02*
G01*
X104970000Y-102941000D01*
X104970000Y-100039000D01*
X107872000Y-100039000D01*
X107872000Y-102941000D01*
G37*
G36*
X98172000Y-102941000D02*
G01*
X95870000Y-102941000D01*
X95870000Y-100039000D01*
X98172000Y-100039000D01*
X98172000Y-102941000D01*
G37*
G36*
X142196979Y-97808293D02*
G01*
X142330625Y-97848834D01*
X142453784Y-97914664D01*
X142561740Y-98003260D01*
X142650336Y-98111216D01*
X142716166Y-98234375D01*
X142756707Y-98368021D01*
X142771000Y-98513140D01*
X142771000Y-100176860D01*
X142756707Y-100321979D01*
X142716166Y-100455625D01*
X142650336Y-100578784D01*
X142561740Y-100686740D01*
X142453784Y-100775336D01*
X142330625Y-100841166D01*
X142196979Y-100881707D01*
X142051860Y-100896000D01*
X139888140Y-100896000D01*
X139743021Y-100881707D01*
X139609375Y-100841166D01*
X139486216Y-100775336D01*
X139378260Y-100686740D01*
X139289664Y-100578784D01*
X139223834Y-100455625D01*
X139183293Y-100321979D01*
X139169000Y-100176860D01*
X139169000Y-98513140D01*
X139183293Y-98368021D01*
X139223834Y-98234375D01*
X139289664Y-98111216D01*
X139378260Y-98003260D01*
X139486216Y-97914664D01*
X139609375Y-97848834D01*
X139743021Y-97808293D01*
X139888140Y-97794000D01*
X142051860Y-97794000D01*
X142196979Y-97808293D01*
G37*
G36*
X112139591Y-99363085D02*
G01*
X112173569Y-99373393D01*
X112204890Y-99390134D01*
X112232339Y-99412661D01*
X112254866Y-99440110D01*
X112271607Y-99471431D01*
X112281915Y-99505409D01*
X112286000Y-99546890D01*
X112286000Y-100148110D01*
X112281915Y-100189591D01*
X112271607Y-100223569D01*
X112254866Y-100254890D01*
X112232339Y-100282339D01*
X112204890Y-100304866D01*
X112173569Y-100321607D01*
X112139591Y-100331915D01*
X112098110Y-100336000D01*
X111421890Y-100336000D01*
X111380409Y-100331915D01*
X111346431Y-100321607D01*
X111315110Y-100304866D01*
X111287661Y-100282339D01*
X111265134Y-100254890D01*
X111248393Y-100223569D01*
X111238085Y-100189591D01*
X111234000Y-100148110D01*
X111234000Y-99546890D01*
X111238085Y-99505409D01*
X111248393Y-99471431D01*
X111265134Y-99440110D01*
X111287661Y-99412661D01*
X111315110Y-99390134D01*
X111346431Y-99373393D01*
X111380409Y-99363085D01*
X111421890Y-99359000D01*
X112098110Y-99359000D01*
X112139591Y-99363085D01*
G37*
G36*
X115963591Y-99173085D02*
G01*
X115997569Y-99183393D01*
X116028890Y-99200134D01*
X116056339Y-99222661D01*
X116078866Y-99250110D01*
X116095607Y-99281431D01*
X116105915Y-99315409D01*
X116110000Y-99356890D01*
X116110000Y-100033110D01*
X116105915Y-100074591D01*
X116095607Y-100108569D01*
X116078866Y-100139890D01*
X116056339Y-100167339D01*
X116028890Y-100189866D01*
X115997569Y-100206607D01*
X115963591Y-100216915D01*
X115922110Y-100221000D01*
X115320890Y-100221000D01*
X115279409Y-100216915D01*
X115245431Y-100206607D01*
X115214110Y-100189866D01*
X115186661Y-100167339D01*
X115164134Y-100139890D01*
X115147393Y-100108569D01*
X115137085Y-100074591D01*
X115133000Y-100033110D01*
X115133000Y-99356890D01*
X115137085Y-99315409D01*
X115147393Y-99281431D01*
X115164134Y-99250110D01*
X115186661Y-99222661D01*
X115214110Y-99200134D01*
X115245431Y-99183393D01*
X115279409Y-99173085D01*
X115320890Y-99169000D01*
X115922110Y-99169000D01*
X115963591Y-99173085D01*
G37*
G36*
X114388591Y-99173085D02*
G01*
X114422569Y-99183393D01*
X114453890Y-99200134D01*
X114481339Y-99222661D01*
X114503866Y-99250110D01*
X114520607Y-99281431D01*
X114530915Y-99315409D01*
X114535000Y-99356890D01*
X114535000Y-100033110D01*
X114530915Y-100074591D01*
X114520607Y-100108569D01*
X114503866Y-100139890D01*
X114481339Y-100167339D01*
X114453890Y-100189866D01*
X114422569Y-100206607D01*
X114388591Y-100216915D01*
X114347110Y-100221000D01*
X113745890Y-100221000D01*
X113704409Y-100216915D01*
X113670431Y-100206607D01*
X113639110Y-100189866D01*
X113611661Y-100167339D01*
X113589134Y-100139890D01*
X113572393Y-100108569D01*
X113562085Y-100074591D01*
X113558000Y-100033110D01*
X113558000Y-99356890D01*
X113562085Y-99315409D01*
X113572393Y-99281431D01*
X113589134Y-99250110D01*
X113611661Y-99222661D01*
X113639110Y-99200134D01*
X113670431Y-99183393D01*
X113704409Y-99173085D01*
X113745890Y-99169000D01*
X114347110Y-99169000D01*
X114388591Y-99173085D01*
G37*
G36*
X112139591Y-97788085D02*
G01*
X112173569Y-97798393D01*
X112204890Y-97815134D01*
X112232339Y-97837661D01*
X112254866Y-97865110D01*
X112271607Y-97896431D01*
X112281915Y-97930409D01*
X112286000Y-97971890D01*
X112286000Y-98573110D01*
X112281915Y-98614591D01*
X112271607Y-98648569D01*
X112254866Y-98679890D01*
X112232339Y-98707339D01*
X112204890Y-98729866D01*
X112173569Y-98746607D01*
X112139591Y-98756915D01*
X112098110Y-98761000D01*
X111421890Y-98761000D01*
X111380409Y-98756915D01*
X111346431Y-98746607D01*
X111315110Y-98729866D01*
X111287661Y-98707339D01*
X111265134Y-98679890D01*
X111248393Y-98648569D01*
X111238085Y-98614591D01*
X111234000Y-98573110D01*
X111234000Y-97971890D01*
X111238085Y-97930409D01*
X111248393Y-97896431D01*
X111265134Y-97865110D01*
X111287661Y-97837661D01*
X111315110Y-97815134D01*
X111346431Y-97798393D01*
X111380409Y-97788085D01*
X111421890Y-97784000D01*
X112098110Y-97784000D01*
X112139591Y-97788085D01*
G37*
G36*
X98234512Y-96893927D02*
G01*
X98383812Y-96923624D01*
X98547784Y-96991544D01*
X98695354Y-97090147D01*
X98820853Y-97215646D01*
X98919456Y-97363216D01*
X98987376Y-97527188D01*
X99022000Y-97701259D01*
X99022000Y-97878741D01*
X98987376Y-98052812D01*
X98919456Y-98216784D01*
X98820853Y-98364354D01*
X98695354Y-98489853D01*
X98547784Y-98588456D01*
X98383812Y-98656376D01*
X98234512Y-98686073D01*
X98209742Y-98691000D01*
X98032258Y-98691000D01*
X98007488Y-98686073D01*
X97858188Y-98656376D01*
X97694216Y-98588456D01*
X97546646Y-98489853D01*
X97421147Y-98364354D01*
X97322544Y-98216784D01*
X97254624Y-98052812D01*
X97220000Y-97878741D01*
X97220000Y-97701259D01*
X97254624Y-97527188D01*
X97322544Y-97363216D01*
X97421147Y-97215646D01*
X97546646Y-97090147D01*
X97694216Y-96991544D01*
X97858188Y-96923624D01*
X98007488Y-96893927D01*
X98032258Y-96889000D01*
X98209742Y-96889000D01*
X98234512Y-96893927D01*
G37*
G36*
X105234512Y-96893927D02*
G01*
X105383812Y-96923624D01*
X105547784Y-96991544D01*
X105695354Y-97090147D01*
X105820853Y-97215646D01*
X105919456Y-97363216D01*
X105987376Y-97527188D01*
X106022000Y-97701259D01*
X106022000Y-97878741D01*
X105987376Y-98052812D01*
X105919456Y-98216784D01*
X105820853Y-98364354D01*
X105695354Y-98489853D01*
X105547784Y-98588456D01*
X105383812Y-98656376D01*
X105234512Y-98686073D01*
X105209742Y-98691000D01*
X105032258Y-98691000D01*
X105007488Y-98686073D01*
X104858188Y-98656376D01*
X104694216Y-98588456D01*
X104546646Y-98489853D01*
X104421147Y-98364354D01*
X104322544Y-98216784D01*
X104254624Y-98052812D01*
X104220000Y-97878741D01*
X104220000Y-97701259D01*
X104254624Y-97527188D01*
X104322544Y-97363216D01*
X104421147Y-97215646D01*
X104546646Y-97090147D01*
X104694216Y-96991544D01*
X104858188Y-96923624D01*
X105007488Y-96893927D01*
X105032258Y-96889000D01*
X105209742Y-96889000D01*
X105234512Y-96893927D01*
G37*
G36*
X146796366Y-94560695D02*
G01*
X146953460Y-94608349D01*
X147098231Y-94685731D01*
X147225128Y-94789872D01*
X147329269Y-94916769D01*
X147406651Y-95061540D01*
X147454305Y-95218634D01*
X147471000Y-95388140D01*
X147471000Y-97301860D01*
X147454305Y-97471366D01*
X147406651Y-97628460D01*
X147329269Y-97773231D01*
X147225128Y-97900128D01*
X147098231Y-98004269D01*
X146953460Y-98081651D01*
X146796366Y-98129305D01*
X146626860Y-98146000D01*
X144713140Y-98146000D01*
X144543634Y-98129305D01*
X144386540Y-98081651D01*
X144241769Y-98004269D01*
X144114872Y-97900128D01*
X144010731Y-97773231D01*
X143933349Y-97628460D01*
X143885695Y-97471366D01*
X143869000Y-97301860D01*
X143869000Y-95388140D01*
X143885695Y-95218634D01*
X143933349Y-95061540D01*
X144010731Y-94916769D01*
X144114872Y-94789872D01*
X144241769Y-94685731D01*
X144386540Y-94608349D01*
X144543634Y-94560695D01*
X144713140Y-94544000D01*
X146626860Y-94544000D01*
X146796366Y-94560695D01*
G37*
G36*
X114388591Y-95998085D02*
G01*
X114422569Y-96008393D01*
X114453890Y-96025134D01*
X114481339Y-96047661D01*
X114503866Y-96075110D01*
X114520607Y-96106431D01*
X114530915Y-96140409D01*
X114535000Y-96181890D01*
X114535000Y-96858110D01*
X114530915Y-96899591D01*
X114520607Y-96933569D01*
X114503866Y-96964890D01*
X114481339Y-96992339D01*
X114453890Y-97014866D01*
X114422569Y-97031607D01*
X114388591Y-97041915D01*
X114347110Y-97046000D01*
X113745890Y-97046000D01*
X113704409Y-97041915D01*
X113670431Y-97031607D01*
X113639110Y-97014866D01*
X113611661Y-96992339D01*
X113589134Y-96964890D01*
X113572393Y-96933569D01*
X113562085Y-96899591D01*
X113558000Y-96858110D01*
X113558000Y-96181890D01*
X113562085Y-96140409D01*
X113572393Y-96106431D01*
X113589134Y-96075110D01*
X113611661Y-96047661D01*
X113639110Y-96025134D01*
X113670431Y-96008393D01*
X113704409Y-95998085D01*
X113745890Y-95994000D01*
X114347110Y-95994000D01*
X114388591Y-95998085D01*
G37*
G36*
X115963591Y-95998085D02*
G01*
X115997569Y-96008393D01*
X116028890Y-96025134D01*
X116056339Y-96047661D01*
X116078866Y-96075110D01*
X116095607Y-96106431D01*
X116105915Y-96140409D01*
X116110000Y-96181890D01*
X116110000Y-96858110D01*
X116105915Y-96899591D01*
X116095607Y-96933569D01*
X116078866Y-96964890D01*
X116056339Y-96992339D01*
X116028890Y-97014866D01*
X115997569Y-97031607D01*
X115963591Y-97041915D01*
X115922110Y-97046000D01*
X115320890Y-97046000D01*
X115279409Y-97041915D01*
X115245431Y-97031607D01*
X115214110Y-97014866D01*
X115186661Y-96992339D01*
X115164134Y-96964890D01*
X115147393Y-96933569D01*
X115137085Y-96899591D01*
X115133000Y-96858110D01*
X115133000Y-96181890D01*
X115137085Y-96140409D01*
X115147393Y-96106431D01*
X115164134Y-96075110D01*
X115186661Y-96047661D01*
X115214110Y-96025134D01*
X115245431Y-96008393D01*
X115279409Y-95998085D01*
X115320890Y-95994000D01*
X115922110Y-95994000D01*
X115963591Y-95998085D01*
G37*
G36*
X100172000Y-95541000D02*
G01*
X97870000Y-95541000D01*
X97870000Y-92639000D01*
X100172000Y-92639000D01*
X100172000Y-95541000D01*
G37*
G36*
X142771000Y-95146000D02*
G01*
X139169000Y-95146000D01*
X139169000Y-91544000D01*
X142771000Y-91544000D01*
X142771000Y-95146000D01*
G37*
G36*
X107872000Y-91511000D02*
G01*
X104970000Y-91511000D01*
X104970000Y-88609000D01*
X107872000Y-88609000D01*
X107872000Y-91511000D01*
G37*
G36*
X98172000Y-91511000D02*
G01*
X95870000Y-91511000D01*
X95870000Y-88609000D01*
X98172000Y-88609000D01*
X98172000Y-91511000D01*
G37*
G36*
X112139591Y-87933085D02*
G01*
X112173569Y-87943393D01*
X112204890Y-87960134D01*
X112232339Y-87982661D01*
X112254866Y-88010110D01*
X112271607Y-88041431D01*
X112281915Y-88075409D01*
X112286000Y-88116890D01*
X112286000Y-88718110D01*
X112281915Y-88759591D01*
X112271607Y-88793569D01*
X112254866Y-88824890D01*
X112232339Y-88852339D01*
X112204890Y-88874866D01*
X112173569Y-88891607D01*
X112139591Y-88901915D01*
X112098110Y-88906000D01*
X111421890Y-88906000D01*
X111380409Y-88901915D01*
X111346431Y-88891607D01*
X111315110Y-88874866D01*
X111287661Y-88852339D01*
X111265134Y-88824890D01*
X111248393Y-88793569D01*
X111238085Y-88759591D01*
X111234000Y-88718110D01*
X111234000Y-88116890D01*
X111238085Y-88075409D01*
X111248393Y-88041431D01*
X111265134Y-88010110D01*
X111287661Y-87982661D01*
X111315110Y-87960134D01*
X111346431Y-87943393D01*
X111380409Y-87933085D01*
X111421890Y-87929000D01*
X112098110Y-87929000D01*
X112139591Y-87933085D01*
G37*
G36*
X119416591Y-87743085D02*
G01*
X119450569Y-87753393D01*
X119481890Y-87770134D01*
X119509339Y-87792661D01*
X119531866Y-87820110D01*
X119548607Y-87851431D01*
X119558915Y-87885409D01*
X119563000Y-87926890D01*
X119563000Y-88603110D01*
X119558915Y-88644591D01*
X119548607Y-88678569D01*
X119531866Y-88709890D01*
X119509339Y-88737339D01*
X119481890Y-88759866D01*
X119450569Y-88776607D01*
X119416591Y-88786915D01*
X119375110Y-88791000D01*
X118773890Y-88791000D01*
X118732409Y-88786915D01*
X118698431Y-88776607D01*
X118667110Y-88759866D01*
X118639661Y-88737339D01*
X118617134Y-88709890D01*
X118600393Y-88678569D01*
X118590085Y-88644591D01*
X118586000Y-88603110D01*
X118586000Y-87926890D01*
X118590085Y-87885409D01*
X118600393Y-87851431D01*
X118617134Y-87820110D01*
X118639661Y-87792661D01*
X118667110Y-87770134D01*
X118698431Y-87753393D01*
X118732409Y-87743085D01*
X118773890Y-87739000D01*
X119375110Y-87739000D01*
X119416591Y-87743085D01*
G37*
G36*
X120991591Y-87743085D02*
G01*
X121025569Y-87753393D01*
X121056890Y-87770134D01*
X121084339Y-87792661D01*
X121106866Y-87820110D01*
X121123607Y-87851431D01*
X121133915Y-87885409D01*
X121138000Y-87926890D01*
X121138000Y-88603110D01*
X121133915Y-88644591D01*
X121123607Y-88678569D01*
X121106866Y-88709890D01*
X121084339Y-88737339D01*
X121056890Y-88759866D01*
X121025569Y-88776607D01*
X120991591Y-88786915D01*
X120950110Y-88791000D01*
X120348890Y-88791000D01*
X120307409Y-88786915D01*
X120273431Y-88776607D01*
X120242110Y-88759866D01*
X120214661Y-88737339D01*
X120192134Y-88709890D01*
X120175393Y-88678569D01*
X120165085Y-88644591D01*
X120161000Y-88603110D01*
X120161000Y-87926890D01*
X120165085Y-87885409D01*
X120175393Y-87851431D01*
X120192134Y-87820110D01*
X120214661Y-87792661D01*
X120242110Y-87770134D01*
X120273431Y-87753393D01*
X120307409Y-87743085D01*
X120348890Y-87739000D01*
X120950110Y-87739000D01*
X120991591Y-87743085D01*
G37*
G36*
X115963591Y-87743085D02*
G01*
X115997569Y-87753393D01*
X116028890Y-87770134D01*
X116056339Y-87792661D01*
X116078866Y-87820110D01*
X116095607Y-87851431D01*
X116105915Y-87885409D01*
X116110000Y-87926890D01*
X116110000Y-88603110D01*
X116105915Y-88644591D01*
X116095607Y-88678569D01*
X116078866Y-88709890D01*
X116056339Y-88737339D01*
X116028890Y-88759866D01*
X115997569Y-88776607D01*
X115963591Y-88786915D01*
X115922110Y-88791000D01*
X115320890Y-88791000D01*
X115279409Y-88786915D01*
X115245431Y-88776607D01*
X115214110Y-88759866D01*
X115186661Y-88737339D01*
X115164134Y-88709890D01*
X115147393Y-88678569D01*
X115137085Y-88644591D01*
X115133000Y-88603110D01*
X115133000Y-87926890D01*
X115137085Y-87885409D01*
X115147393Y-87851431D01*
X115164134Y-87820110D01*
X115186661Y-87792661D01*
X115214110Y-87770134D01*
X115245431Y-87753393D01*
X115279409Y-87743085D01*
X115320890Y-87739000D01*
X115922110Y-87739000D01*
X115963591Y-87743085D01*
G37*
G36*
X114388591Y-87743085D02*
G01*
X114422569Y-87753393D01*
X114453890Y-87770134D01*
X114481339Y-87792661D01*
X114503866Y-87820110D01*
X114520607Y-87851431D01*
X114530915Y-87885409D01*
X114535000Y-87926890D01*
X114535000Y-88603110D01*
X114530915Y-88644591D01*
X114520607Y-88678569D01*
X114503866Y-88709890D01*
X114481339Y-88737339D01*
X114453890Y-88759866D01*
X114422569Y-88776607D01*
X114388591Y-88786915D01*
X114347110Y-88791000D01*
X113745890Y-88791000D01*
X113704409Y-88786915D01*
X113670431Y-88776607D01*
X113639110Y-88759866D01*
X113611661Y-88737339D01*
X113589134Y-88709890D01*
X113572393Y-88678569D01*
X113562085Y-88644591D01*
X113558000Y-88603110D01*
X113558000Y-87926890D01*
X113562085Y-87885409D01*
X113572393Y-87851431D01*
X113589134Y-87820110D01*
X113611661Y-87792661D01*
X113639110Y-87770134D01*
X113670431Y-87753393D01*
X113704409Y-87743085D01*
X113745890Y-87739000D01*
X114347110Y-87739000D01*
X114388591Y-87743085D01*
G37*
G36*
X141334499Y-86663445D02*
G01*
X141371995Y-86674820D01*
X141406554Y-86693292D01*
X141436847Y-86718153D01*
X141461708Y-86748446D01*
X141480180Y-86783005D01*
X141491555Y-86820501D01*
X141496000Y-86865638D01*
X141496000Y-87604362D01*
X141491555Y-87649499D01*
X141480180Y-87686995D01*
X141461708Y-87721554D01*
X141436847Y-87751847D01*
X141406554Y-87776708D01*
X141371995Y-87795180D01*
X141334499Y-87806555D01*
X141289362Y-87811000D01*
X140650638Y-87811000D01*
X140605501Y-87806555D01*
X140568005Y-87795180D01*
X140533446Y-87776708D01*
X140503153Y-87751847D01*
X140478292Y-87721554D01*
X140459820Y-87686995D01*
X140448445Y-87649499D01*
X140444000Y-87604362D01*
X140444000Y-86865638D01*
X140448445Y-86820501D01*
X140459820Y-86783005D01*
X140478292Y-86748446D01*
X140503153Y-86718153D01*
X140533446Y-86693292D01*
X140568005Y-86674820D01*
X140605501Y-86663445D01*
X140650638Y-86659000D01*
X141289362Y-86659000D01*
X141334499Y-86663445D01*
G37*
G36*
X112139591Y-86358085D02*
G01*
X112173569Y-86368393D01*
X112204890Y-86385134D01*
X112232339Y-86407661D01*
X112254866Y-86435110D01*
X112271607Y-86466431D01*
X112281915Y-86500409D01*
X112286000Y-86541890D01*
X112286000Y-87143110D01*
X112281915Y-87184591D01*
X112271607Y-87218569D01*
X112254866Y-87249890D01*
X112232339Y-87277339D01*
X112204890Y-87299866D01*
X112173569Y-87316607D01*
X112139591Y-87326915D01*
X112098110Y-87331000D01*
X111421890Y-87331000D01*
X111380409Y-87326915D01*
X111346431Y-87316607D01*
X111315110Y-87299866D01*
X111287661Y-87277339D01*
X111265134Y-87249890D01*
X111248393Y-87218569D01*
X111238085Y-87184591D01*
X111234000Y-87143110D01*
X111234000Y-86541890D01*
X111238085Y-86500409D01*
X111248393Y-86466431D01*
X111265134Y-86435110D01*
X111287661Y-86407661D01*
X111315110Y-86385134D01*
X111346431Y-86368393D01*
X111380409Y-86358085D01*
X111421890Y-86354000D01*
X112098110Y-86354000D01*
X112139591Y-86358085D01*
G37*
G36*
X105234512Y-85463927D02*
G01*
X105383812Y-85493624D01*
X105547784Y-85561544D01*
X105695354Y-85660147D01*
X105820853Y-85785646D01*
X105919456Y-85933216D01*
X105987376Y-86097188D01*
X106022000Y-86271259D01*
X106022000Y-86448741D01*
X105987376Y-86622812D01*
X105919456Y-86786784D01*
X105820853Y-86934354D01*
X105695354Y-87059853D01*
X105547784Y-87158456D01*
X105383812Y-87226376D01*
X105234512Y-87256073D01*
X105209742Y-87261000D01*
X105032258Y-87261000D01*
X105007488Y-87256073D01*
X104858188Y-87226376D01*
X104694216Y-87158456D01*
X104546646Y-87059853D01*
X104421147Y-86934354D01*
X104322544Y-86786784D01*
X104254624Y-86622812D01*
X104220000Y-86448741D01*
X104220000Y-86271259D01*
X104254624Y-86097188D01*
X104322544Y-85933216D01*
X104421147Y-85785646D01*
X104546646Y-85660147D01*
X104694216Y-85561544D01*
X104858188Y-85493624D01*
X105007488Y-85463927D01*
X105032258Y-85459000D01*
X105209742Y-85459000D01*
X105234512Y-85463927D01*
G37*
G36*
X98234512Y-85463927D02*
G01*
X98383812Y-85493624D01*
X98547784Y-85561544D01*
X98695354Y-85660147D01*
X98820853Y-85785646D01*
X98919456Y-85933216D01*
X98987376Y-86097188D01*
X99022000Y-86271259D01*
X99022000Y-86448741D01*
X98987376Y-86622812D01*
X98919456Y-86786784D01*
X98820853Y-86934354D01*
X98695354Y-87059853D01*
X98547784Y-87158456D01*
X98383812Y-87226376D01*
X98234512Y-87256073D01*
X98209742Y-87261000D01*
X98032258Y-87261000D01*
X98007488Y-87256073D01*
X97858188Y-87226376D01*
X97694216Y-87158456D01*
X97546646Y-87059853D01*
X97421147Y-86934354D01*
X97322544Y-86786784D01*
X97254624Y-86622812D01*
X97220000Y-86448741D01*
X97220000Y-86271259D01*
X97254624Y-86097188D01*
X97322544Y-85933216D01*
X97421147Y-85785646D01*
X97546646Y-85660147D01*
X97694216Y-85561544D01*
X97858188Y-85493624D01*
X98007488Y-85463927D01*
X98032258Y-85459000D01*
X98209742Y-85459000D01*
X98234512Y-85463927D01*
G37*
G36*
X141334499Y-84913445D02*
G01*
X141371995Y-84924820D01*
X141406554Y-84943292D01*
X141436847Y-84968153D01*
X141461708Y-84998446D01*
X141480180Y-85033005D01*
X141491555Y-85070501D01*
X141496000Y-85115638D01*
X141496000Y-85854362D01*
X141491555Y-85899499D01*
X141480180Y-85936995D01*
X141461708Y-85971554D01*
X141436847Y-86001847D01*
X141406554Y-86026708D01*
X141371995Y-86045180D01*
X141334499Y-86056555D01*
X141289362Y-86061000D01*
X140650638Y-86061000D01*
X140605501Y-86056555D01*
X140568005Y-86045180D01*
X140533446Y-86026708D01*
X140503153Y-86001847D01*
X140478292Y-85971554D01*
X140459820Y-85936995D01*
X140448445Y-85899499D01*
X140444000Y-85854362D01*
X140444000Y-85115638D01*
X140448445Y-85070501D01*
X140459820Y-85033005D01*
X140478292Y-84998446D01*
X140503153Y-84968153D01*
X140533446Y-84943292D01*
X140568005Y-84924820D01*
X140605501Y-84913445D01*
X140650638Y-84909000D01*
X141289362Y-84909000D01*
X141334499Y-84913445D01*
G37*
G36*
X119416591Y-84568085D02*
G01*
X119450569Y-84578393D01*
X119481890Y-84595134D01*
X119509339Y-84617661D01*
X119531866Y-84645110D01*
X119548607Y-84676431D01*
X119558915Y-84710409D01*
X119563000Y-84751890D01*
X119563000Y-85428110D01*
X119558915Y-85469591D01*
X119548607Y-85503569D01*
X119531866Y-85534890D01*
X119509339Y-85562339D01*
X119481890Y-85584866D01*
X119450569Y-85601607D01*
X119416591Y-85611915D01*
X119375110Y-85616000D01*
X118773890Y-85616000D01*
X118732409Y-85611915D01*
X118698431Y-85601607D01*
X118667110Y-85584866D01*
X118639661Y-85562339D01*
X118617134Y-85534890D01*
X118600393Y-85503569D01*
X118590085Y-85469591D01*
X118586000Y-85428110D01*
X118586000Y-84751890D01*
X118590085Y-84710409D01*
X118600393Y-84676431D01*
X118617134Y-84645110D01*
X118639661Y-84617661D01*
X118667110Y-84595134D01*
X118698431Y-84578393D01*
X118732409Y-84568085D01*
X118773890Y-84564000D01*
X119375110Y-84564000D01*
X119416591Y-84568085D01*
G37*
G36*
X144334591Y-84568085D02*
G01*
X144368569Y-84578393D01*
X144399890Y-84595134D01*
X144427339Y-84617661D01*
X144449866Y-84645110D01*
X144466607Y-84676431D01*
X144476915Y-84710409D01*
X144481000Y-84751890D01*
X144481000Y-85428110D01*
X144476915Y-85469591D01*
X144466607Y-85503569D01*
X144449866Y-85534890D01*
X144427339Y-85562339D01*
X144399890Y-85584866D01*
X144368569Y-85601607D01*
X144334591Y-85611915D01*
X144293110Y-85616000D01*
X143691890Y-85616000D01*
X143650409Y-85611915D01*
X143616431Y-85601607D01*
X143585110Y-85584866D01*
X143557661Y-85562339D01*
X143535134Y-85534890D01*
X143518393Y-85503569D01*
X143508085Y-85469591D01*
X143504000Y-85428110D01*
X143504000Y-84751890D01*
X143508085Y-84710409D01*
X143518393Y-84676431D01*
X143535134Y-84645110D01*
X143557661Y-84617661D01*
X143585110Y-84595134D01*
X143616431Y-84578393D01*
X143650409Y-84568085D01*
X143691890Y-84564000D01*
X144293110Y-84564000D01*
X144334591Y-84568085D01*
G37*
G36*
X120991591Y-84568085D02*
G01*
X121025569Y-84578393D01*
X121056890Y-84595134D01*
X121084339Y-84617661D01*
X121106866Y-84645110D01*
X121123607Y-84676431D01*
X121133915Y-84710409D01*
X121138000Y-84751890D01*
X121138000Y-85428110D01*
X121133915Y-85469591D01*
X121123607Y-85503569D01*
X121106866Y-85534890D01*
X121084339Y-85562339D01*
X121056890Y-85584866D01*
X121025569Y-85601607D01*
X120991591Y-85611915D01*
X120950110Y-85616000D01*
X120348890Y-85616000D01*
X120307409Y-85611915D01*
X120273431Y-85601607D01*
X120242110Y-85584866D01*
X120214661Y-85562339D01*
X120192134Y-85534890D01*
X120175393Y-85503569D01*
X120165085Y-85469591D01*
X120161000Y-85428110D01*
X120161000Y-84751890D01*
X120165085Y-84710409D01*
X120175393Y-84676431D01*
X120192134Y-84645110D01*
X120214661Y-84617661D01*
X120242110Y-84595134D01*
X120273431Y-84578393D01*
X120307409Y-84568085D01*
X120348890Y-84564000D01*
X120950110Y-84564000D01*
X120991591Y-84568085D01*
G37*
G36*
X114388591Y-84568085D02*
G01*
X114422569Y-84578393D01*
X114453890Y-84595134D01*
X114481339Y-84617661D01*
X114503866Y-84645110D01*
X114520607Y-84676431D01*
X114530915Y-84710409D01*
X114535000Y-84751890D01*
X114535000Y-85428110D01*
X114530915Y-85469591D01*
X114520607Y-85503569D01*
X114503866Y-85534890D01*
X114481339Y-85562339D01*
X114453890Y-85584866D01*
X114422569Y-85601607D01*
X114388591Y-85611915D01*
X114347110Y-85616000D01*
X113745890Y-85616000D01*
X113704409Y-85611915D01*
X113670431Y-85601607D01*
X113639110Y-85584866D01*
X113611661Y-85562339D01*
X113589134Y-85534890D01*
X113572393Y-85503569D01*
X113562085Y-85469591D01*
X113558000Y-85428110D01*
X113558000Y-84751890D01*
X113562085Y-84710409D01*
X113572393Y-84676431D01*
X113589134Y-84645110D01*
X113611661Y-84617661D01*
X113639110Y-84595134D01*
X113670431Y-84578393D01*
X113704409Y-84568085D01*
X113745890Y-84564000D01*
X114347110Y-84564000D01*
X114388591Y-84568085D01*
G37*
G36*
X115963591Y-84568085D02*
G01*
X115997569Y-84578393D01*
X116028890Y-84595134D01*
X116056339Y-84617661D01*
X116078866Y-84645110D01*
X116095607Y-84676431D01*
X116105915Y-84710409D01*
X116110000Y-84751890D01*
X116110000Y-85428110D01*
X116105915Y-85469591D01*
X116095607Y-85503569D01*
X116078866Y-85534890D01*
X116056339Y-85562339D01*
X116028890Y-85584866D01*
X115997569Y-85601607D01*
X115963591Y-85611915D01*
X115922110Y-85616000D01*
X115320890Y-85616000D01*
X115279409Y-85611915D01*
X115245431Y-85601607D01*
X115214110Y-85584866D01*
X115186661Y-85562339D01*
X115164134Y-85534890D01*
X115147393Y-85503569D01*
X115137085Y-85469591D01*
X115133000Y-85428110D01*
X115133000Y-84751890D01*
X115137085Y-84710409D01*
X115147393Y-84676431D01*
X115164134Y-84645110D01*
X115186661Y-84617661D01*
X115214110Y-84595134D01*
X115245431Y-84578393D01*
X115279409Y-84568085D01*
X115320890Y-84564000D01*
X115922110Y-84564000D01*
X115963591Y-84568085D01*
G37*
G36*
X145909591Y-84568085D02*
G01*
X145943569Y-84578393D01*
X145974890Y-84595134D01*
X146002339Y-84617661D01*
X146024866Y-84645110D01*
X146041607Y-84676431D01*
X146051915Y-84710409D01*
X146056000Y-84751890D01*
X146056000Y-85428110D01*
X146051915Y-85469591D01*
X146041607Y-85503569D01*
X146024866Y-85534890D01*
X146002339Y-85562339D01*
X145974890Y-85584866D01*
X145943569Y-85601607D01*
X145909591Y-85611915D01*
X145868110Y-85616000D01*
X145266890Y-85616000D01*
X145225409Y-85611915D01*
X145191431Y-85601607D01*
X145160110Y-85584866D01*
X145132661Y-85562339D01*
X145110134Y-85534890D01*
X145093393Y-85503569D01*
X145083085Y-85469591D01*
X145079000Y-85428110D01*
X145079000Y-84751890D01*
X145083085Y-84710409D01*
X145093393Y-84676431D01*
X145110134Y-84645110D01*
X145132661Y-84617661D01*
X145160110Y-84595134D01*
X145191431Y-84578393D01*
X145225409Y-84568085D01*
X145266890Y-84564000D01*
X145868110Y-84564000D01*
X145909591Y-84568085D01*
G37*
G36*
X100172000Y-84111000D02*
G01*
X97870000Y-84111000D01*
X97870000Y-81209000D01*
X100172000Y-81209000D01*
X100172000Y-84111000D01*
G37*
G36*
X145909591Y-82028085D02*
G01*
X145943569Y-82038393D01*
X145974890Y-82055134D01*
X146002339Y-82077661D01*
X146024866Y-82105110D01*
X146041607Y-82136431D01*
X146051915Y-82170409D01*
X146056000Y-82211890D01*
X146056000Y-82888110D01*
X146051915Y-82929591D01*
X146041607Y-82963569D01*
X146024866Y-82994890D01*
X146002339Y-83022339D01*
X145974890Y-83044866D01*
X145943569Y-83061607D01*
X145909591Y-83071915D01*
X145868110Y-83076000D01*
X145266890Y-83076000D01*
X145225409Y-83071915D01*
X145191431Y-83061607D01*
X145160110Y-83044866D01*
X145132661Y-83022339D01*
X145110134Y-82994890D01*
X145093393Y-82963569D01*
X145083085Y-82929591D01*
X145079000Y-82888110D01*
X145079000Y-82211890D01*
X145083085Y-82170409D01*
X145093393Y-82136431D01*
X145110134Y-82105110D01*
X145132661Y-82077661D01*
X145160110Y-82055134D01*
X145191431Y-82038393D01*
X145225409Y-82028085D01*
X145266890Y-82024000D01*
X145868110Y-82024000D01*
X145909591Y-82028085D01*
G37*
G36*
X144334591Y-82028085D02*
G01*
X144368569Y-82038393D01*
X144399890Y-82055134D01*
X144427339Y-82077661D01*
X144449866Y-82105110D01*
X144466607Y-82136431D01*
X144476915Y-82170409D01*
X144481000Y-82211890D01*
X144481000Y-82888110D01*
X144476915Y-82929591D01*
X144466607Y-82963569D01*
X144449866Y-82994890D01*
X144427339Y-83022339D01*
X144399890Y-83044866D01*
X144368569Y-83061607D01*
X144334591Y-83071915D01*
X144293110Y-83076000D01*
X143691890Y-83076000D01*
X143650409Y-83071915D01*
X143616431Y-83061607D01*
X143585110Y-83044866D01*
X143557661Y-83022339D01*
X143535134Y-82994890D01*
X143518393Y-82963569D01*
X143508085Y-82929591D01*
X143504000Y-82888110D01*
X143504000Y-82211890D01*
X143508085Y-82170409D01*
X143518393Y-82136431D01*
X143535134Y-82105110D01*
X143557661Y-82077661D01*
X143585110Y-82055134D01*
X143616431Y-82038393D01*
X143650409Y-82028085D01*
X143691890Y-82024000D01*
X144293110Y-82024000D01*
X144334591Y-82028085D01*
G37*
G36*
X134835091Y-81012085D02*
G01*
X134869069Y-81022393D01*
X134900390Y-81039134D01*
X134927839Y-81061661D01*
X134950366Y-81089110D01*
X134967107Y-81120431D01*
X134977415Y-81154409D01*
X134981500Y-81195890D01*
X134981500Y-81872110D01*
X134977415Y-81913591D01*
X134967107Y-81947569D01*
X134950366Y-81978890D01*
X134927839Y-82006339D01*
X134900390Y-82028866D01*
X134869069Y-82045607D01*
X134835091Y-82055915D01*
X134793610Y-82060000D01*
X134192390Y-82060000D01*
X134150909Y-82055915D01*
X134116931Y-82045607D01*
X134085610Y-82028866D01*
X134058161Y-82006339D01*
X134035634Y-81978890D01*
X134018893Y-81947569D01*
X134008585Y-81913591D01*
X134004500Y-81872110D01*
X134004500Y-81195890D01*
X134008585Y-81154409D01*
X134018893Y-81120431D01*
X134035634Y-81089110D01*
X134058161Y-81061661D01*
X134085610Y-81039134D01*
X134116931Y-81022393D01*
X134150909Y-81012085D01*
X134192390Y-81008000D01*
X134793610Y-81008000D01*
X134835091Y-81012085D01*
G37*
G36*
X133260091Y-81012085D02*
G01*
X133294069Y-81022393D01*
X133325390Y-81039134D01*
X133352839Y-81061661D01*
X133375366Y-81089110D01*
X133392107Y-81120431D01*
X133402415Y-81154409D01*
X133406500Y-81195890D01*
X133406500Y-81872110D01*
X133402415Y-81913591D01*
X133392107Y-81947569D01*
X133375366Y-81978890D01*
X133352839Y-82006339D01*
X133325390Y-82028866D01*
X133294069Y-82045607D01*
X133260091Y-82055915D01*
X133218610Y-82060000D01*
X132617390Y-82060000D01*
X132575909Y-82055915D01*
X132541931Y-82045607D01*
X132510610Y-82028866D01*
X132483161Y-82006339D01*
X132460634Y-81978890D01*
X132443893Y-81947569D01*
X132433585Y-81913591D01*
X132429500Y-81872110D01*
X132429500Y-81195890D01*
X132433585Y-81154409D01*
X132443893Y-81120431D01*
X132460634Y-81089110D01*
X132483161Y-81061661D01*
X132510610Y-81039134D01*
X132541931Y-81022393D01*
X132575909Y-81012085D01*
X132617390Y-81008000D01*
X133218610Y-81008000D01*
X133260091Y-81012085D01*
G37*
G36*
X158101512Y-78859927D02*
G01*
X158250812Y-78889624D01*
X158414784Y-78957544D01*
X158562354Y-79056147D01*
X158687853Y-79181646D01*
X158786456Y-79329216D01*
X158854376Y-79493188D01*
X158889000Y-79667259D01*
X158889000Y-79844741D01*
X158854376Y-80018812D01*
X158786456Y-80182784D01*
X158687853Y-80330354D01*
X158562354Y-80455853D01*
X158414784Y-80554456D01*
X158250812Y-80622376D01*
X158101512Y-80652073D01*
X158076742Y-80657000D01*
X157899258Y-80657000D01*
X157874488Y-80652073D01*
X157725188Y-80622376D01*
X157561216Y-80554456D01*
X157413646Y-80455853D01*
X157288147Y-80330354D01*
X157189544Y-80182784D01*
X157121624Y-80018812D01*
X157087000Y-79844741D01*
X157087000Y-79667259D01*
X157121624Y-79493188D01*
X157189544Y-79329216D01*
X157288147Y-79181646D01*
X157413646Y-79056147D01*
X157561216Y-78957544D01*
X157725188Y-78889624D01*
X157874488Y-78859927D01*
X157899258Y-78855000D01*
X158076742Y-78855000D01*
X158101512Y-78859927D01*
G37*
G36*
X107872000Y-80081000D02*
G01*
X104970000Y-80081000D01*
X104970000Y-77179000D01*
X107872000Y-77179000D01*
X107872000Y-80081000D01*
G37*
G36*
X98172000Y-80081000D02*
G01*
X95870000Y-80081000D01*
X95870000Y-77179000D01*
X98172000Y-77179000D01*
X98172000Y-80081000D01*
G37*
G36*
X158101512Y-76319927D02*
G01*
X158250812Y-76349624D01*
X158414784Y-76417544D01*
X158562354Y-76516147D01*
X158687853Y-76641646D01*
X158786456Y-76789216D01*
X158854376Y-76953188D01*
X158889000Y-77127259D01*
X158889000Y-77304741D01*
X158854376Y-77478812D01*
X158786456Y-77642784D01*
X158687853Y-77790354D01*
X158562354Y-77915853D01*
X158414784Y-78014456D01*
X158250812Y-78082376D01*
X158106906Y-78111000D01*
X158076742Y-78117000D01*
X157899258Y-78117000D01*
X157869094Y-78111000D01*
X157725188Y-78082376D01*
X157561216Y-78014456D01*
X157413646Y-77915853D01*
X157288147Y-77790354D01*
X157189544Y-77642784D01*
X157121624Y-77478812D01*
X157087000Y-77304741D01*
X157087000Y-77127259D01*
X157121624Y-76953188D01*
X157189544Y-76789216D01*
X157288147Y-76641646D01*
X157413646Y-76516147D01*
X157561216Y-76417544D01*
X157725188Y-76349624D01*
X157874488Y-76319927D01*
X157899258Y-76315000D01*
X158076742Y-76315000D01*
X158101512Y-76319927D01*
G37*
G36*
X112139591Y-77138085D02*
G01*
X112173569Y-77148393D01*
X112204890Y-77165134D01*
X112232339Y-77187661D01*
X112254866Y-77215110D01*
X112271607Y-77246431D01*
X112281915Y-77280409D01*
X112286000Y-77321890D01*
X112286000Y-77923110D01*
X112281915Y-77964591D01*
X112271607Y-77998569D01*
X112254866Y-78029890D01*
X112232339Y-78057339D01*
X112204890Y-78079866D01*
X112173569Y-78096607D01*
X112139591Y-78106915D01*
X112098110Y-78111000D01*
X111421890Y-78111000D01*
X111380409Y-78106915D01*
X111346431Y-78096607D01*
X111315110Y-78079866D01*
X111287661Y-78057339D01*
X111265134Y-78029890D01*
X111248393Y-77998569D01*
X111238085Y-77964591D01*
X111234000Y-77923110D01*
X111234000Y-77321890D01*
X111238085Y-77280409D01*
X111248393Y-77246431D01*
X111265134Y-77215110D01*
X111287661Y-77187661D01*
X111315110Y-77165134D01*
X111346431Y-77148393D01*
X111380409Y-77138085D01*
X111421890Y-77134000D01*
X112098110Y-77134000D01*
X112139591Y-77138085D01*
G37*
G36*
X121093791Y-77054765D02*
G01*
X121127769Y-77065073D01*
X121159090Y-77081814D01*
X121186539Y-77104341D01*
X121209066Y-77131790D01*
X121225807Y-77163111D01*
X121236115Y-77197089D01*
X121240200Y-77238570D01*
X121240200Y-77914790D01*
X121236115Y-77956271D01*
X121225807Y-77990249D01*
X121209066Y-78021570D01*
X121186539Y-78049019D01*
X121159090Y-78071546D01*
X121127769Y-78088287D01*
X121093791Y-78098595D01*
X121052310Y-78102680D01*
X120451090Y-78102680D01*
X120409609Y-78098595D01*
X120375631Y-78088287D01*
X120344310Y-78071546D01*
X120316861Y-78049019D01*
X120294334Y-78021570D01*
X120277593Y-77990249D01*
X120267285Y-77956271D01*
X120263200Y-77914790D01*
X120263200Y-77238570D01*
X120267285Y-77197089D01*
X120277593Y-77163111D01*
X120294334Y-77131790D01*
X120316861Y-77104341D01*
X120344310Y-77081814D01*
X120375631Y-77065073D01*
X120409609Y-77054765D01*
X120451090Y-77050680D01*
X121052310Y-77050680D01*
X121093791Y-77054765D01*
G37*
G36*
X119518791Y-77054765D02*
G01*
X119552769Y-77065073D01*
X119584090Y-77081814D01*
X119611539Y-77104341D01*
X119634066Y-77131790D01*
X119650807Y-77163111D01*
X119661115Y-77197089D01*
X119665200Y-77238570D01*
X119665200Y-77914790D01*
X119661115Y-77956271D01*
X119650807Y-77990249D01*
X119634066Y-78021570D01*
X119611539Y-78049019D01*
X119584090Y-78071546D01*
X119552769Y-78088287D01*
X119518791Y-78098595D01*
X119477310Y-78102680D01*
X118876090Y-78102680D01*
X118834609Y-78098595D01*
X118800631Y-78088287D01*
X118769310Y-78071546D01*
X118741861Y-78049019D01*
X118719334Y-78021570D01*
X118702593Y-77990249D01*
X118692285Y-77956271D01*
X118688200Y-77914790D01*
X118688200Y-77238570D01*
X118692285Y-77197089D01*
X118702593Y-77163111D01*
X118719334Y-77131790D01*
X118741861Y-77104341D01*
X118769310Y-77081814D01*
X118800631Y-77065073D01*
X118834609Y-77054765D01*
X118876090Y-77050680D01*
X119477310Y-77050680D01*
X119518791Y-77054765D01*
G37*
G36*
X133519798Y-76621247D02*
G01*
X133555367Y-76632037D01*
X133588139Y-76649554D01*
X133616869Y-76673131D01*
X133640446Y-76701861D01*
X133657963Y-76734633D01*
X133668753Y-76770202D01*
X133673000Y-76813325D01*
X133673000Y-77872675D01*
X133668753Y-77915798D01*
X133657963Y-77951367D01*
X133640446Y-77984139D01*
X133616869Y-78012869D01*
X133588139Y-78036446D01*
X133555367Y-78053963D01*
X133519798Y-78064753D01*
X133476675Y-78069000D01*
X132367325Y-78069000D01*
X132324202Y-78064753D01*
X132288633Y-78053963D01*
X132255861Y-78036446D01*
X132227131Y-78012869D01*
X132203554Y-77984139D01*
X132186037Y-77951367D01*
X132175247Y-77915798D01*
X132171000Y-77872675D01*
X132171000Y-76813325D01*
X132175247Y-76770202D01*
X132186037Y-76734633D01*
X132203554Y-76701861D01*
X132227131Y-76673131D01*
X132255861Y-76649554D01*
X132288633Y-76632037D01*
X132324202Y-76621247D01*
X132367325Y-76617000D01*
X133476675Y-76617000D01*
X133519798Y-76621247D01*
G37*
G36*
X130819798Y-76621247D02*
G01*
X130855367Y-76632037D01*
X130888139Y-76649554D01*
X130916869Y-76673131D01*
X130940446Y-76701861D01*
X130957963Y-76734633D01*
X130968753Y-76770202D01*
X130973000Y-76813325D01*
X130973000Y-77872675D01*
X130968753Y-77915798D01*
X130957963Y-77951367D01*
X130940446Y-77984139D01*
X130916869Y-78012869D01*
X130888139Y-78036446D01*
X130855367Y-78053963D01*
X130819798Y-78064753D01*
X130776675Y-78069000D01*
X129667325Y-78069000D01*
X129624202Y-78064753D01*
X129588633Y-78053963D01*
X129555861Y-78036446D01*
X129527131Y-78012869D01*
X129503554Y-77984139D01*
X129486037Y-77951367D01*
X129475247Y-77915798D01*
X129471000Y-77872675D01*
X129471000Y-76813325D01*
X129475247Y-76770202D01*
X129486037Y-76734633D01*
X129503554Y-76701861D01*
X129527131Y-76673131D01*
X129555861Y-76649554D01*
X129588633Y-76632037D01*
X129624202Y-76621247D01*
X129667325Y-76617000D01*
X130776675Y-76617000D01*
X130819798Y-76621247D01*
G37*
G36*
X115963591Y-76948085D02*
G01*
X115997569Y-76958393D01*
X116028890Y-76975134D01*
X116056339Y-76997661D01*
X116078866Y-77025110D01*
X116095607Y-77056431D01*
X116105915Y-77090409D01*
X116110000Y-77131890D01*
X116110000Y-77808110D01*
X116105915Y-77849591D01*
X116095607Y-77883569D01*
X116078866Y-77914890D01*
X116056339Y-77942339D01*
X116028890Y-77964866D01*
X115997569Y-77981607D01*
X115963591Y-77991915D01*
X115922110Y-77996000D01*
X115320890Y-77996000D01*
X115279409Y-77991915D01*
X115245431Y-77981607D01*
X115214110Y-77964866D01*
X115186661Y-77942339D01*
X115164134Y-77914890D01*
X115147393Y-77883569D01*
X115137085Y-77849591D01*
X115133000Y-77808110D01*
X115133000Y-77131890D01*
X115137085Y-77090409D01*
X115147393Y-77056431D01*
X115164134Y-77025110D01*
X115186661Y-76997661D01*
X115214110Y-76975134D01*
X115245431Y-76958393D01*
X115279409Y-76948085D01*
X115320890Y-76944000D01*
X115922110Y-76944000D01*
X115963591Y-76948085D01*
G37*
G36*
X114388591Y-76948085D02*
G01*
X114422569Y-76958393D01*
X114453890Y-76975134D01*
X114481339Y-76997661D01*
X114503866Y-77025110D01*
X114520607Y-77056431D01*
X114530915Y-77090409D01*
X114535000Y-77131890D01*
X114535000Y-77808110D01*
X114530915Y-77849591D01*
X114520607Y-77883569D01*
X114503866Y-77914890D01*
X114481339Y-77942339D01*
X114453890Y-77964866D01*
X114422569Y-77981607D01*
X114388591Y-77991915D01*
X114347110Y-77996000D01*
X113745890Y-77996000D01*
X113704409Y-77991915D01*
X113670431Y-77981607D01*
X113639110Y-77964866D01*
X113611661Y-77942339D01*
X113589134Y-77914890D01*
X113572393Y-77883569D01*
X113562085Y-77849591D01*
X113558000Y-77808110D01*
X113558000Y-77131890D01*
X113562085Y-77090409D01*
X113572393Y-77056431D01*
X113589134Y-77025110D01*
X113611661Y-76997661D01*
X113639110Y-76975134D01*
X113670431Y-76958393D01*
X113704409Y-76948085D01*
X113745890Y-76944000D01*
X114347110Y-76944000D01*
X114388591Y-76948085D01*
G37*
G36*
X135317591Y-76440085D02*
G01*
X135351569Y-76450393D01*
X135382890Y-76467134D01*
X135410339Y-76489661D01*
X135432866Y-76517110D01*
X135449607Y-76548431D01*
X135459915Y-76582409D01*
X135464000Y-76623890D01*
X135464000Y-77300110D01*
X135459915Y-77341591D01*
X135449607Y-77375569D01*
X135432866Y-77406890D01*
X135410339Y-77434339D01*
X135382890Y-77456866D01*
X135351569Y-77473607D01*
X135317591Y-77483915D01*
X135276110Y-77488000D01*
X134674890Y-77488000D01*
X134633409Y-77483915D01*
X134599431Y-77473607D01*
X134568110Y-77456866D01*
X134540661Y-77434339D01*
X134518134Y-77406890D01*
X134501393Y-77375569D01*
X134491085Y-77341591D01*
X134487000Y-77300110D01*
X134487000Y-76623890D01*
X134491085Y-76582409D01*
X134501393Y-76548431D01*
X134518134Y-76517110D01*
X134540661Y-76489661D01*
X134568110Y-76467134D01*
X134599431Y-76450393D01*
X134633409Y-76440085D01*
X134674890Y-76436000D01*
X135276110Y-76436000D01*
X135317591Y-76440085D01*
G37*
G36*
X136892591Y-76440085D02*
G01*
X136926569Y-76450393D01*
X136957890Y-76467134D01*
X136985339Y-76489661D01*
X137007866Y-76517110D01*
X137024607Y-76548431D01*
X137034915Y-76582409D01*
X137039000Y-76623890D01*
X137039000Y-77300110D01*
X137034915Y-77341591D01*
X137024607Y-77375569D01*
X137007866Y-77406890D01*
X136985339Y-77434339D01*
X136957890Y-77456866D01*
X136926569Y-77473607D01*
X136892591Y-77483915D01*
X136851110Y-77488000D01*
X136249890Y-77488000D01*
X136208409Y-77483915D01*
X136174431Y-77473607D01*
X136143110Y-77456866D01*
X136115661Y-77434339D01*
X136093134Y-77406890D01*
X136076393Y-77375569D01*
X136066085Y-77341591D01*
X136062000Y-77300110D01*
X136062000Y-76623890D01*
X136066085Y-76582409D01*
X136076393Y-76548431D01*
X136093134Y-76517110D01*
X136115661Y-76489661D01*
X136143110Y-76467134D01*
X136174431Y-76450393D01*
X136208409Y-76440085D01*
X136249890Y-76436000D01*
X136851110Y-76436000D01*
X136892591Y-76440085D01*
G37*
G36*
X112139591Y-75563085D02*
G01*
X112173569Y-75573393D01*
X112204890Y-75590134D01*
X112232339Y-75612661D01*
X112254866Y-75640110D01*
X112271607Y-75671431D01*
X112281915Y-75705409D01*
X112286000Y-75746890D01*
X112286000Y-76348110D01*
X112281915Y-76389591D01*
X112271607Y-76423569D01*
X112254866Y-76454890D01*
X112232339Y-76482339D01*
X112204890Y-76504866D01*
X112173569Y-76521607D01*
X112139591Y-76531915D01*
X112098110Y-76536000D01*
X111421890Y-76536000D01*
X111380409Y-76531915D01*
X111346431Y-76521607D01*
X111315110Y-76504866D01*
X111287661Y-76482339D01*
X111265134Y-76454890D01*
X111248393Y-76423569D01*
X111238085Y-76389591D01*
X111234000Y-76348110D01*
X111234000Y-75746890D01*
X111238085Y-75705409D01*
X111248393Y-75671431D01*
X111265134Y-75640110D01*
X111287661Y-75612661D01*
X111315110Y-75590134D01*
X111346431Y-75573393D01*
X111380409Y-75563085D01*
X111421890Y-75559000D01*
X112098110Y-75559000D01*
X112139591Y-75563085D01*
G37*
G36*
X132701591Y-74916085D02*
G01*
X132735569Y-74926393D01*
X132766890Y-74943134D01*
X132794339Y-74965661D01*
X132816866Y-74993110D01*
X132833607Y-75024431D01*
X132843915Y-75058409D01*
X132848000Y-75099890D01*
X132848000Y-75776110D01*
X132843915Y-75817591D01*
X132833607Y-75851569D01*
X132816866Y-75882890D01*
X132794339Y-75910339D01*
X132766890Y-75932866D01*
X132735569Y-75949607D01*
X132701591Y-75959915D01*
X132660110Y-75964000D01*
X132058890Y-75964000D01*
X132017409Y-75959915D01*
X131983431Y-75949607D01*
X131952110Y-75932866D01*
X131924661Y-75910339D01*
X131902134Y-75882890D01*
X131885393Y-75851569D01*
X131875085Y-75817591D01*
X131871000Y-75776110D01*
X131871000Y-75099890D01*
X131875085Y-75058409D01*
X131885393Y-75024431D01*
X131902134Y-74993110D01*
X131924661Y-74965661D01*
X131952110Y-74943134D01*
X131983431Y-74926393D01*
X132017409Y-74916085D01*
X132058890Y-74912000D01*
X132660110Y-74912000D01*
X132701591Y-74916085D01*
G37*
G36*
X131126591Y-74916085D02*
G01*
X131160569Y-74926393D01*
X131191890Y-74943134D01*
X131219339Y-74965661D01*
X131241866Y-74993110D01*
X131258607Y-75024431D01*
X131268915Y-75058409D01*
X131273000Y-75099890D01*
X131273000Y-75776110D01*
X131268915Y-75817591D01*
X131258607Y-75851569D01*
X131241866Y-75882890D01*
X131219339Y-75910339D01*
X131191890Y-75932866D01*
X131160569Y-75949607D01*
X131126591Y-75959915D01*
X131085110Y-75964000D01*
X130483890Y-75964000D01*
X130442409Y-75959915D01*
X130408431Y-75949607D01*
X130377110Y-75932866D01*
X130349661Y-75910339D01*
X130327134Y-75882890D01*
X130310393Y-75851569D01*
X130300085Y-75817591D01*
X130296000Y-75776110D01*
X130296000Y-75099890D01*
X130300085Y-75058409D01*
X130310393Y-75024431D01*
X130327134Y-74993110D01*
X130349661Y-74965661D01*
X130377110Y-74943134D01*
X130408431Y-74926393D01*
X130442409Y-74916085D01*
X130483890Y-74912000D01*
X131085110Y-74912000D01*
X131126591Y-74916085D01*
G37*
G36*
X98234512Y-74033927D02*
G01*
X98383812Y-74063624D01*
X98547784Y-74131544D01*
X98695354Y-74230147D01*
X98820853Y-74355646D01*
X98919456Y-74503216D01*
X98987376Y-74667188D01*
X99022000Y-74841259D01*
X99022000Y-75018741D01*
X98987376Y-75192812D01*
X98919456Y-75356784D01*
X98820853Y-75504354D01*
X98695354Y-75629853D01*
X98547784Y-75728456D01*
X98383812Y-75796376D01*
X98234512Y-75826073D01*
X98209742Y-75831000D01*
X98032258Y-75831000D01*
X98007488Y-75826073D01*
X97858188Y-75796376D01*
X97694216Y-75728456D01*
X97546646Y-75629853D01*
X97421147Y-75504354D01*
X97322544Y-75356784D01*
X97254624Y-75192812D01*
X97220000Y-75018741D01*
X97220000Y-74841259D01*
X97254624Y-74667188D01*
X97322544Y-74503216D01*
X97421147Y-74355646D01*
X97546646Y-74230147D01*
X97694216Y-74131544D01*
X97858188Y-74063624D01*
X98007488Y-74033927D01*
X98032258Y-74029000D01*
X98209742Y-74029000D01*
X98234512Y-74033927D01*
G37*
G36*
X105234512Y-74033927D02*
G01*
X105383812Y-74063624D01*
X105547784Y-74131544D01*
X105695354Y-74230147D01*
X105820853Y-74355646D01*
X105919456Y-74503216D01*
X105987376Y-74667188D01*
X106022000Y-74841259D01*
X106022000Y-75018741D01*
X105987376Y-75192812D01*
X105919456Y-75356784D01*
X105820853Y-75504354D01*
X105695354Y-75629853D01*
X105547784Y-75728456D01*
X105383812Y-75796376D01*
X105234512Y-75826073D01*
X105209742Y-75831000D01*
X105032258Y-75831000D01*
X105007488Y-75826073D01*
X104858188Y-75796376D01*
X104694216Y-75728456D01*
X104546646Y-75629853D01*
X104421147Y-75504354D01*
X104322544Y-75356784D01*
X104254624Y-75192812D01*
X104220000Y-75018741D01*
X104220000Y-74841259D01*
X104254624Y-74667188D01*
X104322544Y-74503216D01*
X104421147Y-74355646D01*
X104546646Y-74230147D01*
X104694216Y-74131544D01*
X104858188Y-74063624D01*
X105007488Y-74033927D01*
X105032258Y-74029000D01*
X105209742Y-74029000D01*
X105234512Y-74033927D01*
G37*
G36*
X138936591Y-74725085D02*
G01*
X138970569Y-74735393D01*
X139001890Y-74752134D01*
X139029339Y-74774661D01*
X139051866Y-74802110D01*
X139068607Y-74833431D01*
X139078915Y-74867409D01*
X139083000Y-74908890D01*
X139083000Y-75510110D01*
X139078915Y-75551591D01*
X139068607Y-75585569D01*
X139051866Y-75616890D01*
X139029339Y-75644339D01*
X139001890Y-75666866D01*
X138970569Y-75683607D01*
X138936591Y-75693915D01*
X138895110Y-75698000D01*
X138218890Y-75698000D01*
X138177409Y-75693915D01*
X138143431Y-75683607D01*
X138112110Y-75666866D01*
X138084661Y-75644339D01*
X138062134Y-75616890D01*
X138045393Y-75585569D01*
X138035085Y-75551591D01*
X138031000Y-75510110D01*
X138031000Y-74908890D01*
X138035085Y-74867409D01*
X138045393Y-74833431D01*
X138062134Y-74802110D01*
X138084661Y-74774661D01*
X138112110Y-74752134D01*
X138143431Y-74735393D01*
X138177409Y-74725085D01*
X138218890Y-74721000D01*
X138895110Y-74721000D01*
X138936591Y-74725085D01*
G37*
G36*
X135514000Y-75673000D02*
G01*
X134262000Y-75673000D01*
X134262000Y-74571000D01*
X135514000Y-74571000D01*
X135514000Y-75673000D01*
G37*
G36*
X137264000Y-75673000D02*
G01*
X136012000Y-75673000D01*
X136012000Y-74571000D01*
X137264000Y-74571000D01*
X137264000Y-75673000D01*
G37*
G36*
X158101512Y-73779927D02*
G01*
X158250812Y-73809624D01*
X158414784Y-73877544D01*
X158562354Y-73976147D01*
X158687853Y-74101646D01*
X158786456Y-74249216D01*
X158854376Y-74413188D01*
X158884073Y-74562488D01*
X158889000Y-74587258D01*
X158889000Y-74764742D01*
X158885712Y-74781271D01*
X158854376Y-74938812D01*
X158786456Y-75102784D01*
X158687853Y-75250354D01*
X158562354Y-75375853D01*
X158414784Y-75474456D01*
X158250812Y-75542376D01*
X158101512Y-75572073D01*
X158076742Y-75577000D01*
X157899258Y-75577000D01*
X157874488Y-75572073D01*
X157725188Y-75542376D01*
X157561216Y-75474456D01*
X157413646Y-75375853D01*
X157288147Y-75250354D01*
X157189544Y-75102784D01*
X157121624Y-74938812D01*
X157090288Y-74781271D01*
X157087000Y-74764742D01*
X157087000Y-74587258D01*
X157091927Y-74562488D01*
X157121624Y-74413188D01*
X157189544Y-74249216D01*
X157288147Y-74101646D01*
X157413646Y-73976147D01*
X157561216Y-73877544D01*
X157725188Y-73809624D01*
X157874488Y-73779927D01*
X157899258Y-73775000D01*
X158076742Y-73775000D01*
X158101512Y-73779927D01*
G37*
G36*
X121093791Y-73879765D02*
G01*
X121127769Y-73890073D01*
X121159090Y-73906814D01*
X121186539Y-73929341D01*
X121209066Y-73956790D01*
X121225807Y-73988111D01*
X121236115Y-74022089D01*
X121240200Y-74063570D01*
X121240200Y-74739790D01*
X121236115Y-74781271D01*
X121225807Y-74815249D01*
X121209066Y-74846570D01*
X121186539Y-74874019D01*
X121159090Y-74896546D01*
X121127769Y-74913287D01*
X121093791Y-74923595D01*
X121052310Y-74927680D01*
X120451090Y-74927680D01*
X120409609Y-74923595D01*
X120375631Y-74913287D01*
X120344310Y-74896546D01*
X120316861Y-74874019D01*
X120294334Y-74846570D01*
X120277593Y-74815249D01*
X120267285Y-74781271D01*
X120263200Y-74739790D01*
X120263200Y-74063570D01*
X120267285Y-74022089D01*
X120277593Y-73988111D01*
X120294334Y-73956790D01*
X120316861Y-73929341D01*
X120344310Y-73906814D01*
X120375631Y-73890073D01*
X120409609Y-73879765D01*
X120451090Y-73875680D01*
X121052310Y-73875680D01*
X121093791Y-73879765D01*
G37*
G36*
X119518791Y-73879765D02*
G01*
X119552769Y-73890073D01*
X119584090Y-73906814D01*
X119611539Y-73929341D01*
X119634066Y-73956790D01*
X119650807Y-73988111D01*
X119661115Y-74022089D01*
X119665200Y-74063570D01*
X119665200Y-74739790D01*
X119661115Y-74781271D01*
X119650807Y-74815249D01*
X119634066Y-74846570D01*
X119611539Y-74874019D01*
X119584090Y-74896546D01*
X119552769Y-74913287D01*
X119518791Y-74923595D01*
X119477310Y-74927680D01*
X118876090Y-74927680D01*
X118834609Y-74923595D01*
X118800631Y-74913287D01*
X118769310Y-74896546D01*
X118741861Y-74874019D01*
X118719334Y-74846570D01*
X118702593Y-74815249D01*
X118692285Y-74781271D01*
X118688200Y-74739790D01*
X118688200Y-74063570D01*
X118692285Y-74022089D01*
X118702593Y-73988111D01*
X118719334Y-73956790D01*
X118741861Y-73929341D01*
X118769310Y-73906814D01*
X118800631Y-73890073D01*
X118834609Y-73879765D01*
X118876090Y-73875680D01*
X119477310Y-73875680D01*
X119518791Y-73879765D01*
G37*
G36*
X114388591Y-73773085D02*
G01*
X114422569Y-73783393D01*
X114453890Y-73800134D01*
X114481339Y-73822661D01*
X114503866Y-73850110D01*
X114520607Y-73881431D01*
X114530915Y-73915409D01*
X114535000Y-73956890D01*
X114535000Y-74633110D01*
X114530915Y-74674591D01*
X114520607Y-74708569D01*
X114503866Y-74739890D01*
X114481339Y-74767339D01*
X114453890Y-74789866D01*
X114422569Y-74806607D01*
X114388591Y-74816915D01*
X114347110Y-74821000D01*
X113745890Y-74821000D01*
X113704409Y-74816915D01*
X113670431Y-74806607D01*
X113639110Y-74789866D01*
X113611661Y-74767339D01*
X113589134Y-74739890D01*
X113572393Y-74708569D01*
X113562085Y-74674591D01*
X113558000Y-74633110D01*
X113558000Y-73956890D01*
X113562085Y-73915409D01*
X113572393Y-73881431D01*
X113589134Y-73850110D01*
X113611661Y-73822661D01*
X113639110Y-73800134D01*
X113670431Y-73783393D01*
X113704409Y-73773085D01*
X113745890Y-73769000D01*
X114347110Y-73769000D01*
X114388591Y-73773085D01*
G37*
G36*
X115963591Y-73773085D02*
G01*
X115997569Y-73783393D01*
X116028890Y-73800134D01*
X116056339Y-73822661D01*
X116078866Y-73850110D01*
X116095607Y-73881431D01*
X116105915Y-73915409D01*
X116110000Y-73956890D01*
X116110000Y-74633110D01*
X116105915Y-74674591D01*
X116095607Y-74708569D01*
X116078866Y-74739890D01*
X116056339Y-74767339D01*
X116028890Y-74789866D01*
X115997569Y-74806607D01*
X115963591Y-74816915D01*
X115922110Y-74821000D01*
X115320890Y-74821000D01*
X115279409Y-74816915D01*
X115245431Y-74806607D01*
X115214110Y-74789866D01*
X115186661Y-74767339D01*
X115164134Y-74739890D01*
X115147393Y-74708569D01*
X115137085Y-74674591D01*
X115133000Y-74633110D01*
X115133000Y-73956890D01*
X115137085Y-73915409D01*
X115147393Y-73881431D01*
X115164134Y-73850110D01*
X115186661Y-73822661D01*
X115214110Y-73800134D01*
X115245431Y-73783393D01*
X115279409Y-73773085D01*
X115320890Y-73769000D01*
X115922110Y-73769000D01*
X115963591Y-73773085D01*
G37*
G36*
X125032798Y-72866247D02*
G01*
X125068367Y-72877037D01*
X125101139Y-72894554D01*
X125129869Y-72918131D01*
X125153446Y-72946861D01*
X125170963Y-72979633D01*
X125181753Y-73015202D01*
X125186000Y-73058325D01*
X125186000Y-74167675D01*
X125181753Y-74210798D01*
X125170963Y-74246367D01*
X125153446Y-74279139D01*
X125129869Y-74307869D01*
X125101139Y-74331446D01*
X125068367Y-74348963D01*
X125032798Y-74359753D01*
X124989675Y-74364000D01*
X123930325Y-74364000D01*
X123887202Y-74359753D01*
X123851633Y-74348963D01*
X123818861Y-74331446D01*
X123790131Y-74307869D01*
X123766554Y-74279139D01*
X123749037Y-74246367D01*
X123738247Y-74210798D01*
X123734000Y-74167675D01*
X123734000Y-73058325D01*
X123738247Y-73015202D01*
X123749037Y-72979633D01*
X123766554Y-72946861D01*
X123790131Y-72918131D01*
X123818861Y-72894554D01*
X123851633Y-72877037D01*
X123887202Y-72866247D01*
X123930325Y-72862000D01*
X124989675Y-72862000D01*
X125032798Y-72866247D01*
G37*
G36*
X137264000Y-74273000D02*
G01*
X136012000Y-74273000D01*
X136012000Y-73171000D01*
X137264000Y-73171000D01*
X137264000Y-74273000D01*
G37*
G36*
X135514000Y-74273000D02*
G01*
X134262000Y-74273000D01*
X134262000Y-73171000D01*
X135514000Y-73171000D01*
X135514000Y-74273000D01*
G37*
G36*
X138936591Y-73150085D02*
G01*
X138970569Y-73160393D01*
X139001890Y-73177134D01*
X139029339Y-73199661D01*
X139051866Y-73227110D01*
X139068607Y-73258431D01*
X139078915Y-73292409D01*
X139083000Y-73333890D01*
X139083000Y-73935110D01*
X139078915Y-73976591D01*
X139068607Y-74010569D01*
X139051866Y-74041890D01*
X139029339Y-74069339D01*
X139001890Y-74091866D01*
X138970569Y-74108607D01*
X138936591Y-74118915D01*
X138895110Y-74123000D01*
X138218890Y-74123000D01*
X138177409Y-74118915D01*
X138143431Y-74108607D01*
X138112110Y-74091866D01*
X138084661Y-74069339D01*
X138062134Y-74041890D01*
X138045393Y-74010569D01*
X138035085Y-73976591D01*
X138031000Y-73935110D01*
X138031000Y-73333890D01*
X138035085Y-73292409D01*
X138045393Y-73258431D01*
X138062134Y-73227110D01*
X138084661Y-73199661D01*
X138112110Y-73177134D01*
X138143431Y-73160393D01*
X138177409Y-73150085D01*
X138218890Y-73146000D01*
X138895110Y-73146000D01*
X138936591Y-73150085D01*
G37*
G36*
X126744591Y-72566085D02*
G01*
X126778569Y-72576393D01*
X126809890Y-72593134D01*
X126837339Y-72615661D01*
X126859866Y-72643110D01*
X126876607Y-72674431D01*
X126886915Y-72708409D01*
X126891000Y-72749890D01*
X126891000Y-73351110D01*
X126886915Y-73392591D01*
X126876607Y-73426569D01*
X126859866Y-73457890D01*
X126837339Y-73485339D01*
X126809890Y-73507866D01*
X126778569Y-73524607D01*
X126744591Y-73534915D01*
X126703110Y-73539000D01*
X126026890Y-73539000D01*
X125985409Y-73534915D01*
X125951431Y-73524607D01*
X125920110Y-73507866D01*
X125892661Y-73485339D01*
X125870134Y-73457890D01*
X125853393Y-73426569D01*
X125843085Y-73392591D01*
X125839000Y-73351110D01*
X125839000Y-72749890D01*
X125843085Y-72708409D01*
X125853393Y-72674431D01*
X125870134Y-72643110D01*
X125892661Y-72615661D01*
X125920110Y-72593134D01*
X125951431Y-72576393D01*
X125985409Y-72566085D01*
X126026890Y-72562000D01*
X126703110Y-72562000D01*
X126744591Y-72566085D01*
G37*
G36*
X158101512Y-71239927D02*
G01*
X158250812Y-71269624D01*
X158414784Y-71337544D01*
X158562354Y-71436147D01*
X158687853Y-71561646D01*
X158786456Y-71709216D01*
X158854376Y-71873188D01*
X158889000Y-72047259D01*
X158889000Y-72224741D01*
X158854376Y-72398812D01*
X158786456Y-72562784D01*
X158687853Y-72710354D01*
X158562354Y-72835853D01*
X158414784Y-72934456D01*
X158250812Y-73002376D01*
X158101512Y-73032073D01*
X158076742Y-73037000D01*
X157899258Y-73037000D01*
X157874488Y-73032073D01*
X157725188Y-73002376D01*
X157561216Y-72934456D01*
X157413646Y-72835853D01*
X157288147Y-72710354D01*
X157189544Y-72562784D01*
X157121624Y-72398812D01*
X157087000Y-72224741D01*
X157087000Y-72047259D01*
X157121624Y-71873188D01*
X157189544Y-71709216D01*
X157288147Y-71561646D01*
X157413646Y-71436147D01*
X157561216Y-71337544D01*
X157725188Y-71269624D01*
X157874488Y-71239927D01*
X157899258Y-71235000D01*
X158076742Y-71235000D01*
X158101512Y-71239927D01*
G37*
G36*
X100172000Y-72681000D02*
G01*
X97870000Y-72681000D01*
X97870000Y-69779000D01*
X100172000Y-69779000D01*
X100172000Y-72681000D01*
G37*
G36*
X119431831Y-71009565D02*
G01*
X119465809Y-71019873D01*
X119497130Y-71036614D01*
X119524579Y-71059141D01*
X119547106Y-71086590D01*
X119563847Y-71117911D01*
X119574155Y-71151889D01*
X119578240Y-71193370D01*
X119578240Y-71869590D01*
X119574155Y-71911071D01*
X119563847Y-71945049D01*
X119547106Y-71976370D01*
X119524579Y-72003819D01*
X119497130Y-72026346D01*
X119465809Y-72043087D01*
X119431831Y-72053395D01*
X119390350Y-72057480D01*
X118789130Y-72057480D01*
X118747649Y-72053395D01*
X118713671Y-72043087D01*
X118682350Y-72026346D01*
X118654901Y-72003819D01*
X118632374Y-71976370D01*
X118615633Y-71945049D01*
X118605325Y-71911071D01*
X118601240Y-71869590D01*
X118601240Y-71193370D01*
X118605325Y-71151889D01*
X118615633Y-71117911D01*
X118632374Y-71086590D01*
X118654901Y-71059141D01*
X118682350Y-71036614D01*
X118713671Y-71019873D01*
X118747649Y-71009565D01*
X118789130Y-71005480D01*
X119390350Y-71005480D01*
X119431831Y-71009565D01*
G37*
G36*
X121006831Y-71009565D02*
G01*
X121040809Y-71019873D01*
X121072130Y-71036614D01*
X121099579Y-71059141D01*
X121122106Y-71086590D01*
X121138847Y-71117911D01*
X121149155Y-71151889D01*
X121153240Y-71193370D01*
X121153240Y-71869590D01*
X121149155Y-71911071D01*
X121138847Y-71945049D01*
X121122106Y-71976370D01*
X121099579Y-72003819D01*
X121072130Y-72026346D01*
X121040809Y-72043087D01*
X121006831Y-72053395D01*
X120965350Y-72057480D01*
X120364130Y-72057480D01*
X120322649Y-72053395D01*
X120288671Y-72043087D01*
X120257350Y-72026346D01*
X120229901Y-72003819D01*
X120207374Y-71976370D01*
X120190633Y-71945049D01*
X120180325Y-71911071D01*
X120176240Y-71869590D01*
X120176240Y-71193370D01*
X120180325Y-71151889D01*
X120190633Y-71117911D01*
X120207374Y-71086590D01*
X120229901Y-71059141D01*
X120257350Y-71036614D01*
X120288671Y-71019873D01*
X120322649Y-71009565D01*
X120364130Y-71005480D01*
X120965350Y-71005480D01*
X121006831Y-71009565D01*
G37*
G36*
X126744591Y-70991085D02*
G01*
X126778569Y-71001393D01*
X126809890Y-71018134D01*
X126837339Y-71040661D01*
X126859866Y-71068110D01*
X126876607Y-71099431D01*
X126886915Y-71133409D01*
X126891000Y-71174890D01*
X126891000Y-71776110D01*
X126886915Y-71817591D01*
X126876607Y-71851569D01*
X126859866Y-71882890D01*
X126837339Y-71910339D01*
X126809890Y-71932866D01*
X126778569Y-71949607D01*
X126744591Y-71959915D01*
X126703110Y-71964000D01*
X126026890Y-71964000D01*
X125985409Y-71959915D01*
X125951431Y-71949607D01*
X125920110Y-71932866D01*
X125892661Y-71910339D01*
X125870134Y-71882890D01*
X125853393Y-71851569D01*
X125843085Y-71817591D01*
X125839000Y-71776110D01*
X125839000Y-71174890D01*
X125843085Y-71133409D01*
X125853393Y-71099431D01*
X125870134Y-71068110D01*
X125892661Y-71040661D01*
X125920110Y-71018134D01*
X125951431Y-71001393D01*
X125985409Y-70991085D01*
X126026890Y-70987000D01*
X126703110Y-70987000D01*
X126744591Y-70991085D01*
G37*
G36*
X125032798Y-70166247D02*
G01*
X125068367Y-70177037D01*
X125101139Y-70194554D01*
X125129869Y-70218131D01*
X125153446Y-70246861D01*
X125170963Y-70279633D01*
X125181753Y-70315202D01*
X125186000Y-70358325D01*
X125186000Y-71467675D01*
X125181753Y-71510798D01*
X125170963Y-71546367D01*
X125153446Y-71579139D01*
X125129869Y-71607869D01*
X125101139Y-71631446D01*
X125068367Y-71648963D01*
X125032798Y-71659753D01*
X124989675Y-71664000D01*
X123930325Y-71664000D01*
X123887202Y-71659753D01*
X123851633Y-71648963D01*
X123818861Y-71631446D01*
X123790131Y-71607869D01*
X123766554Y-71579139D01*
X123749037Y-71546367D01*
X123738247Y-71510798D01*
X123734000Y-71467675D01*
X123734000Y-70358325D01*
X123738247Y-70315202D01*
X123749037Y-70279633D01*
X123766554Y-70246861D01*
X123790131Y-70218131D01*
X123818861Y-70194554D01*
X123851633Y-70177037D01*
X123887202Y-70166247D01*
X123930325Y-70162000D01*
X124989675Y-70162000D01*
X125032798Y-70166247D01*
G37*
G36*
X130435355Y-65045083D02*
G01*
X130443715Y-65047619D01*
X130467749Y-65052399D01*
X130492253Y-65052399D01*
X130516285Y-65047619D01*
X130524645Y-65045083D01*
X130535641Y-65044000D01*
X130824359Y-65044000D01*
X130835355Y-65045083D01*
X130843715Y-65047619D01*
X130867749Y-65052399D01*
X130892253Y-65052399D01*
X130916285Y-65047619D01*
X130924645Y-65045083D01*
X130935641Y-65044000D01*
X131224359Y-65044000D01*
X131235355Y-65045083D01*
X131243715Y-65047619D01*
X131267749Y-65052399D01*
X131292253Y-65052399D01*
X131316285Y-65047619D01*
X131324645Y-65045083D01*
X131335641Y-65044000D01*
X131624359Y-65044000D01*
X131635355Y-65045083D01*
X131643715Y-65047619D01*
X131667749Y-65052399D01*
X131692253Y-65052399D01*
X131716285Y-65047619D01*
X131724645Y-65045083D01*
X131735641Y-65044000D01*
X132024359Y-65044000D01*
X132035355Y-65045083D01*
X132043715Y-65047619D01*
X132067749Y-65052399D01*
X132092253Y-65052399D01*
X132116285Y-65047619D01*
X132124645Y-65045083D01*
X132135641Y-65044000D01*
X132424359Y-65044000D01*
X132435355Y-65045083D01*
X132443715Y-65047619D01*
X132467749Y-65052399D01*
X132492253Y-65052399D01*
X132516285Y-65047619D01*
X132524645Y-65045083D01*
X132535641Y-65044000D01*
X132824359Y-65044000D01*
X132835355Y-65045083D01*
X132843715Y-65047619D01*
X132867749Y-65052399D01*
X132892253Y-65052399D01*
X132916285Y-65047619D01*
X132924645Y-65045083D01*
X132935641Y-65044000D01*
X133224359Y-65044000D01*
X133235355Y-65045083D01*
X133243715Y-65047619D01*
X133267749Y-65052399D01*
X133292253Y-65052399D01*
X133316285Y-65047619D01*
X133324645Y-65045083D01*
X133335641Y-65044000D01*
X133624359Y-65044000D01*
X133635355Y-65045083D01*
X133643715Y-65047619D01*
X133667749Y-65052399D01*
X133692253Y-65052399D01*
X133716285Y-65047619D01*
X133724645Y-65045083D01*
X133735641Y-65044000D01*
X134024359Y-65044000D01*
X134035355Y-65045083D01*
X134040029Y-65046501D01*
X134044331Y-65048800D01*
X134048104Y-65051896D01*
X134051200Y-65055669D01*
X134053499Y-65059971D01*
X134054917Y-65064645D01*
X134056000Y-65075641D01*
X134056000Y-65844001D01*
X134058402Y-65868387D01*
X134065515Y-65891836D01*
X134077066Y-65913447D01*
X134092611Y-65932389D01*
X134111553Y-65947934D01*
X134133164Y-65959485D01*
X134156613Y-65966598D01*
X134180999Y-65969000D01*
X134949359Y-65969000D01*
X134960355Y-65970083D01*
X134965029Y-65971501D01*
X134969331Y-65973800D01*
X134973104Y-65976896D01*
X134976200Y-65980669D01*
X134978499Y-65984971D01*
X134979917Y-65989645D01*
X134981000Y-66000641D01*
X134981000Y-66289359D01*
X134979917Y-66300355D01*
X134977381Y-66308715D01*
X134972601Y-66332749D01*
X134972601Y-66357253D01*
X134977381Y-66381285D01*
X134979917Y-66389645D01*
X134981000Y-66400641D01*
X134981000Y-66689359D01*
X134979917Y-66700355D01*
X134977381Y-66708715D01*
X134972601Y-66732749D01*
X134972601Y-66757253D01*
X134977381Y-66781285D01*
X134979917Y-66789645D01*
X134981000Y-66800641D01*
X134981000Y-67089359D01*
X134979917Y-67100355D01*
X134977381Y-67108715D01*
X134972601Y-67132749D01*
X134972601Y-67157253D01*
X134977381Y-67181285D01*
X134979917Y-67189645D01*
X134981000Y-67200641D01*
X134981000Y-67489359D01*
X134979917Y-67500355D01*
X134977381Y-67508715D01*
X134972601Y-67532749D01*
X134972601Y-67557253D01*
X134977381Y-67581285D01*
X134979917Y-67589645D01*
X134981000Y-67600641D01*
X134981000Y-67889359D01*
X134979917Y-67900355D01*
X134977381Y-67908715D01*
X134972601Y-67932749D01*
X134972601Y-67957253D01*
X134977381Y-67981285D01*
X134979917Y-67989645D01*
X134981000Y-68000641D01*
X134981000Y-68289359D01*
X134979917Y-68300355D01*
X134977381Y-68308715D01*
X134972601Y-68332749D01*
X134972601Y-68357253D01*
X134977381Y-68381285D01*
X134979917Y-68389645D01*
X134981000Y-68400641D01*
X134981000Y-68689359D01*
X134979917Y-68700355D01*
X134977381Y-68708715D01*
X134972601Y-68732749D01*
X134972601Y-68757253D01*
X134977381Y-68781285D01*
X134979917Y-68789645D01*
X134981000Y-68800641D01*
X134981000Y-69089359D01*
X134979917Y-69100355D01*
X134977381Y-69108715D01*
X134972601Y-69132749D01*
X134972601Y-69157253D01*
X134977381Y-69181285D01*
X134979917Y-69189645D01*
X134981000Y-69200641D01*
X134981000Y-69489359D01*
X134979917Y-69500355D01*
X134977381Y-69508715D01*
X134972601Y-69532749D01*
X134972601Y-69557253D01*
X134977381Y-69581285D01*
X134979917Y-69589645D01*
X134981000Y-69600641D01*
X134981000Y-69889359D01*
X134979917Y-69900355D01*
X134978499Y-69905029D01*
X134976200Y-69909331D01*
X134973104Y-69913104D01*
X134969331Y-69916200D01*
X134965029Y-69918499D01*
X134960355Y-69919917D01*
X134949359Y-69921000D01*
X134180999Y-69921000D01*
X134156613Y-69923402D01*
X134133164Y-69930515D01*
X134111553Y-69942066D01*
X134092611Y-69957611D01*
X134077066Y-69976553D01*
X134065515Y-69998164D01*
X134058402Y-70021613D01*
X134056000Y-70045999D01*
X134056000Y-70814359D01*
X134054917Y-70825355D01*
X134053499Y-70830029D01*
X134051200Y-70834331D01*
X134048104Y-70838104D01*
X134044331Y-70841200D01*
X134040029Y-70843499D01*
X134035355Y-70844917D01*
X134024359Y-70846000D01*
X133735641Y-70846000D01*
X133724645Y-70844917D01*
X133716285Y-70842381D01*
X133692251Y-70837601D01*
X133667747Y-70837601D01*
X133643715Y-70842381D01*
X133635355Y-70844917D01*
X133624359Y-70846000D01*
X133335641Y-70846000D01*
X133324645Y-70844917D01*
X133316285Y-70842381D01*
X133292251Y-70837601D01*
X133267747Y-70837601D01*
X133243715Y-70842381D01*
X133235355Y-70844917D01*
X133224359Y-70846000D01*
X132935641Y-70846000D01*
X132924645Y-70844917D01*
X132916285Y-70842381D01*
X132892251Y-70837601D01*
X132867747Y-70837601D01*
X132843715Y-70842381D01*
X132835355Y-70844917D01*
X132824359Y-70846000D01*
X132535641Y-70846000D01*
X132524645Y-70844917D01*
X132516285Y-70842381D01*
X132492251Y-70837601D01*
X132467747Y-70837601D01*
X132443715Y-70842381D01*
X132435355Y-70844917D01*
X132424359Y-70846000D01*
X132135641Y-70846000D01*
X132124645Y-70844917D01*
X132116285Y-70842381D01*
X132092251Y-70837601D01*
X132067747Y-70837601D01*
X132043715Y-70842381D01*
X132035355Y-70844917D01*
X132024359Y-70846000D01*
X131735641Y-70846000D01*
X131724645Y-70844917D01*
X131716285Y-70842381D01*
X131692251Y-70837601D01*
X131667747Y-70837601D01*
X131643715Y-70842381D01*
X131635355Y-70844917D01*
X131624359Y-70846000D01*
X131335641Y-70846000D01*
X131324645Y-70844917D01*
X131316285Y-70842381D01*
X131292251Y-70837601D01*
X131267747Y-70837601D01*
X131243715Y-70842381D01*
X131235355Y-70844917D01*
X131224359Y-70846000D01*
X130935641Y-70846000D01*
X130924645Y-70844917D01*
X130916285Y-70842381D01*
X130892251Y-70837601D01*
X130867747Y-70837601D01*
X130843715Y-70842381D01*
X130835355Y-70844917D01*
X130824359Y-70846000D01*
X130535641Y-70846000D01*
X130524645Y-70844917D01*
X130516285Y-70842381D01*
X130492251Y-70837601D01*
X130467747Y-70837601D01*
X130443715Y-70842381D01*
X130435355Y-70844917D01*
X130424359Y-70846000D01*
X130135641Y-70846000D01*
X130124645Y-70844917D01*
X130119971Y-70843499D01*
X130115669Y-70841200D01*
X130111896Y-70838104D01*
X130108800Y-70834331D01*
X130106501Y-70830029D01*
X130105083Y-70825355D01*
X130104000Y-70814359D01*
X130104000Y-70045999D01*
X130101598Y-70021613D01*
X130094485Y-69998164D01*
X130082934Y-69976553D01*
X130067389Y-69957611D01*
X130048447Y-69942066D01*
X130026836Y-69930515D01*
X130003387Y-69923402D01*
X129979001Y-69921000D01*
X129210641Y-69921000D01*
X129199645Y-69919917D01*
X129194971Y-69918499D01*
X129190669Y-69916200D01*
X129186896Y-69913104D01*
X129183800Y-69909331D01*
X129181501Y-69905029D01*
X129180083Y-69900355D01*
X129179000Y-69889359D01*
X129179000Y-69600641D01*
X129180083Y-69589645D01*
X129182619Y-69581285D01*
X129187399Y-69557251D01*
X129187399Y-69532747D01*
X129182619Y-69508715D01*
X129180083Y-69500355D01*
X129179000Y-69489359D01*
X129179000Y-69200641D01*
X129180083Y-69189645D01*
X129182619Y-69181285D01*
X129187399Y-69157251D01*
X129187399Y-69132747D01*
X129182619Y-69108715D01*
X129180083Y-69100355D01*
X129179000Y-69089359D01*
X129179000Y-68800641D01*
X129180083Y-68789645D01*
X129182619Y-68781285D01*
X129187399Y-68757251D01*
X129187399Y-68732747D01*
X129182619Y-68708715D01*
X129180083Y-68700355D01*
X129179000Y-68689359D01*
X129179000Y-68400641D01*
X129180083Y-68389645D01*
X129182619Y-68381285D01*
X129187399Y-68357251D01*
X129187399Y-68332747D01*
X129182619Y-68308715D01*
X129180083Y-68300355D01*
X129179000Y-68289359D01*
X129179000Y-68000641D01*
X129180083Y-67989645D01*
X129182619Y-67981285D01*
X129187399Y-67957251D01*
X129187399Y-67932747D01*
X129182619Y-67908715D01*
X129180083Y-67900355D01*
X129179000Y-67889359D01*
X129179000Y-67600641D01*
X129180083Y-67589645D01*
X129182619Y-67581285D01*
X129187399Y-67557251D01*
X129187399Y-67532747D01*
X129182619Y-67508715D01*
X129180083Y-67500355D01*
X129179000Y-67489359D01*
X129179000Y-67200641D01*
X129180083Y-67189645D01*
X129182619Y-67181285D01*
X129187399Y-67157251D01*
X129187399Y-67132747D01*
X129182619Y-67108715D01*
X129180083Y-67100355D01*
X129179000Y-67089359D01*
X129179000Y-66800641D01*
X129180083Y-66789645D01*
X129182619Y-66781285D01*
X129187399Y-66757251D01*
X129187399Y-66732747D01*
X129182619Y-66708715D01*
X129180083Y-66700355D01*
X129179000Y-66689359D01*
X129179000Y-66400641D01*
X129180083Y-66389645D01*
X129182619Y-66381285D01*
X129187399Y-66357251D01*
X129187399Y-66332747D01*
X129182619Y-66308715D01*
X129180083Y-66300355D01*
X129179000Y-66289359D01*
X129179000Y-66000641D01*
X129180083Y-65989645D01*
X129181501Y-65984971D01*
X129183800Y-65980669D01*
X129186896Y-65976896D01*
X129190669Y-65973800D01*
X129194971Y-65971501D01*
X129199645Y-65970083D01*
X129210641Y-65969000D01*
X129979001Y-65969000D01*
X130003387Y-65966598D01*
X130026836Y-65959485D01*
X130048447Y-65947934D01*
X130067389Y-65932389D01*
X130082934Y-65913447D01*
X130094485Y-65891836D01*
X130101598Y-65868387D01*
X130104000Y-65844001D01*
X130104000Y-65075641D01*
X130105083Y-65064645D01*
X130106501Y-65059971D01*
X130108800Y-65055669D01*
X130111896Y-65051896D01*
X130115669Y-65048800D01*
X130119971Y-65046501D01*
X130124645Y-65045083D01*
X130135641Y-65044000D01*
X130424359Y-65044000D01*
X130435355Y-65045083D01*
G37*
G36*
X158101512Y-68699927D02*
G01*
X158250812Y-68729624D01*
X158414784Y-68797544D01*
X158562354Y-68896147D01*
X158687853Y-69021646D01*
X158786456Y-69169216D01*
X158854376Y-69333188D01*
X158889000Y-69507259D01*
X158889000Y-69684741D01*
X158854376Y-69858812D01*
X158786456Y-70022784D01*
X158687853Y-70170354D01*
X158562354Y-70295853D01*
X158414784Y-70394456D01*
X158250812Y-70462376D01*
X158101512Y-70492073D01*
X158076742Y-70497000D01*
X157899258Y-70497000D01*
X157874488Y-70492073D01*
X157725188Y-70462376D01*
X157561216Y-70394456D01*
X157413646Y-70295853D01*
X157288147Y-70170354D01*
X157189544Y-70022784D01*
X157121624Y-69858812D01*
X157087000Y-69684741D01*
X157087000Y-69507259D01*
X157121624Y-69333188D01*
X157189544Y-69169216D01*
X157288147Y-69021646D01*
X157413646Y-68896147D01*
X157561216Y-68797544D01*
X157725188Y-68729624D01*
X157874488Y-68699927D01*
X157899258Y-68695000D01*
X158076742Y-68695000D01*
X158101512Y-68699927D01*
G37*
G36*
X121006831Y-67834565D02*
G01*
X121040809Y-67844873D01*
X121072130Y-67861614D01*
X121099579Y-67884141D01*
X121122106Y-67911590D01*
X121138847Y-67942911D01*
X121149155Y-67976889D01*
X121153240Y-68018370D01*
X121153240Y-68694590D01*
X121149155Y-68736071D01*
X121138847Y-68770049D01*
X121122106Y-68801370D01*
X121099579Y-68828819D01*
X121072130Y-68851346D01*
X121040809Y-68868087D01*
X121006831Y-68878395D01*
X120965350Y-68882480D01*
X120364130Y-68882480D01*
X120322649Y-68878395D01*
X120288671Y-68868087D01*
X120257350Y-68851346D01*
X120229901Y-68828819D01*
X120207374Y-68801370D01*
X120190633Y-68770049D01*
X120180325Y-68736071D01*
X120176240Y-68694590D01*
X120176240Y-68018370D01*
X120180325Y-67976889D01*
X120190633Y-67942911D01*
X120207374Y-67911590D01*
X120229901Y-67884141D01*
X120257350Y-67861614D01*
X120288671Y-67844873D01*
X120322649Y-67834565D01*
X120364130Y-67830480D01*
X120965350Y-67830480D01*
X121006831Y-67834565D01*
G37*
G36*
X119431831Y-67834565D02*
G01*
X119465809Y-67844873D01*
X119497130Y-67861614D01*
X119524579Y-67884141D01*
X119547106Y-67911590D01*
X119563847Y-67942911D01*
X119574155Y-67976889D01*
X119578240Y-68018370D01*
X119578240Y-68694590D01*
X119574155Y-68736071D01*
X119563847Y-68770049D01*
X119547106Y-68801370D01*
X119524579Y-68828819D01*
X119497130Y-68851346D01*
X119465809Y-68868087D01*
X119431831Y-68878395D01*
X119390350Y-68882480D01*
X118789130Y-68882480D01*
X118747649Y-68878395D01*
X118713671Y-68868087D01*
X118682350Y-68851346D01*
X118654901Y-68828819D01*
X118632374Y-68801370D01*
X118615633Y-68770049D01*
X118605325Y-68736071D01*
X118601240Y-68694590D01*
X118601240Y-68018370D01*
X118605325Y-67976889D01*
X118615633Y-67942911D01*
X118632374Y-67911590D01*
X118654901Y-67884141D01*
X118682350Y-67861614D01*
X118713671Y-67844873D01*
X118747649Y-67834565D01*
X118789130Y-67830480D01*
X119390350Y-67830480D01*
X119431831Y-67834565D01*
G37*
G36*
X158101512Y-66159927D02*
G01*
X158250812Y-66189624D01*
X158414784Y-66257544D01*
X158562354Y-66356147D01*
X158687853Y-66481646D01*
X158786456Y-66629216D01*
X158854376Y-66793188D01*
X158889000Y-66967259D01*
X158889000Y-67144741D01*
X158854376Y-67318812D01*
X158786456Y-67482784D01*
X158687853Y-67630354D01*
X158562354Y-67755853D01*
X158414784Y-67854456D01*
X158250812Y-67922376D01*
X158101512Y-67952073D01*
X158076742Y-67957000D01*
X157899258Y-67957000D01*
X157874488Y-67952073D01*
X157725188Y-67922376D01*
X157561216Y-67854456D01*
X157413646Y-67755853D01*
X157288147Y-67630354D01*
X157189544Y-67482784D01*
X157121624Y-67318812D01*
X157087000Y-67144741D01*
X157087000Y-66967259D01*
X157121624Y-66793188D01*
X157189544Y-66629216D01*
X157288147Y-66481646D01*
X157413646Y-66356147D01*
X157561216Y-66257544D01*
X157725188Y-66189624D01*
X157874488Y-66159927D01*
X157899258Y-66155000D01*
X158076742Y-66155000D01*
X158101512Y-66159927D01*
G37*
G36*
X107872000Y-67381000D02*
G01*
X104970000Y-67381000D01*
X104970000Y-64479000D01*
X107872000Y-64479000D01*
X107872000Y-67381000D01*
G37*
G36*
X98172000Y-67381000D02*
G01*
X95870000Y-67381000D01*
X95870000Y-64479000D01*
X98172000Y-64479000D01*
X98172000Y-67381000D01*
G37*
G36*
X112139591Y-64565085D02*
G01*
X112173569Y-64575393D01*
X112204890Y-64592134D01*
X112232339Y-64614661D01*
X112254866Y-64642110D01*
X112271607Y-64673431D01*
X112281915Y-64707409D01*
X112286000Y-64748890D01*
X112286000Y-65350110D01*
X112281915Y-65391591D01*
X112271607Y-65425569D01*
X112254866Y-65456890D01*
X112232339Y-65484339D01*
X112204890Y-65506866D01*
X112173569Y-65523607D01*
X112139591Y-65533915D01*
X112098110Y-65538000D01*
X111421890Y-65538000D01*
X111380409Y-65533915D01*
X111346431Y-65523607D01*
X111315110Y-65506866D01*
X111287661Y-65484339D01*
X111265134Y-65456890D01*
X111248393Y-65425569D01*
X111238085Y-65391591D01*
X111234000Y-65350110D01*
X111234000Y-64748890D01*
X111238085Y-64707409D01*
X111248393Y-64673431D01*
X111265134Y-64642110D01*
X111287661Y-64614661D01*
X111315110Y-64592134D01*
X111346431Y-64575393D01*
X111380409Y-64565085D01*
X111421890Y-64561000D01*
X112098110Y-64561000D01*
X112139591Y-64565085D01*
G37*
G36*
X158101512Y-63619927D02*
G01*
X158250812Y-63649624D01*
X158414784Y-63717544D01*
X158562354Y-63816147D01*
X158687853Y-63941646D01*
X158786456Y-64089216D01*
X158854376Y-64253188D01*
X158889000Y-64427259D01*
X158889000Y-64604741D01*
X158854376Y-64778812D01*
X158786456Y-64942784D01*
X158687853Y-65090354D01*
X158562354Y-65215853D01*
X158414784Y-65314456D01*
X158250812Y-65382376D01*
X158101512Y-65412073D01*
X158076742Y-65417000D01*
X157899258Y-65417000D01*
X157874488Y-65412073D01*
X157725188Y-65382376D01*
X157561216Y-65314456D01*
X157413646Y-65215853D01*
X157288147Y-65090354D01*
X157189544Y-64942784D01*
X157121624Y-64778812D01*
X157087000Y-64604741D01*
X157087000Y-64427259D01*
X157121624Y-64253188D01*
X157189544Y-64089216D01*
X157288147Y-63941646D01*
X157413646Y-63816147D01*
X157561216Y-63717544D01*
X157725188Y-63649624D01*
X157874488Y-63619927D01*
X157899258Y-63615000D01*
X158076742Y-63615000D01*
X158101512Y-63619927D01*
G37*
G36*
X114388591Y-64248085D02*
G01*
X114422569Y-64258393D01*
X114453890Y-64275134D01*
X114481339Y-64297661D01*
X114503866Y-64325110D01*
X114520607Y-64356431D01*
X114530915Y-64390409D01*
X114535000Y-64431890D01*
X114535000Y-65108110D01*
X114530915Y-65149591D01*
X114520607Y-65183569D01*
X114503866Y-65214890D01*
X114481339Y-65242339D01*
X114453890Y-65264866D01*
X114422569Y-65281607D01*
X114388591Y-65291915D01*
X114347110Y-65296000D01*
X113745890Y-65296000D01*
X113704409Y-65291915D01*
X113670431Y-65281607D01*
X113639110Y-65264866D01*
X113611661Y-65242339D01*
X113589134Y-65214890D01*
X113572393Y-65183569D01*
X113562085Y-65149591D01*
X113558000Y-65108110D01*
X113558000Y-64431890D01*
X113562085Y-64390409D01*
X113572393Y-64356431D01*
X113589134Y-64325110D01*
X113611661Y-64297661D01*
X113639110Y-64275134D01*
X113670431Y-64258393D01*
X113704409Y-64248085D01*
X113745890Y-64244000D01*
X114347110Y-64244000D01*
X114388591Y-64248085D01*
G37*
G36*
X119416591Y-64248085D02*
G01*
X119450569Y-64258393D01*
X119481890Y-64275134D01*
X119509339Y-64297661D01*
X119531866Y-64325110D01*
X119548607Y-64356431D01*
X119558915Y-64390409D01*
X119563000Y-64431890D01*
X119563000Y-65108110D01*
X119558915Y-65149591D01*
X119548607Y-65183569D01*
X119531866Y-65214890D01*
X119509339Y-65242339D01*
X119481890Y-65264866D01*
X119450569Y-65281607D01*
X119416591Y-65291915D01*
X119375110Y-65296000D01*
X118773890Y-65296000D01*
X118732409Y-65291915D01*
X118698431Y-65281607D01*
X118667110Y-65264866D01*
X118639661Y-65242339D01*
X118617134Y-65214890D01*
X118600393Y-65183569D01*
X118590085Y-65149591D01*
X118586000Y-65108110D01*
X118586000Y-64431890D01*
X118590085Y-64390409D01*
X118600393Y-64356431D01*
X118617134Y-64325110D01*
X118639661Y-64297661D01*
X118667110Y-64275134D01*
X118698431Y-64258393D01*
X118732409Y-64248085D01*
X118773890Y-64244000D01*
X119375110Y-64244000D01*
X119416591Y-64248085D01*
G37*
G36*
X120991591Y-64248085D02*
G01*
X121025569Y-64258393D01*
X121056890Y-64275134D01*
X121084339Y-64297661D01*
X121106866Y-64325110D01*
X121123607Y-64356431D01*
X121133915Y-64390409D01*
X121138000Y-64431890D01*
X121138000Y-65108110D01*
X121133915Y-65149591D01*
X121123607Y-65183569D01*
X121106866Y-65214890D01*
X121084339Y-65242339D01*
X121056890Y-65264866D01*
X121025569Y-65281607D01*
X120991591Y-65291915D01*
X120950110Y-65296000D01*
X120348890Y-65296000D01*
X120307409Y-65291915D01*
X120273431Y-65281607D01*
X120242110Y-65264866D01*
X120214661Y-65242339D01*
X120192134Y-65214890D01*
X120175393Y-65183569D01*
X120165085Y-65149591D01*
X120161000Y-65108110D01*
X120161000Y-64431890D01*
X120165085Y-64390409D01*
X120175393Y-64356431D01*
X120192134Y-64325110D01*
X120214661Y-64297661D01*
X120242110Y-64275134D01*
X120273431Y-64258393D01*
X120307409Y-64248085D01*
X120348890Y-64244000D01*
X120950110Y-64244000D01*
X120991591Y-64248085D01*
G37*
G36*
X115963591Y-64248085D02*
G01*
X115997569Y-64258393D01*
X116028890Y-64275134D01*
X116056339Y-64297661D01*
X116078866Y-64325110D01*
X116095607Y-64356431D01*
X116105915Y-64390409D01*
X116110000Y-64431890D01*
X116110000Y-65108110D01*
X116105915Y-65149591D01*
X116095607Y-65183569D01*
X116078866Y-65214890D01*
X116056339Y-65242339D01*
X116028890Y-65264866D01*
X115997569Y-65281607D01*
X115963591Y-65291915D01*
X115922110Y-65296000D01*
X115320890Y-65296000D01*
X115279409Y-65291915D01*
X115245431Y-65281607D01*
X115214110Y-65264866D01*
X115186661Y-65242339D01*
X115164134Y-65214890D01*
X115147393Y-65183569D01*
X115137085Y-65149591D01*
X115133000Y-65108110D01*
X115133000Y-64431890D01*
X115137085Y-64390409D01*
X115147393Y-64356431D01*
X115164134Y-64325110D01*
X115186661Y-64297661D01*
X115214110Y-64275134D01*
X115245431Y-64258393D01*
X115279409Y-64248085D01*
X115320890Y-64244000D01*
X115922110Y-64244000D01*
X115963591Y-64248085D01*
G37*
G36*
X112139591Y-62990085D02*
G01*
X112173569Y-63000393D01*
X112204890Y-63017134D01*
X112232339Y-63039661D01*
X112254866Y-63067110D01*
X112271607Y-63098431D01*
X112281915Y-63132409D01*
X112286000Y-63173890D01*
X112286000Y-63775110D01*
X112281915Y-63816591D01*
X112271607Y-63850569D01*
X112254866Y-63881890D01*
X112232339Y-63909339D01*
X112204890Y-63931866D01*
X112173569Y-63948607D01*
X112139591Y-63958915D01*
X112098110Y-63963000D01*
X111421890Y-63963000D01*
X111380409Y-63958915D01*
X111346431Y-63948607D01*
X111315110Y-63931866D01*
X111287661Y-63909339D01*
X111265134Y-63881890D01*
X111248393Y-63850569D01*
X111238085Y-63816591D01*
X111234000Y-63775110D01*
X111234000Y-63173890D01*
X111238085Y-63132409D01*
X111248393Y-63098431D01*
X111265134Y-63067110D01*
X111287661Y-63039661D01*
X111315110Y-63017134D01*
X111346431Y-63000393D01*
X111380409Y-62990085D01*
X111421890Y-62986000D01*
X112098110Y-62986000D01*
X112139591Y-62990085D01*
G37*
G36*
X105234512Y-61333927D02*
G01*
X105383812Y-61363624D01*
X105547784Y-61431544D01*
X105695354Y-61530147D01*
X105820853Y-61655646D01*
X105919456Y-61803216D01*
X105987376Y-61967188D01*
X106022000Y-62141259D01*
X106022000Y-62318741D01*
X105987376Y-62492812D01*
X105919456Y-62656784D01*
X105820853Y-62804354D01*
X105695354Y-62929853D01*
X105547784Y-63028456D01*
X105383812Y-63096376D01*
X105234512Y-63126073D01*
X105209742Y-63131000D01*
X105032258Y-63131000D01*
X105007488Y-63126073D01*
X104858188Y-63096376D01*
X104694216Y-63028456D01*
X104546646Y-62929853D01*
X104421147Y-62804354D01*
X104322544Y-62656784D01*
X104254624Y-62492812D01*
X104220000Y-62318741D01*
X104220000Y-62141259D01*
X104254624Y-61967188D01*
X104322544Y-61803216D01*
X104421147Y-61655646D01*
X104546646Y-61530147D01*
X104694216Y-61431544D01*
X104858188Y-61363624D01*
X105007488Y-61333927D01*
X105032258Y-61329000D01*
X105209742Y-61329000D01*
X105234512Y-61333927D01*
G37*
G36*
X98234512Y-61333927D02*
G01*
X98383812Y-61363624D01*
X98547784Y-61431544D01*
X98695354Y-61530147D01*
X98820853Y-61655646D01*
X98919456Y-61803216D01*
X98987376Y-61967188D01*
X99022000Y-62141259D01*
X99022000Y-62318741D01*
X98987376Y-62492812D01*
X98919456Y-62656784D01*
X98820853Y-62804354D01*
X98695354Y-62929853D01*
X98547784Y-63028456D01*
X98383812Y-63096376D01*
X98234512Y-63126073D01*
X98209742Y-63131000D01*
X98032258Y-63131000D01*
X98007488Y-63126073D01*
X97858188Y-63096376D01*
X97694216Y-63028456D01*
X97546646Y-62929853D01*
X97421147Y-62804354D01*
X97322544Y-62656784D01*
X97254624Y-62492812D01*
X97220000Y-62318741D01*
X97220000Y-62141259D01*
X97254624Y-61967188D01*
X97322544Y-61803216D01*
X97421147Y-61655646D01*
X97546646Y-61530147D01*
X97694216Y-61431544D01*
X97858188Y-61363624D01*
X98007488Y-61333927D01*
X98032258Y-61329000D01*
X98209742Y-61329000D01*
X98234512Y-61333927D01*
G37*
G36*
X158101512Y-61079927D02*
G01*
X158250812Y-61109624D01*
X158414784Y-61177544D01*
X158562354Y-61276147D01*
X158687853Y-61401646D01*
X158786456Y-61549216D01*
X158854376Y-61713188D01*
X158884073Y-61862488D01*
X158889000Y-61887258D01*
X158889000Y-62064742D01*
X158884073Y-62089512D01*
X158854376Y-62238812D01*
X158786456Y-62402784D01*
X158687853Y-62550354D01*
X158562354Y-62675853D01*
X158414784Y-62774456D01*
X158250812Y-62842376D01*
X158101512Y-62872073D01*
X158076742Y-62877000D01*
X157899258Y-62877000D01*
X157874488Y-62872073D01*
X157725188Y-62842376D01*
X157561216Y-62774456D01*
X157413646Y-62675853D01*
X157288147Y-62550354D01*
X157189544Y-62402784D01*
X157121624Y-62238812D01*
X157091927Y-62089512D01*
X157087000Y-62064742D01*
X157087000Y-61887258D01*
X157091927Y-61862488D01*
X157121624Y-61713188D01*
X157189544Y-61549216D01*
X157288147Y-61401646D01*
X157413646Y-61276147D01*
X157561216Y-61177544D01*
X157725188Y-61109624D01*
X157874488Y-61079927D01*
X157899258Y-61075000D01*
X158076742Y-61075000D01*
X158101512Y-61079927D01*
G37*
G36*
X133032291Y-61352485D02*
G01*
X133066269Y-61362793D01*
X133097590Y-61379534D01*
X133125039Y-61402061D01*
X133147566Y-61429510D01*
X133164307Y-61460831D01*
X133174615Y-61494809D01*
X133178700Y-61536290D01*
X133178700Y-62212510D01*
X133174615Y-62253991D01*
X133164307Y-62287969D01*
X133147566Y-62319290D01*
X133125039Y-62346739D01*
X133097590Y-62369266D01*
X133066269Y-62386007D01*
X133032291Y-62396315D01*
X132990810Y-62400400D01*
X132389590Y-62400400D01*
X132348109Y-62396315D01*
X132314131Y-62386007D01*
X132282810Y-62369266D01*
X132255361Y-62346739D01*
X132232834Y-62319290D01*
X132216093Y-62287969D01*
X132205785Y-62253991D01*
X132201700Y-62212510D01*
X132201700Y-61536290D01*
X132205785Y-61494809D01*
X132216093Y-61460831D01*
X132232834Y-61429510D01*
X132255361Y-61402061D01*
X132282810Y-61379534D01*
X132314131Y-61362793D01*
X132348109Y-61352485D01*
X132389590Y-61348400D01*
X132990810Y-61348400D01*
X133032291Y-61352485D01*
G37*
G36*
X131457291Y-61352485D02*
G01*
X131491269Y-61362793D01*
X131522590Y-61379534D01*
X131550039Y-61402061D01*
X131572566Y-61429510D01*
X131589307Y-61460831D01*
X131599615Y-61494809D01*
X131603700Y-61536290D01*
X131603700Y-62212510D01*
X131599615Y-62253991D01*
X131589307Y-62287969D01*
X131572566Y-62319290D01*
X131550039Y-62346739D01*
X131522590Y-62369266D01*
X131491269Y-62386007D01*
X131457291Y-62396315D01*
X131415810Y-62400400D01*
X130814590Y-62400400D01*
X130773109Y-62396315D01*
X130739131Y-62386007D01*
X130707810Y-62369266D01*
X130680361Y-62346739D01*
X130657834Y-62319290D01*
X130641093Y-62287969D01*
X130630785Y-62253991D01*
X130626700Y-62212510D01*
X130626700Y-61536290D01*
X130630785Y-61494809D01*
X130641093Y-61460831D01*
X130657834Y-61429510D01*
X130680361Y-61402061D01*
X130707810Y-61379534D01*
X130739131Y-61362793D01*
X130773109Y-61352485D01*
X130814590Y-61348400D01*
X131415810Y-61348400D01*
X131457291Y-61352485D01*
G37*
G36*
X120991591Y-61073085D02*
G01*
X121025569Y-61083393D01*
X121056890Y-61100134D01*
X121084339Y-61122661D01*
X121106866Y-61150110D01*
X121123607Y-61181431D01*
X121133915Y-61215409D01*
X121138000Y-61256890D01*
X121138000Y-61933110D01*
X121133915Y-61974591D01*
X121123607Y-62008569D01*
X121106866Y-62039890D01*
X121084339Y-62067339D01*
X121056890Y-62089866D01*
X121025569Y-62106607D01*
X120991591Y-62116915D01*
X120950110Y-62121000D01*
X120348890Y-62121000D01*
X120307409Y-62116915D01*
X120273431Y-62106607D01*
X120242110Y-62089866D01*
X120214661Y-62067339D01*
X120192134Y-62039890D01*
X120175393Y-62008569D01*
X120165085Y-61974591D01*
X120161000Y-61933110D01*
X120161000Y-61256890D01*
X120165085Y-61215409D01*
X120175393Y-61181431D01*
X120192134Y-61150110D01*
X120214661Y-61122661D01*
X120242110Y-61100134D01*
X120273431Y-61083393D01*
X120307409Y-61073085D01*
X120348890Y-61069000D01*
X120950110Y-61069000D01*
X120991591Y-61073085D01*
G37*
G36*
X114489591Y-61073085D02*
G01*
X114523569Y-61083393D01*
X114554890Y-61100134D01*
X114582339Y-61122661D01*
X114604866Y-61150110D01*
X114621607Y-61181431D01*
X114631915Y-61215409D01*
X114636000Y-61256890D01*
X114636000Y-61933110D01*
X114631915Y-61974591D01*
X114621607Y-62008569D01*
X114604866Y-62039890D01*
X114582339Y-62067339D01*
X114554890Y-62089866D01*
X114523569Y-62106607D01*
X114489591Y-62116915D01*
X114448110Y-62121000D01*
X113846890Y-62121000D01*
X113805409Y-62116915D01*
X113771431Y-62106607D01*
X113740110Y-62089866D01*
X113712661Y-62067339D01*
X113690134Y-62039890D01*
X113673393Y-62008569D01*
X113663085Y-61974591D01*
X113659000Y-61933110D01*
X113659000Y-61256890D01*
X113663085Y-61215409D01*
X113673393Y-61181431D01*
X113690134Y-61150110D01*
X113712661Y-61122661D01*
X113740110Y-61100134D01*
X113771431Y-61083393D01*
X113805409Y-61073085D01*
X113846890Y-61069000D01*
X114448110Y-61069000D01*
X114489591Y-61073085D01*
G37*
G36*
X119416591Y-61073085D02*
G01*
X119450569Y-61083393D01*
X119481890Y-61100134D01*
X119509339Y-61122661D01*
X119531866Y-61150110D01*
X119548607Y-61181431D01*
X119558915Y-61215409D01*
X119563000Y-61256890D01*
X119563000Y-61933110D01*
X119558915Y-61974591D01*
X119548607Y-62008569D01*
X119531866Y-62039890D01*
X119509339Y-62067339D01*
X119481890Y-62089866D01*
X119450569Y-62106607D01*
X119416591Y-62116915D01*
X119375110Y-62121000D01*
X118773890Y-62121000D01*
X118732409Y-62116915D01*
X118698431Y-62106607D01*
X118667110Y-62089866D01*
X118639661Y-62067339D01*
X118617134Y-62039890D01*
X118600393Y-62008569D01*
X118590085Y-61974591D01*
X118586000Y-61933110D01*
X118586000Y-61256890D01*
X118590085Y-61215409D01*
X118600393Y-61181431D01*
X118617134Y-61150110D01*
X118639661Y-61122661D01*
X118667110Y-61100134D01*
X118698431Y-61083393D01*
X118732409Y-61073085D01*
X118773890Y-61069000D01*
X119375110Y-61069000D01*
X119416591Y-61073085D01*
G37*
G36*
X116064591Y-61073085D02*
G01*
X116098569Y-61083393D01*
X116129890Y-61100134D01*
X116157339Y-61122661D01*
X116179866Y-61150110D01*
X116196607Y-61181431D01*
X116206915Y-61215409D01*
X116211000Y-61256890D01*
X116211000Y-61933110D01*
X116206915Y-61974591D01*
X116196607Y-62008569D01*
X116179866Y-62039890D01*
X116157339Y-62067339D01*
X116129890Y-62089866D01*
X116098569Y-62106607D01*
X116064591Y-62116915D01*
X116023110Y-62121000D01*
X115421890Y-62121000D01*
X115380409Y-62116915D01*
X115346431Y-62106607D01*
X115315110Y-62089866D01*
X115287661Y-62067339D01*
X115265134Y-62039890D01*
X115248393Y-62008569D01*
X115238085Y-61974591D01*
X115234000Y-61933110D01*
X115234000Y-61256890D01*
X115238085Y-61215409D01*
X115248393Y-61181431D01*
X115265134Y-61150110D01*
X115287661Y-61122661D01*
X115315110Y-61100134D01*
X115346431Y-61083393D01*
X115380409Y-61073085D01*
X115421890Y-61069000D01*
X116023110Y-61069000D01*
X116064591Y-61073085D01*
G37*
G36*
X133850498Y-59247647D02*
G01*
X133886067Y-59258437D01*
X133918839Y-59275954D01*
X133947569Y-59299531D01*
X133971146Y-59328261D01*
X133988663Y-59361033D01*
X133999453Y-59396602D01*
X134003700Y-59439725D01*
X134003700Y-60499075D01*
X133999453Y-60542198D01*
X133988663Y-60577767D01*
X133971146Y-60610539D01*
X133947569Y-60639269D01*
X133918839Y-60662846D01*
X133886067Y-60680363D01*
X133850498Y-60691153D01*
X133807375Y-60695400D01*
X132698025Y-60695400D01*
X132654902Y-60691153D01*
X132619333Y-60680363D01*
X132586561Y-60662846D01*
X132557831Y-60639269D01*
X132534254Y-60610539D01*
X132516737Y-60577767D01*
X132505947Y-60542198D01*
X132501700Y-60499075D01*
X132501700Y-59439725D01*
X132505947Y-59396602D01*
X132516737Y-59361033D01*
X132534254Y-59328261D01*
X132557831Y-59299531D01*
X132586561Y-59275954D01*
X132619333Y-59258437D01*
X132654902Y-59247647D01*
X132698025Y-59243400D01*
X133807375Y-59243400D01*
X133850498Y-59247647D01*
G37*
G36*
X131150498Y-59247647D02*
G01*
X131186067Y-59258437D01*
X131218839Y-59275954D01*
X131247569Y-59299531D01*
X131271146Y-59328261D01*
X131288663Y-59361033D01*
X131299453Y-59396602D01*
X131303700Y-59439725D01*
X131303700Y-60499075D01*
X131299453Y-60542198D01*
X131288663Y-60577767D01*
X131271146Y-60610539D01*
X131247569Y-60639269D01*
X131218839Y-60662846D01*
X131186067Y-60680363D01*
X131150498Y-60691153D01*
X131107375Y-60695400D01*
X129998025Y-60695400D01*
X129954902Y-60691153D01*
X129919333Y-60680363D01*
X129886561Y-60662846D01*
X129857831Y-60639269D01*
X129834254Y-60610539D01*
X129816737Y-60577767D01*
X129805947Y-60542198D01*
X129801700Y-60499075D01*
X129801700Y-59439725D01*
X129805947Y-59396602D01*
X129816737Y-59361033D01*
X129834254Y-59328261D01*
X129857831Y-59299531D01*
X129886561Y-59275954D01*
X129919333Y-59258437D01*
X129954902Y-59247647D01*
X129998025Y-59243400D01*
X131107375Y-59243400D01*
X131150498Y-59247647D01*
G37*
G36*
X158101512Y-58539927D02*
G01*
X158250812Y-58569624D01*
X158414784Y-58637544D01*
X158562354Y-58736147D01*
X158687853Y-58861646D01*
X158786456Y-59009216D01*
X158854376Y-59173188D01*
X158889000Y-59347259D01*
X158889000Y-59524741D01*
X158854376Y-59698812D01*
X158786456Y-59862784D01*
X158687853Y-60010354D01*
X158562354Y-60135853D01*
X158414784Y-60234456D01*
X158250812Y-60302376D01*
X158101512Y-60332073D01*
X158076742Y-60337000D01*
X157899258Y-60337000D01*
X157874488Y-60332073D01*
X157725188Y-60302376D01*
X157561216Y-60234456D01*
X157413646Y-60135853D01*
X157288147Y-60010354D01*
X157189544Y-59862784D01*
X157121624Y-59698812D01*
X157087000Y-59524741D01*
X157087000Y-59347259D01*
X157121624Y-59173188D01*
X157189544Y-59009216D01*
X157288147Y-58861646D01*
X157413646Y-58736147D01*
X157561216Y-58637544D01*
X157725188Y-58569624D01*
X157874488Y-58539927D01*
X157899258Y-58535000D01*
X158076742Y-58535000D01*
X158101512Y-58539927D01*
G37*
G36*
X100172000Y-59981000D02*
G01*
X97870000Y-59981000D01*
X97870000Y-57079000D01*
X100172000Y-57079000D01*
X100172000Y-59981000D01*
G37*
G36*
X143483591Y-57453085D02*
G01*
X143517569Y-57463393D01*
X143548890Y-57480134D01*
X143576339Y-57502661D01*
X143598866Y-57530110D01*
X143615607Y-57561431D01*
X143625915Y-57595409D01*
X143630000Y-57636890D01*
X143630000Y-58238110D01*
X143625915Y-58279591D01*
X143615607Y-58313569D01*
X143598866Y-58344890D01*
X143576339Y-58372339D01*
X143548890Y-58394866D01*
X143517569Y-58411607D01*
X143483591Y-58421915D01*
X143442110Y-58426000D01*
X142765890Y-58426000D01*
X142724409Y-58421915D01*
X142690431Y-58411607D01*
X142659110Y-58394866D01*
X142631661Y-58372339D01*
X142609134Y-58344890D01*
X142592393Y-58313569D01*
X142582085Y-58279591D01*
X142578000Y-58238110D01*
X142578000Y-57636890D01*
X142582085Y-57595409D01*
X142592393Y-57561431D01*
X142609134Y-57530110D01*
X142631661Y-57502661D01*
X142659110Y-57480134D01*
X142690431Y-57463393D01*
X142724409Y-57453085D01*
X142765890Y-57449000D01*
X143442110Y-57449000D01*
X143483591Y-57453085D01*
G37*
G36*
X145794591Y-57453085D02*
G01*
X145828569Y-57463393D01*
X145859890Y-57480134D01*
X145887339Y-57502661D01*
X145909866Y-57530110D01*
X145926607Y-57561431D01*
X145936915Y-57595409D01*
X145941000Y-57636890D01*
X145941000Y-58238110D01*
X145936915Y-58279591D01*
X145926607Y-58313569D01*
X145909866Y-58344890D01*
X145887339Y-58372339D01*
X145859890Y-58394866D01*
X145828569Y-58411607D01*
X145794591Y-58421915D01*
X145753110Y-58426000D01*
X145076890Y-58426000D01*
X145035409Y-58421915D01*
X145001431Y-58411607D01*
X144970110Y-58394866D01*
X144942661Y-58372339D01*
X144920134Y-58344890D01*
X144903393Y-58313569D01*
X144893085Y-58279591D01*
X144889000Y-58238110D01*
X144889000Y-57636890D01*
X144893085Y-57595409D01*
X144903393Y-57561431D01*
X144920134Y-57530110D01*
X144942661Y-57502661D01*
X144970110Y-57480134D01*
X145001431Y-57463393D01*
X145035409Y-57453085D01*
X145076890Y-57449000D01*
X145753110Y-57449000D01*
X145794591Y-57453085D01*
G37*
G36*
X158889000Y-57797000D02*
G01*
X157087000Y-57797000D01*
X157087000Y-55995000D01*
X158889000Y-55995000D01*
X158889000Y-57797000D01*
G37*
G36*
X145794591Y-55878085D02*
G01*
X145828569Y-55888393D01*
X145859890Y-55905134D01*
X145887339Y-55927661D01*
X145909866Y-55955110D01*
X145926607Y-55986431D01*
X145936915Y-56020409D01*
X145941000Y-56061890D01*
X145941000Y-56663110D01*
X145936915Y-56704591D01*
X145926607Y-56738569D01*
X145909866Y-56769890D01*
X145887339Y-56797339D01*
X145859890Y-56819866D01*
X145828569Y-56836607D01*
X145794591Y-56846915D01*
X145753110Y-56851000D01*
X145076890Y-56851000D01*
X145035409Y-56846915D01*
X145001431Y-56836607D01*
X144970110Y-56819866D01*
X144942661Y-56797339D01*
X144920134Y-56769890D01*
X144903393Y-56738569D01*
X144893085Y-56704591D01*
X144889000Y-56663110D01*
X144889000Y-56061890D01*
X144893085Y-56020409D01*
X144903393Y-55986431D01*
X144920134Y-55955110D01*
X144942661Y-55927661D01*
X144970110Y-55905134D01*
X145001431Y-55888393D01*
X145035409Y-55878085D01*
X145076890Y-55874000D01*
X145753110Y-55874000D01*
X145794591Y-55878085D01*
G37*
G36*
X143483591Y-55878085D02*
G01*
X143517569Y-55888393D01*
X143548890Y-55905134D01*
X143576339Y-55927661D01*
X143598866Y-55955110D01*
X143615607Y-55986431D01*
X143625915Y-56020409D01*
X143630000Y-56061890D01*
X143630000Y-56663110D01*
X143625915Y-56704591D01*
X143615607Y-56738569D01*
X143598866Y-56769890D01*
X143576339Y-56797339D01*
X143548890Y-56819866D01*
X143517569Y-56836607D01*
X143483591Y-56846915D01*
X143442110Y-56851000D01*
X142765890Y-56851000D01*
X142724409Y-56846915D01*
X142690431Y-56836607D01*
X142659110Y-56819866D01*
X142631661Y-56797339D01*
X142609134Y-56769890D01*
X142592393Y-56738569D01*
X142582085Y-56704591D01*
X142578000Y-56663110D01*
X142578000Y-56061890D01*
X142582085Y-56020409D01*
X142592393Y-55986431D01*
X142609134Y-55955110D01*
X142631661Y-55927661D01*
X142659110Y-55905134D01*
X142690431Y-55888393D01*
X142724409Y-55878085D01*
X142765890Y-55874000D01*
X143442110Y-55874000D01*
X143483591Y-55878085D01*
G37*
G36*
X98172000Y-55951000D02*
G01*
X95870000Y-55951000D01*
X95870000Y-53049000D01*
X98172000Y-53049000D01*
X98172000Y-55951000D01*
G37*
G36*
X107872000Y-55951000D02*
G01*
X104970000Y-55951000D01*
X104970000Y-53049000D01*
X107872000Y-53049000D01*
X107872000Y-55951000D01*
G37*
G36*
X112139591Y-52373085D02*
G01*
X112173569Y-52383393D01*
X112204890Y-52400134D01*
X112232339Y-52422661D01*
X112254866Y-52450110D01*
X112271607Y-52481431D01*
X112281915Y-52515409D01*
X112286000Y-52556890D01*
X112286000Y-53158110D01*
X112281915Y-53199591D01*
X112271607Y-53233569D01*
X112254866Y-53264890D01*
X112232339Y-53292339D01*
X112204890Y-53314866D01*
X112173569Y-53331607D01*
X112139591Y-53341915D01*
X112098110Y-53346000D01*
X111421890Y-53346000D01*
X111380409Y-53341915D01*
X111346431Y-53331607D01*
X111315110Y-53314866D01*
X111287661Y-53292339D01*
X111265134Y-53264890D01*
X111248393Y-53233569D01*
X111238085Y-53199591D01*
X111234000Y-53158110D01*
X111234000Y-52556890D01*
X111238085Y-52515409D01*
X111248393Y-52481431D01*
X111265134Y-52450110D01*
X111287661Y-52422661D01*
X111315110Y-52400134D01*
X111346431Y-52383393D01*
X111380409Y-52373085D01*
X111421890Y-52369000D01*
X112098110Y-52369000D01*
X112139591Y-52373085D01*
G37*
G36*
X120991591Y-52183085D02*
G01*
X121025569Y-52193393D01*
X121056890Y-52210134D01*
X121084339Y-52232661D01*
X121106866Y-52260110D01*
X121123607Y-52291431D01*
X121133915Y-52325409D01*
X121138000Y-52366890D01*
X121138000Y-53043110D01*
X121133915Y-53084591D01*
X121123607Y-53118569D01*
X121106866Y-53149890D01*
X121084339Y-53177339D01*
X121056890Y-53199866D01*
X121025569Y-53216607D01*
X120991591Y-53226915D01*
X120950110Y-53231000D01*
X120348890Y-53231000D01*
X120307409Y-53226915D01*
X120273431Y-53216607D01*
X120242110Y-53199866D01*
X120214661Y-53177339D01*
X120192134Y-53149890D01*
X120175393Y-53118569D01*
X120165085Y-53084591D01*
X120161000Y-53043110D01*
X120161000Y-52366890D01*
X120165085Y-52325409D01*
X120175393Y-52291431D01*
X120192134Y-52260110D01*
X120214661Y-52232661D01*
X120242110Y-52210134D01*
X120273431Y-52193393D01*
X120307409Y-52183085D01*
X120348890Y-52179000D01*
X120950110Y-52179000D01*
X120991591Y-52183085D01*
G37*
G36*
X119416591Y-52183085D02*
G01*
X119450569Y-52193393D01*
X119481890Y-52210134D01*
X119509339Y-52232661D01*
X119531866Y-52260110D01*
X119548607Y-52291431D01*
X119558915Y-52325409D01*
X119563000Y-52366890D01*
X119563000Y-53043110D01*
X119558915Y-53084591D01*
X119548607Y-53118569D01*
X119531866Y-53149890D01*
X119509339Y-53177339D01*
X119481890Y-53199866D01*
X119450569Y-53216607D01*
X119416591Y-53226915D01*
X119375110Y-53231000D01*
X118773890Y-53231000D01*
X118732409Y-53226915D01*
X118698431Y-53216607D01*
X118667110Y-53199866D01*
X118639661Y-53177339D01*
X118617134Y-53149890D01*
X118600393Y-53118569D01*
X118590085Y-53084591D01*
X118586000Y-53043110D01*
X118586000Y-52366890D01*
X118590085Y-52325409D01*
X118600393Y-52291431D01*
X118617134Y-52260110D01*
X118639661Y-52232661D01*
X118667110Y-52210134D01*
X118698431Y-52193393D01*
X118732409Y-52183085D01*
X118773890Y-52179000D01*
X119375110Y-52179000D01*
X119416591Y-52183085D01*
G37*
G36*
X115963591Y-52183085D02*
G01*
X115997569Y-52193393D01*
X116028890Y-52210134D01*
X116056339Y-52232661D01*
X116078866Y-52260110D01*
X116095607Y-52291431D01*
X116105915Y-52325409D01*
X116110000Y-52366890D01*
X116110000Y-53043110D01*
X116105915Y-53084591D01*
X116095607Y-53118569D01*
X116078866Y-53149890D01*
X116056339Y-53177339D01*
X116028890Y-53199866D01*
X115997569Y-53216607D01*
X115963591Y-53226915D01*
X115922110Y-53231000D01*
X115320890Y-53231000D01*
X115279409Y-53226915D01*
X115245431Y-53216607D01*
X115214110Y-53199866D01*
X115186661Y-53177339D01*
X115164134Y-53149890D01*
X115147393Y-53118569D01*
X115137085Y-53084591D01*
X115133000Y-53043110D01*
X115133000Y-52366890D01*
X115137085Y-52325409D01*
X115147393Y-52291431D01*
X115164134Y-52260110D01*
X115186661Y-52232661D01*
X115214110Y-52210134D01*
X115245431Y-52193393D01*
X115279409Y-52183085D01*
X115320890Y-52179000D01*
X115922110Y-52179000D01*
X115963591Y-52183085D01*
G37*
G36*
X114388591Y-52183085D02*
G01*
X114422569Y-52193393D01*
X114453890Y-52210134D01*
X114481339Y-52232661D01*
X114503866Y-52260110D01*
X114520607Y-52291431D01*
X114530915Y-52325409D01*
X114535000Y-52366890D01*
X114535000Y-53043110D01*
X114530915Y-53084591D01*
X114520607Y-53118569D01*
X114503866Y-53149890D01*
X114481339Y-53177339D01*
X114453890Y-53199866D01*
X114422569Y-53216607D01*
X114388591Y-53226915D01*
X114347110Y-53231000D01*
X113745890Y-53231000D01*
X113704409Y-53226915D01*
X113670431Y-53216607D01*
X113639110Y-53199866D01*
X113611661Y-53177339D01*
X113589134Y-53149890D01*
X113572393Y-53118569D01*
X113562085Y-53084591D01*
X113558000Y-53043110D01*
X113558000Y-52366890D01*
X113562085Y-52325409D01*
X113572393Y-52291431D01*
X113589134Y-52260110D01*
X113611661Y-52232661D01*
X113639110Y-52210134D01*
X113670431Y-52193393D01*
X113704409Y-52183085D01*
X113745890Y-52179000D01*
X114347110Y-52179000D01*
X114388591Y-52183085D01*
G37*
G36*
X112139591Y-50798085D02*
G01*
X112173569Y-50808393D01*
X112204890Y-50825134D01*
X112232339Y-50847661D01*
X112254866Y-50875110D01*
X112271607Y-50906431D01*
X112281915Y-50940409D01*
X112286000Y-50981890D01*
X112286000Y-51583110D01*
X112281915Y-51624591D01*
X112271607Y-51658569D01*
X112254866Y-51689890D01*
X112232339Y-51717339D01*
X112204890Y-51739866D01*
X112173569Y-51756607D01*
X112139591Y-51766915D01*
X112098110Y-51771000D01*
X111421890Y-51771000D01*
X111380409Y-51766915D01*
X111346431Y-51756607D01*
X111315110Y-51739866D01*
X111287661Y-51717339D01*
X111265134Y-51689890D01*
X111248393Y-51658569D01*
X111238085Y-51624591D01*
X111234000Y-51583110D01*
X111234000Y-50981890D01*
X111238085Y-50940409D01*
X111248393Y-50906431D01*
X111265134Y-50875110D01*
X111287661Y-50847661D01*
X111315110Y-50825134D01*
X111346431Y-50808393D01*
X111380409Y-50798085D01*
X111421890Y-50794000D01*
X112098110Y-50794000D01*
X112139591Y-50798085D01*
G37*
G36*
X105234512Y-49903927D02*
G01*
X105383812Y-49933624D01*
X105547784Y-50001544D01*
X105695354Y-50100147D01*
X105820853Y-50225646D01*
X105919456Y-50373216D01*
X105987376Y-50537188D01*
X106022000Y-50711259D01*
X106022000Y-50888741D01*
X105987376Y-51062812D01*
X105919456Y-51226784D01*
X105820853Y-51374354D01*
X105695354Y-51499853D01*
X105547784Y-51598456D01*
X105383812Y-51666376D01*
X105234512Y-51696073D01*
X105209742Y-51701000D01*
X105032258Y-51701000D01*
X105007488Y-51696073D01*
X104858188Y-51666376D01*
X104694216Y-51598456D01*
X104546646Y-51499853D01*
X104421147Y-51374354D01*
X104322544Y-51226784D01*
X104254624Y-51062812D01*
X104220000Y-50888741D01*
X104220000Y-50711259D01*
X104254624Y-50537188D01*
X104322544Y-50373216D01*
X104421147Y-50225646D01*
X104546646Y-50100147D01*
X104694216Y-50001544D01*
X104858188Y-49933624D01*
X105007488Y-49903927D01*
X105032258Y-49899000D01*
X105209742Y-49899000D01*
X105234512Y-49903927D01*
G37*
G36*
X98234512Y-49903927D02*
G01*
X98383812Y-49933624D01*
X98547784Y-50001544D01*
X98695354Y-50100147D01*
X98820853Y-50225646D01*
X98919456Y-50373216D01*
X98987376Y-50537188D01*
X99022000Y-50711259D01*
X99022000Y-50888741D01*
X98987376Y-51062812D01*
X98919456Y-51226784D01*
X98820853Y-51374354D01*
X98695354Y-51499853D01*
X98547784Y-51598456D01*
X98383812Y-51666376D01*
X98234512Y-51696073D01*
X98209742Y-51701000D01*
X98032258Y-51701000D01*
X98007488Y-51696073D01*
X97858188Y-51666376D01*
X97694216Y-51598456D01*
X97546646Y-51499853D01*
X97421147Y-51374354D01*
X97322544Y-51226784D01*
X97254624Y-51062812D01*
X97220000Y-50888741D01*
X97220000Y-50711259D01*
X97254624Y-50537188D01*
X97322544Y-50373216D01*
X97421147Y-50225646D01*
X97546646Y-50100147D01*
X97694216Y-50001544D01*
X97858188Y-49933624D01*
X98007488Y-49903927D01*
X98032258Y-49899000D01*
X98209742Y-49899000D01*
X98234512Y-49903927D01*
G37*
G36*
X116064591Y-49008085D02*
G01*
X116098569Y-49018393D01*
X116129890Y-49035134D01*
X116157339Y-49057661D01*
X116179866Y-49085110D01*
X116196607Y-49116431D01*
X116206915Y-49150409D01*
X116211000Y-49191890D01*
X116211000Y-49868110D01*
X116206915Y-49909591D01*
X116196607Y-49943569D01*
X116179866Y-49974890D01*
X116157339Y-50002339D01*
X116129890Y-50024866D01*
X116098569Y-50041607D01*
X116064591Y-50051915D01*
X116023110Y-50056000D01*
X115421890Y-50056000D01*
X115380409Y-50051915D01*
X115346431Y-50041607D01*
X115315110Y-50024866D01*
X115287661Y-50002339D01*
X115265134Y-49974890D01*
X115248393Y-49943569D01*
X115238085Y-49909591D01*
X115234000Y-49868110D01*
X115234000Y-49191890D01*
X115238085Y-49150409D01*
X115248393Y-49116431D01*
X115265134Y-49085110D01*
X115287661Y-49057661D01*
X115315110Y-49035134D01*
X115346431Y-49018393D01*
X115380409Y-49008085D01*
X115421890Y-49004000D01*
X116023110Y-49004000D01*
X116064591Y-49008085D01*
G37*
G36*
X120991591Y-49008085D02*
G01*
X121025569Y-49018393D01*
X121056890Y-49035134D01*
X121084339Y-49057661D01*
X121106866Y-49085110D01*
X121123607Y-49116431D01*
X121133915Y-49150409D01*
X121138000Y-49191890D01*
X121138000Y-49868110D01*
X121133915Y-49909591D01*
X121123607Y-49943569D01*
X121106866Y-49974890D01*
X121084339Y-50002339D01*
X121056890Y-50024866D01*
X121025569Y-50041607D01*
X120991591Y-50051915D01*
X120950110Y-50056000D01*
X120348890Y-50056000D01*
X120307409Y-50051915D01*
X120273431Y-50041607D01*
X120242110Y-50024866D01*
X120214661Y-50002339D01*
X120192134Y-49974890D01*
X120175393Y-49943569D01*
X120165085Y-49909591D01*
X120161000Y-49868110D01*
X120161000Y-49191890D01*
X120165085Y-49150409D01*
X120175393Y-49116431D01*
X120192134Y-49085110D01*
X120214661Y-49057661D01*
X120242110Y-49035134D01*
X120273431Y-49018393D01*
X120307409Y-49008085D01*
X120348890Y-49004000D01*
X120950110Y-49004000D01*
X120991591Y-49008085D01*
G37*
G36*
X119416591Y-49008085D02*
G01*
X119450569Y-49018393D01*
X119481890Y-49035134D01*
X119509339Y-49057661D01*
X119531866Y-49085110D01*
X119548607Y-49116431D01*
X119558915Y-49150409D01*
X119563000Y-49191890D01*
X119563000Y-49868110D01*
X119558915Y-49909591D01*
X119548607Y-49943569D01*
X119531866Y-49974890D01*
X119509339Y-50002339D01*
X119481890Y-50024866D01*
X119450569Y-50041607D01*
X119416591Y-50051915D01*
X119375110Y-50056000D01*
X118773890Y-50056000D01*
X118732409Y-50051915D01*
X118698431Y-50041607D01*
X118667110Y-50024866D01*
X118639661Y-50002339D01*
X118617134Y-49974890D01*
X118600393Y-49943569D01*
X118590085Y-49909591D01*
X118586000Y-49868110D01*
X118586000Y-49191890D01*
X118590085Y-49150409D01*
X118600393Y-49116431D01*
X118617134Y-49085110D01*
X118639661Y-49057661D01*
X118667110Y-49035134D01*
X118698431Y-49018393D01*
X118732409Y-49008085D01*
X118773890Y-49004000D01*
X119375110Y-49004000D01*
X119416591Y-49008085D01*
G37*
G36*
X114489591Y-49008085D02*
G01*
X114523569Y-49018393D01*
X114554890Y-49035134D01*
X114582339Y-49057661D01*
X114604866Y-49085110D01*
X114621607Y-49116431D01*
X114631915Y-49150409D01*
X114636000Y-49191890D01*
X114636000Y-49868110D01*
X114631915Y-49909591D01*
X114621607Y-49943569D01*
X114604866Y-49974890D01*
X114582339Y-50002339D01*
X114554890Y-50024866D01*
X114523569Y-50041607D01*
X114489591Y-50051915D01*
X114448110Y-50056000D01*
X113846890Y-50056000D01*
X113805409Y-50051915D01*
X113771431Y-50041607D01*
X113740110Y-50024866D01*
X113712661Y-50002339D01*
X113690134Y-49974890D01*
X113673393Y-49943569D01*
X113663085Y-49909591D01*
X113659000Y-49868110D01*
X113659000Y-49191890D01*
X113663085Y-49150409D01*
X113673393Y-49116431D01*
X113690134Y-49085110D01*
X113712661Y-49057661D01*
X113740110Y-49035134D01*
X113771431Y-49018393D01*
X113805409Y-49008085D01*
X113846890Y-49004000D01*
X114448110Y-49004000D01*
X114489591Y-49008085D01*
G37*
G36*
X100172000Y-48551000D02*
G01*
X97870000Y-48551000D01*
X97870000Y-45649000D01*
X100172000Y-45649000D01*
X100172000Y-48551000D01*
G37*
G36*
X107872000Y-44521000D02*
G01*
X104970000Y-44521000D01*
X104970000Y-41619000D01*
X107872000Y-41619000D01*
X107872000Y-44521000D01*
G37*
G36*
X98172000Y-44521000D02*
G01*
X95870000Y-44521000D01*
X95870000Y-41619000D01*
X98172000Y-41619000D01*
X98172000Y-44521000D01*
G37*
G36*
X112139591Y-41578085D02*
G01*
X112173569Y-41588393D01*
X112204890Y-41605134D01*
X112232339Y-41627661D01*
X112254866Y-41655110D01*
X112271607Y-41686431D01*
X112281915Y-41720409D01*
X112286000Y-41761890D01*
X112286000Y-42363110D01*
X112281915Y-42404591D01*
X112271607Y-42438569D01*
X112254866Y-42469890D01*
X112232339Y-42497339D01*
X112204890Y-42519866D01*
X112173569Y-42536607D01*
X112139591Y-42546915D01*
X112098110Y-42551000D01*
X111421890Y-42551000D01*
X111380409Y-42546915D01*
X111346431Y-42536607D01*
X111315110Y-42519866D01*
X111287661Y-42497339D01*
X111265134Y-42469890D01*
X111248393Y-42438569D01*
X111238085Y-42404591D01*
X111234000Y-42363110D01*
X111234000Y-41761890D01*
X111238085Y-41720409D01*
X111248393Y-41686431D01*
X111265134Y-41655110D01*
X111287661Y-41627661D01*
X111315110Y-41605134D01*
X111346431Y-41588393D01*
X111380409Y-41578085D01*
X111421890Y-41574000D01*
X112098110Y-41574000D01*
X112139591Y-41578085D01*
G37*
G36*
X114388591Y-41388085D02*
G01*
X114422569Y-41398393D01*
X114453890Y-41415134D01*
X114481339Y-41437661D01*
X114503866Y-41465110D01*
X114520607Y-41496431D01*
X114530915Y-41530409D01*
X114535000Y-41571890D01*
X114535000Y-42248110D01*
X114530915Y-42289591D01*
X114520607Y-42323569D01*
X114503866Y-42354890D01*
X114481339Y-42382339D01*
X114453890Y-42404866D01*
X114422569Y-42421607D01*
X114388591Y-42431915D01*
X114347110Y-42436000D01*
X113745890Y-42436000D01*
X113704409Y-42431915D01*
X113670431Y-42421607D01*
X113639110Y-42404866D01*
X113611661Y-42382339D01*
X113589134Y-42354890D01*
X113572393Y-42323569D01*
X113562085Y-42289591D01*
X113558000Y-42248110D01*
X113558000Y-41571890D01*
X113562085Y-41530409D01*
X113572393Y-41496431D01*
X113589134Y-41465110D01*
X113611661Y-41437661D01*
X113639110Y-41415134D01*
X113670431Y-41398393D01*
X113704409Y-41388085D01*
X113745890Y-41384000D01*
X114347110Y-41384000D01*
X114388591Y-41388085D01*
G37*
G36*
X115963591Y-41388085D02*
G01*
X115997569Y-41398393D01*
X116028890Y-41415134D01*
X116056339Y-41437661D01*
X116078866Y-41465110D01*
X116095607Y-41496431D01*
X116105915Y-41530409D01*
X116110000Y-41571890D01*
X116110000Y-42248110D01*
X116105915Y-42289591D01*
X116095607Y-42323569D01*
X116078866Y-42354890D01*
X116056339Y-42382339D01*
X116028890Y-42404866D01*
X115997569Y-42421607D01*
X115963591Y-42431915D01*
X115922110Y-42436000D01*
X115320890Y-42436000D01*
X115279409Y-42431915D01*
X115245431Y-42421607D01*
X115214110Y-42404866D01*
X115186661Y-42382339D01*
X115164134Y-42354890D01*
X115147393Y-42323569D01*
X115137085Y-42289591D01*
X115133000Y-42248110D01*
X115133000Y-41571890D01*
X115137085Y-41530409D01*
X115147393Y-41496431D01*
X115164134Y-41465110D01*
X115186661Y-41437661D01*
X115214110Y-41415134D01*
X115245431Y-41398393D01*
X115279409Y-41388085D01*
X115320890Y-41384000D01*
X115922110Y-41384000D01*
X115963591Y-41388085D01*
G37*
G36*
X112139591Y-40003085D02*
G01*
X112173569Y-40013393D01*
X112204890Y-40030134D01*
X112232339Y-40052661D01*
X112254866Y-40080110D01*
X112271607Y-40111431D01*
X112281915Y-40145409D01*
X112286000Y-40186890D01*
X112286000Y-40788110D01*
X112281915Y-40829591D01*
X112271607Y-40863569D01*
X112254866Y-40894890D01*
X112232339Y-40922339D01*
X112204890Y-40944866D01*
X112173569Y-40961607D01*
X112139591Y-40971915D01*
X112098110Y-40976000D01*
X111421890Y-40976000D01*
X111380409Y-40971915D01*
X111346431Y-40961607D01*
X111315110Y-40944866D01*
X111287661Y-40922339D01*
X111265134Y-40894890D01*
X111248393Y-40863569D01*
X111238085Y-40829591D01*
X111234000Y-40788110D01*
X111234000Y-40186890D01*
X111238085Y-40145409D01*
X111248393Y-40111431D01*
X111265134Y-40080110D01*
X111287661Y-40052661D01*
X111315110Y-40030134D01*
X111346431Y-40013393D01*
X111380409Y-40003085D01*
X111421890Y-39999000D01*
X112098110Y-39999000D01*
X112139591Y-40003085D01*
G37*
G36*
X98234512Y-38473927D02*
G01*
X98383812Y-38503624D01*
X98547784Y-38571544D01*
X98695354Y-38670147D01*
X98820853Y-38795646D01*
X98919456Y-38943216D01*
X98987376Y-39107188D01*
X99022000Y-39281259D01*
X99022000Y-39458741D01*
X98987376Y-39632812D01*
X98919456Y-39796784D01*
X98820853Y-39944354D01*
X98695354Y-40069853D01*
X98547784Y-40168456D01*
X98383812Y-40236376D01*
X98234512Y-40266073D01*
X98209742Y-40271000D01*
X98032258Y-40271000D01*
X98007488Y-40266073D01*
X97858188Y-40236376D01*
X97694216Y-40168456D01*
X97546646Y-40069853D01*
X97421147Y-39944354D01*
X97322544Y-39796784D01*
X97254624Y-39632812D01*
X97220000Y-39458741D01*
X97220000Y-39281259D01*
X97254624Y-39107188D01*
X97322544Y-38943216D01*
X97421147Y-38795646D01*
X97546646Y-38670147D01*
X97694216Y-38571544D01*
X97858188Y-38503624D01*
X98007488Y-38473927D01*
X98032258Y-38469000D01*
X98209742Y-38469000D01*
X98234512Y-38473927D01*
G37*
G36*
X105234512Y-38473927D02*
G01*
X105383812Y-38503624D01*
X105547784Y-38571544D01*
X105695354Y-38670147D01*
X105820853Y-38795646D01*
X105919456Y-38943216D01*
X105987376Y-39107188D01*
X106022000Y-39281259D01*
X106022000Y-39458741D01*
X105987376Y-39632812D01*
X105919456Y-39796784D01*
X105820853Y-39944354D01*
X105695354Y-40069853D01*
X105547784Y-40168456D01*
X105383812Y-40236376D01*
X105234512Y-40266073D01*
X105209742Y-40271000D01*
X105032258Y-40271000D01*
X105007488Y-40266073D01*
X104858188Y-40236376D01*
X104694216Y-40168456D01*
X104546646Y-40069853D01*
X104421147Y-39944354D01*
X104322544Y-39796784D01*
X104254624Y-39632812D01*
X104220000Y-39458741D01*
X104220000Y-39281259D01*
X104254624Y-39107188D01*
X104322544Y-38943216D01*
X104421147Y-38795646D01*
X104546646Y-38670147D01*
X104694216Y-38571544D01*
X104858188Y-38503624D01*
X105007488Y-38473927D01*
X105032258Y-38469000D01*
X105209742Y-38469000D01*
X105234512Y-38473927D01*
G37*
G36*
X115963591Y-38213085D02*
G01*
X115997569Y-38223393D01*
X116028890Y-38240134D01*
X116056339Y-38262661D01*
X116078866Y-38290110D01*
X116095607Y-38321431D01*
X116105915Y-38355409D01*
X116110000Y-38396890D01*
X116110000Y-39073110D01*
X116105915Y-39114591D01*
X116095607Y-39148569D01*
X116078866Y-39179890D01*
X116056339Y-39207339D01*
X116028890Y-39229866D01*
X115997569Y-39246607D01*
X115963591Y-39256915D01*
X115922110Y-39261000D01*
X115320890Y-39261000D01*
X115279409Y-39256915D01*
X115245431Y-39246607D01*
X115214110Y-39229866D01*
X115186661Y-39207339D01*
X115164134Y-39179890D01*
X115147393Y-39148569D01*
X115137085Y-39114591D01*
X115133000Y-39073110D01*
X115133000Y-38396890D01*
X115137085Y-38355409D01*
X115147393Y-38321431D01*
X115164134Y-38290110D01*
X115186661Y-38262661D01*
X115214110Y-38240134D01*
X115245431Y-38223393D01*
X115279409Y-38213085D01*
X115320890Y-38209000D01*
X115922110Y-38209000D01*
X115963591Y-38213085D01*
G37*
G36*
X114388591Y-38213085D02*
G01*
X114422569Y-38223393D01*
X114453890Y-38240134D01*
X114481339Y-38262661D01*
X114503866Y-38290110D01*
X114520607Y-38321431D01*
X114530915Y-38355409D01*
X114535000Y-38396890D01*
X114535000Y-39073110D01*
X114530915Y-39114591D01*
X114520607Y-39148569D01*
X114503866Y-39179890D01*
X114481339Y-39207339D01*
X114453890Y-39229866D01*
X114422569Y-39246607D01*
X114388591Y-39256915D01*
X114347110Y-39261000D01*
X113745890Y-39261000D01*
X113704409Y-39256915D01*
X113670431Y-39246607D01*
X113639110Y-39229866D01*
X113611661Y-39207339D01*
X113589134Y-39179890D01*
X113572393Y-39148569D01*
X113562085Y-39114591D01*
X113558000Y-39073110D01*
X113558000Y-38396890D01*
X113562085Y-38355409D01*
X113572393Y-38321431D01*
X113589134Y-38290110D01*
X113611661Y-38262661D01*
X113639110Y-38240134D01*
X113670431Y-38223393D01*
X113704409Y-38213085D01*
X113745890Y-38209000D01*
X114347110Y-38209000D01*
X114388591Y-38213085D01*
G37*
G36*
X100172000Y-37121000D02*
G01*
X97870000Y-37121000D01*
X97870000Y-34219000D01*
X100172000Y-34219000D01*
X100172000Y-37121000D01*
G37*
G36*
X156512585Y-32768802D02*
G01*
X156662410Y-32798604D01*
X156944674Y-32915521D01*
X157198705Y-33085259D01*
X157414741Y-33301295D01*
X157584479Y-33555326D01*
X157701396Y-33837590D01*
X157761000Y-34137240D01*
X157761000Y-34442760D01*
X157701396Y-34742410D01*
X157584479Y-35024674D01*
X157414741Y-35278705D01*
X157198705Y-35494741D01*
X156944674Y-35664479D01*
X156662410Y-35781396D01*
X156512585Y-35811198D01*
X156362761Y-35841000D01*
X156057239Y-35841000D01*
X155907415Y-35811198D01*
X155757590Y-35781396D01*
X155475326Y-35664479D01*
X155221295Y-35494741D01*
X155005259Y-35278705D01*
X154835521Y-35024674D01*
X154718604Y-34742410D01*
X154659000Y-34442760D01*
X154659000Y-34137240D01*
X154718604Y-33837590D01*
X154835521Y-33555326D01*
X155005259Y-33301295D01*
X155221295Y-33085259D01*
X155475326Y-32915521D01*
X155757590Y-32798604D01*
X155907415Y-32768802D01*
X156057239Y-32739000D01*
X156362761Y-32739000D01*
X156512585Y-32768802D01*
G37*
G36*
X127302585Y-32768802D02*
G01*
X127452410Y-32798604D01*
X127734674Y-32915521D01*
X127988705Y-33085259D01*
X128204741Y-33301295D01*
X128374479Y-33555326D01*
X128491396Y-33837590D01*
X128551000Y-34137240D01*
X128551000Y-34442760D01*
X128491396Y-34742410D01*
X128374479Y-35024674D01*
X128204741Y-35278705D01*
X127988705Y-35494741D01*
X127734674Y-35664479D01*
X127452410Y-35781396D01*
X127302585Y-35811198D01*
X127152761Y-35841000D01*
X126847239Y-35841000D01*
X126697415Y-35811198D01*
X126547590Y-35781396D01*
X126265326Y-35664479D01*
X126011295Y-35494741D01*
X125795259Y-35278705D01*
X125625521Y-35024674D01*
X125508604Y-34742410D01*
X125449000Y-34442760D01*
X125449000Y-34137240D01*
X125508604Y-33837590D01*
X125625521Y-33555326D01*
X125795259Y-33301295D01*
X126011295Y-33085259D01*
X126265326Y-32915521D01*
X126547590Y-32798604D01*
X126697415Y-32768802D01*
X126847239Y-32739000D01*
X127152761Y-32739000D01*
X127302585Y-32768802D01*
G37*
M02*
